<svg width="889" height="103" viewBox="0 0 889 103" fill="none" xmlns="http://www.w3.org/2000/svg">
    <mask id="path-1-outside-1_183_1122" maskUnits="userSpaceOnUse" x="0" y="0" width="889" height="103" fill="black">
        <rect fill="white" width="889" height="103"/>
        <path d="M84.2949 35.9219C84.2949 38.4284 83.862 41.14 82.9961 44.0566C82.1302 46.9733 80.6947 49.6849 78.6895 52.1914C76.7298 54.6979 74.1549 56.7943 70.9648 58.4805C67.8203 60.1211 63.9694 60.9414 59.4121 60.9414H44.3047V76.9375H26.4629V51.9863C26.4629 50.7559 26.6908 49.6165 27.1465 48.5684C27.6022 47.4746 28.2174 46.5176 28.9922 45.6973C29.8125 44.877 30.7467 44.2389 31.7949 43.7832C32.8887 43.2819 34.0508 43.0312 35.2812 43.0312H59.4121C61.7363 43.0312 63.4909 42.4388 64.6758 41.2539C65.9062 40.069 66.5215 38.2917 66.5215 35.9219V27.9238C66.5215 25.5996 65.929 23.8223 64.7441 22.5918C63.5592 21.3613 61.7819 20.7461 59.4121 20.7461H2.40039V2.97266H59.4121C61.9186 2.97266 64.6302 3.42839 67.5469 4.33984C70.4635 5.20573 73.1523 6.61849 75.6133 8.57812C78.1198 10.5378 80.1934 13.1126 81.834 16.3027C83.4746 19.4928 84.2949 23.3665 84.2949 27.9238V35.9219ZM44.0996 92.0449C44.0996 93.2754 43.8717 94.4375 43.416 95.5312C42.9603 96.5794 42.3223 97.5137 41.502 98.334C40.7272 99.1087 39.793 99.724 38.6992 100.18C37.651 100.635 36.5117 100.863 35.2812 100.863C34.0964 100.863 32.957 100.635 31.8633 100.18C30.8151 99.724 29.8809 99.1087 29.0605 98.334C28.2858 97.5137 27.6478 96.5794 27.1465 95.5312C26.6908 94.4375 26.4629 93.2754 26.4629 92.0449C26.4629 90.86 26.6908 89.7435 27.1465 88.6953C27.6478 87.6016 28.2858 86.6673 29.0605 85.8926C29.8809 85.0723 30.8151 84.4342 31.8633 83.9785C32.957 83.4772 34.0964 83.2266 35.2812 83.2266C36.5117 83.2266 37.651 83.4772 38.6992 83.9785C39.793 84.4342 40.7272 85.0723 41.502 85.8926C42.3223 86.6673 42.9603 87.6016 43.416 88.6953C43.8717 89.7435 44.0996 90.86 44.0996 92.0449ZM184.537 35.9219C184.537 38.4284 184.104 41.14 183.238 44.0566C182.372 46.9733 180.937 49.6849 178.932 52.1914C176.972 54.6979 174.397 56.7943 171.207 58.4805C168.062 60.1211 164.212 60.9414 159.654 60.9414H144.547V76.9375H126.705V51.9863C126.705 50.7559 126.933 49.6165 127.389 48.5684C127.844 47.4746 128.46 46.5176 129.234 45.6973C130.055 44.877 130.989 44.2389 132.037 43.7832C133.131 43.2819 134.293 43.0312 135.523 43.0312H159.654C161.979 43.0312 163.733 42.4388 164.918 41.2539C166.148 40.069 166.764 38.2917 166.764 35.9219V27.9238C166.764 25.5996 166.171 23.8223 164.986 22.5918C163.801 21.3613 162.024 20.7461 159.654 20.7461H102.643V2.97266H159.654C162.161 2.97266 164.872 3.42839 167.789 4.33984C170.706 5.20573 173.395 6.61849 175.855 8.57812C178.362 10.5378 180.436 13.1126 182.076 16.3027C183.717 19.4928 184.537 23.3665 184.537 27.9238V35.9219ZM144.342 92.0449C144.342 93.2754 144.114 94.4375 143.658 95.5312C143.202 96.5794 142.564 97.5137 141.744 98.334C140.969 99.1087 140.035 99.724 138.941 100.18C137.893 100.635 136.754 100.863 135.523 100.863C134.339 100.863 133.199 100.635 132.105 100.18C131.057 99.724 130.123 99.1087 129.303 98.334C128.528 97.5137 127.89 96.5794 127.389 95.5312C126.933 94.4375 126.705 93.2754 126.705 92.0449C126.705 90.86 126.933 89.7435 127.389 88.6953C127.89 87.6016 128.528 86.6673 129.303 85.8926C130.123 85.0723 131.057 84.4342 132.105 83.9785C133.199 83.4772 134.339 83.2266 135.523 83.2266C136.754 83.2266 137.893 83.4772 138.941 83.9785C140.035 84.4342 140.969 85.0723 141.744 85.8926C142.564 86.6673 143.202 87.6016 143.658 88.6953C144.114 89.7435 144.342 90.86 144.342 92.0449ZM284.779 35.9219C284.779 38.4284 284.346 41.14 283.48 44.0566C282.615 46.9733 281.179 49.6849 279.174 52.1914C277.214 54.6979 274.639 56.7943 271.449 58.4805C268.305 60.1211 264.454 60.9414 259.896 60.9414H244.789V76.9375H226.947V51.9863C226.947 50.7559 227.175 49.6165 227.631 48.5684C228.087 47.4746 228.702 46.5176 229.477 45.6973C230.297 44.877 231.231 44.2389 232.279 43.7832C233.373 43.2819 234.535 43.0312 235.766 43.0312H259.896C262.221 43.0312 263.975 42.4388 265.16 41.2539C266.391 40.069 267.006 38.2917 267.006 35.9219V27.9238C267.006 25.5996 266.413 23.8223 265.229 22.5918C264.044 21.3613 262.266 20.7461 259.896 20.7461H202.885V2.97266H259.896C262.403 2.97266 265.115 3.42839 268.031 4.33984C270.948 5.20573 273.637 6.61849 276.098 8.57812C278.604 10.5378 280.678 13.1126 282.318 16.3027C283.959 19.4928 284.779 23.3665 284.779 27.9238V35.9219ZM244.584 92.0449C244.584 93.2754 244.356 94.4375 243.9 95.5312C243.445 96.5794 242.807 97.5137 241.986 98.334C241.212 99.1087 240.277 99.724 239.184 100.18C238.135 100.635 236.996 100.863 235.766 100.863C234.581 100.863 233.441 100.635 232.348 100.18C231.299 99.724 230.365 99.1087 229.545 98.334C228.77 97.5137 228.132 96.5794 227.631 95.5312C227.175 94.4375 226.947 93.2754 226.947 92.0449C226.947 90.86 227.175 89.7435 227.631 88.6953C228.132 87.6016 228.77 86.6673 229.545 85.8926C230.365 85.0723 231.299 84.4342 232.348 83.9785C233.441 83.4772 234.581 83.2266 235.766 83.2266C236.996 83.2266 238.135 83.4772 239.184 83.9785C240.277 84.4342 241.212 85.0723 241.986 85.8926C242.807 86.6673 243.445 87.6016 243.9 88.6953C244.356 89.7435 244.584 90.86 244.584 92.0449ZM385.021 35.9219C385.021 38.4284 384.589 41.14 383.723 44.0566C382.857 46.9733 381.421 49.6849 379.416 52.1914C377.456 54.6979 374.882 56.7943 371.691 58.4805C368.547 60.1211 364.696 60.9414 360.139 60.9414H345.031V76.9375H327.189V51.9863C327.189 50.7559 327.417 49.6165 327.873 48.5684C328.329 47.4746 328.944 46.5176 329.719 45.6973C330.539 44.877 331.473 44.2389 332.521 43.7832C333.615 43.2819 334.777 43.0312 336.008 43.0312H360.139C362.463 43.0312 364.217 42.4388 365.402 41.2539C366.633 40.069 367.248 38.2917 367.248 35.9219V27.9238C367.248 25.5996 366.656 23.8223 365.471 22.5918C364.286 21.3613 362.508 20.7461 360.139 20.7461H303.127V2.97266H360.139C362.645 2.97266 365.357 3.42839 368.273 4.33984C371.19 5.20573 373.879 6.61849 376.34 8.57812C378.846 10.5378 380.92 13.1126 382.561 16.3027C384.201 19.4928 385.021 23.3665 385.021 27.9238V35.9219ZM344.826 92.0449C344.826 93.2754 344.598 94.4375 344.143 95.5312C343.687 96.5794 343.049 97.5137 342.229 98.334C341.454 99.1087 340.52 99.724 339.426 100.18C338.378 100.635 337.238 100.863 336.008 100.863C334.823 100.863 333.684 100.635 332.59 100.18C331.542 99.724 330.607 99.1087 329.787 98.334C329.012 97.5137 328.374 96.5794 327.873 95.5312C327.417 94.4375 327.189 93.2754 327.189 92.0449C327.189 90.86 327.417 89.7435 327.873 88.6953C328.374 87.6016 329.012 86.6673 329.787 85.8926C330.607 85.0723 331.542 84.4342 332.59 83.9785C333.684 83.4772 334.823 83.2266 336.008 83.2266C337.238 83.2266 338.378 83.4772 339.426 83.9785C340.52 84.4342 341.454 85.0723 342.229 85.8926C343.049 86.6673 343.687 87.6016 344.143 88.6953C344.598 89.7435 344.826 90.86 344.826 92.0449ZM485.264 35.9219C485.264 38.4284 484.831 41.14 483.965 44.0566C483.099 46.9733 481.663 49.6849 479.658 52.1914C477.699 54.6979 475.124 56.7943 471.934 58.4805C468.789 60.1211 464.938 60.9414 460.381 60.9414H445.273V76.9375H427.432V51.9863C427.432 50.7559 427.66 49.6165 428.115 48.5684C428.571 47.4746 429.186 46.5176 429.961 45.6973C430.781 44.877 431.715 44.2389 432.764 43.7832C433.857 43.2819 435.02 43.0312 436.25 43.0312H460.381C462.705 43.0312 464.46 42.4388 465.645 41.2539C466.875 40.069 467.49 38.2917 467.49 35.9219V27.9238C467.49 25.5996 466.898 23.8223 465.713 22.5918C464.528 21.3613 462.751 20.7461 460.381 20.7461H403.369V2.97266H460.381C462.887 2.97266 465.599 3.42839 468.516 4.33984C471.432 5.20573 474.121 6.61849 476.582 8.57812C479.089 10.5378 481.162 13.1126 482.803 16.3027C484.443 19.4928 485.264 23.3665 485.264 27.9238V35.9219ZM445.068 92.0449C445.068 93.2754 444.84 94.4375 444.385 95.5312C443.929 96.5794 443.291 97.5137 442.471 98.334C441.696 99.1087 440.762 99.724 439.668 100.18C438.62 100.635 437.48 100.863 436.25 100.863C435.065 100.863 433.926 100.635 432.832 100.18C431.784 99.724 430.85 99.1087 430.029 98.334C429.255 97.5137 428.617 96.5794 428.115 95.5312C427.66 94.4375 427.432 93.2754 427.432 92.0449C427.432 90.86 427.66 89.7435 428.115 88.6953C428.617 87.6016 429.255 86.6673 430.029 85.8926C430.85 85.0723 431.784 84.4342 432.832 83.9785C433.926 83.4772 435.065 83.2266 436.25 83.2266C437.48 83.2266 438.62 83.4772 439.668 83.9785C440.762 84.4342 441.696 85.0723 442.471 85.8926C443.291 86.6673 443.929 87.6016 444.385 88.6953C444.84 89.7435 445.068 90.86 445.068 92.0449ZM585.506 35.9219C585.506 38.4284 585.073 41.14 584.207 44.0566C583.341 46.9733 581.906 49.6849 579.9 52.1914C577.941 54.6979 575.366 56.7943 572.176 58.4805C569.031 60.1211 565.18 60.9414 560.623 60.9414H545.516V76.9375H527.674V51.9863C527.674 50.7559 527.902 49.6165 528.357 48.5684C528.813 47.4746 529.428 46.5176 530.203 45.6973C531.023 44.877 531.958 44.2389 533.006 43.7832C534.1 43.2819 535.262 43.0312 536.492 43.0312H560.623C562.947 43.0312 564.702 42.4388 565.887 41.2539C567.117 40.069 567.732 38.2917 567.732 35.9219V27.9238C567.732 25.5996 567.14 23.8223 565.955 22.5918C564.77 21.3613 562.993 20.7461 560.623 20.7461H503.611V2.97266H560.623C563.13 2.97266 565.841 3.42839 568.758 4.33984C571.674 5.20573 574.363 6.61849 576.824 8.57812C579.331 10.5378 581.404 13.1126 583.045 16.3027C584.686 19.4928 585.506 23.3665 585.506 27.9238V35.9219ZM545.311 92.0449C545.311 93.2754 545.083 94.4375 544.627 95.5312C544.171 96.5794 543.533 97.5137 542.713 98.334C541.938 99.1087 541.004 99.724 539.91 100.18C538.862 100.635 537.723 100.863 536.492 100.863C535.307 100.863 534.168 100.635 533.074 100.18C532.026 99.724 531.092 99.1087 530.271 98.334C529.497 97.5137 528.859 96.5794 528.357 95.5312C527.902 94.4375 527.674 93.2754 527.674 92.0449C527.674 90.86 527.902 89.7435 528.357 88.6953C528.859 87.6016 529.497 86.6673 530.271 85.8926C531.092 85.0723 532.026 84.4342 533.074 83.9785C534.168 83.4772 535.307 83.2266 536.492 83.2266C537.723 83.2266 538.862 83.4772 539.91 83.9785C541.004 84.4342 541.938 85.0723 542.713 85.8926C543.533 86.6673 544.171 87.6016 544.627 88.6953C545.083 89.7435 545.311 90.86 545.311 92.0449ZM685.748 35.9219C685.748 38.4284 685.315 41.14 684.449 44.0566C683.583 46.9733 682.148 49.6849 680.143 52.1914C678.183 54.6979 675.608 56.7943 672.418 58.4805C669.273 60.1211 665.423 60.9414 660.865 60.9414H645.758V76.9375H627.916V51.9863C627.916 50.7559 628.144 49.6165 628.6 48.5684C629.055 47.4746 629.671 46.5176 630.445 45.6973C631.266 44.877 632.2 44.2389 633.248 43.7832C634.342 43.2819 635.504 43.0312 636.734 43.0312H660.865C663.189 43.0312 664.944 42.4388 666.129 41.2539C667.359 40.069 667.975 38.2917 667.975 35.9219V27.9238C667.975 25.5996 667.382 23.8223 666.197 22.5918C665.012 21.3613 663.235 20.7461 660.865 20.7461H603.854V2.97266H660.865C663.372 2.97266 666.083 3.42839 669 4.33984C671.917 5.20573 674.605 6.61849 677.066 8.57812C679.573 10.5378 681.646 13.1126 683.287 16.3027C684.928 19.4928 685.748 23.3665 685.748 27.9238V35.9219ZM645.553 92.0449C645.553 93.2754 645.325 94.4375 644.869 95.5312C644.413 96.5794 643.775 97.5137 642.955 98.334C642.18 99.1087 641.246 99.724 640.152 100.18C639.104 100.635 637.965 100.863 636.734 100.863C635.549 100.863 634.41 100.635 633.316 100.18C632.268 99.724 631.334 99.1087 630.514 98.334C629.739 97.5137 629.101 96.5794 628.6 95.5312C628.144 94.4375 627.916 93.2754 627.916 92.0449C627.916 90.86 628.144 89.7435 628.6 88.6953C629.101 87.6016 629.739 86.6673 630.514 85.8926C631.334 85.0723 632.268 84.4342 633.316 83.9785C634.41 83.4772 635.549 83.2266 636.734 83.2266C637.965 83.2266 639.104 83.4772 640.152 83.9785C641.246 84.4342 642.18 85.0723 642.955 85.8926C643.775 86.6673 644.413 87.6016 644.869 88.6953C645.325 89.7435 645.553 90.86 645.553 92.0449ZM785.99 35.9219C785.99 38.4284 785.557 41.14 784.691 44.0566C783.826 46.9733 782.39 49.6849 780.385 52.1914C778.425 54.6979 775.85 56.7943 772.66 58.4805C769.516 60.1211 765.665 60.9414 761.107 60.9414H746V76.9375H728.158V51.9863C728.158 50.7559 728.386 49.6165 728.842 48.5684C729.298 47.4746 729.913 46.5176 730.688 45.6973C731.508 44.877 732.442 44.2389 733.49 43.7832C734.584 43.2819 735.746 43.0312 736.977 43.0312H761.107C763.432 43.0312 765.186 42.4388 766.371 41.2539C767.602 40.069 768.217 38.2917 768.217 35.9219V27.9238C768.217 25.5996 767.624 23.8223 766.439 22.5918C765.255 21.3613 763.477 20.7461 761.107 20.7461H704.096V2.97266H761.107C763.614 2.97266 766.326 3.42839 769.242 4.33984C772.159 5.20573 774.848 6.61849 777.309 8.57812C779.815 10.5378 781.889 13.1126 783.529 16.3027C785.17 19.4928 785.99 23.3665 785.99 27.9238V35.9219ZM745.795 92.0449C745.795 93.2754 745.567 94.4375 745.111 95.5312C744.656 96.5794 744.018 97.5137 743.197 98.334C742.423 99.1087 741.488 99.724 740.395 100.18C739.346 100.635 738.207 100.863 736.977 100.863C735.792 100.863 734.652 100.635 733.559 100.18C732.51 99.724 731.576 99.1087 730.756 98.334C729.981 97.5137 729.343 96.5794 728.842 95.5312C728.386 94.4375 728.158 93.2754 728.158 92.0449C728.158 90.86 728.386 89.7435 728.842 88.6953C729.343 87.6016 729.981 86.6673 730.756 85.8926C731.576 85.0723 732.51 84.4342 733.559 83.9785C734.652 83.4772 735.792 83.2266 736.977 83.2266C738.207 83.2266 739.346 83.4772 740.395 83.9785C741.488 84.4342 742.423 85.0723 743.197 85.8926C744.018 86.6673 744.656 87.6016 745.111 88.6953C745.567 89.7435 745.795 90.86 745.795 92.0449ZM886.232 35.9219C886.232 38.4284 885.799 41.14 884.934 44.0566C884.068 46.9733 882.632 49.6849 880.627 52.1914C878.667 54.6979 876.092 56.7943 872.902 58.4805C869.758 60.1211 865.907 60.9414 861.35 60.9414H846.242V76.9375H828.4V51.9863C828.4 50.7559 828.628 49.6165 829.084 48.5684C829.54 47.4746 830.155 46.5176 830.93 45.6973C831.75 44.877 832.684 44.2389 833.732 43.7832C834.826 43.2819 835.988 43.0312 837.219 43.0312H861.35C863.674 43.0312 865.428 42.4388 866.613 41.2539C867.844 40.069 868.459 38.2917 868.459 35.9219V27.9238C868.459 25.5996 867.867 23.8223 866.682 22.5918C865.497 21.3613 863.719 20.7461 861.35 20.7461H804.338V2.97266H861.35C863.856 2.97266 866.568 3.42839 869.484 4.33984C872.401 5.20573 875.09 6.61849 877.551 8.57812C880.057 10.5378 882.131 13.1126 883.771 16.3027C885.412 19.4928 886.232 23.3665 886.232 27.9238V35.9219ZM846.037 92.0449C846.037 93.2754 845.809 94.4375 845.354 95.5312C844.898 96.5794 844.26 97.5137 843.439 98.334C842.665 99.1087 841.73 99.724 840.637 100.18C839.589 100.635 838.449 100.863 837.219 100.863C836.034 100.863 834.895 100.635 833.801 100.18C832.753 99.724 831.818 99.1087 830.998 98.334C830.223 97.5137 829.585 96.5794 829.084 95.5312C828.628 94.4375 828.4 93.2754 828.4 92.0449C828.4 90.86 828.628 89.7435 829.084 88.6953C829.585 87.6016 830.223 86.6673 830.998 85.8926C831.818 85.0723 832.753 84.4342 833.801 83.9785C834.895 83.4772 836.034 83.2266 837.219 83.2266C838.449 83.2266 839.589 83.4772 840.637 83.9785C841.73 84.4342 842.665 85.0723 843.439 85.8926C844.26 86.6673 844.898 87.6016 845.354 88.6953C845.809 89.7435 846.037 90.86 846.037 92.0449Z"/>
    </mask>
    <path d="M78.6895 52.1914L77.1277 50.942L77.1207 50.9508L77.1138 50.9596L78.6895 52.1914ZM70.9648 58.4805L71.89 60.2537L71.8995 60.2487L70.9648 58.4805ZM44.3047 60.9414V58.9414H42.3047V60.9414H44.3047ZM44.3047 76.9375V78.9375H46.3047V76.9375H44.3047ZM26.4629 76.9375H24.4629V78.9375H26.4629V76.9375ZM27.1465 48.5684L28.9806 49.3658L28.9867 49.3517L28.9926 49.3376L27.1465 48.5684ZM28.9922 45.6973L27.578 44.2831L27.5578 44.3033L27.5382 44.324L28.9922 45.6973ZM31.7949 43.7832L32.5924 45.6173L32.6104 45.6095L32.6282 45.6013L31.7949 43.7832ZM64.6758 41.2539L63.2885 39.8133L63.2749 39.8264L63.2616 39.8397L64.6758 41.2539ZM2.40039 20.7461H0.400391V22.7461H2.40039V20.7461ZM2.40039 2.97266V0.972656H0.400391V2.97266H2.40039ZM67.5469 4.33984L66.9503 6.2488L66.964 6.25307L66.9777 6.25714L67.5469 4.33984ZM75.6133 8.57812L74.3674 10.1427L74.3744 10.1482L74.3814 10.1537L75.6133 8.57812ZM43.416 95.5312L45.2502 96.3287L45.2563 96.3146L45.2622 96.3005L43.416 95.5312ZM41.502 98.334L42.9162 99.7482L41.502 98.334ZM38.6992 100.18L37.93 98.3335L37.9158 98.3394L37.9018 98.3456L38.6992 100.18ZM31.8633 100.18L31.0658 102.014L31.0799 102.02L31.0941 102.026L31.8633 100.18ZM29.0605 98.334L27.6065 99.7072L27.6458 99.7488L27.6873 99.788L29.0605 98.334ZM27.1465 95.5312L25.3003 96.3005L25.3201 96.3479L25.3422 96.3942L27.1465 95.5312ZM27.1465 88.6953L25.3284 87.862L25.3202 87.8799L25.3123 87.8979L27.1465 88.6953ZM29.0605 85.8926L27.6463 84.4784L29.0605 85.8926ZM31.8633 83.9785L32.6607 85.8127L32.6787 85.8048L32.6966 85.7966L31.8633 83.9785ZM38.6992 83.9785L37.8363 85.7828L37.8826 85.8049L37.93 85.8247L38.6992 83.9785ZM41.502 85.8926L40.0479 87.2658L40.0872 87.3074L40.1287 87.3466L41.502 85.8926ZM43.416 88.6953L41.5699 89.4645L41.5758 89.4787L41.5819 89.4928L43.416 88.6953ZM82.2949 35.9219C82.2949 38.1997 81.9011 40.7175 81.0788 43.4874L84.9134 44.6258C85.8228 41.5624 86.2949 38.6571 86.2949 35.9219H82.2949ZM81.0788 43.4874C80.2904 46.1431 78.9806 48.6259 77.1277 50.942L80.2512 53.4408C82.4087 50.7439 83.97 47.8035 84.9134 44.6258L81.0788 43.4874ZM77.1138 50.9596C75.3496 53.2162 73.0047 55.1401 70.0302 56.7123L71.8995 60.2487C75.3052 58.4485 78.1101 56.1796 80.2651 53.4232L77.1138 50.9596ZM70.0397 56.7073C67.2505 58.1625 63.7364 58.9414 59.4121 58.9414V62.9414C64.2024 62.9414 68.3901 62.0797 71.89 60.2536L70.0397 56.7073ZM59.4121 58.9414H44.3047V62.9414H59.4121V58.9414ZM42.3047 60.9414V76.9375H46.3047V60.9414H42.3047ZM44.3047 74.9375H26.4629V78.9375H44.3047V74.9375ZM28.4629 76.9375V51.9863H24.4629V76.9375H28.4629ZM28.4629 51.9863C28.4629 51.009 28.6425 50.1436 28.9806 49.3658L25.3123 47.7709C24.739 49.0895 24.4629 50.5027 24.4629 51.9863H28.4629ZM28.9926 49.3376C29.36 48.4559 29.8459 47.7062 30.4462 47.0705L27.5382 44.324C26.589 45.329 25.8444 46.4933 25.3003 47.7991L28.9926 49.3376ZM30.4064 47.1115C31.052 46.4659 31.7778 45.9715 32.5924 45.6173L30.9975 41.9491C29.7157 42.5064 28.573 43.288 27.578 44.2831L30.4064 47.1115ZM32.6282 45.6013C33.4545 45.2226 34.3317 45.0312 35.2812 45.0312V41.0312C33.7699 41.0312 32.3229 41.3412 30.9616 41.9651L32.6282 45.6013ZM35.2812 45.0312H59.4121V41.0312H35.2812V45.0312ZM59.4121 45.0312C62.0577 45.0312 64.4043 44.3538 66.09 42.6681L63.2616 39.8397C62.5774 40.5238 61.415 41.0312 59.4121 41.0312V45.0312ZM66.0631 42.6945C67.8171 41.0055 68.5215 38.6196 68.5215 35.9219H64.5215C64.5215 37.9638 63.9954 39.1325 63.2885 39.8133L66.0631 42.6945ZM68.5215 35.9219V27.9238H64.5215V35.9219H68.5215ZM68.5215 27.9238C68.5215 25.2725 67.8418 22.9253 66.1848 21.2045L63.3035 23.9791C64.0163 24.7193 64.5215 25.9267 64.5215 27.9238H68.5215ZM66.1848 21.2045C64.4957 19.4505 62.1098 18.7461 59.4121 18.7461V22.7461C61.454 22.7461 62.6228 23.2722 63.3035 23.9791L66.1848 21.2045ZM59.4121 18.7461H2.40039V22.7461H59.4121V18.7461ZM4.40039 20.7461V2.97266H0.400391V20.7461H4.40039ZM2.40039 4.97266H59.4121V0.972656H2.40039V4.97266ZM59.4121 4.97266C61.6777 4.97266 64.1861 5.38497 66.9503 6.2488L68.1434 2.43089C65.0744 1.47181 62.1596 0.972656 59.4121 0.972656V4.97266ZM66.9777 6.25714C69.6399 7.04747 72.1004 8.33743 74.3674 10.1427L76.8591 7.01357C74.2043 4.89955 71.2872 3.36399 68.1161 2.42255L66.9777 6.25714ZM74.3814 10.1537C76.6326 11.9137 78.5302 14.2517 80.0554 17.2174L83.6126 15.388C81.8566 11.9736 79.607 9.16178 76.8451 7.00251L74.3814 10.1537ZM80.0554 17.2174C81.5165 20.0585 82.2949 23.6009 82.2949 27.9238H86.2949C86.2949 23.1321 85.4327 18.9272 83.6126 15.388L80.0554 17.2174ZM82.2949 27.9238V35.9219H86.2949V27.9238H82.2949ZM42.0996 92.0449C42.0996 93.0217 41.9201 93.9214 41.5699 94.762L45.2622 96.3005C45.8234 94.9536 46.0996 93.5291 46.0996 92.0449H42.0996ZM41.5819 94.7338C41.2277 95.5484 40.7333 96.2742 40.0877 96.9198L42.9162 99.7482C43.9112 98.7532 44.6929 97.6105 45.2502 96.3287L41.5819 94.7338ZM40.0877 96.9198C39.5123 97.4952 38.8024 97.97 37.93 98.3335L39.4684 102.026C40.7835 101.478 41.9421 100.722 42.9162 99.7482L40.0877 96.9198ZM37.9018 98.3456C37.124 98.6837 36.2586 98.8633 35.2812 98.8633V102.863C36.7648 102.863 38.1781 102.587 39.4967 102.014L37.9018 98.3456ZM35.2812 98.8633C34.3604 98.8633 33.4825 98.6877 32.6325 98.3335L31.0941 102.026C32.4315 102.583 33.8323 102.863 35.2812 102.863V98.8633ZM32.6607 98.3456C31.8223 97.981 31.0834 97.4935 30.4338 96.88L27.6873 99.788C28.6783 100.724 29.808 101.467 31.0658 102.014L32.6607 98.3456ZM30.5146 96.9607C29.8866 96.2958 29.3652 95.5349 28.9508 94.6683L25.3422 96.3942C25.9304 97.624 26.685 98.7315 27.6065 99.7072L30.5146 96.9607ZM28.9926 94.762C28.6424 93.9214 28.4629 93.0217 28.4629 92.0449H24.4629C24.4629 93.5291 24.7391 94.9536 25.3003 96.3005L28.9926 94.762ZM28.4629 92.0449C28.4629 91.1241 28.6383 90.28 28.9806 89.4928L25.3123 87.8979C24.7432 89.2069 24.4629 90.5959 24.4629 92.0449H28.4629ZM28.9646 89.5286C29.3766 88.6298 29.8838 87.8977 30.4748 87.3068L27.6463 84.4784C26.6878 85.4369 25.919 86.5733 25.3284 87.862L28.9646 89.5286ZM30.4748 87.3068C31.1204 86.6612 31.8462 86.1668 32.6607 85.8127L31.0658 82.1444C29.784 82.7017 28.6413 83.4833 27.6463 84.4784L30.4748 87.3068ZM32.6966 85.7966C33.533 85.4133 34.3885 85.2266 35.2812 85.2266V81.2266C33.8042 81.2266 32.381 81.5412 31.03 82.1604L32.6966 85.7966ZM35.2812 85.2266C36.2311 85.2266 37.0734 85.4179 37.8363 85.7828L39.5621 82.1742C38.2287 81.5365 36.7923 81.2266 35.2812 81.2266V85.2266ZM37.93 85.8247C38.7781 86.178 39.4754 86.6596 40.0479 87.2658L42.956 84.5193C41.979 83.4849 40.8078 82.6904 39.4684 82.1324L37.93 85.8247ZM40.1287 87.3466C40.7349 87.9191 41.2165 88.6164 41.5699 89.4645L45.2622 87.9261C44.7041 86.5867 43.9096 85.4155 42.8752 84.4386L40.1287 87.3466ZM41.5819 89.4928C41.9242 90.28 42.0996 91.1241 42.0996 92.0449H46.0996C46.0996 90.5959 45.8193 89.2069 45.2502 87.8979L41.5819 89.4928ZM178.932 52.1914L177.37 50.942L177.363 50.9508L177.356 50.9596L178.932 52.1914ZM171.207 58.4805L172.132 60.2537L172.142 60.2487L171.207 58.4805ZM144.547 60.9414V58.9414H142.547V60.9414H144.547ZM144.547 76.9375V78.9375H146.547V76.9375H144.547ZM126.705 76.9375H124.705V78.9375H126.705V76.9375ZM127.389 48.5684L129.223 49.3658L129.229 49.3517L129.235 49.3376L127.389 48.5684ZM129.234 45.6973L127.82 44.2831L127.8 44.3033L127.78 44.324L129.234 45.6973ZM132.037 43.7832L132.835 45.6173L132.853 45.6095L132.87 45.6013L132.037 43.7832ZM164.918 41.2539L163.531 39.8133L163.517 39.8264L163.504 39.8397L164.918 41.2539ZM102.643 20.7461H100.643V22.7461H102.643V20.7461ZM102.643 2.97266V0.972656H100.643V2.97266H102.643ZM167.789 4.33984L167.193 6.2488L167.206 6.25307L167.22 6.25714L167.789 4.33984ZM175.855 8.57812L174.61 10.1427L174.617 10.1482L174.624 10.1537L175.855 8.57812ZM143.658 95.5312L145.492 96.3287L145.498 96.3146L145.504 96.3005L143.658 95.5312ZM141.744 98.334L143.158 99.7482L141.744 98.334ZM138.941 100.18L138.172 98.3335L138.158 98.3394L138.144 98.3456L138.941 100.18ZM132.105 100.18L131.308 102.014L131.322 102.02L131.336 102.026L132.105 100.18ZM129.303 98.334L127.849 99.7072L127.888 99.7488L127.929 99.788L129.303 98.334ZM127.389 95.5312L125.543 96.3005L125.562 96.3479L125.584 96.3942L127.389 95.5312ZM127.389 88.6953L125.571 87.862L125.562 87.8799L125.555 87.8979L127.389 88.6953ZM129.303 85.8926L127.889 84.4784L129.303 85.8926ZM132.105 83.9785L132.903 85.8127L132.921 85.8048L132.939 85.7966L132.105 83.9785ZM138.941 83.9785L138.078 85.7828L138.125 85.8049L138.172 85.8247L138.941 83.9785ZM141.744 85.8926L140.29 87.2658L140.329 87.3074L140.371 87.3466L141.744 85.8926ZM143.658 88.6953L141.812 89.4645L141.818 89.4787L141.824 89.4928L143.658 88.6953ZM182.537 35.9219C182.537 38.1997 182.143 40.7175 181.321 43.4874L185.156 44.6258C186.065 41.5624 186.537 38.6571 186.537 35.9219H182.537ZM181.321 43.4874C180.533 46.1431 179.223 48.6259 177.37 50.942L180.493 53.4408C182.651 50.7439 184.212 47.8035 185.156 44.6258L181.321 43.4874ZM177.356 50.9596C175.592 53.2162 173.247 55.1401 170.272 56.7123L172.142 60.2487C175.547 58.4485 178.352 56.1796 180.507 53.4232L177.356 50.9596ZM170.282 56.7073C167.493 58.1625 163.979 58.9414 159.654 58.9414V62.9414C164.445 62.9414 168.632 62.0797 172.132 60.2536L170.282 56.7073ZM159.654 58.9414H144.547V62.9414H159.654V58.9414ZM142.547 60.9414V76.9375H146.547V60.9414H142.547ZM144.547 74.9375H126.705V78.9375H144.547V74.9375ZM128.705 76.9375V51.9863H124.705V76.9375H128.705ZM128.705 51.9863C128.705 51.009 128.885 50.1436 129.223 49.3658L125.555 47.7709C124.981 49.0895 124.705 50.5027 124.705 51.9863H128.705ZM129.235 49.3376C129.602 48.4559 130.088 47.7062 130.688 47.0705L127.78 44.324C126.831 45.329 126.087 46.4933 125.543 47.7991L129.235 49.3376ZM130.649 47.1115C131.294 46.4659 132.02 45.9715 132.835 45.6173L131.24 41.9491C129.958 42.5064 128.815 43.288 127.82 44.2831L130.649 47.1115ZM132.87 45.6013C133.697 45.2226 134.574 45.0312 135.523 45.0312V41.0312C134.012 41.0312 132.565 41.3412 131.204 41.9651L132.87 45.6013ZM135.523 45.0312H159.654V41.0312H135.523V45.0312ZM159.654 45.0312C162.3 45.0312 164.647 44.3538 166.332 42.6681L163.504 39.8397C162.82 40.5238 161.657 41.0312 159.654 41.0312V45.0312ZM166.305 42.6945C168.059 41.0055 168.764 38.6196 168.764 35.9219H164.764C164.764 37.9638 164.238 39.1325 163.531 39.8133L166.305 42.6945ZM168.764 35.9219V27.9238H164.764V35.9219H168.764ZM168.764 27.9238C168.764 25.2725 168.084 22.9253 166.427 21.2045L163.546 23.9791C164.258 24.7193 164.764 25.9267 164.764 27.9238H168.764ZM166.427 21.2045C164.738 19.4505 162.352 18.7461 159.654 18.7461V22.7461C161.696 22.7461 162.865 23.2722 163.546 23.9791L166.427 21.2045ZM159.654 18.7461H102.643V22.7461H159.654V18.7461ZM104.643 20.7461V2.97266H100.643V20.7461H104.643ZM102.643 4.97266H159.654V0.972656H102.643V4.97266ZM159.654 4.97266C161.92 4.97266 164.428 5.38497 167.193 6.2488L168.386 2.43089C165.317 1.47181 162.402 0.972656 159.654 0.972656V4.97266ZM167.22 6.25714C169.882 7.04747 172.343 8.33743 174.61 10.1427L177.101 7.01357C174.447 4.89955 171.529 3.36399 168.358 2.42255L167.22 6.25714ZM174.624 10.1537C176.875 11.9137 178.772 14.2517 180.298 17.2174L183.855 15.388C182.099 11.9736 179.849 9.16178 177.087 7.00251L174.624 10.1537ZM180.298 17.2174C181.759 20.0585 182.537 23.6009 182.537 27.9238H186.537C186.537 23.1321 185.675 18.9272 183.855 15.388L180.298 17.2174ZM182.537 27.9238V35.9219H186.537V27.9238H182.537ZM142.342 92.0449C142.342 93.0217 142.162 93.9214 141.812 94.762L145.504 96.3005C146.066 94.9536 146.342 93.5291 146.342 92.0449H142.342ZM141.824 94.7338C141.47 95.5484 140.976 96.2742 140.33 96.9198L143.158 99.7482C144.153 98.7532 144.935 97.6105 145.492 96.3287L141.824 94.7338ZM140.33 96.9198C139.755 97.4952 139.045 97.97 138.172 98.3335L139.711 102.026C141.026 101.478 142.184 100.722 143.158 99.7482L140.33 96.9198ZM138.144 98.3456C137.366 98.6837 136.501 98.8633 135.523 98.8633V102.863C137.007 102.863 138.42 102.587 139.739 102.014L138.144 98.3456ZM135.523 98.8633C134.603 98.8633 133.725 98.6877 132.875 98.3335L131.336 102.026C132.674 102.583 134.074 102.863 135.523 102.863V98.8633ZM132.903 98.3456C132.064 97.981 131.326 97.4935 130.676 96.88L127.929 99.788C128.92 100.724 130.05 101.467 131.308 102.014L132.903 98.3456ZM130.757 96.9607C130.129 96.2958 129.607 95.5349 129.193 94.6683L125.584 96.3942C126.173 97.624 126.927 98.7315 127.849 99.7072L130.757 96.9607ZM129.235 94.762C128.885 93.9214 128.705 93.0217 128.705 92.0449H124.705C124.705 93.5291 124.981 94.9536 125.543 96.3005L129.235 94.762ZM128.705 92.0449C128.705 91.1241 128.881 90.28 129.223 89.4928L125.555 87.8979C124.985 89.2069 124.705 90.5959 124.705 92.0449H128.705ZM129.207 89.5286C129.619 88.6298 130.126 87.8977 130.717 87.3068L127.889 84.4784C126.93 85.4369 126.161 86.5733 125.571 87.862L129.207 89.5286ZM130.717 87.3068C131.363 86.6612 132.088 86.1668 132.903 85.8127L131.308 82.1444C130.026 82.7017 128.884 83.4833 127.889 84.4784L130.717 87.3068ZM132.939 85.7966C133.775 85.4133 134.631 85.2266 135.523 85.2266V81.2266C134.046 81.2266 132.623 81.5412 131.272 82.1604L132.939 85.7966ZM135.523 85.2266C136.473 85.2266 137.316 85.4179 138.078 85.7828L139.804 82.1742C138.471 81.5365 137.035 81.2266 135.523 81.2266V85.2266ZM138.172 85.8247C139.02 86.178 139.718 86.6596 140.29 87.2658L143.198 84.5193C142.221 83.4849 141.05 82.6904 139.711 82.1324L138.172 85.8247ZM140.371 87.3466C140.977 87.9191 141.459 88.6164 141.812 89.4645L145.504 87.9261C144.946 86.5867 144.152 85.4155 143.117 84.4386L140.371 87.3466ZM141.824 89.4928C142.166 90.28 142.342 91.1241 142.342 92.0449H146.342C146.342 90.5959 146.062 89.2069 145.492 87.8979L141.824 89.4928ZM279.174 52.1914L277.612 50.942L277.605 50.9508L277.598 50.9596L279.174 52.1914ZM271.449 58.4805L272.374 60.2537L272.384 60.2487L271.449 58.4805ZM244.789 60.9414V58.9414H242.789V60.9414H244.789ZM244.789 76.9375V78.9375H246.789V76.9375H244.789ZM226.947 76.9375H224.947V78.9375H226.947V76.9375ZM227.631 48.5684L229.465 49.3658L229.471 49.3517L229.477 49.3376L227.631 48.5684ZM229.477 45.6973L228.062 44.2831L228.042 44.3033L228.023 44.324L229.477 45.6973ZM232.279 43.7832L233.077 45.6173L233.095 45.6095L233.113 45.6013L232.279 43.7832ZM265.16 41.2539L263.773 39.8133L263.759 39.8264L263.746 39.8397L265.16 41.2539ZM202.885 20.7461H200.885V22.7461H202.885V20.7461ZM202.885 2.97266V0.972656H200.885V2.97266H202.885ZM268.031 4.33984L267.435 6.2488L267.448 6.25307L267.462 6.25714L268.031 4.33984ZM276.098 8.57812L274.852 10.1427L274.859 10.1482L274.866 10.1537L276.098 8.57812ZM243.9 95.5312L245.735 96.3287L245.741 96.3146L245.747 96.3005L243.9 95.5312ZM241.986 98.334L243.401 99.7482L241.986 98.334ZM239.184 100.18L238.414 98.3335L238.4 98.3394L238.386 98.3456L239.184 100.18ZM232.348 100.18L231.55 102.014L231.564 102.02L231.578 102.026L232.348 100.18ZM229.545 98.334L228.091 99.7072L228.13 99.7488L228.172 99.788L229.545 98.334ZM227.631 95.5312L225.785 96.3005L225.804 96.3479L225.827 96.3942L227.631 95.5312ZM227.631 88.6953L225.813 87.862L225.805 87.8799L225.797 87.8979L227.631 88.6953ZM229.545 85.8926L228.131 84.4784L229.545 85.8926ZM232.348 83.9785L233.145 85.8127L233.163 85.8048L233.181 85.7966L232.348 83.9785ZM239.184 83.9785L238.321 85.7828L238.367 85.8049L238.414 85.8247L239.184 83.9785ZM241.986 85.8926L240.532 87.2658L240.572 87.3074L240.613 87.3466L241.986 85.8926ZM243.9 88.6953L242.054 89.4645L242.06 89.4787L242.066 89.4928L243.9 88.6953ZM282.779 35.9219C282.779 38.1997 282.385 40.7175 281.563 43.4874L285.398 44.6258C286.307 41.5624 286.779 38.6571 286.779 35.9219H282.779ZM281.563 43.4874C280.775 46.1431 279.465 48.6259 277.612 50.942L280.736 53.4408C282.893 50.7439 284.454 47.8035 285.398 44.6258L281.563 43.4874ZM277.598 50.9596C275.834 53.2162 273.489 55.1401 270.515 56.7123L272.384 60.2487C275.79 58.4485 278.594 56.1796 280.749 53.4232L277.598 50.9596ZM270.524 56.7073C267.735 58.1625 264.221 58.9414 259.896 58.9414V62.9414C264.687 62.9414 268.874 62.0797 272.374 60.2536L270.524 56.7073ZM259.896 58.9414H244.789V62.9414H259.896V58.9414ZM242.789 60.9414V76.9375H246.789V60.9414H242.789ZM244.789 74.9375H226.947V78.9375H244.789V74.9375ZM228.947 76.9375V51.9863H224.947V76.9375H228.947ZM228.947 51.9863C228.947 51.009 229.127 50.1436 229.465 49.3658L225.797 47.7709C225.223 49.0895 224.947 50.5027 224.947 51.9863H228.947ZM229.477 49.3376C229.844 48.4559 230.33 47.7062 230.931 47.0705L228.023 44.324C227.073 45.329 226.329 46.4933 225.785 47.7991L229.477 49.3376ZM230.891 47.1115C231.536 46.4659 232.262 45.9715 233.077 45.6173L231.482 41.9491C230.2 42.5064 229.057 43.288 228.062 44.2831L230.891 47.1115ZM233.113 45.6013C233.939 45.2226 234.816 45.0312 235.766 45.0312V41.0312C234.254 41.0312 232.807 41.3412 231.446 41.9651L233.113 45.6013ZM235.766 45.0312H259.896V41.0312H235.766V45.0312ZM259.896 45.0312C262.542 45.0312 264.889 44.3538 266.574 42.6681L263.746 39.8397C263.062 40.5238 261.899 41.0312 259.896 41.0312V45.0312ZM266.547 42.6945C268.301 41.0055 269.006 38.6196 269.006 35.9219H265.006C265.006 37.9638 264.48 39.1325 263.773 39.8133L266.547 42.6945ZM269.006 35.9219V27.9238H265.006V35.9219H269.006ZM269.006 27.9238C269.006 25.2725 268.326 22.9253 266.669 21.2045L263.788 23.9791C264.501 24.7193 265.006 25.9267 265.006 27.9238H269.006ZM266.669 21.2045C264.98 19.4505 262.594 18.7461 259.896 18.7461V22.7461C261.938 22.7461 263.107 23.2722 263.788 23.9791L266.669 21.2045ZM259.896 18.7461H202.885V22.7461H259.896V18.7461ZM204.885 20.7461V2.97266H200.885V20.7461H204.885ZM202.885 4.97266H259.896V0.972656H202.885V4.97266ZM259.896 4.97266C262.162 4.97266 264.67 5.38497 267.435 6.2488L268.628 2.43089C265.559 1.47181 262.644 0.972656 259.896 0.972656V4.97266ZM267.462 6.25714C270.124 7.04747 272.585 8.33743 274.852 10.1427L277.344 7.01357C274.689 4.89955 271.772 3.36399 268.6 2.42255L267.462 6.25714ZM274.866 10.1537C277.117 11.9137 279.015 14.2517 280.54 17.2174L284.097 15.388C282.341 11.9736 280.091 9.16178 277.329 7.00251L274.866 10.1537ZM280.54 17.2174C282.001 20.0585 282.779 23.6009 282.779 27.9238H286.779C286.779 23.1321 285.917 18.9272 284.097 15.388L280.54 17.2174ZM282.779 27.9238V35.9219H286.779V27.9238H282.779ZM242.584 92.0449C242.584 93.0217 242.404 93.9214 242.054 94.762L245.747 96.3005C246.308 94.9536 246.584 93.5291 246.584 92.0449H242.584ZM242.066 94.7338C241.712 95.5484 241.218 96.2742 240.572 96.9198L243.401 99.7482C244.396 98.7532 245.177 97.6105 245.735 96.3287L242.066 94.7338ZM240.572 96.9198C239.997 97.4952 239.287 97.97 238.414 98.3335L239.953 102.026C241.268 101.478 242.426 100.722 243.401 99.7482L240.572 96.9198ZM238.386 98.3456C237.608 98.6837 236.743 98.8633 235.766 98.8633V102.863C237.249 102.863 238.662 102.587 239.981 102.014L238.386 98.3456ZM235.766 98.8633C234.845 98.8633 233.967 98.6877 233.117 98.3335L231.578 102.026C232.916 102.583 234.317 102.863 235.766 102.863V98.8633ZM233.145 98.3456C232.307 97.981 231.568 97.4935 230.918 96.88L228.172 99.788C229.163 100.724 230.292 101.467 231.55 102.014L233.145 98.3456ZM230.999 96.9607C230.371 96.2958 229.85 95.5349 229.435 94.6683L225.827 96.3942C226.415 97.624 227.169 98.7315 228.091 99.7072L230.999 96.9607ZM229.477 94.762C229.127 93.9214 228.947 93.0217 228.947 92.0449H224.947C224.947 93.5291 225.224 94.9536 225.785 96.3005L229.477 94.762ZM228.947 92.0449C228.947 91.1241 229.123 90.28 229.465 89.4928L225.797 87.8979C225.228 89.2069 224.947 90.5959 224.947 92.0449H228.947ZM229.449 89.5286C229.861 88.6298 230.368 87.8977 230.959 87.3068L228.131 84.4784C227.172 85.4369 226.403 86.5733 225.813 87.862L229.449 89.5286ZM230.959 87.3068C231.605 86.6612 232.331 86.1668 233.145 85.8127L231.55 82.1444C230.268 82.7017 229.126 83.4833 228.131 84.4784L230.959 87.3068ZM233.181 85.7966C234.017 85.4133 234.873 85.2266 235.766 85.2266V81.2266C234.289 81.2266 232.865 81.5412 231.514 82.1604L233.181 85.7966ZM235.766 85.2266C236.715 85.2266 237.558 85.4179 238.321 85.7828L240.047 82.1742C238.713 81.5365 237.277 81.2266 235.766 81.2266V85.2266ZM238.414 85.8247C239.262 86.178 239.96 86.6596 240.532 87.2658L243.44 84.5193C242.463 83.4849 241.292 82.6904 239.953 82.1324L238.414 85.8247ZM240.613 87.3466C241.219 87.9191 241.701 88.6164 242.054 89.4645L245.747 87.9261C245.188 86.5867 244.394 85.4155 243.36 84.4386L240.613 87.3466ZM242.066 89.4928C242.409 90.28 242.584 91.1241 242.584 92.0449H246.584C246.584 90.5959 246.304 89.2069 245.735 87.8979L242.066 89.4928ZM379.416 52.1914L377.854 50.942L377.847 50.9508L377.84 50.9596L379.416 52.1914ZM371.691 58.4805L372.617 60.2537L372.626 60.2487L371.691 58.4805ZM345.031 60.9414V58.9414H343.031V60.9414H345.031ZM345.031 76.9375V78.9375H347.031V76.9375H345.031ZM327.189 76.9375H325.189V78.9375H327.189V76.9375ZM327.873 48.5684L329.707 49.3658L329.713 49.3517L329.719 49.3376L327.873 48.5684ZM329.719 45.6973L328.305 44.2831L328.284 44.3033L328.265 44.324L329.719 45.6973ZM332.521 43.7832L333.319 45.6173L333.337 45.6095L333.355 45.6013L332.521 43.7832ZM365.402 41.2539L364.015 39.8133L364.001 39.8264L363.988 39.8397L365.402 41.2539ZM303.127 20.7461H301.127V22.7461H303.127V20.7461ZM303.127 2.97266V0.972656H301.127V2.97266H303.127ZM368.273 4.33984L367.677 6.2488L367.691 6.25307L367.704 6.25714L368.273 4.33984ZM376.34 8.57812L375.094 10.1427L375.101 10.1482L375.108 10.1537L376.34 8.57812ZM344.143 95.5312L345.977 96.3287L345.983 96.3146L345.989 96.3005L344.143 95.5312ZM342.229 98.334L343.643 99.7482L342.229 98.334ZM339.426 100.18L338.657 98.3335L338.642 98.3394L338.628 98.3456L339.426 100.18ZM332.59 100.18L331.792 102.014L331.806 102.02L331.821 102.026L332.59 100.18ZM329.787 98.334L328.333 99.7072L328.372 99.7488L328.414 99.788L329.787 98.334ZM327.873 95.5312L326.027 96.3005L326.047 96.3479L326.069 96.3942L327.873 95.5312ZM327.873 88.6953L326.055 87.862L326.047 87.8799L326.039 87.8979L327.873 88.6953ZM329.787 85.8926L328.373 84.4784L329.787 85.8926ZM332.59 83.9785L333.387 85.8127L333.405 85.8048L333.423 85.7966L332.59 83.9785ZM339.426 83.9785L338.563 85.7828L338.609 85.8049L338.657 85.8247L339.426 83.9785ZM342.229 85.8926L340.774 87.2658L340.814 87.3074L340.855 87.3466L342.229 85.8926ZM344.143 88.6953L342.296 89.4645L342.302 89.4787L342.308 89.4928L344.143 88.6953ZM383.021 35.9219C383.021 38.1997 382.628 40.7175 381.805 43.4874L385.64 44.6258C386.549 41.5624 387.021 38.6571 387.021 35.9219H383.021ZM381.805 43.4874C381.017 46.1431 379.707 48.6259 377.854 50.942L380.978 53.4408C383.135 50.7439 384.697 47.8035 385.64 44.6258L381.805 43.4874ZM377.84 50.9596C376.076 53.2162 373.731 55.1401 370.757 56.7123L372.626 60.2487C376.032 58.4485 378.837 56.1796 380.992 53.4232L377.84 50.9596ZM370.766 56.7073C367.977 58.1625 364.463 58.9414 360.139 58.9414V62.9414C364.929 62.9414 369.117 62.0797 372.617 60.2536L370.766 56.7073ZM360.139 58.9414H345.031V62.9414H360.139V58.9414ZM343.031 60.9414V76.9375H347.031V60.9414H343.031ZM345.031 74.9375H327.189V78.9375H345.031V74.9375ZM329.189 76.9375V51.9863H325.189V76.9375H329.189ZM329.189 51.9863C329.189 51.009 329.369 50.1436 329.707 49.3658L326.039 47.7709C325.466 49.0895 325.189 50.5027 325.189 51.9863H329.189ZM329.719 49.3376C330.087 48.4559 330.572 47.7062 331.173 47.0705L328.265 44.324C327.316 45.329 326.571 46.4933 326.027 47.7991L329.719 49.3376ZM331.133 47.1115C331.779 46.4659 332.504 45.9715 333.319 45.6173L331.724 41.9491C330.442 42.5064 329.3 43.288 328.305 44.2831L331.133 47.1115ZM333.355 45.6013C334.181 45.2226 335.058 45.0312 336.008 45.0312V41.0312C334.496 41.0312 333.049 41.3412 331.688 41.9651L333.355 45.6013ZM336.008 45.0312H360.139V41.0312H336.008V45.0312ZM360.139 45.0312C362.784 45.0312 365.131 44.3538 366.817 42.6681L363.988 39.8397C363.304 40.5238 362.142 41.0312 360.139 41.0312V45.0312ZM366.79 42.6945C368.544 41.0055 369.248 38.6196 369.248 35.9219H365.248C365.248 37.9638 364.722 39.1325 364.015 39.8133L366.79 42.6945ZM369.248 35.9219V27.9238H365.248V35.9219H369.248ZM369.248 27.9238C369.248 25.2725 368.568 22.9253 366.911 21.2045L364.03 23.9791C364.743 24.7193 365.248 25.9267 365.248 27.9238H369.248ZM366.911 21.2045C365.222 19.4505 362.836 18.7461 360.139 18.7461V22.7461C362.181 22.7461 363.349 23.2722 364.03 23.9791L366.911 21.2045ZM360.139 18.7461H303.127V22.7461H360.139V18.7461ZM305.127 20.7461V2.97266H301.127V20.7461H305.127ZM303.127 4.97266H360.139V0.972656H303.127V4.97266ZM360.139 4.97266C362.404 4.97266 364.913 5.38497 367.677 6.2488L368.87 2.43089C365.801 1.47181 362.886 0.972656 360.139 0.972656V4.97266ZM367.704 6.25714C370.366 7.04747 372.827 8.33743 375.094 10.1427L377.586 7.01357C374.931 4.89955 372.014 3.36399 368.843 2.42255L367.704 6.25714ZM375.108 10.1537C377.359 11.9137 379.257 14.2517 380.782 17.2174L384.339 15.388C382.583 11.9736 380.334 9.16178 377.572 7.00251L375.108 10.1537ZM380.782 17.2174C382.243 20.0585 383.021 23.6009 383.021 27.9238H387.021C387.021 23.1321 386.159 18.9272 384.339 15.388L380.782 17.2174ZM383.021 27.9238V35.9219H387.021V27.9238H383.021ZM342.826 92.0449C342.826 93.0217 342.647 93.9214 342.296 94.762L345.989 96.3005C346.55 94.9536 346.826 93.5291 346.826 92.0449H342.826ZM342.308 94.7338C341.954 95.5484 341.46 96.2742 340.814 96.9198L343.643 99.7482C344.638 98.7532 345.419 97.6105 345.977 96.3287L342.308 94.7338ZM340.814 96.9198C340.239 97.4952 339.529 97.97 338.657 98.3335L340.195 102.026C341.51 101.478 342.669 100.722 343.643 99.7482L340.814 96.9198ZM338.628 98.3456C337.851 98.6837 336.985 98.8633 336.008 98.8633V102.863C337.491 102.863 338.905 102.587 340.223 102.014L338.628 98.3456ZM336.008 98.8633C335.087 98.8633 334.209 98.6877 333.359 98.3335L331.821 102.026C333.158 102.583 334.559 102.863 336.008 102.863V98.8633ZM333.387 98.3456C332.549 97.981 331.81 97.4935 331.16 96.88L328.414 99.788C329.405 100.724 330.535 101.467 331.792 102.014L333.387 98.3456ZM331.241 96.9607C330.613 96.2958 330.092 95.5349 329.677 94.6683L326.069 96.3942C326.657 97.624 327.412 98.7315 328.333 99.7072L331.241 96.9607ZM329.719 94.762C329.369 93.9214 329.189 93.0217 329.189 92.0449H325.189C325.189 93.5291 325.466 94.9536 326.027 96.3005L329.719 94.762ZM329.189 92.0449C329.189 91.1241 329.365 90.28 329.707 89.4928L326.039 87.8979C325.47 89.2069 325.189 90.5959 325.189 92.0449H329.189ZM329.691 89.5286C330.103 88.6298 330.61 87.8977 331.201 87.3068L328.373 84.4784C327.414 85.4369 326.646 86.5733 326.055 87.862L329.691 89.5286ZM331.201 87.3068C331.847 86.6612 332.573 86.1668 333.387 85.8127L331.792 82.1444C330.511 82.7017 329.368 83.4833 328.373 84.4784L331.201 87.3068ZM333.423 85.7966C334.26 85.4133 335.115 85.2266 336.008 85.2266V81.2266C334.531 81.2266 333.108 81.5412 331.757 82.1604L333.423 85.7966ZM336.008 85.2266C336.958 85.2266 337.8 85.4179 338.563 85.7828L340.289 82.1742C338.955 81.5365 337.519 81.2266 336.008 81.2266V85.2266ZM338.657 85.8247C339.505 86.178 340.202 86.6596 340.774 87.2658L343.683 84.5193C342.706 83.4849 341.534 82.6904 340.195 82.1324L338.657 85.8247ZM340.855 87.3466C341.461 87.9191 341.943 88.6164 342.296 89.4645L345.989 87.9261C345.431 86.5867 344.636 85.4155 343.602 84.4386L340.855 87.3466ZM342.308 89.4928C342.651 90.28 342.826 91.1241 342.826 92.0449H346.826C346.826 90.5959 346.546 89.2069 345.977 87.8979L342.308 89.4928ZM479.658 52.1914L478.096 50.942L478.089 50.9508L478.083 50.9596L479.658 52.1914ZM471.934 58.4805L472.859 60.2537L472.868 60.2487L471.934 58.4805ZM445.273 60.9414V58.9414H443.273V60.9414H445.273ZM445.273 76.9375V78.9375H447.273V76.9375H445.273ZM427.432 76.9375H425.432V78.9375H427.432V76.9375ZM428.115 48.5684L429.949 49.3658L429.955 49.3517L429.961 49.3376L428.115 48.5684ZM429.961 45.6973L428.547 44.2831L428.527 44.3033L428.507 44.324L429.961 45.6973ZM432.764 43.7832L433.561 45.6173L433.579 45.6095L433.597 45.6013L432.764 43.7832ZM465.645 41.2539L464.257 39.8133L464.244 39.8264L464.23 39.8397L465.645 41.2539ZM403.369 20.7461H401.369V22.7461H403.369V20.7461ZM403.369 2.97266V0.972656H401.369V2.97266H403.369ZM468.516 4.33984L467.919 6.2488L467.933 6.25307L467.946 6.25714L468.516 4.33984ZM476.582 8.57812L475.336 10.1427L475.343 10.1482L475.35 10.1537L476.582 8.57812ZM444.385 95.5312L446.219 96.3287L446.225 96.3146L446.231 96.3005L444.385 95.5312ZM442.471 98.334L443.885 99.7482L442.471 98.334ZM439.668 100.18L438.899 98.3335L438.885 98.3394L438.871 98.3456L439.668 100.18ZM432.832 100.18L432.035 102.014L432.049 102.02L432.063 102.026L432.832 100.18ZM430.029 98.334L428.575 99.7072L428.615 99.7488L428.656 99.788L430.029 98.334ZM428.115 95.5312L426.269 96.3005L426.289 96.3479L426.311 96.3942L428.115 95.5312ZM428.115 88.6953L426.297 87.862L426.289 87.8799L426.281 87.8979L428.115 88.6953ZM430.029 85.8926L428.615 84.4784L430.029 85.8926ZM432.832 83.9785L433.629 85.8127L433.647 85.8048L433.665 85.7966L432.832 83.9785ZM439.668 83.9785L438.805 85.7828L438.851 85.8049L438.899 85.8247L439.668 83.9785ZM442.471 85.8926L441.017 87.2658L441.056 87.3074L441.097 87.3466L442.471 85.8926ZM444.385 88.6953L442.539 89.4645L442.545 89.4787L442.551 89.4928L444.385 88.6953ZM483.264 35.9219C483.264 38.1997 482.87 40.7175 482.048 43.4874L485.882 44.6258C486.792 41.5624 487.264 38.6571 487.264 35.9219H483.264ZM482.048 43.4874C481.259 46.1431 479.949 48.6259 478.096 50.942L481.22 53.4408C483.377 50.7439 484.939 47.8035 485.882 44.6258L482.048 43.4874ZM478.083 50.9596C476.318 53.2162 473.973 55.1401 470.999 56.7123L472.868 60.2487C476.274 58.4485 479.079 56.1796 481.234 53.4232L478.083 50.9596ZM471.008 56.7073C468.219 58.1625 464.705 58.9414 460.381 58.9414V62.9414C465.171 62.9414 469.359 62.0797 472.859 60.2536L471.008 56.7073ZM460.381 58.9414H445.273V62.9414H460.381V58.9414ZM443.273 60.9414V76.9375H447.273V60.9414H443.273ZM445.273 74.9375H427.432V78.9375H445.273V74.9375ZM429.432 76.9375V51.9863H425.432V76.9375H429.432ZM429.432 51.9863C429.432 51.009 429.611 50.1436 429.949 49.3658L426.281 47.7709C425.708 49.0895 425.432 50.5027 425.432 51.9863H429.432ZM429.961 49.3376C430.329 48.4559 430.815 47.7062 431.415 47.0705L428.507 44.324C427.558 45.329 426.813 46.4933 426.269 47.7991L429.961 49.3376ZM431.375 47.1115C432.021 46.4659 432.747 45.9715 433.561 45.6173L431.966 41.9491C430.684 42.5064 429.542 43.288 428.547 44.2831L431.375 47.1115ZM433.597 45.6013C434.423 45.2226 435.3 45.0312 436.25 45.0312V41.0312C434.739 41.0312 433.292 41.3412 431.93 41.9651L433.597 45.6013ZM436.25 45.0312H460.381V41.0312H436.25V45.0312ZM460.381 45.0312C463.026 45.0312 465.373 44.3538 467.059 42.6681L464.23 39.8397C463.546 40.5238 462.384 41.0312 460.381 41.0312V45.0312ZM467.032 42.6945C468.786 41.0055 469.49 38.6196 469.49 35.9219H465.49C465.49 37.9638 464.964 39.1325 464.257 39.8133L467.032 42.6945ZM469.49 35.9219V27.9238H465.49V35.9219H469.49ZM469.49 27.9238C469.49 25.2725 468.811 22.9253 467.154 21.2045L464.272 23.9791C464.985 24.7193 465.49 25.9267 465.49 27.9238H469.49ZM467.154 21.2045C465.464 19.4505 463.079 18.7461 460.381 18.7461V22.7461C462.423 22.7461 463.592 23.2722 464.272 23.9791L467.154 21.2045ZM460.381 18.7461H403.369V22.7461H460.381V18.7461ZM405.369 20.7461V2.97266H401.369V20.7461H405.369ZM403.369 4.97266H460.381V0.972656H403.369V4.97266ZM460.381 4.97266C462.646 4.97266 465.155 5.38497 467.919 6.2488L469.112 2.43089C466.043 1.47181 463.128 0.972656 460.381 0.972656V4.97266ZM467.946 6.25714C470.609 7.04747 473.069 8.33743 475.336 10.1427L477.828 7.01357C475.173 4.89955 472.256 3.36399 469.085 2.42255L467.946 6.25714ZM475.35 10.1537C477.601 11.9137 479.499 14.2517 481.024 17.2174L484.581 15.388C482.825 11.9736 480.576 9.16178 477.814 7.00251L475.35 10.1537ZM481.024 17.2174C482.485 20.0585 483.264 23.6009 483.264 27.9238H487.264C487.264 23.1321 486.401 18.9272 484.581 15.388L481.024 17.2174ZM483.264 27.9238V35.9219H487.264V27.9238H483.264ZM443.068 92.0449C443.068 93.0217 442.889 93.9214 442.539 94.762L446.231 96.3005C446.792 94.9536 447.068 93.5291 447.068 92.0449H443.068ZM442.551 94.7338C442.196 95.5484 441.702 96.2742 441.056 96.9198L443.885 99.7482C444.88 98.7532 445.662 97.6105 446.219 96.3287L442.551 94.7338ZM441.056 96.9198C440.481 97.4952 439.771 97.97 438.899 98.3335L440.437 102.026C441.752 101.478 442.911 100.722 443.885 99.7482L441.056 96.9198ZM438.871 98.3456C438.093 98.6837 437.227 98.8633 436.25 98.8633V102.863C437.734 102.863 439.147 102.587 440.465 102.014L438.871 98.3456ZM436.25 98.8633C435.329 98.8633 434.451 98.6877 433.601 98.3335L432.063 102.026C433.4 102.583 434.801 102.863 436.25 102.863V98.8633ZM433.629 98.3456C432.791 97.981 432.052 97.4935 431.403 96.88L428.656 99.788C429.647 100.724 430.777 101.467 432.035 102.014L433.629 98.3456ZM431.483 96.9607C430.855 96.2958 430.334 95.5349 429.919 94.6683L426.311 96.3942C426.899 97.624 427.654 98.7315 428.575 99.7072L431.483 96.9607ZM429.961 94.762C429.611 93.9214 429.432 93.0217 429.432 92.0449H425.432C425.432 93.5291 425.708 94.9536 426.269 96.3005L429.961 94.762ZM429.432 92.0449C429.432 91.1241 429.607 90.28 429.949 89.4928L426.281 87.8979C425.712 89.2069 425.432 90.5959 425.432 92.0449H429.432ZM429.933 89.5286C430.345 88.6298 430.853 87.8977 431.444 87.3068L428.615 84.4784C427.657 85.4369 426.888 86.5733 426.297 87.862L429.933 89.5286ZM431.444 87.3068C432.089 86.6612 432.815 86.1668 433.629 85.8127L432.035 82.1444C430.753 82.7017 429.61 83.4833 428.615 84.4784L431.444 87.3068ZM433.665 85.7966C434.502 85.4133 435.357 85.2266 436.25 85.2266V81.2266C434.773 81.2266 433.35 81.5412 431.999 82.1604L433.665 85.7966ZM436.25 85.2266C437.2 85.2266 438.042 85.4179 438.805 85.7828L440.531 82.1742C439.197 81.5365 437.761 81.2266 436.25 81.2266V85.2266ZM438.899 85.8247C439.747 86.178 440.444 86.6596 441.017 87.2658L443.925 84.5193C442.948 83.4849 441.777 82.6904 440.437 82.1324L438.899 85.8247ZM441.097 87.3466C441.704 87.9191 442.185 88.6164 442.539 89.4645L446.231 87.9261C445.673 86.5867 444.878 85.4155 443.844 84.4386L441.097 87.3466ZM442.551 89.4928C442.893 90.28 443.068 91.1241 443.068 92.0449H447.068C447.068 90.5959 446.788 89.2069 446.219 87.8979L442.551 89.4928ZM579.9 52.1914L578.339 50.942L578.332 50.9508L578.325 50.9596L579.9 52.1914ZM572.176 58.4805L573.101 60.2537L573.11 60.2487L572.176 58.4805ZM545.516 60.9414V58.9414H543.516V60.9414H545.516ZM545.516 76.9375V78.9375H547.516V76.9375H545.516ZM527.674 76.9375H525.674V78.9375H527.674V76.9375ZM528.357 48.5684L530.192 49.3658L530.198 49.3517L530.204 49.3376L528.357 48.5684ZM530.203 45.6973L528.789 44.2831L528.769 44.3033L528.749 44.324L530.203 45.6973ZM533.006 43.7832L533.803 45.6173L533.821 45.6095L533.839 45.6013L533.006 43.7832ZM565.887 41.2539L564.499 39.8133L564.486 39.8264L564.473 39.8397L565.887 41.2539ZM503.611 20.7461H501.611V22.7461H503.611V20.7461ZM503.611 2.97266V0.972656H501.611V2.97266H503.611ZM568.758 4.33984L568.161 6.2488L568.175 6.25307L568.189 6.25714L568.758 4.33984ZM576.824 8.57812L575.578 10.1427L575.585 10.1482L575.592 10.1537L576.824 8.57812ZM544.627 95.5312L546.461 96.3287L546.467 96.3146L546.473 96.3005L544.627 95.5312ZM542.713 98.334L544.127 99.7482L542.713 98.334ZM539.91 100.18L539.141 98.3335L539.127 98.3394L539.113 98.3456L539.91 100.18ZM533.074 100.18L532.277 102.014L532.291 102.02L532.305 102.026L533.074 100.18ZM530.271 98.334L528.817 99.7072L528.857 99.7488L528.898 99.788L530.271 98.334ZM528.357 95.5312L526.511 96.3005L526.531 96.3479L526.553 96.3942L528.357 95.5312ZM528.357 88.6953L526.539 87.862L526.531 87.8799L526.523 87.8979L528.357 88.6953ZM530.271 85.8926L528.857 84.4784L530.271 85.8926ZM533.074 83.9785L533.872 85.8127L533.89 85.8048L533.908 85.7966L533.074 83.9785ZM539.91 83.9785L539.047 85.7828L539.094 85.8049L539.141 85.8247L539.91 83.9785ZM542.713 85.8926L541.259 87.2658L541.298 87.3074L541.34 87.3466L542.713 85.8926ZM544.627 88.6953L542.781 89.4645L542.787 89.4787L542.793 89.4928L544.627 88.6953ZM583.506 35.9219C583.506 38.1997 583.112 40.7175 582.29 43.4874L586.124 44.6258C587.034 41.5624 587.506 38.6571 587.506 35.9219H583.506ZM582.29 43.4874C581.501 46.1431 580.192 48.6259 578.339 50.942L581.462 53.4408C583.62 50.7439 585.181 47.8035 586.124 44.6258L582.29 43.4874ZM578.325 50.9596C576.56 53.2162 574.216 55.1401 571.241 56.7123L573.11 60.2487C576.516 58.4485 579.321 56.1796 581.476 53.4232L578.325 50.9596ZM571.251 56.7073C568.461 58.1625 564.947 58.9414 560.623 58.9414V62.9414C565.413 62.9414 569.601 62.0797 573.101 60.2536L571.251 56.7073ZM560.623 58.9414H545.516V62.9414H560.623V58.9414ZM543.516 60.9414V76.9375H547.516V60.9414H543.516ZM545.516 74.9375H527.674V78.9375H545.516V74.9375ZM529.674 76.9375V51.9863H525.674V76.9375H529.674ZM529.674 51.9863C529.674 51.009 529.853 50.1436 530.192 49.3658L526.523 47.7709C525.95 49.0895 525.674 50.5027 525.674 51.9863H529.674ZM530.204 49.3376C530.571 48.4559 531.057 47.7062 531.657 47.0705L528.749 44.324C527.8 45.329 527.055 46.4933 526.511 47.7991L530.204 49.3376ZM531.617 47.1115C532.263 46.4659 532.989 45.9715 533.803 45.6173L532.208 41.9491C530.927 42.5064 529.784 43.288 528.789 44.2831L531.617 47.1115ZM533.839 45.6013C534.665 45.2226 535.543 45.0312 536.492 45.0312V41.0312C534.981 41.0312 533.534 41.3412 532.173 41.9651L533.839 45.6013ZM536.492 45.0312H560.623V41.0312H536.492V45.0312ZM560.623 45.0312C563.269 45.0312 565.615 44.3538 567.301 42.6681L564.473 39.8397C563.788 40.5238 562.626 41.0312 560.623 41.0312V45.0312ZM567.274 42.6945C569.028 41.0055 569.732 38.6196 569.732 35.9219H565.732C565.732 37.9638 565.206 39.1325 564.499 39.8133L567.274 42.6945ZM569.732 35.9219V27.9238H565.732V35.9219H569.732ZM569.732 27.9238C569.732 25.2725 569.053 22.9253 567.396 21.2045L564.514 23.9791C565.227 24.7193 565.732 25.9267 565.732 27.9238H569.732ZM567.396 21.2045C565.707 19.4505 563.321 18.7461 560.623 18.7461V22.7461C562.665 22.7461 563.834 23.2722 564.514 23.9791L567.396 21.2045ZM560.623 18.7461H503.611V22.7461H560.623V18.7461ZM505.611 20.7461V2.97266H501.611V20.7461H505.611ZM503.611 4.97266H560.623V0.972656H503.611V4.97266ZM560.623 4.97266C562.889 4.97266 565.397 5.38497 568.161 6.2488L569.354 2.43089C566.285 1.47181 563.37 0.972656 560.623 0.972656V4.97266ZM568.189 6.25714C570.851 7.04747 573.311 8.33743 575.578 10.1427L578.07 7.01357C575.415 4.89955 572.498 3.36399 569.327 2.42255L568.189 6.25714ZM575.592 10.1537C577.844 11.9137 579.741 14.2517 581.266 17.2174L584.823 15.388C583.068 11.9736 580.818 9.16178 578.056 7.00251L575.592 10.1537ZM581.266 17.2174C582.727 20.0585 583.506 23.6009 583.506 27.9238H587.506C587.506 23.1321 586.644 18.9272 584.823 15.388L581.266 17.2174ZM583.506 27.9238V35.9219H587.506V27.9238H583.506ZM543.311 92.0449C543.311 93.0217 543.131 93.9214 542.781 94.762L546.473 96.3005C547.034 94.9536 547.311 93.5291 547.311 92.0449H543.311ZM542.793 94.7338C542.439 95.5484 541.944 96.2742 541.299 96.9198L544.127 99.7482C545.122 98.7532 545.904 97.6105 546.461 96.3287L542.793 94.7338ZM541.299 96.9198C540.723 97.4952 540.013 97.97 539.141 98.3335L540.679 102.026C541.994 101.478 543.153 100.722 544.127 99.7482L541.299 96.9198ZM539.113 98.3456C538.335 98.6837 537.47 98.8633 536.492 98.8633V102.863C537.976 102.863 539.389 102.587 540.708 102.014L539.113 98.3456ZM536.492 98.8633C535.571 98.8633 534.693 98.6877 533.843 98.3335L532.305 102.026C533.642 102.583 535.043 102.863 536.492 102.863V98.8633ZM533.872 98.3456C533.033 97.981 532.294 97.4935 531.645 96.88L528.898 99.788C529.889 100.724 531.019 101.467 532.277 102.014L533.872 98.3456ZM531.726 96.9607C531.098 96.2958 530.576 95.5349 530.162 94.6683L526.553 96.3942C527.141 97.624 527.896 98.7315 528.817 99.7072L531.726 96.9607ZM530.204 94.762C529.853 93.9214 529.674 93.0217 529.674 92.0449H525.674C525.674 93.5291 525.95 94.9536 526.511 96.3005L530.204 94.762ZM529.674 92.0449C529.674 91.1241 529.849 90.28 530.192 89.4928L526.523 87.8979C525.954 89.2069 525.674 90.5959 525.674 92.0449H529.674ZM530.176 89.5286C530.588 88.6298 531.095 87.8977 531.686 87.3068L528.857 84.4784C527.899 85.4369 527.13 86.5733 526.539 87.862L530.176 89.5286ZM531.686 87.3068C532.331 86.6612 533.057 86.1668 533.872 85.8127L532.277 82.1444C530.995 82.7017 529.852 83.4833 528.857 84.4784L531.686 87.3068ZM533.908 85.7966C534.744 85.4133 535.599 85.2266 536.492 85.2266V81.2266C535.015 81.2266 533.592 81.5412 532.241 82.1604L533.908 85.7966ZM536.492 85.2266C537.442 85.2266 538.284 85.4179 539.047 85.7828L540.773 82.1742C539.44 81.5365 538.003 81.2266 536.492 81.2266V85.2266ZM539.141 85.8247C539.989 86.178 540.686 86.6596 541.259 87.2658L544.167 84.5193C543.19 83.4849 542.019 82.6904 540.679 82.1324L539.141 85.8247ZM541.34 87.3466C541.946 87.9191 542.427 88.6164 542.781 89.4645L546.473 87.9261C545.915 86.5867 545.121 85.4155 544.086 84.4386L541.34 87.3466ZM542.793 89.4928C543.135 90.28 543.311 91.1241 543.311 92.0449H547.311C547.311 90.5959 547.03 89.2069 546.461 87.8979L542.793 89.4928ZM680.143 52.1914L678.581 50.942L678.574 50.9508L678.567 50.9596L680.143 52.1914ZM672.418 58.4805L673.343 60.2537L673.353 60.2487L672.418 58.4805ZM645.758 60.9414V58.9414H643.758V60.9414H645.758ZM645.758 76.9375V78.9375H647.758V76.9375H645.758ZM627.916 76.9375H625.916V78.9375H627.916V76.9375ZM628.6 48.5684L630.434 49.3658L630.44 49.3517L630.446 49.3376L628.6 48.5684ZM630.445 45.6973L629.031 44.2831L629.011 44.3033L628.991 44.324L630.445 45.6973ZM633.248 43.7832L634.045 45.6173L634.063 45.6095L634.081 45.6013L633.248 43.7832ZM666.129 41.2539L664.742 39.8133L664.728 39.8264L664.715 39.8397L666.129 41.2539ZM603.854 20.7461H601.854V22.7461H603.854V20.7461ZM603.854 2.97266V0.972656H601.854V2.97266H603.854ZM669 4.33984L668.403 6.2488L668.417 6.25307L668.431 6.25714L669 4.33984ZM677.066 8.57812L675.821 10.1427L675.828 10.1482L675.835 10.1537L677.066 8.57812ZM644.869 95.5312L646.703 96.3287L646.709 96.3146L646.715 96.3005L644.869 95.5312ZM642.955 98.334L644.369 99.7482L642.955 98.334ZM640.152 100.18L639.383 98.3335L639.369 98.3394L639.355 98.3456L640.152 100.18ZM633.316 100.18L632.519 102.014L632.533 102.02L632.547 102.026L633.316 100.18ZM630.514 98.334L629.06 99.7072L629.099 99.7488L629.14 99.788L630.514 98.334ZM628.6 95.5312L626.753 96.3005L626.773 96.3479L626.795 96.3942L628.6 95.5312ZM628.6 88.6953L626.781 87.862L626.773 87.8799L626.765 87.8979L628.6 88.6953ZM630.514 85.8926L629.099 84.4784L630.514 85.8926ZM633.316 83.9785L634.114 85.8127L634.132 85.8048L634.15 85.7966L633.316 83.9785ZM640.152 83.9785L639.289 85.7828L639.336 85.8049L639.383 85.8247L640.152 83.9785ZM642.955 85.8926L641.501 87.2658L641.54 87.3074L641.582 87.3466L642.955 85.8926ZM644.869 88.6953L643.023 89.4645L643.029 89.4787L643.035 89.4928L644.869 88.6953ZM683.748 35.9219C683.748 38.1997 683.354 40.7175 682.532 43.4874L686.367 44.6258C687.276 41.5624 687.748 38.6571 687.748 35.9219H683.748ZM682.532 43.4874C681.744 46.1431 680.434 48.6259 678.581 50.942L681.704 53.4408C683.862 50.7439 685.423 47.8035 686.367 44.6258L682.532 43.4874ZM678.567 50.9596C676.803 53.2162 674.458 55.1401 671.483 56.7123L673.353 60.2487C676.758 58.4485 679.563 56.1796 681.718 53.4232L678.567 50.9596ZM671.493 56.7073C668.704 58.1625 665.19 58.9414 660.865 58.9414V62.9414C665.656 62.9414 669.843 62.0797 673.343 60.2536L671.493 56.7073ZM660.865 58.9414H645.758V62.9414H660.865V58.9414ZM643.758 60.9414V76.9375H647.758V60.9414H643.758ZM645.758 74.9375H627.916V78.9375H645.758V74.9375ZM629.916 76.9375V51.9863H625.916V76.9375H629.916ZM629.916 51.9863C629.916 51.009 630.096 50.1436 630.434 49.3658L626.765 47.7709C626.192 49.0895 625.916 50.5027 625.916 51.9863H629.916ZM630.446 49.3376C630.813 48.4559 631.299 47.7062 631.899 47.0705L628.991 44.324C628.042 45.329 627.298 46.4933 626.753 47.7991L630.446 49.3376ZM631.859 47.1115C632.505 46.4659 633.231 45.9715 634.045 45.6173L632.451 41.9491C631.169 42.5064 630.026 43.288 629.031 44.2831L631.859 47.1115ZM634.081 45.6013C634.908 45.2226 635.785 45.0312 636.734 45.0312V41.0312C635.223 41.0312 633.776 41.3412 632.415 41.9651L634.081 45.6013ZM636.734 45.0312H660.865V41.0312H636.734V45.0312ZM660.865 45.0312C663.511 45.0312 665.857 44.3538 667.543 42.6681L664.715 39.8397C664.031 40.5238 662.868 41.0312 660.865 41.0312V45.0312ZM667.516 42.6945C669.27 41.0055 669.975 38.6196 669.975 35.9219H665.975C665.975 37.9638 665.449 39.1325 664.742 39.8133L667.516 42.6945ZM669.975 35.9219V27.9238H665.975V35.9219H669.975ZM669.975 27.9238C669.975 25.2725 669.295 22.9253 667.638 21.2045L664.757 23.9791C665.469 24.7193 665.975 25.9267 665.975 27.9238H669.975ZM667.638 21.2045C665.949 19.4505 663.563 18.7461 660.865 18.7461V22.7461C662.907 22.7461 664.076 23.2722 664.757 23.9791L667.638 21.2045ZM660.865 18.7461H603.854V22.7461H660.865V18.7461ZM605.854 20.7461V2.97266H601.854V20.7461H605.854ZM603.854 4.97266H660.865V0.972656H603.854V4.97266ZM660.865 4.97266C663.131 4.97266 665.639 5.38497 668.403 6.2488L669.597 2.43089C666.527 1.47181 663.613 0.972656 660.865 0.972656V4.97266ZM668.431 6.25714C671.093 7.04747 673.553 8.33743 675.821 10.1427L678.312 7.01357C675.657 4.89955 672.74 3.36399 669.569 2.42255L668.431 6.25714ZM675.835 10.1537C678.086 11.9137 679.983 14.2517 681.509 17.2174L685.066 15.388C683.31 11.9736 681.06 9.16178 678.298 7.00251L675.835 10.1537ZM681.509 17.2174C682.97 20.0585 683.748 23.6009 683.748 27.9238H687.748C687.748 23.1321 686.886 18.9272 685.066 15.388L681.509 17.2174ZM683.748 27.9238V35.9219H687.748V27.9238H683.748ZM643.553 92.0449C643.553 93.0217 643.373 93.9214 643.023 94.762L646.715 96.3005C647.276 94.9536 647.553 93.5291 647.553 92.0449H643.553ZM643.035 94.7338C642.681 95.5484 642.186 96.2742 641.541 96.9198L644.369 99.7482C645.364 98.7532 646.146 97.6105 646.703 96.3287L643.035 94.7338ZM641.541 96.9198C640.965 97.4952 640.256 97.97 639.383 98.3335L640.922 102.026C642.237 101.478 643.395 100.722 644.369 99.7482L641.541 96.9198ZM639.355 98.3456C638.577 98.6837 637.712 98.8633 636.734 98.8633V102.863C638.218 102.863 639.631 102.587 640.95 102.014L639.355 98.3456ZM636.734 98.8633C635.814 98.8633 634.936 98.6877 634.086 98.3335L632.547 102.026C633.885 102.583 635.285 102.863 636.734 102.863V98.8633ZM634.114 98.3456C633.275 97.981 632.537 97.4935 631.887 96.88L629.14 99.788C630.131 100.724 631.261 101.467 632.519 102.014L634.114 98.3456ZM631.968 96.9607C631.34 96.2958 630.818 95.5349 630.404 94.6683L626.795 96.3942C627.383 97.624 628.138 98.7315 629.06 99.7072L631.968 96.9607ZM630.446 94.762C630.096 93.9214 629.916 93.0217 629.916 92.0449H625.916C625.916 93.5291 626.192 94.9536 626.753 96.3005L630.446 94.762ZM629.916 92.0449C629.916 91.1241 630.091 90.28 630.434 89.4928L626.765 87.8979C626.196 89.2069 625.916 90.5959 625.916 92.0449H629.916ZM630.418 89.5286C630.83 88.6298 631.337 87.8977 631.928 87.3068L629.099 84.4784C628.141 85.4369 627.372 86.5733 626.781 87.862L630.418 89.5286ZM631.928 87.3068C632.573 86.6612 633.299 86.1668 634.114 85.8127L632.519 82.1444C631.237 82.7017 630.094 83.4833 629.099 84.4784L631.928 87.3068ZM634.15 85.7966C634.986 85.4133 635.842 85.2266 636.734 85.2266V81.2266C635.257 81.2266 633.834 81.5412 632.483 82.1604L634.15 85.7966ZM636.734 85.2266C637.684 85.2266 638.526 85.4179 639.289 85.7828L641.015 82.1742C639.682 81.5365 638.245 81.2266 636.734 81.2266V85.2266ZM639.383 85.8247C640.231 86.178 640.929 86.6596 641.501 87.2658L644.409 84.5193C643.432 83.4849 642.261 82.6904 640.922 82.1324L639.383 85.8247ZM641.582 87.3466C642.188 87.9191 642.67 88.6164 643.023 89.4645L646.715 87.9261C646.157 86.5867 645.363 85.4155 644.328 84.4386L641.582 87.3466ZM643.035 89.4928C643.377 90.28 643.553 91.1241 643.553 92.0449H647.553C647.553 90.5959 647.272 89.2069 646.703 87.8979L643.035 89.4928ZM780.385 52.1914L778.823 50.942L778.816 50.9508L778.809 50.9596L780.385 52.1914ZM772.66 58.4805L773.585 60.2537L773.595 60.2487L772.66 58.4805ZM746 60.9414V58.9414H744V60.9414H746ZM746 76.9375V78.9375H748V76.9375H746ZM728.158 76.9375H726.158V78.9375H728.158V76.9375ZM728.842 48.5684L730.676 49.3658L730.682 49.3517L730.688 49.3376L728.842 48.5684ZM730.688 45.6973L729.273 44.2831L729.253 44.3033L729.233 44.324L730.688 45.6973ZM733.49 43.7832L734.288 45.6173L734.306 45.6095L734.324 45.6013L733.49 43.7832ZM766.371 41.2539L764.984 39.8133L764.97 39.8264L764.957 39.8397L766.371 41.2539ZM704.096 20.7461H702.096V22.7461H704.096V20.7461ZM704.096 2.97266V0.972656H702.096V2.97266H704.096ZM769.242 4.33984L768.646 6.2488L768.659 6.25307L768.673 6.25714L769.242 4.33984ZM777.309 8.57812L776.063 10.1427L776.07 10.1482L776.077 10.1537L777.309 8.57812ZM745.111 95.5312L746.945 96.3287L746.952 96.3146L746.957 96.3005L745.111 95.5312ZM743.197 98.334L744.611 99.7482L743.197 98.334ZM740.395 100.18L739.625 98.3335L739.611 98.3394L739.597 98.3456L740.395 100.18ZM733.559 100.18L732.761 102.014L732.775 102.02L732.789 102.026L733.559 100.18ZM730.756 98.334L729.302 99.7072L729.341 99.7488L729.383 99.788L730.756 98.334ZM728.842 95.5312L726.996 96.3005L727.015 96.3479L727.038 96.3942L728.842 95.5312ZM728.842 88.6953L727.024 87.862L727.016 87.8799L727.008 87.8979L728.842 88.6953ZM730.756 85.8926L729.342 84.4784L730.756 85.8926ZM733.559 83.9785L734.356 85.8127L734.374 85.8048L734.392 85.7966L733.559 83.9785ZM740.395 83.9785L739.532 85.7828L739.578 85.8049L739.625 85.8247L740.395 83.9785ZM743.197 85.8926L741.743 87.2658L741.782 87.3074L741.824 87.3466L743.197 85.8926ZM745.111 88.6953L743.265 89.4645L743.271 89.4787L743.277 89.4928L745.111 88.6953ZM783.99 35.9219C783.99 38.1997 783.596 40.7175 782.774 43.4874L786.609 44.6258C787.518 41.5624 787.99 38.6571 787.99 35.9219H783.99ZM782.774 43.4874C781.986 46.1431 780.676 48.6259 778.823 50.942L781.947 53.4408C784.104 50.7439 785.665 47.8035 786.609 44.6258L782.774 43.4874ZM778.809 50.9596C777.045 53.2162 774.7 55.1401 771.726 56.7123L773.595 60.2487C777.001 58.4485 779.805 56.1796 781.96 53.4232L778.809 50.9596ZM771.735 56.7073C768.946 58.1625 765.432 58.9414 761.107 58.9414V62.9414C765.898 62.9414 770.085 62.0797 773.585 60.2536L771.735 56.7073ZM761.107 58.9414H746V62.9414H761.107V58.9414ZM744 60.9414V76.9375H748V60.9414H744ZM746 74.9375H728.158V78.9375H746V74.9375ZM730.158 76.9375V51.9863H726.158V76.9375H730.158ZM730.158 51.9863C730.158 51.009 730.338 50.1436 730.676 49.3658L727.008 47.7709C726.434 49.0895 726.158 50.5027 726.158 51.9863H730.158ZM730.688 49.3376C731.055 48.4559 731.541 47.7062 732.142 47.0705L729.233 44.324C728.284 45.329 727.54 46.4933 726.996 47.7991L730.688 49.3376ZM732.102 47.1115C732.747 46.4659 733.473 45.9715 734.288 45.6173L732.693 41.9491C731.411 42.5064 730.268 43.288 729.273 44.2831L732.102 47.1115ZM734.324 45.6013C735.15 45.2226 736.027 45.0312 736.977 45.0312V41.0312C735.465 41.0312 734.018 41.3412 732.657 41.9651L734.324 45.6013ZM736.977 45.0312H761.107V41.0312H736.977V45.0312ZM761.107 45.0312C763.753 45.0312 766.1 44.3538 767.785 42.6681L764.957 39.8397C764.273 40.5238 763.11 41.0312 761.107 41.0312V45.0312ZM767.758 42.6945C769.512 41.0055 770.217 38.6196 770.217 35.9219H766.217C766.217 37.9638 765.691 39.1325 764.984 39.8133L767.758 42.6945ZM770.217 35.9219V27.9238H766.217V35.9219H770.217ZM770.217 27.9238C770.217 25.2725 769.537 22.9253 767.88 21.2045L764.999 23.9791C765.712 24.7193 766.217 25.9267 766.217 27.9238H770.217ZM767.88 21.2045C766.191 19.4505 763.805 18.7461 761.107 18.7461V22.7461C763.149 22.7461 764.318 23.2722 764.999 23.9791L767.88 21.2045ZM761.107 18.7461H704.096V22.7461H761.107V18.7461ZM706.096 20.7461V2.97266H702.096V20.7461H706.096ZM704.096 4.97266H761.107V0.972656H704.096V4.97266ZM761.107 4.97266C763.373 4.97266 765.881 5.38497 768.646 6.2488L769.839 2.43089C766.77 1.47181 763.855 0.972656 761.107 0.972656V4.97266ZM768.673 6.25714C771.335 7.04747 773.796 8.33743 776.063 10.1427L778.554 7.01357C775.9 4.89955 772.983 3.36399 769.811 2.42255L768.673 6.25714ZM776.077 10.1537C778.328 11.9137 780.225 14.2517 781.751 17.2174L785.308 15.388C783.552 11.9736 781.302 9.16178 778.54 7.00251L776.077 10.1537ZM781.751 17.2174C783.212 20.0585 783.99 23.6009 783.99 27.9238H787.99C787.99 23.1321 787.128 18.9272 785.308 15.388L781.751 17.2174ZM783.99 27.9238V35.9219H787.99V27.9238H783.99ZM743.795 92.0449C743.795 93.0217 743.615 93.9214 743.265 94.762L746.957 96.3005C747.519 94.9536 747.795 93.5291 747.795 92.0449H743.795ZM743.277 94.7338C742.923 95.5484 742.429 96.2742 741.783 96.9198L744.611 99.7482C745.607 98.7532 746.388 97.6105 746.945 96.3287L743.277 94.7338ZM741.783 96.9198C741.208 97.4952 740.498 97.97 739.625 98.3335L741.164 102.026C742.479 101.478 743.637 100.722 744.611 99.7482L741.783 96.9198ZM739.597 98.3456C738.819 98.6837 737.954 98.8633 736.977 98.8633V102.863C738.46 102.863 739.873 102.587 741.192 102.014L739.597 98.3456ZM736.977 98.8633C736.056 98.8633 735.178 98.6877 734.328 98.3335L732.789 102.026C734.127 102.583 735.528 102.863 736.977 102.863V98.8633ZM734.356 98.3456C733.518 97.981 732.779 97.4935 732.129 96.88L729.383 99.788C730.374 100.724 731.503 101.467 732.761 102.014L734.356 98.3456ZM732.21 96.9607C731.582 96.2958 731.06 95.5349 730.646 94.6683L727.038 96.3942C727.626 97.624 728.38 98.7315 729.302 99.7072L732.21 96.9607ZM730.688 94.762C730.338 93.9214 730.158 93.0217 730.158 92.0449H726.158C726.158 93.5291 726.434 94.9536 726.996 96.3005L730.688 94.762ZM730.158 92.0449C730.158 91.1241 730.334 90.28 730.676 89.4928L727.008 87.8979C726.438 89.2069 726.158 90.5959 726.158 92.0449H730.158ZM730.66 89.5286C731.072 88.6298 731.579 87.8977 732.17 87.3068L729.342 84.4784C728.383 85.4369 727.614 86.5733 727.024 87.862L730.66 89.5286ZM732.17 87.3068C732.816 86.6612 733.542 86.1668 734.356 85.8127L732.761 82.1444C731.479 82.7017 730.337 83.4833 729.342 84.4784L732.17 87.3068ZM734.392 85.7966C735.228 85.4133 736.084 85.2266 736.977 85.2266V81.2266C735.5 81.2266 734.076 81.5412 732.725 82.1604L734.392 85.7966ZM736.977 85.2266C737.926 85.2266 738.769 85.4179 739.532 85.7828L741.257 82.1742C739.924 81.5365 738.488 81.2266 736.977 81.2266V85.2266ZM739.625 85.8247C740.473 86.178 741.171 86.6596 741.743 87.2658L744.651 84.5193C743.674 83.4849 742.503 82.6904 741.164 82.1324L739.625 85.8247ZM741.824 87.3466C742.43 87.9191 742.912 88.6164 743.265 89.4645L746.957 87.9261C746.399 86.5867 745.605 85.4155 744.57 84.4386L741.824 87.3466ZM743.277 89.4928C743.62 90.28 743.795 91.1241 743.795 92.0449H747.795C747.795 90.5959 747.515 89.2069 746.945 87.8979L743.277 89.4928ZM880.627 52.1914L879.065 50.942L879.058 50.9508L879.051 50.9596L880.627 52.1914ZM872.902 58.4805L873.828 60.2537L873.837 60.2487L872.902 58.4805ZM846.242 60.9414V58.9414H844.242V60.9414H846.242ZM846.242 76.9375V78.9375H848.242V76.9375H846.242ZM828.4 76.9375H826.4V78.9375H828.4V76.9375ZM829.084 48.5684L830.918 49.3658L830.924 49.3517L830.93 49.3376L829.084 48.5684ZM830.93 45.6973L829.516 44.2831L829.495 44.3033L829.476 44.324L830.93 45.6973ZM833.732 43.7832L834.53 45.6173L834.548 45.6095L834.566 45.6013L833.732 43.7832ZM866.613 41.2539L865.226 39.8133L865.212 39.8264L865.199 39.8397L866.613 41.2539ZM804.338 20.7461H802.338V22.7461H804.338V20.7461ZM804.338 2.97266V0.972656H802.338V2.97266H804.338ZM869.484 4.33984L868.888 6.2488L868.901 6.25307L868.915 6.25714L869.484 4.33984ZM877.551 8.57812L876.305 10.1427L876.312 10.1482L876.319 10.1537L877.551 8.57812ZM845.354 95.5312L847.188 96.3287L847.194 96.3146L847.2 96.3005L845.354 95.5312ZM843.439 98.334L844.854 99.7482L843.439 98.334ZM840.637 100.18L839.867 98.3335L839.853 98.3394L839.839 98.3456L840.637 100.18ZM833.801 100.18L833.003 102.014L833.017 102.02L833.032 102.026L833.801 100.18ZM830.998 98.334L829.544 99.7072L829.583 99.7488L829.625 99.788L830.998 98.334ZM829.084 95.5312L827.238 96.3005L827.258 96.3479L827.28 96.3942L829.084 95.5312ZM829.084 88.6953L827.266 87.862L827.258 87.8799L827.25 87.8979L829.084 88.6953ZM830.998 85.8926L829.584 84.4784L830.998 85.8926ZM833.801 83.9785L834.598 85.8127L834.616 85.8048L834.634 85.7966L833.801 83.9785ZM840.637 83.9785L839.774 85.7828L839.82 85.8049L839.867 85.8247L840.637 83.9785ZM843.439 85.8926L841.985 87.2658L842.025 87.3074L842.066 87.3466L843.439 85.8926ZM845.354 88.6953L843.507 89.4645L843.513 89.4787L843.519 89.4928L845.354 88.6953ZM884.232 35.9219C884.232 38.1997 883.839 40.7175 883.016 43.4874L886.851 44.6258C887.76 41.5624 888.232 38.6571 888.232 35.9219H884.232ZM883.016 43.4874C882.228 46.1431 880.918 48.6259 879.065 50.942L882.189 53.4408C884.346 50.7439 885.908 47.8035 886.851 44.6258L883.016 43.4874ZM879.051 50.9596C877.287 53.2162 874.942 55.1401 871.968 56.7123L873.837 60.2487C877.243 58.4485 880.048 56.1796 882.203 53.4232L879.051 50.9596ZM871.977 56.7073C869.188 58.1625 865.674 58.9414 861.35 58.9414V62.9414C866.14 62.9414 870.328 62.0797 873.827 60.2536L871.977 56.7073ZM861.35 58.9414H846.242V62.9414H861.35V58.9414ZM844.242 60.9414V76.9375H848.242V60.9414H844.242ZM846.242 74.9375H828.4V78.9375H846.242V74.9375ZM830.4 76.9375V51.9863H826.4V76.9375H830.4ZM830.4 51.9863C830.4 51.009 830.58 50.1436 830.918 49.3658L827.25 47.7709C826.677 49.0895 826.4 50.5027 826.4 51.9863H830.4ZM830.93 49.3376C831.297 48.4559 831.783 47.7062 832.384 47.0705L829.476 44.324C828.526 45.329 827.782 46.4933 827.238 47.7991L830.93 49.3376ZM832.344 47.1115C832.99 46.4659 833.715 45.9715 834.53 45.6173L832.935 41.9491C831.653 42.5064 830.51 43.288 829.516 44.2831L832.344 47.1115ZM834.566 45.6013C835.392 45.2226 836.269 45.0312 837.219 45.0312V41.0312C835.707 41.0312 834.26 41.3412 832.899 41.9651L834.566 45.6013ZM837.219 45.0312H861.35V41.0312H837.219V45.0312ZM861.35 45.0312C863.995 45.0312 866.342 44.3538 868.027 42.6681L865.199 39.8397C864.515 40.5238 863.352 41.0312 861.35 41.0312V45.0312ZM868.001 42.6945C869.755 41.0055 870.459 38.6196 870.459 35.9219H866.459C866.459 37.9638 865.933 39.1325 865.226 39.8133L868.001 42.6945ZM870.459 35.9219V27.9238H866.459V35.9219H870.459ZM870.459 27.9238C870.459 25.2725 869.779 22.9253 868.122 21.2045L865.241 23.9791C865.954 24.7193 866.459 25.9267 866.459 27.9238H870.459ZM868.122 21.2045C866.433 19.4505 864.047 18.7461 861.35 18.7461V22.7461C863.391 22.7461 864.56 23.2722 865.241 23.9791L868.122 21.2045ZM861.35 18.7461H804.338V22.7461H861.35V18.7461ZM806.338 20.7461V2.97266H802.338V20.7461H806.338ZM804.338 4.97266H861.35V0.972656H804.338V4.97266ZM861.35 4.97266C863.615 4.97266 866.124 5.38497 868.888 6.2488L870.081 2.43089C867.012 1.47181 864.097 0.972656 861.35 0.972656V4.97266ZM868.915 6.25714C871.577 7.04747 874.038 8.33743 876.305 10.1427L878.797 7.01357C876.142 4.89955 873.225 3.36399 870.054 2.42255L868.915 6.25714ZM876.319 10.1537C878.57 11.9137 880.468 14.2517 881.993 17.2174L885.55 15.388C883.794 11.9736 881.544 9.16178 878.783 7.00251L876.319 10.1537ZM881.993 17.2174C883.454 20.0585 884.232 23.6009 884.232 27.9238H888.232C888.232 23.1321 887.37 18.9272 885.55 15.388L881.993 17.2174ZM884.232 27.9238V35.9219H888.232V27.9238H884.232ZM844.037 92.0449C844.037 93.0217 843.858 93.9214 843.507 94.762L847.2 96.3005C847.761 94.9536 848.037 93.5291 848.037 92.0449H844.037ZM843.519 94.7338C843.165 95.5484 842.671 96.2742 842.025 96.9198L844.854 99.7482C845.849 98.7532 846.63 97.6105 847.188 96.3287L843.519 94.7338ZM842.025 96.9198C841.45 97.4952 840.74 97.97 839.867 98.3335L841.406 102.026C842.721 101.478 843.88 100.722 844.854 99.7482L842.025 96.9198ZM839.839 98.3456C839.062 98.6837 838.196 98.8633 837.219 98.8633V102.863C838.702 102.863 840.116 102.587 841.434 102.014L839.839 98.3456ZM837.219 98.8633C836.298 98.8633 835.42 98.6877 834.57 98.3335L833.032 102.026C834.369 102.583 835.77 102.863 837.219 102.863V98.8633ZM834.598 98.3456C833.76 97.981 833.021 97.4935 832.371 96.88L829.625 99.788C830.616 100.724 831.745 101.467 833.003 102.014L834.598 98.3456ZM832.452 96.9607C831.824 96.2958 831.303 95.5349 830.888 94.6683L827.28 96.3942C827.868 97.624 828.623 98.7315 829.544 99.7072L832.452 96.9607ZM830.93 94.762C830.58 93.9214 830.4 93.0217 830.4 92.0449H826.4C826.4 93.5291 826.677 94.9536 827.238 96.3005L830.93 94.762ZM830.4 92.0449C830.4 91.1241 830.576 90.28 830.918 89.4928L827.25 87.8979C826.681 89.2069 826.4 90.5959 826.4 92.0449H830.4ZM830.902 89.5286C831.314 88.6298 831.821 87.8977 832.412 87.3068L829.584 84.4784C828.625 85.4369 827.857 86.5733 827.266 87.862L830.902 89.5286ZM832.412 87.3068C833.058 86.6612 833.784 86.1668 834.598 85.8127L833.003 82.1444C831.722 82.7017 830.579 83.4833 829.584 84.4784L832.412 87.3068ZM834.634 85.7966C835.471 85.4133 836.326 85.2266 837.219 85.2266V81.2266C835.742 81.2266 834.319 81.5412 832.967 82.1604L834.634 85.7966ZM837.219 85.2266C838.169 85.2266 839.011 85.4179 839.774 85.7828L841.5 82.1742C840.166 81.5365 838.73 81.2266 837.219 81.2266V85.2266ZM839.867 85.8247C840.716 86.178 841.413 86.6596 841.985 87.2658L844.893 84.5193C843.917 83.4849 842.745 82.6904 841.406 82.1324L839.867 85.8247ZM842.066 87.3466C842.672 87.9191 843.154 88.6164 843.507 89.4645L847.2 87.9261C846.642 86.5867 845.847 85.4155 844.813 84.4386L842.066 87.3466ZM843.519 89.4928C843.862 90.28 844.037 91.1241 844.037 92.0449H848.037C848.037 90.5959 847.757 89.2069 847.188 87.8979L843.519 89.4928Z" fill="white" fill-opacity="0.2" mask="url(#path-1-outside-1_183_1122)"/>
</svg>
