<svg width="142" height="57" viewBox="0 0 142 57" fill="none" xmlns="http://www.w3.org/2000/svg">
    <path d="M118.472 16.7411V21.666H138.411V35.7904H118.496V40.9599H141.077V55.7824H91.9238V1.76057C92.4608 1.73373 92.9888 1.68898 93.5167 1.68898C108.581 1.686 123.645 1.69793 138.709 1.66214C140.007 1.65915 140.537 1.90972 140.499 3.36244C140.394 7.28804 140.421 11.2166 140.487 15.1422C140.505 16.3116 140.162 16.6844 138.974 16.6755C132.662 16.6248 126.347 16.6516 120.032 16.6576C119.546 16.6576 119.063 16.7083 118.472 16.7411Z" fill="white"/>
    <path d="M86.9123 34.5974C86.7453 39.3374 86.5842 44.0475 86.4172 48.7576C86.3665 50.1984 86.1964 51.6422 86.271 53.074C86.3366 54.3298 85.8623 54.9055 84.6632 55.0607C80.7316 55.5678 76.8149 56.2658 72.8685 56.582C64.8084 57.2263 56.8856 56.5343 49.3417 53.3395C42.9312 50.625 37.4664 46.7083 33.8958 40.5723C28.7531 31.7367 30.0716 21.0338 37.195 13.287C43.5249 6.39928 51.5819 2.8734 60.6531 1.43262C68.7132 0.15292 76.6867 0.949377 84.6125 2.63774C85.8385 2.89726 86.2531 3.38946 86.2799 4.70197C86.3873 10.3637 86.6528 16.0224 86.8527 21.6811C86.8736 22.2628 86.8527 22.8474 86.8527 23.6946C85.7281 23.0324 84.8213 22.4686 83.8876 21.9466C77.9783 18.6444 71.8065 17.144 65.1694 19.4528C62.076 20.5297 59.4987 22.3642 58.0878 25.4456C56.4322 29.061 57.521 32.9478 60.9067 35.6474C64.5996 38.5916 68.9011 39.4746 73.5068 39.2001C78.026 38.9317 82.1425 37.467 85.8683 34.9017C86.0711 34.7615 86.2949 34.6511 86.5126 34.5348C86.5454 34.5169 86.6051 34.5467 86.9064 34.5974H86.9123Z" fill="white"/>
    <path d="M0.898438 1.76758H27.0413V55.7983H0.898438V1.76758Z" fill="white"/>
</svg>
