<svg width="465" height="236" viewBox="0 0 465 236" fill="none" xmlns="http://www.w3.org/2000/svg">
    <g filter="url(#filter0_b_172_1028)">
        <path d="M431.838 193.395L265.655 194.301L251.617 180.922H158.404L128.815 210H18.9842L18.9349 123.14L9 113.498L10.0974 18.1483L420.456 17L451 48.7163L450.937 174.679L431.838 193.395Z" fill="url(#paint0_linear_172_1028)" fill-opacity="0.4"/>
        <path d="M251.962 180.56L251.817 180.422H251.617H158.404H158.2L158.054 180.566L128.61 209.5H19.4839L19.4349 123.14L19.4348 122.929L19.2831 122.781L9.50244 113.289L10.5917 18.647L420.244 17.5006L450.5 48.9178L450.437 174.469L431.633 192.896L265.854 193.8L251.962 180.56Z" stroke="white"/>
    </g>
    <path d="M10.3873 12.8049C10.8006 12.1343 11.3058 11.9782 11.9258 11.9828C13.4552 12.0012 14.9845 11.9828 16.5139 11.9828C156.516 11.9828 296.514 11.9828 436.517 11.9874C436.825 11.9874 437.132 12.0149 437.436 11.9874C438.896 11.845 439.966 12.5339 440.944 13.5305C443.622 16.2723 446.336 18.982 449.037 21.7009C451.333 24.0156 453.625 26.3348 455.935 28.6404C458.25 30.9459 460.546 33.2652 462.916 35.511C464.179 36.7097 464.794 38.0186 464.789 39.8143C464.753 85.5296 464.757 131.25 464.753 176.965C464.753 177.842 464.721 178.724 464.766 179.601C464.835 180.873 464.362 181.916 463.49 182.784C460.197 186.067 456.876 189.324 453.583 192.603C451.296 194.881 449.037 197.191 446.759 199.478C445.261 200.984 443.76 202.486 442.235 203.965C442.005 204.19 441.647 204.351 441.33 204.401C440.655 204.507 439.966 204.571 439.282 204.571C380.298 204.58 321.315 204.585 262.331 204.58C258.574 204.58 259.286 204.755 256.742 202.307C254.859 200.493 253.031 198.619 251.18 196.768C248.953 194.541 246.73 192.3 244.498 190.077C243.768 189.351 242.891 189.016 241.83 189.016C215.932 189.03 190.038 189.03 164.14 189.016C163.001 189.016 162.129 189.37 161.307 190.187C156.87 194.628 152.374 199.01 147.928 203.437C144.911 206.445 141.958 209.513 138.95 212.526C136.594 214.891 134.187 217.206 131.817 219.562C128.8 222.565 125.801 225.583 122.793 228.595C120.965 230.428 119.132 232.256 117.304 234.084C116.588 234.8 115.724 235.044 114.705 235.039C94.0885 235.025 73.4674 235.03 52.851 235.03C38.8893 235.03 24.9276 235.03 10.9659 235.03C9.46414 235.03 8.82576 234.359 8.84413 232.853C8.89006 228.729 8.92221 224.6 8.96354 220.476C8.96354 220.094 8.94977 219.709 8.97732 219.327C9.0508 218.221 9.71215 217.445 10.649 217.527C11.8202 217.628 12.4953 218.115 12.4769 219.383C12.4264 222.744 12.4586 226.111 12.4631 229.473C12.4631 229.854 12.4448 230.249 12.5366 230.612C12.7617 231.526 13.152 231.76 14.1027 231.686C14.6355 231.645 15.1728 231.631 15.7056 231.631C48.1435 231.631 80.5815 231.631 113.019 231.659C114.498 231.659 115.495 231.098 116.464 230.047C117.975 228.403 119.647 226.905 121.231 225.326C122.678 223.883 124.083 222.395 125.534 220.958C127.927 218.583 130.357 216.246 132.74 213.867C135.078 211.529 137.37 209.15 139.698 206.803C141.696 204.792 143.726 202.803 145.733 200.801C148.415 198.123 151.088 195.427 153.779 192.754C155.956 190.587 158.119 188.401 160.37 186.302C160.847 185.856 161.637 185.64 162.317 185.544C163.217 185.415 164.149 185.512 165.068 185.512C190.658 185.512 216.249 185.512 241.839 185.521C245.173 185.521 244.553 185.025 247.313 187.767C249.605 190.045 251.883 192.336 254.17 194.619C256.026 196.47 257.872 198.33 259.746 200.162C260.37 200.773 261.156 200.961 262.047 200.957C270.272 200.934 278.497 200.939 286.718 200.939C337.362 200.939 388.009 200.938 438.653 200.971C439.952 200.971 440.894 200.557 441.776 199.676C445.399 196.038 449.069 192.447 452.697 188.814C455.09 186.421 457.437 183.982 459.825 181.585C460.748 180.662 461.235 179.633 461.014 178.301C460.941 177.856 460.982 177.387 460.982 176.928C460.982 131.746 460.982 86.563 460.978 41.385C460.978 40.9257 460.95 40.4664 460.978 40.0072C461.028 39.0932 460.628 38.3952 460.008 37.7752C456.725 34.5098 453.441 31.249 450.171 27.9744C447.089 24.8882 444.021 21.7835 440.944 18.6881C440.063 17.8017 439.144 16.9429 438.285 16.0335C437.771 15.487 437.178 15.3033 436.448 15.3125C434.078 15.3354 431.704 15.3216 429.334 15.3216C290.902 15.3216 152.47 15.3217 14.0384 15.3262C13.3128 15.3262 12.5826 15.34 11.8569 15.3216C10.7317 15.2941 10.424 14.9864 10.3873 13.8933C10.3735 13.4754 10.3873 13.0575 10.3873 12.7635V12.8049Z" fill="#25B1FF"/>
    <path d="M362.549 216.507C362.392 217.627 361.621 218.059 361.033 218.628C360.027 219.607 358.975 220.543 358.029 221.581C357.4 222.27 356.707 222.5 355.811 222.495C350.686 222.472 345.56 222.477 340.435 222.477C308.116 222.477 275.798 222.477 243.484 222.495C242.621 222.495 241.955 222.243 241.353 221.627C239.994 220.236 238.574 218.904 237.229 217.499C236.499 216.736 235.663 216.318 234.62 216.309C233.628 216.3 232.632 216.309 231.635 216.309C209.604 216.309 187.578 216.323 165.547 216.286C163.797 216.286 162.447 216.81 161.367 218.174C160.628 219.111 159.677 219.588 158.4 219.57C154.386 219.51 150.368 219.551 146.354 219.551C145.748 219.551 145.086 219.634 144.875 218.693C145.045 218.481 145.224 218.192 145.463 217.962C147.493 216.024 149.532 214.091 151.576 212.166C153.697 210.164 155.847 208.194 157.95 206.168C158.777 205.374 159.691 205.071 160.83 205.071C186.494 205.089 212.157 205.08 237.817 205.089C240.903 205.089 240.448 204.621 243.08 207.294C245.794 210.054 248.54 212.786 251.31 215.487C251.654 215.822 252.247 215.997 252.752 216.061C253.505 216.157 254.277 216.093 255.044 216.093C289.769 216.093 324.498 216.093 359.224 216.093C359.912 216.093 360.606 216.024 361.286 216.093C361.727 216.139 362.149 216.373 362.539 216.511L362.549 216.507Z" fill="#25B1FF"/>
    <path d="M127.441 6.43891C89.4964 6.43891 51.5519 6.43891 13.6073 6.43891C13.3777 6.43891 13.1481 6.4435 12.9184 6.43431C11.9218 6.38379 11.3799 5.87401 11.3431 4.86362C11.311 3.83487 11.3248 2.80152 11.3477 1.76817C11.3799 0.514378 11.8483 0.0275559 13.0884 0.0183706C15.6878 -1.7109e-09 18.2918 0.00918531 20.8913 0.00918531C93.9099 0.00918531 166.929 0.00918531 239.947 0.00918531C240.673 0.00918531 241.403 -0.0275559 242.124 0.0459266C243.158 0.146965 243.511 0.564897 243.525 1.60743C243.539 2.64078 243.548 3.67413 243.525 4.70288C243.497 5.84186 242.965 6.39757 241.835 6.42972C240.801 6.46187 239.768 6.42972 238.735 6.42972C201.631 6.42972 164.531 6.42972 127.427 6.42972V6.43891H127.441Z" fill="#25B1FF"/>
    <path d="M4.32561 62.9836C4.32561 78.7272 4.32561 94.4709 4.31643 110.219C4.31643 111.128 4.46799 111.877 5.19822 112.561C6.93424 114.196 8.56923 115.937 10.2501 117.632C11.0768 118.467 11.9954 119.225 12.7072 120.148C13.116 120.681 13.3594 121.453 13.3961 122.137C13.4926 123.85 13.4283 125.572 13.4283 127.295C13.4283 139.869 13.4283 152.439 13.4283 165.014C13.4283 165.437 13.4374 165.855 13.4191 166.277C13.364 167.604 13.0379 167.944 11.7933 167.967C10.5533 167.995 10.0435 167.549 9.92866 166.328C9.90569 166.098 9.91947 165.868 9.91947 165.639C9.91947 151.806 9.91947 137.973 9.95621 124.139C9.95621 122.844 9.51532 121.88 8.62434 120.998C6.3326 118.725 4.09139 116.396 1.79047 114.132C1.07861 113.42 0.780082 112.63 0.789268 111.666C0.798453 110.518 0.789268 109.374 0.789268 108.226C0.789268 77.5377 0.789268 46.8542 0.789268 16.1661C0.789268 15.5966 0.798453 15.0179 0.867343 14.453C0.959196 13.7228 1.34957 13.2589 2.15788 13.2865C2.2727 13.2865 2.38751 13.2727 2.50233 13.2727C3.96279 13.2314 4.23376 13.4794 4.32102 14.949C4.34858 15.4083 4.3348 15.8675 4.3348 16.3222C4.3348 31.8775 4.3348 47.4283 4.3348 62.9836H4.32102H4.32561Z" fill="#25B1FF"/>
    <path d="M454.407 174.159C454.334 173.552 454.311 88.4137 454.348 46.4552C454.348 45.0085 453.429 44.2645 452.626 43.3965C451.803 42.5101 450.862 41.7294 450.022 40.8614C449.751 40.5812 449.521 40.1679 449.466 39.7913C449.333 38.9141 450.021 38.4135 450.839 38.7442C451.115 38.8544 451.386 39.0335 451.597 39.2448C452.887 40.5353 454.137 41.8718 455.45 43.1393C456.13 43.7961 456.414 44.5079 456.41 45.4632C456.387 65.2208 456.392 84.9738 456.392 104.731C456.392 127.355 456.35 174.085 456.35 174.085L454.407 174.163V174.159Z" fill="#25B1FF"/>
    <path d="M62.4788 226.822C60.9127 226.822 59.3466 226.827 57.7806 226.822C56.637 226.818 56.3155 226.551 56.3017 225.431C56.2742 222.799 56.2696 220.163 56.3017 217.527C56.3155 216.333 56.6416 216.08 57.854 216.08C60.8714 216.08 63.8888 216.085 66.9062 216.08C68.5503 216.08 68.8994 216.397 68.904 217.981C68.9132 220.347 68.9177 222.716 68.8948 225.082C68.881 226.386 68.4814 226.786 67.1771 226.799C65.611 226.822 64.0449 226.804 62.4788 226.804C62.4788 226.804 62.4788 226.813 62.4788 226.818V226.822Z" fill="#25B1FF"/>
    <path d="M36.4278 226.285C36.3773 226 36.2854 225.743 36.2854 225.481C36.2717 222.812 36.2533 220.14 36.2854 217.471C36.2946 216.475 36.7217 216.112 37.8515 216.089C39.6473 216.057 41.4384 216.084 43.2341 216.084C44.5706 216.084 45.9071 216.052 47.2435 216.103C47.7855 216.126 48.3182 216.337 48.9153 216.475V226.252C47.5237 227.001 37.9158 227.024 36.437 226.285H36.4278Z" fill="#25B1FF"/>
    <path d="M22.651 216.09C24.1804 216.09 25.7051 216.076 27.2345 216.09C28.5342 216.103 28.9521 216.494 28.9705 217.807C29.0026 220.209 28.9981 222.616 28.9705 225.018C28.9567 226.414 28.6123 226.758 27.1702 226.786C25.1494 226.823 23.124 226.795 21.0987 226.8C20.0699 226.8 19.0366 226.836 18.0078 226.823C16.7724 226.804 16.3545 226.405 16.3453 225.183C16.3269 222.666 16.3269 220.145 16.3499 217.628C16.3637 216.411 16.7311 216.076 17.9527 216.067C19.5188 216.057 21.0849 216.067 22.6464 216.067C22.6464 216.071 22.6464 216.08 22.6464 216.085L22.651 216.09Z" fill="#25B1FF"/>
    <path d="M10.3873 12.8049C10.8006 12.1343 11.3058 11.9782 11.9258 11.9828C13.4552 12.0012 14.9845 11.9828 16.5139 11.9828C156.516 11.9828 296.514 11.9828 436.517 11.9874C436.825 11.9874 437.132 12.0149 437.436 11.9874C438.896 11.845 439.966 12.5339 440.944 13.5305C443.622 16.2723 446.336 18.982 449.037 21.7009C451.333 24.0156 453.625 26.3348 455.935 28.6404C458.25 30.9459 460.546 33.2652 462.916 35.511C464.179 36.7097 464.794 38.0186 464.789 39.8143C464.753 85.5296 464.757 131.25 464.753 176.965C464.753 177.842 464.721 178.724 464.766 179.601C464.835 180.873 464.362 181.916 463.49 182.784C460.197 186.067 456.876 189.324 453.583 192.603C451.296 194.881 449.037 197.191 446.759 199.478C445.261 200.984 443.76 202.486 442.235 203.965C442.005 204.19 441.647 204.351 441.33 204.401C440.655 204.507 439.966 204.571 439.282 204.571C380.298 204.58 321.315 204.585 262.331 204.58C258.574 204.58 259.286 204.755 256.742 202.307C254.859 200.493 253.031 198.619 251.18 196.768C248.953 194.541 246.73 192.3 244.498 190.077C243.768 189.351 242.891 189.016 241.83 189.016C215.932 189.03 190.038 189.03 164.14 189.016C163.001 189.016 162.129 189.37 161.307 190.187C156.87 194.628 152.374 199.01 147.928 203.437C144.911 206.445 141.958 209.513 138.95 212.526C136.594 214.891 134.187 217.206 131.817 219.562C128.8 222.565 125.801 225.583 122.793 228.595C120.965 230.428 119.132 232.256 117.304 234.084C116.588 234.8 115.724 235.044 114.705 235.039C94.0885 235.025 73.4674 235.03 52.851 235.03C38.8893 235.03 24.9276 235.03 10.9659 235.03C9.46414 235.03 8.82576 234.359 8.84413 232.853C8.89006 228.729 8.92221 224.6 8.96354 220.476C8.96354 220.094 8.94977 219.709 8.97732 219.327C9.0508 218.221 9.71215 217.445 10.649 217.527C11.8202 217.628 12.4953 218.115 12.4769 219.383C12.4264 222.744 12.4586 226.111 12.4631 229.473C12.4631 229.854 12.4448 230.249 12.5366 230.612C12.7617 231.526 13.152 231.76 14.1027 231.686C14.6355 231.645 15.1728 231.631 15.7056 231.631C48.1435 231.631 80.5815 231.631 113.019 231.659C114.498 231.659 115.495 231.098 116.464 230.047C117.975 228.403 119.647 226.905 121.231 225.326C122.678 223.883 124.083 222.395 125.534 220.958C127.927 218.583 130.357 216.246 132.74 213.867C135.078 211.529 137.37 209.15 139.698 206.803C141.696 204.792 143.726 202.803 145.733 200.801C148.415 198.123 151.088 195.427 153.779 192.754C155.956 190.587 158.119 188.401 160.37 186.302C160.847 185.856 161.637 185.64 162.317 185.544C163.217 185.415 164.149 185.512 165.068 185.512C190.658 185.512 216.249 185.512 241.839 185.521C245.173 185.521 244.553 185.025 247.313 187.767C249.605 190.045 251.883 192.336 254.17 194.619C256.026 196.47 257.872 198.33 259.746 200.162C260.37 200.773 261.156 200.961 262.047 200.957C270.272 200.934 278.497 200.939 286.718 200.939C337.362 200.939 388.009 200.938 438.653 200.971C439.952 200.971 440.894 200.557 441.776 199.676C445.399 196.038 449.069 192.447 452.697 188.814C455.09 186.421 457.437 183.982 459.825 181.585C460.748 180.662 461.235 179.633 461.014 178.301C460.941 177.856 460.982 177.387 460.982 176.928C460.982 131.746 460.982 86.563 460.978 41.385C460.978 40.9257 460.95 40.4664 460.978 40.0072C461.028 39.0932 460.628 38.3952 460.008 37.7752C456.725 34.5098 453.441 31.249 450.171 27.9744C447.089 24.8882 444.021 21.7835 440.944 18.6881C440.063 17.8017 439.144 16.9429 438.285 16.0335C437.771 15.487 437.178 15.3033 436.448 15.3125C434.078 15.3354 431.704 15.3216 429.334 15.3216C290.902 15.3216 152.47 15.3217 14.0384 15.3262C13.3128 15.3262 12.5826 15.34 11.8569 15.3216C10.7317 15.2941 10.424 14.9864 10.3873 13.8933C10.3735 13.4754 10.3873 13.0575 10.3873 12.7635V12.8049Z" fill="white"/>
    <path d="M362.549 216.507C362.392 217.627 361.621 218.059 361.033 218.628C360.027 219.607 358.975 220.543 358.029 221.581C357.4 222.27 356.707 222.5 355.811 222.495C350.686 222.472 345.56 222.477 340.435 222.477C308.116 222.477 275.798 222.477 243.484 222.495C242.621 222.495 241.955 222.243 241.353 221.627C239.994 220.236 238.574 218.904 237.229 217.499C236.499 216.736 235.663 216.318 234.62 216.309C233.628 216.3 232.632 216.309 231.635 216.309C209.604 216.309 187.578 216.323 165.547 216.286C163.797 216.286 162.447 216.81 161.367 218.174C160.628 219.111 159.677 219.588 158.4 219.57C154.386 219.51 150.368 219.551 146.354 219.551C145.748 219.551 145.086 219.634 144.875 218.693C145.045 218.481 145.224 218.192 145.463 217.962C147.493 216.024 149.532 214.091 151.576 212.166C153.697 210.164 155.847 208.194 157.95 206.168C158.777 205.374 159.691 205.071 160.83 205.071C186.494 205.089 212.157 205.08 237.817 205.089C240.903 205.089 240.448 204.621 243.08 207.294C245.794 210.054 248.54 212.786 251.31 215.487C251.654 215.822 252.247 215.997 252.752 216.061C253.505 216.157 254.277 216.093 255.044 216.093C289.769 216.093 324.498 216.093 359.224 216.093C359.912 216.093 360.606 216.024 361.286 216.093C361.727 216.139 362.149 216.373 362.539 216.511L362.549 216.507Z" fill="white"/>
    <path d="M127.441 6.43891C89.4964 6.43891 51.5519 6.43891 13.6073 6.43891C13.3777 6.43891 13.1481 6.4435 12.9184 6.43431C11.9218 6.38379 11.3799 5.87401 11.3431 4.86362C11.311 3.83487 11.3248 2.80152 11.3477 1.76817C11.3799 0.514378 11.8483 0.0275559 13.0884 0.0183706C15.6878 -1.7109e-09 18.2918 0.00918531 20.8913 0.00918531C93.9099 0.00918531 166.929 0.00918531 239.947 0.00918531C240.673 0.00918531 241.403 -0.0275559 242.124 0.0459266C243.158 0.146965 243.511 0.564897 243.525 1.60743C243.539 2.64078 243.548 3.67413 243.525 4.70288C243.497 5.84186 242.965 6.39757 241.835 6.42972C240.801 6.46187 239.768 6.42972 238.735 6.42972C201.631 6.42972 164.531 6.42972 127.427 6.42972V6.43891H127.441Z" fill="white"/>
    <path d="M4.32561 62.9836C4.32561 78.7272 4.32561 94.4709 4.31643 110.219C4.31643 111.128 4.46799 111.877 5.19822 112.561C6.93424 114.196 8.56923 115.937 10.2501 117.632C11.0768 118.467 11.9954 119.225 12.7072 120.148C13.116 120.681 13.3594 121.453 13.3961 122.137C13.4926 123.85 13.4283 125.572 13.4283 127.295C13.4283 139.869 13.4283 152.439 13.4283 165.014C13.4283 165.437 13.4374 165.855 13.4191 166.277C13.364 167.604 13.0379 167.944 11.7933 167.967C10.5533 167.995 10.0435 167.549 9.92866 166.328C9.90569 166.098 9.91947 165.868 9.91947 165.639C9.91947 151.806 9.91947 137.973 9.95621 124.139C9.95621 122.844 9.51532 121.88 8.62434 120.998C6.3326 118.725 4.09139 116.396 1.79047 114.132C1.07861 113.42 0.780082 112.63 0.789268 111.666C0.798453 110.518 0.789268 109.374 0.789268 108.226C0.789268 77.5377 0.789268 46.8542 0.789268 16.1661C0.789268 15.5966 0.798453 15.0179 0.867343 14.453C0.959196 13.7228 1.34957 13.2589 2.15788 13.2865C2.2727 13.2865 2.38751 13.2727 2.50233 13.2727C3.96279 13.2314 4.23376 13.4794 4.32102 14.949C4.34858 15.4083 4.3348 15.8675 4.3348 16.3222C4.3348 31.8775 4.3348 47.4283 4.3348 62.9836H4.32102H4.32561Z" fill="white"/>
    <path d="M454.407 174.159C454.334 173.552 454.311 88.4137 454.348 46.4552C454.348 45.0085 453.429 44.2645 452.626 43.3965C451.803 42.5101 450.862 41.7294 450.022 40.8614C449.751 40.5812 449.521 40.1679 449.466 39.7913C449.333 38.9141 450.021 38.4135 450.839 38.7442C451.115 38.8544 451.386 39.0335 451.597 39.2448C452.887 40.5353 454.137 41.8718 455.45 43.1393C456.13 43.7961 456.414 44.5079 456.41 45.4632C456.387 65.2208 456.392 84.9738 456.392 104.731C456.392 127.355 456.35 174.085 456.35 174.085L454.407 174.163V174.159Z" fill="white"/>
    <path d="M62.4788 226.822C60.9127 226.822 59.3466 226.827 57.7806 226.822C56.637 226.818 56.3155 226.551 56.3017 225.431C56.2742 222.799 56.2696 220.163 56.3017 217.527C56.3155 216.333 56.6416 216.08 57.854 216.08C60.8714 216.08 63.8888 216.085 66.9062 216.08C68.5503 216.08 68.8994 216.397 68.904 217.981C68.9132 220.347 68.9177 222.716 68.8948 225.082C68.881 226.386 68.4814 226.786 67.1771 226.799C65.611 226.822 64.0449 226.804 62.4788 226.804C62.4788 226.804 62.4788 226.813 62.4788 226.818V226.822Z" fill="white"/>
    <path d="M36.4278 226.285C36.3773 226 36.2854 225.743 36.2854 225.481C36.2717 222.812 36.2533 220.14 36.2854 217.471C36.2946 216.475 36.7217 216.112 37.8515 216.089C39.6473 216.057 41.4384 216.084 43.2341 216.084C44.5706 216.084 45.9071 216.052 47.2435 216.103C47.7855 216.126 48.3182 216.337 48.9153 216.475V226.252C47.5237 227.001 37.9158 227.024 36.437 226.285H36.4278Z" fill="white"/>
    <path d="M22.651 216.09C24.1804 216.09 25.7051 216.076 27.2345 216.09C28.5342 216.103 28.9521 216.494 28.9705 217.807C29.0026 220.209 28.9981 222.616 28.9705 225.018C28.9567 226.414 28.6123 226.758 27.1702 226.786C25.1494 226.823 23.124 226.795 21.0987 226.8C20.0699 226.8 19.0366 226.836 18.0078 226.823C16.7724 226.804 16.3545 226.405 16.3453 225.183C16.3269 222.666 16.3269 220.145 16.3499 217.628C16.3637 216.411 16.7311 216.076 17.9527 216.067C19.5188 216.057 21.0849 216.067 22.6464 216.067C22.6464 216.071 22.6464 216.08 22.6464 216.085L22.651 216.09Z" fill="white"/>
    <defs>
        <filter id="filter0_b_172_1028" x="-23" y="-15" width="506" height="257" filterUnits="userSpaceOnUse" color-interpolation-filters="sRGB">
            <feFlood flood-opacity="0" result="BackgroundImageFix"/>
            <feGaussianBlur in="BackgroundImageFix" stdDeviation="16"/>
            <feComposite in2="SourceAlpha" operator="in" result="effect1_backgroundBlur_172_1028"/>
            <feBlend mode="normal" in="SourceGraphic" in2="effect1_backgroundBlur_172_1028" result="shape"/>
        </filter>
        <linearGradient id="paint0_linear_172_1028" x1="-15.4594" y1="39.6583" x2="426.136" y2="-4.04204" gradientUnits="userSpaceOnUse">
            <stop offset="0.025" stop-color="#25B1FF"/>
            <stop offset="1" stop-color="#02121B" stop-opacity="0.3"/>
        </linearGradient>
    </defs>
</svg>
