<svg width="969" height="86" viewBox="0 0 969 86" fill="none" xmlns="http://www.w3.org/2000/svg">
    <mask id="path-1-outside-1_172_1181" maskUnits="userSpaceOnUse" x="0" y="0" width="969" height="86" fill="black">
        <rect fill="white" width="969" height="86"/>
        <path d="M88.4458 50.4316C88.4458 55.3356 87.6035 59.8465 85.9189 63.9644C84.2344 68.0822 81.8947 71.6385 78.8999 74.6333C75.9051 77.6281 72.3488 79.9678 68.231 81.6523C64.1506 83.2995 59.6958 84.123 54.8667 84.123H35.1011C30.272 84.123 25.7985 83.2995 21.6807 81.6523C17.5628 79.9678 14.0065 77.6281 11.0117 74.6333C8.01693 71.6385 5.65853 68.0822 3.93652 63.9644C2.25195 59.8465 1.40967 55.3356 1.40967 50.4316V35.0459C1.40967 30.1794 2.25195 25.6872 3.93652 21.5693C5.65853 17.4141 8.01693 13.8577 11.0117 10.9004C14.0065 7.9056 17.5628 5.56592 21.6807 3.88135C25.7985 2.19678 30.272 1.35449 35.1011 1.35449H54.8667C59.6958 1.35449 64.1506 2.19678 68.231 3.88135C72.3488 5.56592 75.9051 7.9056 78.8999 10.9004C81.8947 13.8577 84.2344 17.4141 85.9189 21.5693C87.6035 25.6872 88.4458 30.1794 88.4458 35.0459V50.4316ZM73.8462 35.0459C73.8462 32.1634 73.3783 29.5617 72.4424 27.2407C71.5439 24.8823 70.2524 22.8796 68.5679 21.2324C66.9207 19.5479 64.918 18.2563 62.5596 17.3579C60.2386 16.422 57.6743 15.9541 54.8667 15.9541H35.1011C32.256 15.9541 29.6543 16.422 27.2959 17.3579C24.9749 18.2563 22.9722 19.5479 21.2876 21.2324C19.603 22.8796 18.2928 24.8823 17.3569 27.2407C16.4585 29.5617 16.0093 32.1634 16.0093 35.0459V50.4316C16.0093 53.3141 16.4585 55.9346 17.3569 58.293C18.2928 60.6139 19.603 62.6167 21.2876 64.3013C22.9722 65.9484 24.9749 67.2399 27.2959 68.1758C29.6543 69.0742 32.256 69.5234 35.1011 69.5234H54.7544C57.5994 69.5234 60.1825 69.0742 62.5034 68.1758C64.8618 67.2399 66.8833 65.9484 68.5679 64.3013C70.2524 62.6167 71.5439 60.6139 72.4424 58.293C73.3783 55.9346 73.8462 53.3141 73.8462 50.4316V35.0459ZM188.671 75.644C188.671 76.6922 188.484 77.6655 188.109 78.564C187.735 79.4624 187.211 80.2485 186.537 80.9224C185.863 81.5588 185.077 82.0641 184.179 82.4385C183.28 82.8128 182.326 83 181.315 83H148.41C145.303 83 142.158 82.6631 138.976 81.9893C135.794 81.3154 132.706 80.286 129.711 78.9009C126.754 77.4784 123.965 75.6815 121.344 73.5103C118.724 71.339 116.422 68.7747 114.438 65.8174C112.491 62.8226 110.956 59.416 109.833 55.5977C108.71 51.7419 108.149 47.4556 108.149 42.7388V2.47754H122.748V42.7388C122.748 46.8566 123.31 50.3381 124.433 53.1831C125.593 56.0282 127.053 58.4053 128.813 60.3145C130.572 62.2236 132.5 63.721 134.596 64.8066C136.693 65.8923 138.677 66.6971 140.548 67.2212C142.458 67.7453 144.123 68.0822 145.546 68.2319C147.006 68.3442 147.961 68.4004 148.41 68.4004H174.071V2.47754H188.671V75.644ZM293.051 29.543C293.051 32.8747 292.64 35.8507 291.816 38.4712C290.993 41.0916 289.87 43.4126 288.447 45.4341C287.062 47.4181 285.452 49.1214 283.618 50.5439C281.784 51.9665 279.856 53.1457 277.834 54.0815C275.85 54.98 273.829 55.6351 271.77 56.0469C269.748 56.4587 267.839 56.6646 266.042 56.6646L296.533 83H273.96L243.525 56.6646H233.025V42.0649H266.042C267.877 41.9152 269.542 41.5409 271.04 40.9419C272.575 40.3055 273.885 39.4632 274.97 38.415C276.093 37.3669 276.954 36.1128 277.553 34.6528C278.152 33.1554 278.452 31.4521 278.452 29.543V20.334C278.452 19.5104 278.34 18.8927 278.115 18.481C277.928 18.0317 277.666 17.7135 277.329 17.5264C277.029 17.3018 276.692 17.1707 276.318 17.1333C275.981 17.0959 275.663 17.0771 275.363 17.0771H227.185V83H212.585V9.8335C212.585 8.82275 212.772 7.86816 213.147 6.96973C213.521 6.07129 214.026 5.28516 214.663 4.61133C215.337 3.9375 216.123 3.41341 217.021 3.03906C217.92 2.66471 218.893 2.47754 219.941 2.47754H275.363C278.62 2.47754 281.372 3.0765 283.618 4.27441C285.864 5.4349 287.68 6.91357 289.065 8.71045C290.487 10.4699 291.498 12.3791 292.097 14.438C292.733 16.4969 293.051 18.4248 293.051 20.2217V29.543ZM424.828 50.0947H378.67V35.3828H424.828V50.0947ZM431.341 17.0771H372.83V83H358.231V9.8335C358.231 8.82275 358.418 7.86816 358.792 6.96973C359.167 6.07129 359.672 5.28516 360.309 4.61133C360.982 3.9375 361.768 3.41341 362.667 3.03906C363.565 2.66471 364.539 2.47754 365.587 2.47754H431.341V17.0771ZM530.5 29.543C530.5 32.8747 530.088 35.8507 529.264 38.4712C528.441 41.0916 527.318 43.4126 525.895 45.4341C524.51 47.4181 522.9 49.1214 521.066 50.5439C519.232 51.9665 517.304 53.1457 515.282 54.0815C513.298 54.98 511.277 55.6351 509.218 56.0469C507.196 56.4587 505.287 56.6646 503.49 56.6646L533.981 83H511.408L480.973 56.6646H470.473V42.0649H503.49C505.325 41.9152 506.99 41.5409 508.488 40.9419C510.023 40.3055 511.333 39.4632 512.418 38.415C513.542 37.3669 514.403 36.1128 515.001 34.6528C515.6 33.1554 515.9 31.4521 515.9 29.543V20.334C515.9 19.5104 515.788 18.8927 515.563 18.481C515.376 18.0317 515.114 17.7135 514.777 17.5264C514.477 17.3018 514.14 17.1707 513.766 17.1333C513.429 17.0959 513.111 17.0771 512.812 17.0771H464.633V83H450.033V9.8335C450.033 8.82275 450.22 7.86816 450.595 6.96973C450.969 6.07129 451.474 5.28516 452.111 4.61133C452.785 3.9375 453.571 3.41341 454.469 3.03906C455.368 2.66471 456.341 2.47754 457.389 2.47754H512.812C516.068 2.47754 518.82 3.0765 521.066 4.27441C523.312 5.4349 525.128 6.91357 526.513 8.71045C527.935 10.4699 528.946 12.3791 529.545 14.438C530.181 16.4969 530.5 18.4248 530.5 20.2217V29.543ZM566.767 83H552.168V2.47754H566.767V83ZM656.941 50.0947H610.84V35.3828H656.941V50.0947ZM663.511 83H610.84C608.819 83 606.61 82.6444 604.214 81.9331C601.818 81.2218 599.591 80.0614 597.532 78.4517C595.51 76.8045 593.807 74.6895 592.422 72.1064C591.074 69.486 590.401 66.2853 590.401 62.5044V9.8335C590.401 8.82275 590.588 7.86816 590.962 6.96973C591.336 6.07129 591.842 5.28516 592.478 4.61133C593.152 3.9375 593.938 3.41341 594.837 3.03906C595.735 2.66471 596.708 2.47754 597.757 2.47754H663.511V17.0771H605V62.5044C605 64.4136 605.506 65.8735 606.516 66.8843C607.527 67.895 609.006 68.4004 610.952 68.4004H663.511V83ZM765.028 76.7671C765.028 77.8153 764.822 78.7886 764.41 79.687C764.036 80.5854 763.512 81.3716 762.838 82.0454C762.201 82.6818 761.434 83.1872 760.535 83.5615C759.637 83.9359 758.682 84.123 757.672 84.123C756.773 84.123 755.856 83.9546 754.92 83.6177C754.022 83.2808 753.217 82.738 752.506 81.9893L699.161 26.2861V83H684.561V8.71045C684.561 7.21305 684.973 5.8654 685.797 4.66748C686.658 3.43213 687.743 2.51497 689.054 1.91602C690.439 1.35449 691.861 1.22347 693.321 1.52295C694.781 1.78499 696.035 2.45882 697.083 3.54443L750.428 59.1914V2.47754H765.028V76.7671ZM869.296 49.3086C869.296 54.2126 868.435 58.7235 866.713 62.8413C865.028 66.9591 862.689 70.5155 859.694 73.5103C856.699 76.4676 853.143 78.7886 849.025 80.4731C844.907 82.1577 840.433 83 835.604 83H796.185C795.137 83 794.164 82.8128 793.266 82.4385C792.367 82.0641 791.581 81.5588 790.907 80.9224C790.271 80.2485 789.765 79.4624 789.391 78.564C789.017 77.6655 788.829 76.6922 788.829 75.644V9.8335C788.829 8.82275 789.017 7.86816 789.391 6.96973C789.765 6.07129 790.271 5.28516 790.907 4.61133C791.581 3.9375 792.367 3.41341 793.266 3.03906C794.164 2.66471 795.137 2.47754 796.185 2.47754H835.604C840.433 2.47754 844.907 3.31982 849.025 5.00439C853.143 6.68896 856.699 9.02865 859.694 12.0234C862.689 14.9808 865.028 18.5371 866.713 22.6924C868.435 26.8102 869.296 31.3024 869.296 36.1689V49.3086ZM854.696 36.1689C854.696 33.3239 854.228 30.7222 853.292 28.3638C852.394 26.0054 851.102 24.0026 849.418 22.3555C847.733 20.6709 845.712 19.3794 843.353 18.481C841.032 17.5451 838.449 17.0771 835.604 17.0771H803.429V68.4004H835.604C838.449 68.4004 841.032 67.9512 843.353 67.0527C845.712 66.1169 847.733 64.8254 849.418 63.1782C851.102 61.4937 852.394 59.4909 853.292 57.1699C854.228 54.8115 854.696 52.1911 854.696 49.3086V36.1689ZM967.893 59.3037C967.893 62.1862 967.518 64.7879 966.77 67.1089C966.058 69.3924 965.104 71.4139 963.906 73.1733C962.708 74.9328 961.304 76.4302 959.694 77.6655C958.085 78.9009 956.419 79.9116 954.697 80.6978C952.975 81.4839 951.215 82.0641 949.418 82.4385C947.659 82.8128 945.993 83 944.421 83H888.1V68.4004H944.421C947.229 68.4004 949.4 67.5768 950.935 65.9297C952.507 64.2826 953.293 62.0739 953.293 59.3037C953.293 57.9561 953.087 56.7207 952.675 55.5977C952.264 54.4746 951.665 53.5013 950.878 52.6777C950.13 51.8542 949.194 51.2178 948.071 50.7686C946.985 50.3193 945.769 50.0947 944.421 50.0947H910.842C908.483 50.0947 905.938 49.6829 903.205 48.8594C900.472 47.9984 897.927 46.632 895.568 44.7603C893.247 42.8885 891.301 40.4365 889.729 37.4043C888.194 34.3721 887.426 30.666 887.426 26.2861C887.426 21.9062 888.194 18.2189 889.729 15.2241C891.301 12.1919 893.247 9.73991 895.568 7.86816C897.927 5.95898 900.472 4.59261 903.205 3.76904C905.938 2.90804 908.483 2.47754 910.842 2.47754H960.537V17.0771H910.842C908.072 17.0771 905.9 17.9194 904.328 19.604C902.793 21.2886 902.026 23.516 902.026 26.2861C902.026 29.0938 902.793 31.3211 904.328 32.9683C905.9 34.578 908.072 35.3828 910.842 35.3828H944.421H944.533C946.105 35.4202 947.771 35.6449 949.531 36.0566C951.29 36.431 953.031 37.0299 954.753 37.8535C956.512 38.6771 958.178 39.7253 959.75 40.998C961.323 42.2334 962.708 43.7308 963.906 45.4902C965.141 47.2497 966.114 49.2712 966.826 51.5547C967.537 53.8382 967.893 56.4212 967.893 59.3037Z"/>
    </mask>
    <path d="M68.231 81.6523L68.6053 82.5797L68.6096 82.5779L68.231 81.6523ZM21.6807 81.6523L21.302 82.5779L21.3093 82.5808L21.6807 81.6523ZM3.93652 63.9644L3.01095 64.343L3.01394 64.3502L3.93652 63.9644ZM3.93652 21.5693L3.0127 21.1865L3.01098 21.1907L3.93652 21.5693ZM11.0117 10.9004L11.7144 11.6119L11.7188 11.6075L11.0117 10.9004ZM21.6807 3.88135L21.302 2.9558L21.6807 3.88135ZM68.231 3.88135L67.8493 4.80568L67.8523 4.8069L68.231 3.88135ZM78.8999 10.9004L78.1928 11.6075L78.1973 11.6119L78.8999 10.9004ZM85.9189 21.5693L84.9922 21.945L84.9934 21.948L85.9189 21.5693ZM72.4424 27.2407L71.5079 27.5967L71.5113 27.6057L71.5149 27.6147L72.4424 27.2407ZM68.5679 21.2324L67.8529 21.9315L67.8607 21.9396L67.8688 21.9474L68.5679 21.2324ZM62.5596 17.3579L62.1856 18.2854L62.1946 18.289L62.2036 18.2924L62.5596 17.3579ZM27.2959 17.3579L27.6569 18.2905L27.6647 18.2874L27.2959 17.3579ZM21.2876 21.2324L21.9868 21.9475L21.9947 21.9395L21.2876 21.2324ZM17.3569 27.2407L16.4274 26.8719L16.4244 26.8797L17.3569 27.2407ZM17.3569 58.293L16.4224 58.649L16.4259 58.658L16.4295 58.6669L17.3569 58.293ZM21.2876 64.3013L20.5804 65.0084L20.5885 65.0163L21.2876 64.3013ZM27.2959 68.1758L26.9219 69.1032L26.9309 69.1068L26.9399 69.1103L27.2959 68.1758ZM62.5034 68.1758L62.8644 69.1084L62.8723 69.1053L62.5034 68.1758ZM68.5679 64.3013L69.267 65.0163L69.275 65.0084L68.5679 64.3013ZM72.4424 58.293L71.5129 57.9241L71.5098 57.932L72.4424 58.293ZM87.4458 50.4316C87.4458 55.2191 86.624 59.5998 84.9934 63.5857L86.8445 64.343C88.583 60.0932 89.4458 55.4521 89.4458 50.4316H87.4458ZM84.9934 63.5857C83.3565 67.587 81.089 71.03 78.1928 73.9262L79.607 75.3404C82.7004 72.247 85.1122 68.5774 86.8445 64.343L84.9934 63.5857ZM78.1928 73.9262C75.2966 76.8224 71.8536 79.0899 67.8523 80.7268L68.6096 82.5779C72.844 80.8456 76.5136 78.4338 79.607 75.3404L78.1928 73.9262ZM67.8566 80.725C63.9063 82.3197 59.5801 83.123 54.8667 83.123V85.123C59.8115 85.123 64.3948 84.2793 68.6053 82.5796L67.8566 80.725ZM54.8667 83.123H35.1011V85.123H54.8667V83.123ZM35.1011 83.123C30.3878 83.123 26.0417 82.3197 22.0521 80.7239L21.3093 82.5808C25.5553 84.2792 30.1561 85.123 35.1011 85.123V83.123ZM22.0593 80.7268C18.0581 79.0899 14.615 76.8224 11.7188 73.9262L10.3046 75.3404C13.398 78.4338 17.0676 80.8456 21.302 82.5779L22.0593 80.7268ZM11.7188 73.9262C8.82099 71.0284 6.53363 67.5828 4.8591 63.5786L3.01394 64.3502C4.78343 68.5815 7.21286 72.2487 10.3046 75.3404L11.7188 73.9262ZM4.86207 63.5857C3.23147 59.5998 2.40967 55.2191 2.40967 50.4316H0.409668C0.409668 55.4521 1.27244 60.0932 3.01098 64.343L4.86207 63.5857ZM2.40967 50.4316V35.0459H0.409668V50.4316H2.40967ZM2.40967 35.0459C2.40967 30.297 3.2311 25.9348 4.86207 21.948L3.01098 21.1907C1.27281 25.4396 0.409668 30.0618 0.409668 35.0459H2.40967ZM4.86034 21.9522C6.53483 17.9116 8.82086 14.4693 11.7144 11.6119L10.3091 10.1889C7.21299 13.2462 4.78223 16.9166 3.01271 21.1865L4.86034 21.9522ZM11.7188 11.6075C14.615 8.71131 18.0581 6.44377 22.0593 4.8069L21.302 2.9558C17.0676 4.68807 13.398 7.09989 10.3046 10.1933L11.7188 11.6075ZM22.0593 4.8069C26.047 3.17555 30.3907 2.35449 35.1011 2.35449V0.354492C30.1533 0.354492 25.55 1.21801 21.302 2.9558L22.0593 4.8069ZM35.1011 2.35449H54.8667V0.354492H35.1011V2.35449ZM54.8667 2.35449C59.5772 2.35449 63.9009 3.17558 67.8494 4.80568L68.6126 2.95702C64.4002 1.21798 59.8144 0.354492 54.8667 0.354492V2.35449ZM67.8523 4.8069C71.8536 6.44377 75.2966 8.71131 78.1928 11.6075L79.607 10.1933C76.5136 7.09989 72.844 4.68807 68.6096 2.9558L67.8523 4.8069ZM78.1973 11.6119C81.0891 14.4676 83.3553 17.9074 84.9922 21.945L86.8457 21.1936C85.1134 16.9207 82.7003 13.2479 79.6025 10.1889L78.1973 11.6119ZM84.9934 21.948C86.6244 25.9348 87.4458 30.297 87.4458 35.0459H89.4458C89.4458 30.0618 88.5827 25.4396 86.8445 21.1907L84.9934 21.948ZM87.4458 35.0459V50.4316H89.4458V35.0459H87.4458ZM74.8462 35.0459C74.8462 32.0545 74.3603 29.3232 73.3698 26.8668L71.5149 27.6147C72.3962 29.8002 72.8462 32.2723 72.8462 35.0459H74.8462ZM73.3769 26.8847C72.4306 24.4008 71.0623 22.2729 69.267 20.5174L67.8688 21.9474C69.4426 23.4863 70.6573 25.3638 71.5079 27.5967L73.3769 26.8847ZM69.2829 20.5333C67.5274 18.738 65.3995 17.3697 62.9156 16.4234L62.2036 18.2924C64.4365 19.143 66.314 20.3577 67.8529 21.9315L69.2829 20.5333ZM62.9335 16.4305C60.4801 15.4412 57.7869 14.9541 54.8667 14.9541V16.9541C57.5617 16.9541 59.9971 17.4029 62.1856 18.2854L62.9335 16.4305ZM54.8667 14.9541H35.1011V16.9541H54.8667V14.9541ZM35.1011 14.9541C32.145 14.9541 29.4162 15.4406 26.9271 16.4284L27.6647 18.2874C29.8924 17.4034 32.3671 16.9541 35.1011 16.9541V14.9541ZM26.9349 16.4253C24.4901 17.3717 22.3679 18.7379 20.5805 20.5253L21.9947 21.9395C23.5765 20.3578 25.4598 19.141 27.6569 18.2905L26.9349 16.4253ZM20.5885 20.5174C18.7962 22.2699 17.411 24.3934 16.4274 26.8719L18.2864 27.6096C19.1746 25.3713 20.4099 23.4892 21.9867 21.9474L20.5885 20.5174ZM16.4244 26.8797C15.4749 29.3325 15.0093 32.0592 15.0093 35.0459H17.0093C17.0093 32.2676 17.4421 29.7909 18.2895 27.6017L16.4244 26.8797ZM15.0093 35.0459V50.4316H17.0093V35.0459H15.0093ZM15.0093 50.4316C15.0093 53.4187 15.475 56.1619 16.4224 58.649L18.2914 57.937C17.442 55.7072 17.0093 53.2096 17.0093 50.4316H15.0093ZM16.4295 58.6669C17.4131 61.1062 18.7961 63.2239 20.5805 65.0084L21.9947 63.5942C20.41 62.0095 19.1725 60.1216 18.2844 57.919L16.4295 58.6669ZM20.5885 65.0163C22.3722 66.7604 24.4874 68.1216 26.9219 69.1032L27.6699 67.2483C25.4625 66.3583 23.5721 65.1364 21.9867 63.5863L20.5885 65.0163ZM26.9399 69.1103C29.4255 70.0572 32.1497 70.5234 35.1011 70.5234V68.5234C32.3623 68.5234 29.8831 68.0913 27.6519 67.2413L26.9399 69.1103ZM35.1011 70.5234H54.7544V68.5234H35.1011V70.5234ZM54.7544 70.5234C57.7054 70.5234 60.4131 70.0573 62.8644 69.1084L62.1424 67.2432C59.9519 68.0912 57.4935 68.5234 54.7544 68.5234V70.5234ZM62.8723 69.1053C65.3443 68.1243 67.4805 66.763 69.267 65.0163L67.8688 63.5863C66.2861 65.1338 64.3793 66.3555 62.1346 67.2463L62.8723 69.1053ZM69.275 65.0084C71.0624 63.221 72.4286 61.0988 73.375 58.654L71.5098 57.932C70.6593 60.1291 69.4425 62.0124 67.8608 63.5942L69.275 65.0084ZM73.3719 58.6618C74.3602 56.1712 74.8462 53.4234 74.8462 50.4316H72.8462C72.8462 53.2049 72.3963 55.698 71.5129 57.9241L73.3719 58.6618ZM74.8462 50.4316V35.0459H72.8462V50.4316H74.8462ZM186.537 80.9224L187.224 81.6494L187.234 81.6396L187.244 81.6295L186.537 80.9224ZM129.711 78.9009L129.278 79.802L129.284 79.8053L129.291 79.8085L129.711 78.9009ZM114.438 65.8174L113.599 66.3624L113.603 66.3685L113.607 66.3745L114.438 65.8174ZM109.833 55.5977L108.873 55.8773L108.874 55.8798L109.833 55.5977ZM108.149 2.47754V1.47754H107.149V2.47754H108.149ZM122.748 2.47754H123.748V1.47754H122.748V2.47754ZM124.433 53.1831L123.503 53.5503L123.507 53.5608L124.433 53.1831ZM128.813 60.3145L128.077 60.9921L128.813 60.3145ZM134.596 64.8066L134.136 65.6946L134.596 64.8066ZM140.548 67.2212L140.279 68.1842L140.284 68.1855L140.548 67.2212ZM145.546 68.2319L145.441 69.2264L145.455 69.2279L145.469 69.229L145.546 68.2319ZM174.071 68.4004V69.4004H175.071V68.4004H174.071ZM174.071 2.47754V1.47754H173.071V2.47754H174.071ZM188.671 2.47754H189.671V1.47754H188.671V2.47754ZM187.671 75.644C187.671 76.5704 187.506 77.4119 187.186 78.1794L189.033 78.9486C189.461 77.9192 189.671 76.814 189.671 75.644H187.671ZM187.186 78.1794C186.861 78.9599 186.41 79.6358 185.83 80.2153L187.244 81.6295C188.012 80.8613 188.609 79.965 189.033 78.9486L187.186 78.1794ZM185.851 80.1954C185.269 80.7445 184.587 81.1852 183.794 81.5154L184.563 83.3616C185.568 82.943 186.458 82.373 187.224 81.6494L185.851 80.1954ZM183.794 81.5154C183.022 81.837 182.199 82 181.315 82V84C182.453 84 183.538 83.7886 184.563 83.3616L183.794 81.5154ZM181.315 82H148.41V84H181.315V82ZM148.41 82C145.375 82 142.3 81.671 139.183 81.011L138.769 82.9676C142.016 83.6551 145.23 84 148.41 84V82ZM139.183 81.011C136.076 80.3529 133.059 79.3474 130.131 77.9933L129.291 79.8085C132.353 81.2246 135.513 82.278 138.769 82.9676L139.183 81.011ZM130.145 77.9997C127.263 76.6137 124.543 74.8615 121.982 72.7402L120.706 74.2803C123.387 76.5014 126.244 78.343 129.278 79.802L130.145 77.9997ZM121.982 72.7402C119.439 70.6332 117.201 68.1415 115.268 65.2603L113.607 66.3745C115.642 69.408 118.008 72.0449 120.706 74.2803L121.982 72.7402ZM115.276 65.2724C113.388 62.3676 111.891 59.0513 110.792 55.3155L108.874 55.8798C110.021 59.7807 111.594 63.2776 113.599 66.3624L115.276 65.2724ZM110.793 55.318C109.701 51.5673 109.149 47.377 109.149 42.7388H107.149C107.149 47.5342 107.719 51.9164 108.873 55.8773L110.793 55.318ZM109.149 42.7388V2.47754H107.149V42.7388H109.149ZM108.149 3.47754H122.748V1.47754H108.149V3.47754ZM121.748 2.47754V42.7388H123.748V2.47754H121.748ZM121.748 42.7388C121.748 46.9414 122.32 50.5555 123.503 53.5503L125.363 52.8159C124.299 50.1206 123.748 46.7718 123.748 42.7388H121.748ZM123.507 53.5608C124.704 56.4966 126.224 58.9807 128.077 60.9921L129.548 59.6368C127.883 57.8299 126.482 55.5597 125.359 52.8054L123.507 53.5608ZM128.077 60.9921C129.908 62.9784 131.927 64.5504 134.136 65.6946L135.056 63.9186C133.073 62.8916 131.236 61.4689 129.548 59.6368L128.077 60.9921ZM134.136 65.6946C136.281 66.8052 138.329 67.6382 140.279 68.1842L140.818 66.2582C139.024 65.756 137.104 64.9793 135.056 63.9186L134.136 65.6946ZM140.284 68.1855C142.227 68.719 143.949 69.0693 145.441 69.2264L145.651 67.2374C144.298 67.0951 142.688 66.7716 140.813 66.2569L140.284 68.1855ZM145.469 69.229C146.921 69.3406 147.915 69.4004 148.41 69.4004V67.4004C148.006 67.4004 147.091 67.3479 145.623 67.2349L145.469 69.229ZM148.41 69.4004H174.071V67.4004H148.41V69.4004ZM175.071 68.4004V2.47754H173.071V68.4004H175.071ZM174.071 3.47754H188.671V1.47754H174.071V3.47754ZM187.671 2.47754V75.644H189.671V2.47754H187.671ZM288.447 45.4341L287.629 44.8586L287.627 44.8617L288.447 45.4341ZM283.618 50.5439L284.231 51.3342L283.618 50.5439ZM277.834 54.0815L278.247 54.9925L278.254 54.989L277.834 54.0815ZM271.77 56.0469L271.574 55.0663L271.57 55.067L271.77 56.0469ZM266.042 56.6646V55.6646H263.355L265.389 57.4213L266.042 56.6646ZM296.533 83V84H299.221L297.187 82.2432L296.533 83ZM273.96 83L273.305 83.7562L273.587 84H273.96V83ZM243.525 56.6646L244.179 55.9084L243.898 55.6646H243.525V56.6646ZM233.025 56.6646H232.025V57.6646H233.025V56.6646ZM233.025 42.0649V41.0649H232.025V42.0649H233.025ZM266.042 42.0649V43.0649H266.083L266.124 43.0616L266.042 42.0649ZM271.04 40.9419L271.411 41.8704L271.423 41.8656L271.04 40.9419ZM274.97 38.415L274.288 37.684L274.282 37.6898L274.276 37.6956L274.97 38.415ZM277.553 34.6528L278.479 35.0324L278.482 35.0242L277.553 34.6528ZM278.115 18.481L277.192 18.8656L277.212 18.9139L277.237 18.9598L278.115 18.481ZM277.329 17.5264L276.729 18.3264L276.783 18.3674L276.843 18.4005L277.329 17.5264ZM276.318 17.1333L276.208 18.1272L276.219 18.1283L276.318 17.1333ZM227.185 17.0771V16.0771H226.185V17.0771H227.185ZM227.185 83V84H228.185V83H227.185ZM212.585 83H211.585V84H212.585V83ZM214.663 4.61133L213.956 3.90422L213.946 3.91432L213.936 3.92471L214.663 4.61133ZM283.618 4.27441L283.147 5.15684L283.159 5.16284L283.618 4.27441ZM289.065 8.71045L288.273 9.32096L288.28 9.33015L288.287 9.33917L289.065 8.71045ZM292.097 14.438L291.137 14.7173L291.139 14.7253L291.141 14.7333L292.097 14.438ZM292.051 29.543C292.051 32.7938 291.65 35.666 290.862 38.1714L292.77 38.771C293.63 36.0355 294.051 32.9555 294.051 29.543H292.051ZM290.862 38.1714C290.066 40.7043 288.986 42.9302 287.629 44.8586L289.265 46.0096C290.753 43.895 291.919 41.479 292.77 38.771L290.862 38.1714ZM287.627 44.8617C286.297 46.7666 284.756 48.3955 283.005 49.7537L284.231 51.3342C286.148 49.8473 287.827 48.0696 289.267 46.0065L287.627 44.8617ZM283.005 49.7537C281.228 51.132 279.364 52.2712 277.414 53.1741L278.254 54.989C280.347 54.0201 282.339 52.801 284.231 51.3342L283.005 49.7537ZM277.422 53.1706C275.504 54.0388 273.555 54.67 271.574 55.0663L271.966 57.0275C274.102 56.6002 276.196 55.9211 278.247 54.9925L277.422 53.1706ZM271.57 55.067C269.605 55.4673 267.763 55.6646 266.042 55.6646V57.6646C267.915 57.6646 269.892 57.45 271.969 57.0267L271.57 55.067ZM265.389 57.4213L295.879 83.7568L297.187 82.2432L266.696 55.9078L265.389 57.4213ZM296.533 82H273.96V84H296.533V82ZM274.614 82.2438L244.179 55.9084L242.871 57.4207L273.305 83.7562L274.614 82.2438ZM243.525 55.6646H233.025V57.6646H243.525V55.6646ZM234.025 56.6646V42.0649H232.025V56.6646H234.025ZM233.025 43.0649H266.042V41.0649H233.025V43.0649ZM266.124 43.0616C268.044 42.9049 269.809 42.5112 271.411 41.8704L270.668 40.0134C269.276 40.5705 267.709 40.9255 265.961 41.0683L266.124 43.0616ZM271.423 41.8656C273.062 41.1861 274.481 40.278 275.665 39.1344L274.276 37.6956C273.289 38.6484 272.088 39.4249 270.657 40.0182L271.423 41.8656ZM275.653 39.1461C276.884 37.9969 277.826 36.6219 278.479 35.0324L276.628 34.2733C276.082 35.6037 275.303 36.7368 274.288 37.684L275.653 39.1461ZM278.482 35.0242C279.136 33.3891 279.452 31.5564 279.452 29.543H277.452C277.452 31.3479 277.169 32.9217 276.625 34.2814L278.482 35.0242ZM279.452 29.543V20.334H277.452V29.543H279.452ZM279.452 20.334C279.452 19.4522 279.337 18.6335 278.993 18.0021L277.237 18.9598C277.342 19.152 277.452 19.5686 277.452 20.334H279.452ZM279.038 18.0963C278.787 17.4949 278.395 16.9747 277.814 16.6522L276.843 18.4005C276.936 18.4524 277.068 18.5685 277.192 18.8656L279.038 18.0963ZM277.929 16.7264C277.483 16.3917 276.972 16.1938 276.418 16.1383L276.219 18.1283C276.412 18.1477 276.576 18.2118 276.729 18.3264L277.929 16.7264ZM276.428 16.1394C276.06 16.0984 275.704 16.0771 275.363 16.0771V18.0771C275.622 18.0771 275.903 18.0933 276.208 18.1272L276.428 16.1394ZM275.363 16.0771H227.185V18.0771H275.363V16.0771ZM226.185 17.0771V83H228.185V17.0771H226.185ZM227.185 82H212.585V84H227.185V82ZM213.585 83V9.8335H211.585V83H213.585ZM213.585 9.8335C213.585 8.9496 213.748 8.12622 214.07 7.35434L212.224 6.58511C211.797 7.61011 211.585 8.69591 211.585 9.8335H213.585ZM214.07 7.35434C214.4 6.56194 214.841 5.87945 215.39 5.29795L213.936 3.92471C213.212 4.69086 212.642 5.58064 212.224 6.58511L214.07 7.35434ZM215.37 5.31844C215.949 4.73897 216.625 4.28735 217.406 3.96214L216.637 2.11599C215.62 2.53947 214.724 3.13603 213.956 3.90422L215.37 5.31844ZM217.406 3.96214C218.173 3.64237 219.015 3.47754 219.941 3.47754V1.47754C218.771 1.47754 217.666 1.68705 216.637 2.11599L217.406 3.96214ZM219.941 3.47754H275.363V1.47754H219.941V3.47754ZM275.363 3.47754C278.501 3.47754 281.081 4.05469 283.147 5.15677L284.088 3.39206C281.663 2.0983 278.74 1.47754 275.363 1.47754V3.47754ZM283.159 5.16284C285.29 6.26389 286.987 7.65261 288.273 9.32096L289.857 8.09994C288.372 6.17454 286.438 4.6059 284.077 3.38599L283.159 5.16284ZM288.287 9.33917C289.631 11.0012 290.577 12.7928 291.137 14.7173L293.057 14.1587C292.419 11.9654 291.344 9.93858 289.842 8.08173L288.287 9.33917ZM291.141 14.7333C291.754 16.715 292.051 18.5425 292.051 20.2217H294.051C294.051 18.3071 293.713 16.2788 293.052 14.1427L291.141 14.7333ZM292.051 20.2217V29.543H294.051V20.2217H292.051ZM424.828 50.0947V51.0947H425.828V50.0947H424.828ZM378.67 50.0947H377.67V51.0947H378.67V50.0947ZM378.67 35.3828V34.3828H377.67V35.3828H378.67ZM424.828 35.3828H425.828V34.3828H424.828V35.3828ZM431.341 17.0771V18.0771H432.341V17.0771H431.341ZM372.83 17.0771V16.0771H371.83V17.0771H372.83ZM372.83 83V84H373.83V83H372.83ZM358.231 83H357.231V84H358.231V83ZM360.309 4.61133L359.601 3.90422L359.591 3.91432L359.581 3.92471L360.309 4.61133ZM431.341 2.47754H432.341V1.47754H431.341V2.47754ZM424.828 49.0947H378.67V51.0947H424.828V49.0947ZM379.67 50.0947V35.3828H377.67V50.0947H379.67ZM378.67 36.3828H424.828V34.3828H378.67V36.3828ZM423.828 35.3828V50.0947H425.828V35.3828H423.828ZM431.341 16.0771H372.83V18.0771H431.341V16.0771ZM371.83 17.0771V83H373.83V17.0771H371.83ZM372.83 82H358.231V84H372.83V82ZM359.231 83V9.8335H357.231V83H359.231ZM359.231 9.8335C359.231 8.9496 359.394 8.12622 359.715 7.35434L357.869 6.58511C357.442 7.61011 357.231 8.69591 357.231 9.8335H359.231ZM359.715 7.35434C360.046 6.56194 360.486 5.87945 361.036 5.29795L359.581 3.92471C358.858 4.69086 358.288 5.58064 357.869 6.58511L359.715 7.35434ZM361.016 5.31844C361.595 4.73897 362.271 4.28735 363.052 3.96214L362.282 2.11599C361.266 2.53947 360.37 3.13603 359.601 3.90422L361.016 5.31844ZM363.052 3.96214C363.819 3.64237 364.66 3.47754 365.587 3.47754V1.47754C364.417 1.47754 363.312 1.68705 362.282 2.11599L363.052 3.96214ZM365.587 3.47754H431.341V1.47754H365.587V3.47754ZM430.341 2.47754V17.0771H432.341V2.47754H430.341ZM525.895 45.4341L525.077 44.8586L525.075 44.8617L525.895 45.4341ZM521.066 50.5439L521.679 51.3342L521.066 50.5439ZM515.282 54.0815L515.695 54.9925L515.702 54.989L515.282 54.0815ZM509.218 56.0469L509.022 55.0663L509.018 55.067L509.218 56.0469ZM503.49 56.6646V55.6646H500.803L502.837 57.4213L503.49 56.6646ZM533.981 83V84H536.669L534.635 82.2432L533.981 83ZM511.408 83L510.753 83.7562L511.035 84H511.408V83ZM480.973 56.6646L481.628 55.9084L481.346 55.6646H480.973V56.6646ZM470.473 56.6646H469.473V57.6646H470.473V56.6646ZM470.473 42.0649V41.0649H469.473V42.0649H470.473ZM503.49 42.0649V43.0649H503.531L503.572 43.0616L503.49 42.0649ZM508.488 40.9419L508.859 41.8704L508.871 41.8656L508.488 40.9419ZM512.418 38.415L511.736 37.684L511.73 37.6898L511.724 37.6956L512.418 38.415ZM515.001 34.6528L515.927 35.0324L515.93 35.0242L515.001 34.6528ZM515.563 18.481L514.64 18.8656L514.66 18.9139L514.685 18.9598L515.563 18.481ZM514.777 17.5264L514.177 18.3264L514.232 18.3674L514.291 18.4005L514.777 17.5264ZM513.766 17.1333L513.656 18.1272L513.667 18.1283L513.766 17.1333ZM464.633 17.0771V16.0771H463.633V17.0771H464.633ZM464.633 83V84H465.633V83H464.633ZM450.033 83H449.033V84H450.033V83ZM452.111 4.61133L451.404 3.90422L451.394 3.91432L451.384 3.92471L452.111 4.61133ZM521.066 4.27441L520.595 5.15684L520.607 5.16284L521.066 4.27441ZM526.513 8.71045L525.721 9.32096L525.728 9.33015L525.735 9.33917L526.513 8.71045ZM529.545 14.438L528.585 14.7173L528.587 14.7253L528.59 14.7333L529.545 14.438ZM529.5 29.543C529.5 32.7938 529.098 35.666 528.31 38.1714L530.218 38.771C531.078 36.0355 531.5 32.9555 531.5 29.543H529.5ZM528.31 38.1714C527.514 40.7043 526.434 42.9302 525.077 44.8586L526.713 46.0096C528.201 43.895 529.367 41.479 530.218 38.771L528.31 38.1714ZM525.075 44.8617C523.745 46.7666 522.204 48.3955 520.453 49.7537L521.679 51.3342C523.596 49.8473 525.275 48.0696 526.715 46.0065L525.075 44.8617ZM520.453 49.7537C518.676 51.132 516.812 52.2712 514.862 53.1741L515.702 54.989C517.795 54.0201 519.787 52.801 521.679 51.3342L520.453 49.7537ZM514.87 53.1706C512.952 54.0388 511.003 54.67 509.022 55.0663L509.414 57.0275C511.55 56.6002 513.644 55.9211 515.695 54.9925L514.87 53.1706ZM509.018 55.067C507.053 55.4673 505.211 55.6646 503.49 55.6646V57.6646C505.363 57.6646 507.34 57.45 509.417 57.0267L509.018 55.067ZM502.837 57.4213L533.327 83.7568L534.635 82.2432L504.144 55.9078L502.837 57.4213ZM533.981 82H511.408V84H533.981V82ZM512.062 82.2438L481.628 55.9084L480.319 57.4207L510.753 83.7562L512.062 82.2438ZM480.973 55.6646H470.473V57.6646H480.973V55.6646ZM471.473 56.6646V42.0649H469.473V56.6646H471.473ZM470.473 43.0649H503.49V41.0649H470.473V43.0649ZM503.572 43.0616C505.492 42.9049 507.257 42.5112 508.859 41.8704L508.116 40.0134C506.724 40.5705 505.157 40.9255 503.409 41.0683L503.572 43.0616ZM508.871 41.8656C510.51 41.1861 511.929 40.278 513.113 39.1344L511.724 37.6956C510.737 38.6484 509.536 39.4249 508.105 40.0182L508.871 41.8656ZM513.101 39.1461C514.332 37.9969 515.275 36.6219 515.927 35.0324L514.076 34.2733C513.531 35.6037 512.751 36.7368 511.736 37.684L513.101 39.1461ZM515.93 35.0242C516.584 33.3891 516.9 31.5564 516.9 29.543H514.9C514.9 31.3479 514.617 32.9217 514.073 34.2814L515.93 35.0242ZM516.9 29.543V20.334H514.9V29.543H516.9ZM516.9 20.334C516.9 19.4522 516.785 18.6335 516.441 18.0021L514.685 18.9598C514.79 19.152 514.9 19.5686 514.9 20.334H516.9ZM516.486 18.0963C516.235 17.4949 515.843 16.9747 515.263 16.6522L514.291 18.4005C514.385 18.4524 514.516 18.5685 514.64 18.8656L516.486 18.0963ZM515.377 16.7264C514.931 16.3917 514.421 16.1938 513.866 16.1383L513.667 18.1283C513.86 18.1477 514.024 18.2118 514.177 18.3264L515.377 16.7264ZM513.877 16.1394C513.508 16.0984 513.152 16.0771 512.812 16.0771V18.0771C513.07 18.0771 513.351 18.0933 513.656 18.1272L513.877 16.1394ZM512.812 16.0771H464.633V18.0771H512.812V16.0771ZM463.633 17.0771V83H465.633V17.0771H463.633ZM464.633 82H450.033V84H464.633V82ZM451.033 83V9.8335H449.033V83H451.033ZM451.033 9.8335C451.033 8.9496 451.196 8.12622 451.518 7.35434L449.672 6.58511C449.245 7.61011 449.033 8.69591 449.033 9.8335H451.033ZM451.518 7.35434C451.848 6.56194 452.289 5.87945 452.838 5.29795L451.384 3.92471C450.66 4.69086 450.09 5.58064 449.672 6.58511L451.518 7.35434ZM452.818 5.31844C453.397 4.73897 454.073 4.28735 454.854 3.96214L454.085 2.11599C453.068 2.53947 452.172 3.13603 451.404 3.90422L452.818 5.31844ZM454.854 3.96214C455.621 3.64237 456.463 3.47754 457.389 3.47754V1.47754C456.219 1.47754 455.114 1.68705 454.085 2.11599L454.854 3.96214ZM457.389 3.47754H512.812V1.47754H457.389V3.47754ZM512.812 3.47754C515.949 3.47754 518.529 4.05469 520.595 5.15677L521.536 3.39206C519.111 2.0983 516.188 1.47754 512.812 1.47754V3.47754ZM520.607 5.16284C522.738 6.26389 524.435 7.65261 525.721 9.32096L527.305 8.09994C525.821 6.17454 523.886 4.6059 521.525 3.38599L520.607 5.16284ZM525.735 9.33917C527.079 11.0012 528.025 12.7928 528.585 14.7173L530.505 14.1587C529.867 11.9654 528.792 9.93858 527.29 8.08173L525.735 9.33917ZM528.59 14.7333C529.202 16.715 529.5 18.5425 529.5 20.2217H531.5C531.5 18.3071 531.161 16.2788 530.5 14.1427L528.59 14.7333ZM529.5 20.2217V29.543H531.5V20.2217H529.5ZM566.767 83V84H567.767V83H566.767ZM552.168 83H551.168V84H552.168V83ZM552.168 2.47754V1.47754H551.168V2.47754H552.168ZM566.767 2.47754H567.767V1.47754H566.767V2.47754ZM566.767 82H552.168V84H566.767V82ZM553.168 83V2.47754H551.168V83H553.168ZM552.168 3.47754H566.767V1.47754H552.168V3.47754ZM565.767 2.47754V83H567.767V2.47754H565.767ZM656.941 50.0947V51.0947H657.941V50.0947H656.941ZM610.84 50.0947H609.84V51.0947H610.84V50.0947ZM610.84 35.3828V34.3828H609.84V35.3828H610.84ZM656.941 35.3828H657.941V34.3828H656.941V35.3828ZM663.511 83V84H664.511V83H663.511ZM597.532 78.4517L596.9 79.2269L596.908 79.2333L596.916 79.2395L597.532 78.4517ZM592.422 72.1064L591.533 72.5638L591.537 72.5714L591.541 72.579L592.422 72.1064ZM592.478 4.61133L591.771 3.90422L591.761 3.91432L591.751 3.92471L592.478 4.61133ZM663.511 2.47754H664.511V1.47754H663.511V2.47754ZM663.511 17.0771V18.0771H664.511V17.0771H663.511ZM605 17.0771V16.0771H604V17.0771H605ZM663.511 68.4004H664.511V67.4004H663.511V68.4004ZM656.941 49.0947H610.84V51.0947H656.941V49.0947ZM611.84 50.0947V35.3828H609.84V50.0947H611.84ZM610.84 36.3828H656.941V34.3828H610.84V36.3828ZM655.941 35.3828V50.0947H657.941V35.3828H655.941ZM663.511 82H610.84V84H663.511V82ZM610.84 82C608.935 82 606.823 81.6645 604.499 80.9745L603.929 82.8918C606.397 83.6242 608.703 84 610.84 84V82ZM604.499 80.9745C602.228 80.3005 600.113 79.1999 598.148 77.6639L596.916 79.2395C599.069 80.9228 601.408 82.1432 603.929 82.8918L604.499 80.9745ZM598.164 77.6764C596.256 76.1224 594.634 74.1149 593.303 71.6339L591.541 72.579C592.981 75.264 594.764 77.4866 596.9 79.2269L598.164 77.6764ZM593.311 71.6491C592.054 69.2045 591.401 66.1699 591.401 62.5044H589.401C589.401 66.4007 590.095 69.7675 591.533 72.5638L593.311 71.6491ZM591.401 62.5044V9.8335H589.401V62.5044H591.401ZM591.401 9.8335C591.401 8.9496 591.564 8.12622 591.885 7.35434L590.039 6.58511C589.612 7.61011 589.401 8.69591 589.401 9.8335H591.401ZM591.885 7.35434C592.215 6.56194 592.656 5.87945 593.205 5.29795L591.751 3.92471C591.028 4.69086 590.458 5.58064 590.039 6.58511L591.885 7.35434ZM593.185 5.31844C593.765 4.73897 594.441 4.28735 595.221 3.96214L594.452 2.11599C593.436 2.53947 592.539 3.13603 591.771 3.90422L593.185 5.31844ZM595.221 3.96214C595.989 3.64237 596.83 3.47754 597.757 3.47754V1.47754C596.587 1.47754 595.481 1.68705 594.452 2.11599L595.221 3.96214ZM597.757 3.47754H663.511V1.47754H597.757V3.47754ZM662.511 2.47754V17.0771H664.511V2.47754H662.511ZM663.511 16.0771H605V18.0771H663.511V16.0771ZM604 17.0771V62.5044H606V17.0771H604ZM604 62.5044C604 64.5869 604.555 66.3368 605.809 67.5914L607.223 66.1772C606.456 65.4102 606 64.2403 606 62.5044H604ZM605.809 67.5914C607.067 68.8493 608.839 69.4004 610.952 69.4004V67.4004C609.173 67.4004 607.987 66.9407 607.223 66.1772L605.809 67.5914ZM610.952 69.4004H663.511V67.4004H610.952V69.4004ZM662.511 68.4004V83H664.511V68.4004H662.511ZM764.41 79.687L763.501 79.2704L763.494 79.2863L763.487 79.3024L764.41 79.687ZM762.838 82.0454L762.131 81.3383L762.838 82.0454ZM760.535 83.5615L760.151 82.6384L760.535 83.5615ZM754.92 83.6177L754.569 84.5541L754.581 84.5586L754.92 83.6177ZM752.506 81.9893L753.231 81.3005L753.228 81.2976L752.506 81.9893ZM699.161 26.2861L699.883 25.5945L698.161 23.7961V26.2861H699.161ZM699.161 83V84H700.161V83H699.161ZM684.561 83H683.561V84H684.561V83ZM685.797 4.66748L684.976 4.09568L684.973 4.10095L685.797 4.66748ZM689.054 1.91602L688.678 0.989277L688.658 0.997473L688.638 1.00654L689.054 1.91602ZM693.321 1.52295L693.12 2.50255L693.132 2.50504L693.144 2.50722L693.321 1.52295ZM697.083 3.54443L697.805 2.85241L697.803 2.84984L697.083 3.54443ZM750.428 59.1914L749.706 59.8834L751.428 61.6796V59.1914H750.428ZM750.428 2.47754V1.47754H749.428V2.47754H750.428ZM765.028 2.47754H766.028V1.47754H765.028V2.47754ZM764.028 76.7671C764.028 77.6803 763.849 78.5105 763.501 79.2704L765.319 80.1037C765.794 79.0667 766.028 77.9502 766.028 76.7671H764.028ZM763.487 79.3024C763.162 80.0829 762.71 80.7588 762.131 81.3383L763.545 82.7525C764.313 81.9843 764.91 81.088 765.333 80.0716L763.487 79.3024ZM762.131 81.3383C761.594 81.875 760.939 82.3102 760.151 82.6384L760.92 84.4846C761.929 84.0641 762.809 83.4886 763.545 82.7525L762.131 81.3383ZM760.151 82.6384C759.379 82.9601 758.556 83.123 757.672 83.123V85.123C758.809 85.123 759.895 84.9117 760.92 84.4846L760.151 82.6384ZM757.672 83.123C756.9 83.123 756.098 82.9788 755.259 82.6768L754.581 84.5586C755.614 84.9304 756.646 85.123 757.672 85.123V83.123ZM755.271 82.6813C754.525 82.4016 753.846 81.948 753.231 81.3005L751.781 82.678C752.588 83.5279 753.518 84.16 754.569 84.554L755.271 82.6813ZM753.228 81.2976L699.883 25.5945L698.439 26.9778L751.783 82.6809L753.228 81.2976ZM698.161 26.2861V83H700.161V26.2861H698.161ZM699.161 82H684.561V84H699.161V82ZM685.561 83V8.71045H683.561V83H685.561ZM685.561 8.71045C685.561 7.40888 685.915 6.25998 686.621 5.23401L684.973 4.10095C684.031 5.47082 683.561 7.01723 683.561 8.71045H685.561ZM686.617 5.23927C687.381 4.14371 688.329 3.34666 689.469 2.82549L688.638 1.00654C687.157 1.68328 685.935 2.72054 684.976 4.09569L686.617 5.23927ZM689.429 2.84275C690.632 2.35511 691.854 2.24283 693.12 2.50255L693.522 0.543346C691.868 0.204111 690.245 0.35387 688.678 0.989277L689.429 2.84275ZM693.144 2.50722C694.394 2.73145 695.459 3.30179 696.364 4.23903L697.803 2.84984C696.611 1.61585 695.168 0.838537 693.498 0.538677L693.144 2.50722ZM696.361 4.23645L749.706 59.8834L751.15 58.4994L697.805 2.85242L696.361 4.23645ZM751.428 59.1914V2.47754H749.428V59.1914H751.428ZM750.428 3.47754H765.028V1.47754H750.428V3.47754ZM764.028 2.47754V76.7671H766.028V2.47754H764.028ZM866.713 62.8413L865.79 62.4555L865.787 62.4627L866.713 62.8413ZM859.694 73.5103L860.396 74.2218L860.401 74.2174L859.694 73.5103ZM793.266 82.4385L792.881 83.3616L793.266 82.4385ZM790.907 80.9224L790.18 81.609L790.2 81.6298L790.22 81.6494L790.907 80.9224ZM790.907 4.61133L790.2 3.90422L790.19 3.91432L790.18 3.92471L790.907 4.61133ZM859.694 12.0234L858.987 12.7306L858.991 12.735L859.694 12.0234ZM866.713 22.6924L865.786 23.0681L865.79 23.0782L866.713 22.6924ZM853.292 28.3638L852.358 28.7198L852.363 28.7326L853.292 28.3638ZM849.418 22.3555L848.711 23.0626L848.719 23.0705L849.418 22.3555ZM843.353 18.481L842.979 19.4084L842.988 19.412L842.997 19.4154L843.353 18.481ZM803.429 17.0771V16.0771H802.429V17.0771H803.429ZM803.429 68.4004H802.429V69.4004H803.429V68.4004ZM843.353 67.0527L843.714 67.9853L843.722 67.9822L843.353 67.0527ZM849.418 63.1782L850.117 63.8933L850.125 63.8853L849.418 63.1782ZM853.292 57.1699L852.363 56.8011L852.36 56.8089L853.292 57.1699ZM868.296 49.3086C868.296 54.0932 867.456 58.4714 865.79 62.4555L867.635 63.2271C869.413 58.9755 870.296 54.3319 870.296 49.3086H868.296ZM865.787 62.4627C864.15 66.4639 861.883 69.907 858.987 72.8031L860.401 74.2174C863.494 71.124 865.906 67.4544 867.638 63.2199L865.787 62.4627ZM858.991 72.7987C856.094 75.6591 852.65 77.9096 848.646 79.5476L849.403 81.3987C853.635 79.6675 857.303 77.2761 860.396 74.2218L858.991 72.7987ZM848.646 79.5476C844.658 81.1789 840.315 82 835.604 82V84C840.552 84 845.155 83.1365 849.403 81.3987L848.646 79.5476ZM835.604 82H796.185V84H835.604V82ZM796.185 82C795.259 82 794.418 81.8352 793.65 81.5154L792.881 83.3616C793.91 83.7905 795.016 84 796.185 84V82ZM793.65 81.5154C792.858 81.1852 792.175 80.7445 791.594 80.1954L790.22 81.6494C790.987 82.373 791.876 82.943 792.881 83.3616L793.65 81.5154ZM791.634 80.2357C791.085 79.6542 790.644 78.9717 790.314 78.1794L788.468 78.9486C788.886 79.9531 789.456 80.8428 790.18 81.609L791.634 80.2357ZM790.314 78.1794C789.994 77.4119 789.829 76.5704 789.829 75.644H787.829C787.829 76.814 788.039 77.9192 788.468 78.9486L790.314 78.1794ZM789.829 75.644V9.8335H787.829V75.644H789.829ZM789.829 9.8335C789.829 8.9496 789.992 8.12622 790.314 7.35434L788.468 6.58511C788.041 7.61011 787.829 8.69591 787.829 9.8335H789.829ZM790.314 7.35434C790.644 6.56194 791.085 5.87945 791.634 5.29795L790.18 3.92471C789.456 4.69086 788.886 5.58064 788.468 6.58511L790.314 7.35434ZM791.614 5.31844C792.194 4.73897 792.87 4.28735 793.65 3.96214L792.881 2.11599C791.865 2.53947 790.968 3.13603 790.2 3.90422L791.614 5.31844ZM793.65 3.96214C794.418 3.64237 795.259 3.47754 796.185 3.47754V1.47754C795.016 1.47754 793.91 1.68705 792.881 2.11599L793.65 3.96214ZM796.185 3.47754H835.604V1.47754H796.185V3.47754ZM835.604 3.47754C840.315 3.47754 844.658 4.2986 848.646 5.92994L849.403 4.07885C845.155 2.34105 840.552 1.47754 835.604 1.47754V3.47754ZM848.646 5.92994C852.647 7.56681 856.09 9.83436 858.987 12.7305L860.401 11.3163C857.307 8.22293 853.638 5.81112 849.403 4.07885L848.646 5.92994ZM858.991 12.735C861.883 15.5907 864.149 19.0305 865.786 23.0681L867.64 22.3167C865.907 18.0437 863.494 14.3709 860.396 11.3119L858.991 12.735ZM865.79 23.0782C867.457 27.0632 868.296 31.4228 868.296 36.1689H870.296C870.296 31.182 869.413 26.5573 867.635 22.3066L865.79 23.0782ZM868.296 36.1689V49.3086H870.296V36.1689H868.296ZM855.696 36.1689C855.696 33.2129 855.21 30.4841 854.222 27.9949L852.363 28.7326C853.247 30.9602 853.696 33.4349 853.696 36.1689H855.696ZM854.227 28.0078C853.281 25.5239 851.912 23.3959 850.117 21.6405L848.719 23.0705C850.293 24.6093 851.507 26.4869 852.358 28.7198L854.227 28.0078ZM850.125 21.6484C848.335 19.8582 846.192 18.4921 843.709 17.5465L842.997 19.4154C845.232 20.2667 847.132 21.4836 848.711 23.0626L850.125 21.6484ZM843.727 17.5535C841.272 16.5636 838.56 16.0771 835.604 16.0771V18.0771C838.339 18.0771 840.792 18.5266 842.979 19.4084L843.727 17.5535ZM835.604 16.0771H803.429V18.0771H835.604V16.0771ZM802.429 17.0771V68.4004H804.429V17.0771H802.429ZM803.429 69.4004H835.604V67.4004H803.429V69.4004ZM835.604 69.4004C838.555 69.4004 841.263 68.9342 843.714 67.9853L842.992 66.1202C840.802 66.9681 838.343 67.4004 835.604 67.4004V69.4004ZM843.722 67.9822C846.194 67.0013 848.331 65.64 850.117 63.8932L848.719 62.4632C847.136 64.0107 845.229 65.2325 842.985 66.1232L843.722 67.9822ZM850.125 63.8853C851.912 62.0979 853.279 59.9758 854.225 57.5309L852.36 56.8089C851.509 59.006 850.292 60.8894 848.711 62.4711L850.125 63.8853ZM854.222 57.5388C855.21 55.0481 855.696 52.3003 855.696 49.3086H853.696C853.696 52.0818 853.246 54.5749 852.363 56.8011L854.222 57.5388ZM855.696 49.3086V36.1689H853.696V49.3086H855.696ZM966.77 67.1089L965.818 66.8019L965.815 66.8115L966.77 67.1089ZM949.418 82.4385L949.214 81.4595L949.21 81.4604L949.418 82.4385ZM888.1 83H887.1V84H888.1V83ZM888.1 68.4004V67.4004H887.1V68.4004H888.1ZM950.935 65.9297L950.211 65.2392L950.203 65.248L950.935 65.9297ZM950.878 52.6777L950.138 53.3504L950.147 53.3594L950.155 53.3682L950.878 52.6777ZM948.071 50.7686L947.688 51.6926L947.699 51.697L948.071 50.7686ZM903.205 48.8594L902.905 49.8132L902.917 49.8168L903.205 48.8594ZM895.568 44.7603L894.941 45.5387L894.947 45.5435L895.568 44.7603ZM889.729 37.4043L888.836 37.8559L888.841 37.8646L889.729 37.4043ZM889.729 15.2241L888.841 14.7638L888.839 14.768L889.729 15.2241ZM895.568 7.86816L896.196 8.64658L896.198 8.64541L895.568 7.86816ZM903.205 3.76904L903.494 4.72658L903.506 4.72282L903.205 3.76904ZM960.537 2.47754H961.537V1.47754H960.537V2.47754ZM960.537 17.0771V18.0771H961.537V17.0771H960.537ZM904.328 19.604L903.597 18.9216L903.589 18.9305L904.328 19.604ZM904.328 32.9683L903.596 33.65L903.605 33.6586L903.613 33.667L904.328 32.9683ZM944.533 35.3828L944.557 34.3831L944.545 34.3828H944.533V35.3828ZM949.531 36.0566L949.303 37.0303L949.313 37.0326L949.323 37.0347L949.531 36.0566ZM954.753 37.8535L954.321 38.7557L954.329 38.7592L954.753 37.8535ZM959.75 40.998L959.121 41.7753L959.127 41.7799L959.133 41.7844L959.75 40.998ZM963.906 45.4902L963.079 46.053L963.083 46.059L963.087 46.0649L963.906 45.4902ZM966.893 59.3037C966.893 62.1004 966.529 64.5963 965.818 66.8019L967.721 67.4159C968.507 64.9796 968.893 62.272 968.893 59.3037H966.893ZM965.815 66.8115C965.129 69.0122 964.215 70.9421 963.079 72.6105L964.732 73.7361C965.992 71.8857 966.987 69.7726 967.724 67.4063L965.815 66.8115ZM963.079 72.6105C961.938 74.2864 960.607 75.7048 959.086 76.8722L960.303 78.4588C962.001 77.1556 963.478 75.5792 964.732 73.7361L963.079 72.6105ZM959.086 76.8722C957.531 78.0649 955.93 79.0355 954.281 79.7881L955.112 81.6074C956.908 80.7878 958.638 79.7369 960.303 78.4588L959.086 76.8722ZM954.281 79.7881C952.625 80.5443 950.936 81.1008 949.214 81.4595L949.622 83.4175C951.494 83.0275 953.325 82.4235 955.112 81.6074L954.281 79.7881ZM949.21 81.4604C947.51 81.8222 945.914 82 944.421 82V84C946.072 84 947.808 83.8035 949.627 83.4166L949.21 81.4604ZM944.421 82H888.1V84H944.421V82ZM889.1 83V68.4004H887.1V83H889.1ZM888.1 69.4004H944.421V67.4004H888.1V69.4004ZM944.421 69.4004C947.433 69.4004 949.897 68.5096 951.666 66.6114L950.203 65.248C948.902 66.6441 947.024 67.4004 944.421 67.4004V69.4004ZM951.658 66.6202C953.445 64.7484 954.293 62.2721 954.293 59.3037H952.293C952.293 61.8756 951.569 63.8168 950.211 65.2392L951.658 66.6202ZM954.293 59.3037C954.293 57.8533 954.071 56.4998 953.614 55.2534L951.736 55.9419C952.103 56.9416 952.293 58.0588 952.293 59.3037H954.293ZM953.614 55.2534C953.158 54.008 952.488 52.9152 951.602 51.9873L950.155 53.3682C950.842 54.0874 951.37 54.9412 951.736 55.9419L953.614 55.2534ZM951.618 52.0051C950.759 51.0599 949.693 50.3406 948.442 49.8401L947.699 51.697C948.694 52.095 949.5 52.6484 950.138 53.3504L951.618 52.0051ZM948.453 49.8445C947.23 49.3383 945.881 49.0947 944.421 49.0947V51.0947C945.656 51.0947 946.741 51.3003 947.688 51.6926L948.453 49.8445ZM944.421 49.0947H910.842V51.0947H944.421V49.0947ZM910.842 49.0947C908.599 49.0947 906.152 48.703 903.494 47.9019L902.917 49.8168C905.724 50.6629 908.368 51.0947 910.842 51.0947V49.0947ZM903.506 47.9056C900.895 47.0832 898.458 45.7766 896.19 43.977L894.947 45.5435C897.396 47.4874 900.049 48.9136 902.905 49.8132L903.506 47.9056ZM896.196 43.9818C893.997 42.2088 892.134 39.8711 890.616 36.944L888.841 37.8646C890.468 41.0019 892.497 43.5683 894.941 45.5387L896.196 43.9818ZM890.621 36.9527C889.174 34.0949 888.426 30.553 888.426 26.2861H886.426C886.426 30.7791 887.213 34.6492 888.836 37.8559L890.621 36.9527ZM888.426 26.2861C888.426 22.0187 889.174 18.4978 890.618 15.6802L888.839 14.768C887.213 17.94 886.426 21.7938 886.426 26.2861H888.426ZM890.616 15.6844C892.134 12.7573 893.997 10.4197 896.196 8.64658L894.941 7.08975C892.497 9.06015 890.468 11.6265 888.841 14.7638L890.616 15.6844ZM896.198 8.64541C898.462 6.81261 900.893 5.51034 903.494 4.72651L902.917 2.81158C900.052 3.67488 897.392 5.10536 894.939 7.09092L896.198 8.64541ZM903.506 4.72282C906.161 3.88611 908.604 3.47754 910.842 3.47754V1.47754C908.362 1.47754 905.714 1.92997 902.905 2.81526L903.506 4.72282ZM910.842 3.47754H960.537V1.47754H910.842V3.47754ZM959.537 2.47754V17.0771H961.537V2.47754H959.537ZM960.537 16.0771H910.842V18.0771H960.537V16.0771ZM910.842 16.0771C907.855 16.0771 905.396 16.9941 903.597 18.9217L905.059 20.2863C906.405 18.8448 908.288 18.0771 910.842 18.0771V16.0771ZM903.589 18.9305C901.852 20.8371 901.026 23.3233 901.026 26.2861H903.026C903.026 23.7086 903.735 21.74 905.067 20.2775L903.589 18.9305ZM901.026 26.2861C901.026 29.2814 901.849 31.7749 903.596 33.65L905.06 32.2865C903.737 30.8674 903.026 28.9061 903.026 26.2861H901.026ZM903.613 33.667C905.415 35.5121 907.869 36.3828 910.842 36.3828V34.3828C908.275 34.3828 906.386 33.6438 905.044 32.2695L903.613 33.667ZM910.842 36.3828H944.421V34.3828H910.842V36.3828ZM944.421 36.3828H944.533V34.3828H944.421V36.3828ZM944.509 36.3825C946.004 36.4181 947.601 36.632 949.303 37.0303L949.759 35.083C947.942 34.6578 946.207 34.4224 944.557 34.3831L944.509 36.3825ZM949.323 37.0347C951 37.3917 952.666 37.9641 954.321 38.7557L955.184 36.9514C953.396 36.0958 951.58 35.4703 949.739 35.0785L949.323 37.0347ZM954.329 38.7592C956.012 39.547 957.609 40.5514 959.121 41.7753L960.38 40.2208C958.747 38.8991 957.013 37.8071 955.177 36.9478L954.329 38.7592ZM959.133 41.7844C960.619 42.9524 961.935 44.3729 963.079 46.053L964.732 44.9274C963.48 43.0887 962.026 41.5144 960.368 40.2117L959.133 41.7844ZM963.087 46.0649C964.257 47.7306 965.187 49.6564 965.871 51.8521L967.78 51.2573C967.042 48.8859 966.025 46.7688 964.724 44.9156L963.087 46.0649ZM965.871 51.8521C966.547 54.0219 966.893 56.5021 966.893 59.3037H968.893C968.893 56.3404 968.527 53.6545 967.78 51.2573L965.871 51.8521Z" fill="white" fill-opacity="0.2" mask="url(#path-1-outside-1_172_1181)"/>
</svg>
