<svg width="285" height="66" viewBox="0 0 285 66" fill="none" xmlns="http://www.w3.org/2000/svg">
    <path d="M0 66H273.528C279.864 66 285 61.275 285 55.4484V0H24.1921L0 25.1952V65.9987V66Z" fill="white"/>
    <g clip-path="url(#clip0_31_4467)">
        <path d="M43 22.867C43 23.9016 43.8357 24.7372 44.867 24.7372H57.1133C58.778 24.7372 59.6103 26.7501 58.4331 27.924L43.5472 42.8099C43.1956 43.1614 43 43.6356 43 44.133C43 45.1677 43.8357 46.0033 44.867 46.0033C45.3611 46.0033 45.8386 45.8077 46.1868 45.4562L61.076 30.5669C62.2532 29.3897 64.2628 30.222 64.2628 31.8867V44.133C64.2628 45.1643 65.0984 46 66.1297 46C67.161 46 67.9967 45.1643 67.9967 44.133V22.867C67.9967 21.8357 67.161 21 66.1297 21H44.867C43.8357 21 43 21.8357 43 22.867Z" fill="#FF2D34"/>
    </g>
    <defs>
        <clipPath id="clip0_31_4467">
            <rect width="25" height="25" fill="white" transform="translate(43 21)"/>
        </clipPath>
    </defs>
</svg>
