<svg width="286" height="66" viewBox="0 0 286 66" fill="none" xmlns="http://www.w3.org/2000/svg">
    <path d="M0.501953 65.9971H274.03C280.366 65.9971 285.502 61.2721 285.502 55.4454V-0.00292969H24.6941L0.501953 25.1923V65.9958V65.9971Z" fill="#FF2D34"/>
    <g clip-path="url(#clip0_31_4467)">
        <path d="M43.502 22.864C43.502 23.8986 44.3376 24.7343 45.3689 24.7343H57.6152C59.2799 24.7343 60.1122 26.7472 58.935 27.9211L44.0491 42.807C43.6976 43.1585 43.502 43.6327 43.502 44.1301C43.502 45.1647 44.3376 46.0004 45.3689 46.0004C45.863 46.0004 46.3405 45.8047 46.6887 45.4532L61.578 30.564C62.7552 29.3868 64.7647 30.2191 64.7647 31.8838V44.1301C64.7647 45.1614 65.6004 45.9971 66.6317 45.9971C67.663 45.9971 68.4986 45.1614 68.4986 44.1301V22.864C68.4986 21.8327 67.663 20.9971 66.6317 20.9971H45.3689C44.3376 20.9971 43.502 21.8327 43.502 22.864Z" fill="white"/>
    </g>
    <defs>
        <clipPath id="clip0_31_4467">
            <rect width="25" height="25" fill="white" transform="translate(43.502 20.9971)"/>
        </clipPath>
    </defs>
</svg>
