<svg width="1233" height="791" viewBox="0 0 1233 791" fill="none" xmlns="http://www.w3.org/2000/svg">
    <g opacity="0.7">
        <path d="M1224.96 0H7.51985C3.36675 0 0 3.36675 0 7.51985V783.48C0 787.633 3.36675 791 7.51985 791H1224.96C1229.11 791 1232.48 787.633 1232.48 783.48V7.51985C1232.48 3.36675 1229.11 0 1224.96 0Z" fill="url(#paint0_linear_237_848)"/>
        <path d="M1224.88 0H7.60751C3.40996 0 0.00976562 3.40478 0.00976562 7.6115V43.0177C0.00976562 51.8543 7.17321 59.0177 16.0098 59.0177H117.124C120.74 59.0177 123.673 56.0804 123.673 52.4602V21.1436C123.673 17.3355 126.757 14.2469 130.56 14.2469H384.269C388.072 14.2469 391.156 17.3355 391.156 21.1436V52.5839C391.156 56.1354 394.03 59.0132 397.576 59.0132H1216.48C1225.32 59.0132 1232.48 51.8497 1232.48 43.0132V7.6115C1232.48 3.40936 1229.08 0 1224.88 0H1224.88Z" fill="black"/>
        <path d="M154.772 40.612H152.987L152.319 40.1569C151.632 39.6876 150.832 39.4414 150 39.4414C149.167 39.4414 148.367 39.6893 147.68 40.1569L147.012 40.612H145.227C144.977 40.612 144.773 40.8157 144.773 41.0654V41.5187H155.22V41.0654C155.22 40.8157 155.017 40.612 154.767 40.612H154.772Z" fill="white"/>
        <path d="M146.619 43.4011H153.414L154.364 42.5635H145.652L146.619 43.4011Z" fill="white"/>
        <path d="M146.977 39.3727L147.09 39.2948C147.951 38.7086 148.957 38.3969 149.998 38.3969C151.04 38.3969 152.045 38.7068 152.906 39.2948L153.014 39.3674L153.156 39.1885C153.932 38.2092 154.378 36.9943 154.422 35.7476V35.721C154.422 33.8438 153.089 32.2145 151.252 31.8461L150.832 31.7611V31.2706H149.919V30.4453H149.816C149.458 30.4453 149.168 30.7357 149.168 31.0935V31.7611L148.748 31.8461C146.91 32.2145 145.576 33.8438 145.576 35.721C145.576 35.721 145.576 35.8202 145.585 35.891C145.704 36.7659 146.084 38.2464 146.832 39.1885L146.977 39.3709V39.3727ZM152.963 35.404V37.3343H151.032L152.963 35.404ZM146.871 35.404L148.801 37.3343H146.871V35.404Z" fill="white"/>
        <path d="M143.639 27.9766V30.463L141 32.7865V43.8833L143.453 45.7517L158.981 45.8703L159 28.0527L143.639 27.9766ZM156.269 42.277L153.811 44.4482H146.23L143.733 42.2806V41.0675C143.733 40.2404 144.402 39.5692 145.231 39.5692H145.812C145.774 39.5161 145.737 39.463 145.702 39.4099C145.096 38.5084 144.738 37.4618 144.625 36.3815L144.611 36.2505C144.432 34.5539 145.102 32.8591 146.439 31.8001C146.934 31.4087 147.506 31.1076 148.133 30.9252C148.22 30.0716 148.943 29.404 149.818 29.404H150.963V30.231H151.877V30.9287C153.924 31.5291 155.387 33.3939 155.465 35.5474C155.465 35.5474 155.465 35.5527 155.472 35.5616L155.373 36.4187C155.249 37.4866 154.891 38.5173 154.293 39.4099C154.256 39.463 154.218 39.5179 154.181 39.5692H154.773C155.6 39.5692 156.271 40.2387 156.271 41.0675V42.2788L156.269 42.277Z" fill="white"/>
        <path d="M36.0892 36.932C39.8804 36.932 42.9537 33.8545 42.9537 30.0583C42.9537 26.262 39.8804 23.1846 36.0892 23.1846C32.298 23.1846 29.2246 26.262 29.2246 30.0583C29.2246 33.8545 32.298 36.932 36.0892 36.932Z" fill="#ED4414"/>
        <path d="M61.3646 36.932C65.1557 36.932 68.2291 33.8545 68.2291 30.0583C68.2291 26.262 65.1557 23.1846 61.3646 23.1846C57.5734 23.1846 54.5 26.262 54.5 30.0583C54.5 33.8545 57.5734 36.932 61.3646 36.932Z" fill="#FBC633"/>
        <path d="M86.8997 36.932C90.6909 36.932 93.7643 33.8545 93.7643 30.0583C93.7643 26.262 90.6909 23.1846 86.8997 23.1846C83.1085 23.1846 80.0352 26.262 80.0352 30.0583C80.0352 33.8545 83.1085 36.932 86.8997 36.932Z" fill="#74C21D"/>
        <path d="M375.697 34.6387L372.421 37.9197L369.144 34.6387L368.338 35.4452L371.614 38.7262L368.338 42.0073L369.144 42.8138L372.421 39.5328L375.697 42.8138L376.499 42.0073L373.223 38.7262L376.499 35.4452L375.697 34.6387Z" fill="#B3B3B3"/>
        <path d="M169 41.5787V31.5988H172.84C173.709 31.5988 174.457 31.7366 175.082 32.0122C175.707 32.2784 176.186 32.6681 176.518 33.1813C176.86 33.6851 177.031 34.2981 177.031 35.0205C177.031 35.7238 176.86 36.3321 176.518 36.8453C176.186 37.3491 175.707 37.7388 175.082 38.0144C174.457 38.2805 173.709 38.4136 172.84 38.4136H169.601L170.084 37.9289V41.5787H169ZM176.005 41.5787L173.367 37.9574H174.54L177.192 41.5787H176.005ZM170.084 38.0144L169.601 37.5154H172.81C173.836 37.5154 174.613 37.2968 175.141 36.8596C175.678 36.4224 175.947 35.8093 175.947 35.0205C175.947 34.2221 175.678 33.6043 175.141 33.1671C174.613 32.7298 173.836 32.5112 172.81 32.5112H169.601L170.084 32.0122V38.0144Z" fill="white"/>
        <path d="M182.639 41.6499C181.838 41.6499 181.134 41.4884 180.529 41.1652C179.923 40.8325 179.449 40.3811 179.107 39.8108C178.765 39.231 178.594 38.5704 178.594 37.8291C178.594 37.0877 178.755 36.4319 179.078 35.8616C179.41 35.2913 179.859 34.8446 180.426 34.5215C181.003 34.1888 181.647 34.0225 182.361 34.0225C183.084 34.0225 183.724 34.1841 184.281 34.5072C184.847 34.8209 185.292 35.2676 185.614 35.8474C185.937 36.4176 186.098 37.0782 186.098 37.8291C186.098 37.8766 186.093 37.9289 186.083 37.9859C186.083 38.0334 186.083 38.0857 186.083 38.1427H179.386V37.3871H185.526L185.116 37.6865C185.116 37.1447 184.994 36.6648 184.749 36.2466C184.515 35.8188 184.193 35.4862 183.782 35.2486C183.372 35.011 182.898 34.8921 182.361 34.8921C181.833 34.8921 181.359 35.011 180.939 35.2486C180.519 35.4862 180.192 35.8188 179.957 36.2466C179.723 36.6743 179.605 37.1638 179.605 37.715V37.8718C179.605 38.4421 179.732 38.9459 179.986 39.3831C180.25 39.8108 180.612 40.1482 181.071 40.3953C181.54 40.6329 182.072 40.7518 182.668 40.7518C183.137 40.7518 183.572 40.671 183.973 40.5094C184.383 40.3478 184.735 40.1007 185.028 39.768L185.614 40.4238C185.272 40.823 184.842 41.1272 184.324 41.3363C183.816 41.5454 183.255 41.6499 182.639 41.6499Z" fill="white"/>
        <path d="M190.051 41.5787L186.636 34.0938H187.721L190.857 41.0369H190.344L193.524 34.0938H194.55L191.121 41.5787H190.051Z" fill="white"/>
        <path d="M198.864 41.6499C198.131 41.6499 197.472 41.4884 196.886 41.1652C196.309 40.842 195.855 40.3953 195.523 39.825C195.19 39.2453 195.024 38.5799 195.024 37.8291C195.024 37.0687 195.19 36.4034 195.523 35.8331C195.855 35.2628 196.309 34.8209 196.886 34.5072C197.472 34.1841 198.131 34.0225 198.864 34.0225C199.538 34.0225 200.139 34.1698 200.667 34.4644C201.204 34.7591 201.629 35.1915 201.942 35.7618C202.264 36.3226 202.425 37.0117 202.425 37.8291C202.425 38.637 202.269 39.3261 201.956 39.8963C201.644 40.4666 201.219 40.9038 200.681 41.208C200.154 41.5026 199.548 41.6499 198.864 41.6499ZM198.937 40.7518C199.484 40.7518 199.973 40.6329 200.403 40.3953C200.842 40.1482 201.184 39.806 201.429 39.3688C201.683 38.9221 201.81 38.4089 201.81 37.8291C201.81 37.2398 201.683 36.7265 201.429 36.2893C201.184 35.8521 200.842 35.5147 200.403 35.2771C199.973 35.03 199.484 34.9064 198.937 34.9064C198.4 34.9064 197.916 35.03 197.486 35.2771C197.056 35.5147 196.715 35.8521 196.461 36.2893C196.206 36.7265 196.079 37.2398 196.079 37.8291C196.079 38.4089 196.206 38.9221 196.461 39.3688C196.715 39.806 197.056 40.1482 197.486 40.3953C197.916 40.6329 198.4 40.7518 198.937 40.7518ZM201.839 41.5787V39.3261L201.942 37.8148L201.795 36.3036V31H202.836V41.5787H201.839Z" fill="white"/>
        <path d="M208.914 41.6499C208.259 41.6499 207.688 41.5311 207.199 41.2935C206.71 41.0559 206.329 40.6995 206.056 40.2242C205.792 39.749 205.66 39.155 205.66 38.4421V34.0938H206.701V38.3281C206.701 39.1265 206.901 39.73 207.302 40.1387C207.712 40.5379 208.284 40.7375 209.016 40.7375C209.554 40.7375 210.018 40.6329 210.409 40.4238C210.809 40.2052 211.112 39.8916 211.317 39.4829C211.532 39.0742 211.64 38.5847 211.64 38.0144V34.0938H212.68V41.5787H211.684V39.5257L211.845 39.8963C211.601 40.4476 211.219 40.8801 210.702 41.1937C210.194 41.4979 209.598 41.6499 208.914 41.6499Z" fill="white"/>
        <path d="M218.775 41.6499C218.013 41.6499 217.329 41.4884 216.723 41.1652C216.127 40.8325 215.658 40.3811 215.316 39.8108C214.974 39.231 214.803 38.5704 214.803 37.8291C214.803 37.0782 214.974 36.4176 215.316 35.8474C215.658 35.2771 216.127 34.8304 216.723 34.5072C217.329 34.1841 218.013 34.0225 218.775 34.0225C219.43 34.0225 220.021 34.146 220.548 34.3932C221.076 34.6403 221.491 35.011 221.794 35.5052L221.017 36.0184C220.753 35.6383 220.426 35.3579 220.035 35.1773C219.644 34.9967 219.219 34.9064 218.76 34.9064C218.213 34.9064 217.72 35.03 217.28 35.2771C216.84 35.5147 216.494 35.8521 216.24 36.2893C215.986 36.7265 215.859 37.2398 215.859 37.8291C215.859 38.4184 215.986 38.9316 216.24 39.3688C216.494 39.806 216.84 40.1482 217.28 40.3953C217.72 40.6329 218.213 40.7518 218.76 40.7518C219.219 40.7518 219.644 40.6615 220.035 40.4809C220.426 40.3003 220.753 40.0246 221.017 39.654L221.794 40.1672C221.491 40.652 221.076 41.0226 220.548 41.2793C220.021 41.5264 219.43 41.6499 218.775 41.6499Z" fill="white"/>
        <path d="M224.544 39.6397L224.574 38.3423L229.366 34.0938H230.641L227.255 37.2445L226.669 37.7293L224.544 39.6397ZM223.724 41.5787V31H224.764V41.5787H223.724ZM229.688 41.5787L226.479 37.6865L227.153 36.9024L230.963 41.5787H229.688Z" fill="white"/>
    </g>
    <defs>
        <linearGradient id="paint0_linear_237_848" x1="616.238" y1="0" x2="616.238" y2="791" gradientUnits="userSpaceOnUse">
            <stop stop-color="#0C0F20"/>
            <stop offset="1" stop-color="#02030A"/>
        </linearGradient>
    </defs>
</svg>
