<svg width="305" height="29" viewBox="0 0 305 29" fill="none" xmlns="http://www.w3.org/2000/svg">
    <mask id="path-1-outside-1_276_758" maskUnits="userSpaceOnUse" x="-0.0390625" y="0" width="305" height="29" fill="black">
        <rect fill="white" x="-0.0390625" width="305" height="29"/>
        <path d="M28.2918 16.8047C28.2918 18.3398 28.0281 19.752 27.5008 21.041C26.9734 22.3301 26.241 23.4434 25.3035 24.3809C24.366 25.3184 23.2527 26.0508 21.9637 26.5781C20.6863 27.0938 19.2918 27.3516 17.7801 27.3516H11.5926C10.0809 27.3516 8.68047 27.0938 7.3914 26.5781C6.10234 26.0508 4.98906 25.3184 4.05156 24.3809C3.11406 23.4434 2.37578 22.3301 1.83672 21.041C1.30937 19.752 1.0457 18.3398 1.0457 16.8047V11.9883C1.0457 10.4648 1.30937 9.05859 1.83672 7.76953C2.37578 6.46875 3.11406 5.35547 4.05156 4.42969C4.98906 3.49219 6.10234 2.75977 7.3914 2.23242C8.68047 1.70508 10.0809 1.44141 11.5926 1.44141H17.7801C19.2918 1.44141 20.6863 1.70508 21.9637 2.23242C23.2527 2.75977 24.366 3.49219 25.3035 4.42969C26.241 5.35547 26.9734 6.46875 27.5008 7.76953C28.0281 9.05859 28.2918 10.4648 28.2918 11.9883V16.8047ZM23.7215 11.9883C23.7215 11.0859 23.575 10.2715 23.282 9.54492C23.0008 8.80664 22.5965 8.17969 22.0691 7.66406C21.5535 7.13672 20.9266 6.73242 20.1883 6.45117C19.4617 6.1582 18.659 6.01172 17.7801 6.01172H11.5926C10.702 6.01172 9.8875 6.1582 9.14922 6.45117C8.42265 6.73242 7.7957 7.13672 7.26836 7.66406C6.74101 8.17969 6.33086 8.80664 6.03789 9.54492C5.75664 10.2715 5.61601 11.0859 5.61601 11.9883V16.8047C5.61601 17.707 5.75664 18.5273 6.03789 19.2656C6.33086 19.9922 6.74101 20.6191 7.26836 21.1465C7.7957 21.6621 8.42265 22.0664 9.14922 22.3594C9.8875 22.6406 10.702 22.7812 11.5926 22.7812H17.7449C18.6355 22.7812 19.4441 22.6406 20.1707 22.3594C20.909 22.0664 21.5418 21.6621 22.0691 21.1465C22.5965 20.6191 23.0008 19.9922 23.282 19.2656C23.575 18.5273 23.7215 17.707 23.7215 16.8047V11.9883ZM59.6666 24.6973C59.6666 25.0254 59.608 25.3301 59.4909 25.6113C59.3737 25.8926 59.2096 26.1387 58.9987 26.3496C58.7877 26.5488 58.5416 26.707 58.2604 26.8242C57.9791 26.9414 57.6803 27 57.3639 27H47.0631C46.0905 27 45.1061 26.8945 44.11 26.6836C43.1139 26.4727 42.1471 26.1504 41.2096 25.7168C40.2838 25.2715 39.4108 24.709 38.5905 24.0293C37.7702 23.3496 37.0494 22.5469 36.4284 21.6211C35.819 20.6836 35.3385 19.6172 34.9869 18.4219C34.6354 17.2148 34.4596 15.873 34.4596 14.3965V1.79297H39.0299V14.3965C39.0299 15.6855 39.2057 16.7754 39.5573 17.666C39.9205 18.5566 40.3776 19.3008 40.9284 19.8984C41.4791 20.4961 42.0827 20.9648 42.7389 21.3047C43.3952 21.6445 44.0162 21.8965 44.6022 22.0605C45.1998 22.2246 45.7213 22.3301 46.1666 22.377C46.6237 22.4121 46.9225 22.4297 47.0631 22.4297H55.0963V1.79297H59.6666V24.6973ZM92.3423 10.2656C92.3423 11.3086 92.2134 12.2402 91.9555 13.0605C91.6977 13.8809 91.3462 14.6074 90.9009 15.2402C90.4673 15.8613 89.9634 16.3945 89.3891 16.8398C88.8149 17.2852 88.2114 17.6543 87.5786 17.9473C86.9575 18.2285 86.3247 18.4336 85.6802 18.5625C85.0473 18.6914 84.4497 18.7559 83.8872 18.7559L93.4321 27H86.3657L76.8384 18.7559H73.5512V14.1855H83.8872C84.4614 14.1387 84.9829 14.0215 85.4516 13.834C85.9321 13.6348 86.3423 13.3711 86.6821 13.043C87.0337 12.7148 87.3032 12.3223 87.4907 11.8652C87.6782 11.3965 87.7719 10.8633 87.7719 10.2656V7.38281C87.7719 7.125 87.7368 6.93164 87.6665 6.80273C87.6079 6.66211 87.5259 6.5625 87.4204 6.50391C87.3266 6.43359 87.2212 6.39258 87.104 6.38086C86.9985 6.36914 86.8989 6.36328 86.8052 6.36328H71.7231V27H67.1528V4.0957C67.1528 3.7793 67.2114 3.48047 67.3286 3.19922C67.4458 2.91797 67.604 2.67188 67.8032 2.46094C68.0141 2.25 68.2602 2.08594 68.5415 1.96875C68.8227 1.85156 69.1274 1.79297 69.4555 1.79297H86.8052C87.8247 1.79297 88.686 1.98047 89.3891 2.35547C90.0923 2.71875 90.6606 3.18164 91.0942 3.74414C91.5395 4.29492 91.8559 4.89258 92.0434 5.53711C92.2427 6.18164 92.3423 6.78516 92.3423 7.34766V10.2656ZM133.594 16.6992H119.145V12.0938H133.594V16.6992ZM135.633 6.36328H117.317V27H112.746V4.0957C112.746 3.7793 112.805 3.48047 112.922 3.19922C113.039 2.91797 113.197 2.67188 113.397 2.46094C113.608 2.25 113.854 2.08594 114.135 1.96875C114.416 1.85156 114.721 1.79297 115.049 1.79297H135.633V6.36328ZM166.674 10.2656C166.674 11.3086 166.545 12.2402 166.287 13.0605C166.029 13.8809 165.678 14.6074 165.232 15.2402C164.799 15.8613 164.295 16.3945 163.721 16.8398C163.146 17.2852 162.543 17.6543 161.91 17.9473C161.289 18.2285 160.656 18.4336 160.012 18.5625C159.379 18.6914 158.781 18.7559 158.219 18.7559L167.764 27H160.697L151.17 18.7559H147.883V14.1855H158.219C158.793 14.1387 159.314 14.0215 159.783 13.834C160.264 13.6348 160.674 13.3711 161.014 13.043C161.365 12.7148 161.635 12.3223 161.822 11.8652C162.01 11.3965 162.104 10.8633 162.104 10.2656V7.38281C162.104 7.125 162.068 6.93164 161.998 6.80273C161.939 6.66211 161.857 6.5625 161.752 6.50391C161.658 6.43359 161.553 6.39258 161.436 6.38086C161.33 6.36914 161.23 6.36328 161.137 6.36328H146.055V27H141.484V4.0957C141.484 3.7793 141.543 3.48047 141.66 3.19922C141.777 2.91797 141.936 2.67188 142.135 2.46094C142.346 2.25 142.592 2.08594 142.873 1.96875C143.154 1.85156 143.459 1.79297 143.787 1.79297H161.137C162.156 1.79297 163.018 1.98047 163.721 2.35547C164.424 2.71875 164.992 3.18164 165.426 3.74414C165.871 4.29492 166.188 4.89258 166.375 5.53711C166.574 6.18164 166.674 6.78516 166.674 7.34766V10.2656ZM178.027 27H173.457V1.79297H178.027V27ZM206.256 16.6992H191.824V12.0938H206.256V16.6992ZM208.312 27H191.824C191.191 27 190.5 26.8887 189.75 26.666C189 26.4434 188.302 26.0801 187.658 25.5762C187.025 25.0605 186.492 24.3984 186.058 23.5898C185.636 22.7695 185.425 21.7676 185.425 20.584V4.0957C185.425 3.7793 185.484 3.48047 185.601 3.19922C185.718 2.91797 185.877 2.67188 186.076 2.46094C186.287 2.25 186.533 2.08594 186.814 1.96875C187.095 1.85156 187.4 1.79297 187.728 1.79297H208.312V6.36328H189.996V20.584C189.996 21.1816 190.154 21.6387 190.47 21.9551C190.787 22.2715 191.25 22.4297 191.859 22.4297H208.312V27ZM240.091 25.0488C240.091 25.377 240.027 25.6816 239.898 25.9629C239.781 26.2441 239.617 26.4902 239.406 26.7012C239.207 26.9004 238.966 27.0586 238.685 27.1758C238.404 27.293 238.105 27.3516 237.789 27.3516C237.507 27.3516 237.22 27.2988 236.927 27.1934C236.646 27.0879 236.394 26.918 236.171 26.6836L219.472 9.24609V27H214.902V3.74414C214.902 3.27539 215.031 2.85352 215.289 2.47852C215.558 2.0918 215.898 1.80469 216.308 1.61719C216.742 1.44141 217.187 1.40039 217.644 1.49414C218.101 1.57617 218.494 1.78711 218.822 2.12695L235.521 19.5469V1.79297H240.091V25.0488ZM272.732 16.4531C272.732 17.9883 272.462 19.4004 271.923 20.6895C271.396 21.9785 270.663 23.0918 269.726 24.0293C268.788 24.9551 267.675 25.6816 266.386 26.209C265.097 26.7363 263.697 27 262.185 27H249.845C249.517 27 249.212 26.9414 248.931 26.8242C248.65 26.707 248.404 26.5488 248.193 26.3496C247.994 26.1387 247.835 25.8926 247.718 25.6113C247.601 25.3301 247.542 25.0254 247.542 24.6973V4.0957C247.542 3.7793 247.601 3.48047 247.718 3.19922C247.835 2.91797 247.994 2.67188 248.193 2.46094C248.404 2.25 248.65 2.08594 248.931 1.96875C249.212 1.85156 249.517 1.79297 249.845 1.79297H262.185C263.697 1.79297 265.097 2.05664 266.386 2.58398C267.675 3.11133 268.788 3.84375 269.726 4.78125C270.663 5.70703 271.396 6.82031 271.923 8.12109C272.462 9.41016 272.732 10.8164 272.732 12.3398V16.4531ZM268.161 12.3398C268.161 11.4492 268.015 10.6348 267.722 9.89648C267.441 9.1582 267.036 8.53125 266.509 8.01562C265.982 7.48828 265.349 7.08398 264.611 6.80273C263.884 6.50977 263.076 6.36328 262.185 6.36328H252.113V22.4297H262.185C263.076 22.4297 263.884 22.2891 264.611 22.0078C265.349 21.7148 265.982 21.3105 266.509 20.7949C267.036 20.2676 267.441 19.6406 267.722 18.9141C268.015 18.1758 268.161 17.3555 268.161 16.4531V12.3398ZM303.597 19.582C303.597 20.4844 303.48 21.2988 303.245 22.0254C303.023 22.7402 302.724 23.373 302.349 23.9238C301.974 24.4746 301.534 24.9434 301.03 25.3301C300.527 25.7168 300.005 26.0332 299.466 26.2793C298.927 26.5254 298.376 26.707 297.814 26.8242C297.263 26.9414 296.741 27 296.249 27H278.618V22.4297H296.249C297.128 22.4297 297.808 22.1719 298.288 21.6562C298.78 21.1406 299.027 20.4492 299.027 19.582C299.027 19.1602 298.962 18.7734 298.833 18.4219C298.704 18.0703 298.517 17.7656 298.271 17.5078C298.036 17.25 297.743 17.0508 297.392 16.9102C297.052 16.7695 296.671 16.6992 296.249 16.6992H285.737C284.999 16.6992 284.202 16.5703 283.347 16.3125C282.491 16.043 281.695 15.6152 280.956 15.0293C280.23 14.4434 279.62 13.6758 279.128 12.7266C278.648 11.7773 278.407 10.6172 278.407 9.24609C278.407 7.875 278.648 6.7207 279.128 5.7832C279.62 4.83398 280.23 4.06641 280.956 3.48047C281.695 2.88281 282.491 2.45508 283.347 2.19727C284.202 1.92773 284.999 1.79297 285.737 1.79297H301.294V6.36328H285.737C284.87 6.36328 284.191 6.62695 283.698 7.1543C283.218 7.68164 282.978 8.37891 282.978 9.24609C282.978 10.125 283.218 10.8223 283.698 11.3379C284.191 11.8418 284.87 12.0938 285.737 12.0938H296.249H296.284C296.777 12.1055 297.298 12.1758 297.849 12.3047C298.4 12.4219 298.945 12.6094 299.484 12.8672C300.034 13.125 300.556 13.4531 301.048 13.8516C301.54 14.2383 301.974 14.707 302.349 15.2578C302.736 15.8086 303.04 16.4414 303.263 17.1562C303.486 17.8711 303.597 18.6797 303.597 19.582Z"/>
    </mask>
    <path d="M21.9637 26.5781L22.338 27.5054L22.3423 27.5037L21.9637 26.5781ZM7.3914 26.5781L7.01276 27.5037L7.02001 27.5066L7.3914 26.5781ZM1.83672 21.041L0.911141 21.4197L0.914136 21.4268L1.83672 21.041ZM1.83672 7.76953L0.912892 7.38669L0.911169 7.3909L1.83672 7.76953ZM4.05156 4.42969L4.75422 5.14124L4.75867 5.13679L4.05156 4.42969ZM21.9637 2.23242L21.5821 3.15675L21.585 3.15797L21.9637 2.23242ZM25.3035 4.42969L24.5964 5.13681L24.6009 5.14123L25.3035 4.42969ZM27.5008 7.76953L26.574 8.14524L26.5752 8.14816L27.5008 7.76953ZM23.282 9.54492L22.3475 9.90092L22.351 9.90994L22.3546 9.91889L23.282 9.54492ZM22.0691 7.66406L21.3541 8.36318L21.362 8.37121L21.37 8.37907L22.0691 7.66406ZM20.1883 6.45117L19.8143 7.37861L19.8233 7.38222L19.8323 7.38566L20.1883 6.45117ZM9.14922 6.45117L9.51022 7.38377L9.51806 7.38066L9.14922 6.45117ZM7.26836 7.66406L7.96752 8.37911L7.97546 8.37117L7.26836 7.66406ZM6.03789 9.54492L5.10836 9.17606L5.10532 9.18393L6.03789 9.54492ZM6.03789 19.2656L5.1034 19.6216L5.10684 19.6306L5.11045 19.6396L6.03789 19.2656ZM7.26836 21.1465L6.5612 21.8536L6.56924 21.8615L7.26836 21.1465ZM9.14922 22.3594L8.77525 23.2868L8.7842 23.2904L8.79322 23.2939L9.14922 22.3594ZM20.1707 22.3594L20.5317 23.292L20.5395 23.2889L20.1707 22.3594ZM22.0691 21.1465L22.7683 21.8615L22.7762 21.8536L22.0691 21.1465ZM23.282 19.2656L22.3525 18.8968L22.3495 18.9046L23.282 19.2656ZM27.2918 16.8047C27.2918 18.2233 27.0486 19.5052 26.5752 20.6624L28.4263 21.4196C29.0076 19.9987 29.2918 18.4564 29.2918 16.8047H27.2918ZM26.5752 20.6624C26.0956 21.8348 25.4353 22.8349 24.5964 23.6738L26.0106 25.088C27.0467 24.0519 27.8513 22.8253 28.4263 21.4196L26.5752 20.6624ZM24.5964 23.6738C23.7575 24.5126 22.7575 25.1729 21.585 25.6526L22.3423 27.5037C23.748 26.9286 24.9745 26.1241 26.0106 25.088L24.5964 23.6738ZM21.5893 25.6508C20.4421 26.114 19.1761 26.3516 17.7801 26.3516V28.3516C19.4075 28.3516 20.9306 28.0735 22.338 27.5054L21.5893 25.6508ZM17.7801 26.3516H11.5926V28.3516H17.7801V26.3516ZM11.5926 26.3516C10.1967 26.3516 8.92363 26.114 7.76279 25.6496L7.02001 27.5066C8.4373 28.0735 9.965 28.3516 11.5926 28.3516V26.3516ZM7.77004 25.6526C6.59757 25.1729 5.59756 24.5126 4.75867 23.6738L3.34445 25.088C4.38056 26.1241 5.60711 26.9286 7.01277 27.5037L7.77004 25.6526ZM4.75867 23.6738C3.91812 22.8332 3.25088 21.8307 2.7593 20.6552L0.914136 21.4268C1.50068 22.8294 2.31 24.0535 3.34445 25.088L4.75867 23.6738ZM2.76226 20.6624C2.28888 19.5052 2.0457 18.2233 2.0457 16.8047H0.0457001C0.0457001 18.4564 0.32986 19.9987 0.911169 21.4196L2.76226 20.6624ZM2.0457 16.8047V11.9883H0.0457001V16.8047H2.0457ZM2.0457 11.9883C2.0457 10.5824 2.28852 9.30621 2.76226 8.14816L0.911169 7.3909C0.330228 8.81097 0.0457001 10.3472 0.0457001 11.9883H2.0457ZM2.76053 8.15237C3.25208 6.96624 3.918 5.96698 4.75421 5.14123L3.34891 3.71815C2.31012 4.74395 1.49948 5.97126 0.912902 7.38669L2.76053 8.15237ZM4.75867 5.13679C5.59756 4.2979 6.59757 3.63761 7.77004 3.15797L7.01277 1.30688C5.60711 1.88192 4.38056 2.68647 3.34445 3.72258L4.75867 5.13679ZM7.77004 3.15797C8.929 2.68385 10.1995 2.44141 11.5926 2.44141V0.441406C9.96218 0.441406 8.43193 0.726308 7.01277 1.30688L7.77004 3.15797ZM11.5926 2.44141H17.7801V0.441406H11.5926V2.44141ZM17.7801 2.44141C19.1732 2.44141 20.4367 2.68388 21.5821 3.15675L22.3453 1.30809C20.936 0.726278 19.4104 0.441406 17.7801 0.441406V2.44141ZM21.585 3.15797C22.7575 3.63761 23.7575 4.2979 24.5964 5.13679L26.0106 3.72258C24.9745 2.68647 23.748 1.88192 22.3423 1.30688L21.585 3.15797ZM24.6009 5.14123C25.4354 5.96533 26.0944 6.96212 26.574 8.14524L28.4275 7.39383C27.8525 5.97538 27.0466 4.74561 26.0062 3.71815L24.6009 5.14123ZM26.5752 8.14816C27.049 9.30621 27.2918 10.5824 27.2918 11.9883H29.2918C29.2918 10.3472 29.0073 8.81097 28.4263 7.3909L26.5752 8.14816ZM27.2918 11.9883V16.8047H29.2918V11.9883H27.2918ZM24.7215 11.9883C24.7215 10.977 24.5571 10.033 24.2095 9.17095L22.3546 9.91889C22.5929 10.51 22.7215 11.1948 22.7215 11.9883H24.7215ZM24.2165 9.18893C23.8875 8.32515 23.4064 7.57299 22.7683 6.94906L21.37 8.37907C21.7866 8.78639 22.1141 9.28813 22.3475 9.90092L24.2165 9.18893ZM22.7841 6.96494C22.1602 6.32683 21.4081 5.84574 20.5443 5.51668L19.8323 7.38566C20.4451 7.6191 20.9468 7.9466 21.3541 8.36318L22.7841 6.96494ZM20.5622 5.52373C19.7032 5.17734 18.7716 5.01172 17.7801 5.01172V7.01172C18.5464 7.01172 19.2202 7.13907 19.8143 7.37861L20.5622 5.52373ZM17.7801 5.01172H11.5926V7.01172H17.7801V5.01172ZM11.5926 5.01172C10.5909 5.01172 9.64944 5.17681 8.78037 5.52168L9.51806 7.38066C10.1256 7.1396 10.813 7.01172 11.5926 7.01172V5.01172ZM8.78822 5.5186C7.93778 5.84781 7.19141 6.32679 6.56125 6.95696L7.97546 8.37117C8.39999 7.94664 8.90753 7.61704 9.51021 7.38374L8.78822 5.5186ZM6.56924 6.94906C5.93417 7.57002 5.44902 8.3177 5.1084 9.17608L6.96738 9.91377C7.21269 9.29558 7.54786 8.78936 7.96747 8.37907L6.56924 6.94906ZM5.10532 9.18393C4.77304 10.0423 4.61601 10.9817 4.61601 11.9883H6.61601C6.61601 11.1901 6.74023 10.5007 6.97046 9.90592L5.10532 9.18393ZM4.61601 11.9883V16.8047H6.61601V11.9883H4.61601ZM4.61601 16.8047C4.61601 17.8116 4.77314 18.7547 5.1034 19.6216L6.97237 18.9096C6.74013 18.3 6.61601 17.6025 6.61601 16.8047H4.61601ZM5.11045 19.6396C5.45113 20.4845 5.93404 21.2264 6.56125 21.8536L7.97546 20.4394C7.54799 20.0119 7.21059 19.4999 6.96533 18.8917L5.11045 19.6396ZM6.56924 21.8615C7.19576 22.4741 7.9351 22.948 8.77525 23.2868L9.52318 21.4319C8.91021 21.1848 8.39565 20.8501 7.96747 20.4315L6.56924 21.8615ZM8.79322 23.2939C9.65873 23.6236 10.5957 23.7812 11.5926 23.7812V21.7812C10.8082 21.7812 10.1163 21.6577 9.50521 21.4249L8.79322 23.2939ZM11.5926 23.7812H17.7449V21.7812H11.5926V23.7812ZM17.7449 23.7812C18.7415 23.7812 19.6747 23.6237 20.5317 23.2919L19.8097 21.4268C19.2135 21.6576 18.5296 21.7812 17.7449 21.7812V23.7812ZM20.5395 23.2889C21.3915 22.9508 22.139 22.4767 22.7683 21.8615L21.37 20.4315C20.9446 20.8475 20.4265 21.182 19.8019 21.4299L20.5395 23.2889ZM22.7762 21.8536C23.4064 21.2234 23.8854 20.4771 24.2146 19.6266L22.3495 18.9046C22.1162 19.5073 21.7866 20.0149 21.362 20.4394L22.7762 21.8536ZM24.2115 19.6345C24.557 18.7639 24.7215 17.8163 24.7215 16.8047H22.7215C22.7215 17.5978 22.593 18.2908 22.3525 18.8968L24.2115 19.6345ZM24.7215 16.8047V11.9883H22.7215V16.8047H24.7215ZM58.9987 26.3496L59.6853 27.0766L59.6957 27.0668L59.7058 27.0567L58.9987 26.3496ZM41.2096 25.7168L40.7761 26.618L40.783 26.6212L40.7898 26.6244L41.2096 25.7168ZM36.4284 21.6211L35.5899 22.1661L35.5939 22.1722L35.5979 22.1782L36.4284 21.6211ZM34.9869 18.4219L34.0268 18.7015L34.0276 18.704L34.9869 18.4219ZM34.4596 1.79297V0.792969H33.4596V1.79297H34.4596ZM39.0299 1.79297H40.0299V0.792969H39.0299V1.79297ZM39.5573 17.666L38.627 18.0332L38.6313 18.0437L39.5573 17.666ZM44.6022 22.0605L44.3326 23.0235L44.3375 23.0249L44.6022 22.0605ZM46.1666 22.377L46.062 23.3715L46.0759 23.3729L46.0899 23.374L46.1666 22.377ZM55.0963 22.4297V23.4297H56.0963V22.4297H55.0963ZM55.0963 1.79297V0.792969H54.0963V1.79297H55.0963ZM59.6666 1.79297H60.6666V0.792969H59.6666V1.79297ZM58.6666 24.6973C58.6666 24.9036 58.6304 25.0765 58.5678 25.2267L60.4139 25.9959C60.5857 25.5837 60.6666 25.1472 60.6666 24.6973H58.6666ZM58.5678 25.2267C58.4997 25.39 58.4081 25.5259 58.2916 25.6425L59.7058 27.0567C60.0111 26.7514 60.2476 26.3951 60.4139 25.9959L58.5678 25.2267ZM58.312 25.6226C58.1934 25.7346 58.051 25.8281 57.8758 25.9011L58.645 27.7473C59.0323 27.5859 59.382 27.363 59.6853 27.0766L58.312 25.6226ZM57.8758 25.9011C57.7211 25.9656 57.5535 26 57.3639 26V28C57.8072 28 58.2372 27.9172 58.645 27.7473L57.8758 25.9011ZM57.3639 26H47.0631V28H57.3639V26ZM47.0631 26C46.1633 26 45.2483 25.9025 44.3172 25.7053L43.9028 27.6619C44.9639 27.8866 46.0177 28 47.0631 28V26ZM44.3172 25.7053C43.3954 25.5101 42.4999 25.2118 41.6294 24.8092L40.7898 26.6244C41.7943 27.089 42.8324 27.4352 43.9028 27.6619L44.3172 25.7053ZM41.6431 24.8156C40.7932 24.4068 39.9885 23.889 39.2285 23.2593L37.9524 24.7993C38.833 25.5289 39.7744 26.1361 40.7761 26.618L41.6431 24.8156ZM39.2285 23.2593C38.4856 22.6437 37.8288 21.9136 37.2588 21.064L35.5979 22.1782C36.2701 23.1801 37.0547 24.0555 37.9524 24.7993L39.2285 23.2593ZM37.2668 21.0761C36.7159 20.2286 36.2736 19.2525 35.9463 18.1397L34.0276 18.704C34.4034 19.9819 34.9221 21.1386 35.5899 22.1661L37.2668 21.0761ZM35.9471 18.1422C35.6261 17.0403 35.4596 15.7945 35.4596 14.3965H33.4596C33.4596 15.9516 33.6447 17.3894 34.0268 18.7015L35.9471 18.1422ZM35.4596 14.3965V1.79297H33.4596V14.3965H35.4596ZM34.4596 2.79297H39.0299V0.792969H34.4596V2.79297ZM38.0299 1.79297V14.3965H40.0299V1.79297H38.0299ZM38.0299 14.3965C38.0299 15.7703 38.2164 16.9928 38.6271 18.0332L40.4874 17.2988C40.195 16.558 40.0299 15.6008 40.0299 14.3965H38.0299ZM38.6313 18.0437C39.0316 19.0251 39.5479 19.8762 40.193 20.5761L41.6637 19.2208C41.2072 18.7254 40.8095 18.0882 40.4832 17.2883L38.6313 18.0437ZM40.193 20.5761C40.8148 21.2509 41.5096 21.7942 42.279 22.1927L43.1988 20.4167C42.6557 20.1355 42.1435 19.7413 41.6637 19.2208L40.193 20.5761ZM42.279 22.1927C42.9836 22.5575 43.6686 22.8376 44.3326 23.0235L44.8718 21.0976C44.3639 20.9554 43.8068 20.7315 43.1988 20.4167L42.279 22.1927ZM44.3375 23.0249C44.9692 23.1983 45.5465 23.3172 46.062 23.3715L46.2713 21.3824C45.8962 21.343 45.4305 21.2509 44.8669 21.0962L44.3375 23.0249ZM46.0899 23.374C46.5382 23.4085 46.8769 23.4297 47.0631 23.4297V21.4297C46.9681 21.4297 46.7091 21.4157 46.2433 21.3799L46.0899 23.374ZM47.0631 23.4297H55.0963V21.4297H47.0631V23.4297ZM56.0963 22.4297V1.79297H54.0963V22.4297H56.0963ZM55.0963 2.79297H59.6666V0.792969H55.0963V2.79297ZM58.6666 1.79297V24.6973H60.6666V1.79297H58.6666ZM90.9009 15.2402L90.083 14.6647L90.0809 14.6678L90.9009 15.2402ZM87.5786 17.9473L87.9911 18.8583L87.9987 18.8547L87.5786 17.9473ZM85.6802 18.5625L85.484 17.5819L85.4805 17.5826L85.6802 18.5625ZM83.8872 18.7559V17.7559H81.1995L83.2335 19.5127L83.8872 18.7559ZM93.4321 27V28H96.1197L94.0858 26.2432L93.4321 27ZM86.3657 27L85.7114 27.7562L85.9931 28H86.3657V27ZM76.8384 18.7559L77.4927 17.9997L77.211 17.7559H76.8384V18.7559ZM73.5512 18.7559H72.5512V19.7559H73.5512V18.7559ZM73.5512 14.1855V13.1855H72.5512V14.1855H73.5512ZM83.8872 14.1855V15.1855H83.9279L83.9685 15.1822L83.8872 14.1855ZM85.4516 13.834L85.8231 14.7625L85.8347 14.7577L85.4516 13.834ZM86.6821 13.043L85.9998 12.3119L85.9936 12.3177L85.9875 12.3236L86.6821 13.043ZM87.4907 11.8652L88.4159 12.2448L88.4192 12.2366L87.4907 11.8652ZM87.6665 6.80273L86.7434 7.18735L86.7635 7.23565L86.7886 7.28159L87.6665 6.80273ZM87.4204 6.50391L86.8204 7.30391L86.875 7.34489L86.9347 7.37806L87.4204 6.50391ZM87.104 6.38086L86.9935 7.3748L87.0045 7.3759L87.104 6.38086ZM71.7231 6.36328V5.36328H70.7231V6.36328H71.7231ZM71.7231 27V28H72.7231V27H71.7231ZM67.1528 27H66.1528V28H67.1528V27ZM67.8032 2.46094L67.0961 1.75383L67.086 1.76393L67.0762 1.77431L67.8032 2.46094ZM89.3891 2.35547L88.9185 3.2379L88.9301 3.24389L89.3891 2.35547ZM91.0942 3.74414L90.3022 4.35465L90.3093 4.36384L90.3166 4.37286L91.0942 3.74414ZM92.0434 5.53711L91.0832 5.81644L91.0856 5.82445L91.088 5.83242L92.0434 5.53711ZM91.3423 10.2656C91.3423 11.2278 91.2232 12.0555 91.0015 12.7607L92.9095 13.3604C93.2035 12.425 93.3423 11.3894 93.3423 10.2656H91.3423ZM91.0015 12.7607C90.7712 13.4935 90.4628 14.1251 90.083 14.6647L91.7187 15.8157C92.2295 15.0898 92.6242 14.2682 92.9095 13.3604L91.0015 12.7607ZM90.0809 14.6678C89.7025 15.2098 89.2676 15.6686 88.7763 16.0496L90.002 17.6301C90.6591 17.1204 91.232 16.5128 91.7208 15.8127L90.0809 14.6678ZM88.7763 16.0496C88.2592 16.4507 87.72 16.7798 87.1585 17.0398L87.9987 18.8547C88.7028 18.5288 89.3706 18.1197 90.002 17.6301L88.7763 16.0496ZM87.1661 17.0363C86.6117 17.2874 86.0513 17.4685 85.484 17.5819L85.8763 19.5431C86.5981 19.3987 87.3033 19.1697 87.9911 18.8582L87.1661 17.0363ZM85.4805 17.5826C84.904 17.7001 84.3736 17.7559 83.8872 17.7559V19.7559C84.5257 19.7559 85.1907 19.6827 85.8798 19.5424L85.4805 17.5826ZM83.2335 19.5127L92.7785 27.7568L94.0858 26.2432L84.5408 17.9991L83.2335 19.5127ZM93.4321 26H86.3657V28H93.4321V26ZM87.02 26.2438L77.4927 17.9997L76.184 19.5121L85.7114 27.7562L87.02 26.2438ZM76.8384 17.7559H73.5512V19.7559H76.8384V17.7559ZM74.5512 18.7559V14.1855H72.5512V18.7559H74.5512ZM73.5512 15.1855H83.8872V13.1855H73.5512V15.1855ZM83.9685 15.1822C84.6285 15.1284 85.2495 14.9919 85.823 14.7625L85.0802 12.9055C84.7162 13.0511 84.2943 13.149 83.8058 13.1889L83.9685 15.1822ZM85.8347 14.7577C86.4192 14.5154 86.938 14.1859 87.3767 13.7624L85.9875 12.3236C85.7465 12.5563 85.4451 12.7542 85.0686 12.9102L85.8347 14.7577ZM87.3644 13.774C87.8242 13.3449 88.1752 12.8314 88.4159 12.2448L86.5655 11.4857C86.4312 11.8132 86.2431 12.0848 85.9998 12.3119L87.3644 13.774ZM88.4192 12.2366C88.6618 11.6302 88.7719 10.9676 88.7719 10.2656H86.7719C86.7719 10.759 86.6946 11.1628 86.5622 11.4938L88.4192 12.2366ZM88.7719 10.2656V7.38281H86.7719V10.2656H88.7719ZM88.7719 7.38281C88.7719 7.06682 88.7345 6.67241 88.5444 6.32388L86.7886 7.28159C86.7729 7.25274 86.7652 7.23161 86.7622 7.22254C86.7592 7.21342 86.7598 7.21287 86.7617 7.22332C86.7658 7.24604 86.7719 7.29652 86.7719 7.38281H88.7719ZM88.5896 6.41812C88.4676 6.12531 88.2551 5.82368 87.906 5.62975L86.9347 7.37806C86.7966 7.30132 86.7482 7.19891 86.7434 7.18735L88.5896 6.41812ZM88.0204 5.70391C87.7799 5.52358 87.5012 5.4156 87.2035 5.38582L87.0045 7.3759C86.9767 7.37311 86.9436 7.36604 86.9085 7.35242C86.8735 7.33878 86.8437 7.32141 86.8204 7.30391L88.0204 5.70391ZM87.2144 5.38698C87.077 5.3717 86.9402 5.36328 86.8052 5.36328V7.36328C86.8576 7.36328 86.9201 7.36658 86.9936 7.37474L87.2144 5.38698ZM86.8052 5.36328H71.7231V7.36328H86.8052V5.36328ZM70.7231 6.36328V27H72.7231V6.36328H70.7231ZM71.7231 26H67.1528V28H71.7231V26ZM68.1528 27V4.0957H66.1528V27H68.1528ZM68.1528 4.0957C68.1528 3.90614 68.1872 3.73852 68.2517 3.58383L66.4055 2.8146C66.2356 3.22241 66.1528 3.65245 66.1528 4.0957H68.1528ZM68.2517 3.58383C68.3247 3.40862 68.4182 3.26616 68.5302 3.14756L67.0762 1.77431C66.7898 2.07759 66.5669 2.42732 66.4055 2.8146L68.2517 3.58383ZM68.5103 3.16804C68.6269 3.05147 68.7628 2.95988 68.9261 2.89183L68.1569 1.04567C67.7577 1.212 67.4014 1.44853 67.0961 1.75383L68.5103 3.16804ZM68.9261 2.89183C69.0764 2.82922 69.2492 2.79297 69.4555 2.79297V0.792969C69.0057 0.792969 68.5691 0.873904 68.1569 1.04567L68.9261 2.89183ZM69.4555 2.79297H86.8052V0.792969H69.4555V2.79297ZM86.8052 2.79297C87.7052 2.79297 88.3951 2.95866 88.9185 3.23782L89.8597 1.47312C88.9769 1.00228 87.9441 0.792969 86.8052 0.792969V2.79297ZM88.9301 3.24389C89.5182 3.54775 89.9677 3.92068 90.3022 4.35465L91.8862 3.13363C91.3536 2.4426 90.6663 1.88975 89.8482 1.46704L88.9301 3.24389ZM90.3166 4.37286C90.6831 4.82623 90.9348 5.30628 91.0832 5.81644L93.0036 5.25778C92.777 4.47887 92.3959 3.76361 91.8718 3.11542L90.3166 4.37286ZM91.088 5.83242C91.2634 6.39973 91.3423 6.90289 91.3423 7.34766H93.3423C93.3423 6.66743 93.2219 5.96355 92.9988 5.2418L91.088 5.83242ZM91.3423 7.34766V10.2656H93.3423V7.34766H91.3423ZM133.594 16.6992V17.6992H134.594V16.6992H133.594ZM119.145 16.6992H118.145V17.6992H119.145V16.6992ZM119.145 12.0938V11.0938H118.145V12.0938H119.145ZM133.594 12.0938H134.594V11.0938H133.594V12.0938ZM135.633 6.36328V7.36328H136.633V6.36328H135.633ZM117.317 6.36328V5.36328H116.317V6.36328H117.317ZM117.317 27V28H118.317V27H117.317ZM112.746 27H111.746V28H112.746V27ZM113.397 2.46094L112.69 1.75383L112.679 1.76393L112.67 1.77431L113.397 2.46094ZM135.633 1.79297H136.633V0.792969H135.633V1.79297ZM133.594 15.6992H119.145V17.6992H133.594V15.6992ZM120.145 16.6992V12.0938H118.145V16.6992H120.145ZM119.145 13.0938H133.594V11.0938H119.145V13.0938ZM132.594 12.0938V16.6992H134.594V12.0938H132.594ZM135.633 5.36328H117.317V7.36328H135.633V5.36328ZM116.317 6.36328V27H118.317V6.36328H116.317ZM117.317 26H112.746V28H117.317V26ZM113.746 27V4.0957H111.746V27H113.746ZM113.746 4.0957C113.746 3.90614 113.781 3.73852 113.845 3.58383L111.999 2.8146C111.829 3.22241 111.746 3.65245 111.746 4.0957H113.746ZM113.845 3.58383C113.918 3.40862 114.012 3.26616 114.124 3.14756L112.67 1.77431C112.383 2.07759 112.16 2.42732 111.999 2.8146L113.845 3.58383ZM114.104 3.16804C114.22 3.05147 114.356 2.95988 114.52 2.89183L113.75 1.04567C113.351 1.212 112.995 1.44853 112.69 1.75383L114.104 3.16804ZM114.52 2.89183C114.67 2.82922 114.843 2.79297 115.049 2.79297V0.792969C114.599 0.792969 114.163 0.873904 113.75 1.04567L114.52 2.89183ZM115.049 2.79297H135.633V0.792969H115.049V2.79297ZM134.633 1.79297V6.36328H136.633V1.79297H134.633ZM165.232 15.2402L164.415 14.6647L164.412 14.6678L165.232 15.2402ZM161.91 17.9473L162.323 18.8583L162.33 18.8547L161.91 17.9473ZM160.012 18.5625L159.816 17.5819L159.812 17.5826L160.012 18.5625ZM158.219 18.7559V17.7559H155.531L157.565 19.5127L158.219 18.7559ZM167.764 27V28H170.451L168.417 26.2432L167.764 27ZM160.697 27L160.043 27.7562L160.325 28H160.697V27ZM151.17 18.7559L151.824 17.9997L151.543 17.7559H151.17V18.7559ZM147.883 18.7559H146.883V19.7559H147.883V18.7559ZM147.883 14.1855V13.1855H146.883V14.1855H147.883ZM158.219 14.1855V15.1855H158.259L158.3 15.1822L158.219 14.1855ZM159.783 13.834L160.155 14.7625L160.166 14.7577L159.783 13.834ZM161.014 13.043L160.331 12.3119L160.325 12.3177L160.319 12.3236L161.014 13.043ZM161.822 11.8652L162.747 12.2448L162.751 12.2366L161.822 11.8652ZM161.998 6.80273L161.075 7.18735L161.095 7.23565L161.12 7.28159L161.998 6.80273ZM161.752 6.50391L161.152 7.30391L161.207 7.34489L161.266 7.37806L161.752 6.50391ZM161.436 6.38086L161.325 7.3748L161.336 7.3759L161.436 6.38086ZM146.055 6.36328V5.36328H145.055V6.36328H146.055ZM146.055 27V28H147.055V27H146.055ZM141.484 27H140.484V28H141.484V27ZM142.135 2.46094L141.428 1.75383L141.418 1.76393L141.408 1.77431L142.135 2.46094ZM163.721 2.35547L163.25 3.2379L163.262 3.24389L163.721 2.35547ZM165.426 3.74414L164.634 4.35465L164.641 4.36384L164.648 4.37286L165.426 3.74414ZM166.375 5.53711L165.415 5.81644L165.417 5.82445L165.42 5.83242L166.375 5.53711ZM165.674 10.2656C165.674 11.2278 165.555 12.0555 165.333 12.7607L167.241 13.3604C167.535 12.425 167.674 11.3894 167.674 10.2656H165.674ZM165.333 12.7607C165.103 13.4935 164.794 14.1251 164.415 14.6647L166.05 15.8157C166.561 15.0898 166.956 14.2682 167.241 13.3604L165.333 12.7607ZM164.412 14.6678C164.034 15.2098 163.599 15.6686 163.108 16.0496L164.334 17.6301C164.991 17.1204 165.564 16.5128 166.052 15.8127L164.412 14.6678ZM163.108 16.0496C162.591 16.4507 162.052 16.7798 161.49 17.0398L162.33 18.8547C163.034 18.5288 163.702 18.1197 164.334 17.6301L163.108 16.0496ZM161.498 17.0363C160.943 17.2874 160.383 17.4685 159.816 17.5819L160.208 19.5431C160.93 19.3987 161.635 19.1697 162.323 18.8582L161.498 17.0363ZM159.812 17.5826C159.236 17.7001 158.705 17.7559 158.219 17.7559V19.7559C158.857 19.7559 159.522 19.6827 160.211 19.5424L159.812 17.5826ZM157.565 19.5127L167.11 27.7568L168.417 26.2432L158.872 17.9991L157.565 19.5127ZM167.764 26H160.697V28H167.764V26ZM161.352 26.2438L151.824 17.9997L150.516 19.5121L160.043 27.7562L161.352 26.2438ZM151.17 17.7559H147.883V19.7559H151.17V17.7559ZM148.883 18.7559V14.1855H146.883V18.7559H148.883ZM147.883 15.1855H158.219V13.1855H147.883V15.1855ZM158.3 15.1822C158.96 15.1284 159.581 14.9919 160.155 14.7625L159.412 12.9055C159.048 13.0511 158.626 13.149 158.137 13.1889L158.3 15.1822ZM160.166 14.7577C160.751 14.5154 161.27 14.1859 161.708 13.7624L160.319 12.3236C160.078 12.5563 159.777 12.7542 159.4 12.9102L160.166 14.7577ZM161.696 13.774C162.156 13.3449 162.507 12.8314 162.747 12.2448L160.897 11.4857C160.763 11.8132 160.575 12.0848 160.331 12.3119L161.696 13.774ZM162.751 12.2366C162.993 11.6302 163.104 10.9676 163.104 10.2656H161.104C161.104 10.759 161.026 11.1628 160.894 11.4938L162.751 12.2366ZM163.104 10.2656V7.38281H161.104V10.2656H163.104ZM163.104 7.38281C163.104 7.06682 163.066 6.67241 162.876 6.32388L161.12 7.28159C161.104 7.25274 161.097 7.23161 161.094 7.22254C161.091 7.21342 161.091 7.21287 161.093 7.22332C161.097 7.24604 161.104 7.29652 161.104 7.38281H163.104ZM162.921 6.41812C162.799 6.12531 162.587 5.82368 162.238 5.62975L161.266 7.37806C161.128 7.30132 161.08 7.19891 161.075 7.18735L162.921 6.41812ZM162.352 5.70391C162.112 5.52358 161.833 5.4156 161.535 5.38582L161.336 7.3759C161.308 7.37311 161.275 7.36604 161.24 7.35242C161.205 7.33878 161.175 7.32141 161.152 7.30391L162.352 5.70391ZM161.546 5.38698C161.409 5.3717 161.272 5.36328 161.137 5.36328V7.36328C161.189 7.36328 161.252 7.36658 161.325 7.37474L161.546 5.38698ZM161.137 5.36328H146.055V7.36328H161.137V5.36328ZM145.055 6.36328V27H147.055V6.36328H145.055ZM146.055 26H141.484V28H146.055V26ZM142.484 27V4.0957H140.484V27H142.484ZM142.484 4.0957C142.484 3.90614 142.519 3.73852 142.583 3.58383L140.737 2.8146C140.567 3.22241 140.484 3.65245 140.484 4.0957H142.484ZM142.583 3.58383C142.656 3.40862 142.75 3.26616 142.862 3.14756L141.408 1.77431C141.121 2.07759 140.898 2.42732 140.737 2.8146L142.583 3.58383ZM142.842 3.16804C142.958 3.05147 143.094 2.95988 143.258 2.89183L142.488 1.04567C142.089 1.212 141.733 1.44853 141.428 1.75383L142.842 3.16804ZM143.258 2.89183C143.408 2.82922 143.581 2.79297 143.787 2.79297V0.792969C143.337 0.792969 142.901 0.873904 142.488 1.04567L143.258 2.89183ZM143.787 2.79297H161.137V0.792969H143.787V2.79297ZM161.137 2.79297C162.037 2.79297 162.727 2.95866 163.25 3.23782L164.191 1.47312C163.308 1.00228 162.276 0.792969 161.137 0.792969V2.79297ZM163.262 3.24389C163.85 3.54775 164.299 3.92068 164.634 4.35465L166.218 3.13363C165.685 2.4426 164.998 1.88975 164.18 1.46704L163.262 3.24389ZM164.648 4.37286C165.015 4.82623 165.266 5.30628 165.415 5.81644L167.335 5.25778C167.109 4.47887 166.727 3.76361 166.203 3.11542L164.648 4.37286ZM165.42 5.83242C165.595 6.39973 165.674 6.90289 165.674 7.34766H167.674C167.674 6.66743 167.553 5.96355 167.33 5.2418L165.42 5.83242ZM165.674 7.34766V10.2656H167.674V7.34766H165.674ZM178.027 27V28H179.027V27H178.027ZM173.457 27H172.457V28H173.457V27ZM173.457 1.79297V0.792969H172.457V1.79297H173.457ZM178.027 1.79297H179.027V0.792969H178.027V1.79297ZM178.027 26H173.457V28H178.027V26ZM174.457 27V1.79297H172.457V27H174.457ZM173.457 2.79297H178.027V0.792969H173.457V2.79297ZM177.027 1.79297V27H179.027V1.79297H177.027ZM206.256 16.6992V17.6992H207.256V16.6992H206.256ZM191.824 16.6992H190.824V17.6992H191.824V16.6992ZM191.824 12.0938V11.0938H190.824V12.0938H191.824ZM206.256 12.0938H207.256V11.0938H206.256V12.0938ZM208.312 27V28H209.312V27H208.312ZM187.658 25.5762L187.026 26.3514L187.034 26.3578L187.042 26.364L187.658 25.5762ZM186.058 23.5898L185.169 24.0472L185.173 24.0548L185.177 24.0624L186.058 23.5898ZM186.076 2.46094L185.369 1.75383L185.359 1.76393L185.349 1.77431L186.076 2.46094ZM208.312 1.79297H209.312V0.792969H208.312V1.79297ZM208.312 6.36328V7.36328H209.312V6.36328H208.312ZM189.996 6.36328V5.36328H188.996V6.36328H189.996ZM208.312 22.4297H209.312V21.4297H208.312V22.4297ZM206.256 15.6992H191.824V17.6992H206.256V15.6992ZM192.824 16.6992V12.0938H190.824V16.6992H192.824ZM191.824 13.0938H206.256V11.0938H191.824V13.0938ZM205.256 12.0938V16.6992H207.256V12.0938H205.256ZM208.312 26H191.824V28H208.312V26ZM191.824 26C191.307 26 190.713 25.9088 190.034 25.7074L189.465 27.6247C190.287 27.8685 191.075 28 191.824 28V26ZM190.034 25.7074C189.41 25.522 188.824 25.2186 188.274 24.7884L187.042 26.364C187.781 26.9415 188.589 27.3647 189.465 27.6247L190.034 25.7074ZM188.29 24.8009C187.771 24.3785 187.318 23.8239 186.94 23.1173L185.177 24.0624C185.665 24.973 186.279 25.7426 187.026 26.3514L188.29 24.8009ZM186.948 23.1325C186.616 22.488 186.425 21.6522 186.425 20.584H184.425C184.425 21.8829 184.657 23.0511 185.169 24.0472L186.948 23.1325ZM186.425 20.584V4.0957H184.425V20.584H186.425ZM186.425 4.0957C186.425 3.90614 186.46 3.73852 186.524 3.58383L184.678 2.8146C184.508 3.22241 184.425 3.65245 184.425 4.0957H186.425ZM186.524 3.58383C186.597 3.40862 186.691 3.26616 186.803 3.14756L185.349 1.77431C185.062 2.07759 184.84 2.42732 184.678 2.8146L186.524 3.58383ZM186.783 3.16804C186.9 3.05147 187.035 2.95988 187.199 2.89183L186.43 1.04567C186.03 1.212 185.674 1.44853 185.369 1.75383L186.783 3.16804ZM187.199 2.89183C187.349 2.82922 187.522 2.79297 187.728 2.79297V0.792969C187.278 0.792969 186.842 0.873904 186.43 1.04567L187.199 2.89183ZM187.728 2.79297H208.312V0.792969H187.728V2.79297ZM207.312 1.79297V6.36328H209.312V1.79297H207.312ZM208.312 5.36328H189.996V7.36328H208.312V5.36328ZM188.996 6.36328V20.584H190.996V6.36328H188.996ZM188.996 20.584C188.996 21.3549 189.203 22.102 189.763 22.6622L191.177 21.248C191.105 21.1754 190.996 21.0083 190.996 20.584H188.996ZM189.763 22.6622C190.327 23.2258 191.083 23.4297 191.859 23.4297V21.4297C191.417 21.4297 191.247 21.3172 191.177 21.248L189.763 22.6622ZM191.859 23.4297H208.312V21.4297H191.859V23.4297ZM207.312 22.4297V27H209.312V22.4297H207.312ZM239.898 25.9629L238.989 25.5462L238.982 25.5621L238.975 25.5783L239.898 25.9629ZM236.927 27.1934L236.576 28.1298L236.589 28.1342L236.927 27.1934ZM236.171 26.6836L236.896 25.9948L236.894 25.9919L236.171 26.6836ZM219.472 9.24609L220.194 8.55444L218.472 6.75607V9.24609H219.472ZM219.472 27V28H220.472V27H219.472ZM214.902 27H213.902V28H214.902V27ZM215.289 2.47852L214.468 1.90671L214.465 1.91199L215.289 2.47852ZM216.308 1.61719L215.932 0.690448L215.912 0.698644L215.892 0.707713L216.308 1.61719ZM217.644 1.49414L217.443 2.47374L217.455 2.47623L217.467 2.47841L217.644 1.49414ZM218.822 2.12695L219.544 1.43493L219.541 1.43236L218.822 2.12695ZM235.521 19.5469L234.799 20.2389L236.521 22.0351V19.5469H235.521ZM235.521 1.79297V0.792969H234.521V1.79297H235.521ZM240.091 1.79297H241.091V0.792969H240.091V1.79297ZM239.091 25.0488C239.091 25.242 239.054 25.4036 238.989 25.5462L240.807 26.3795C240.999 25.9597 241.091 25.5119 241.091 25.0488H239.091ZM238.975 25.5783C238.907 25.7416 238.815 25.8775 238.699 25.9941L240.113 27.4083C240.418 27.103 240.655 26.7467 240.821 26.3475L238.975 25.5783ZM238.699 25.9941C238.599 26.0936 238.471 26.1816 238.3 26.2527L239.07 28.0989C239.462 27.9356 239.814 27.7072 240.113 27.4083L238.699 25.9941ZM238.3 26.2527C238.146 26.3172 237.978 26.3516 237.789 26.3516V28.3516C238.232 28.3516 238.662 28.2688 239.07 28.0989L238.3 26.2527ZM237.789 26.3516C237.635 26.3516 237.462 26.323 237.266 26.2525L236.589 28.1342C236.979 28.2747 237.38 28.3516 237.789 28.3516V26.3516ZM237.278 26.257C237.15 26.2087 237.023 26.128 236.896 25.9948L235.446 27.3723C235.765 27.708 236.143 27.9671 236.576 28.1297L237.278 26.257ZM236.894 25.9919L220.194 8.55444L218.75 9.93775L235.449 27.3752L236.894 25.9919ZM218.472 9.24609V27H220.472V9.24609H218.472ZM219.472 26H214.902V28H219.472V26ZM215.902 27V3.74414H213.902V27H215.902ZM215.902 3.74414C215.902 3.47122 215.973 3.2481 216.113 3.04504L214.465 1.91199C214.089 2.45894 213.902 3.07956 213.902 3.74414H215.902ZM216.109 3.05031C216.281 2.80338 216.484 2.63638 216.724 2.52666L215.892 0.707713C215.312 0.973 214.835 1.38021 214.468 1.90672L216.109 3.05031ZM216.684 2.54393C216.935 2.44203 217.18 2.41975 217.443 2.47374L217.845 0.514538C217.194 0.381033 216.548 0.440784 215.932 0.690448L216.684 2.54393ZM217.467 2.47841C217.714 2.52263 217.918 2.63008 218.102 2.82155L219.541 1.43236C219.07 0.94414 218.488 0.629715 217.821 0.50987L217.467 2.47841ZM218.1 2.81897L234.799 20.2389L236.243 18.8549L219.544 1.43494L218.1 2.81897ZM236.521 19.5469V1.79297H234.521V19.5469H236.521ZM235.521 2.79297H240.091V0.792969H235.521V2.79297ZM239.091 1.79297V25.0488H241.091V1.79297H239.091ZM271.923 20.6895L271.001 20.3036L270.998 20.3108L271.923 20.6895ZM269.726 24.0293L270.429 24.7409L270.433 24.7364L269.726 24.0293ZM248.193 26.3496L247.466 27.0362L247.485 27.057L247.506 27.0766L248.193 26.3496ZM248.193 2.46094L247.486 1.75383L247.476 1.76393L247.466 1.77431L248.193 2.46094ZM269.726 4.78125L269.019 5.48837L269.023 5.49279L269.726 4.78125ZM271.923 8.12109L270.996 8.49682L271.001 8.5069L271.923 8.12109ZM267.722 9.89648L266.787 10.2525L266.793 10.2653L267.722 9.89648ZM266.509 8.01562L265.802 8.72278L265.81 8.73063L266.509 8.01562ZM264.611 6.80273L264.237 7.73018L264.246 7.73379L264.255 7.73722L264.611 6.80273ZM252.113 6.36328V5.36328H251.113V6.36328H252.113ZM252.113 22.4297H251.113V23.4297H252.113V22.4297ZM264.611 22.0078L264.972 22.9404L264.98 22.9373L264.611 22.0078ZM266.509 20.7949L267.208 21.51L267.216 21.502L266.509 20.7949ZM267.722 18.9141L266.793 18.5452L266.789 18.5531L267.722 18.9141ZM271.732 16.4531C271.732 17.869 271.484 19.1484 271.001 20.3036L272.846 21.0753C273.441 19.6524 273.732 18.1076 273.732 16.4531H271.732ZM270.998 20.3108C270.518 21.4833 269.858 22.4833 269.019 23.3222L270.433 24.7364C271.469 23.7003 272.274 22.4737 272.849 21.0681L270.998 20.3108ZM269.023 23.3178C268.184 24.1465 267.183 24.8027 266.007 25.2834L266.765 27.1345C268.168 26.5606 269.393 25.7636 270.429 24.7408L269.023 23.3178ZM266.007 25.2834C264.849 25.7576 263.578 26 262.185 26V28C263.815 28 265.346 27.7151 266.765 27.1345L266.007 25.2834ZM262.185 26H249.845V28H262.185V26ZM249.845 26C249.639 26 249.466 25.9637 249.316 25.9011L248.546 27.7473C248.959 27.9191 249.395 28 249.845 28V26ZM249.316 25.9011C249.14 25.8281 248.998 25.7346 248.879 25.6226L247.506 27.0766C247.809 27.363 248.159 27.5859 248.546 27.7473L249.316 25.9011ZM248.92 25.663C248.808 25.5444 248.714 25.4019 248.641 25.2267L246.795 25.9959C246.956 26.3832 247.179 26.733 247.466 27.0362L248.92 25.663ZM248.641 25.2267C248.579 25.0765 248.542 24.9036 248.542 24.6973H246.542C246.542 25.1472 246.623 25.5837 246.795 25.9959L248.641 25.2267ZM248.542 24.6973V4.0957H246.542V24.6973H248.542ZM248.542 4.0957C248.542 3.90614 248.577 3.73852 248.641 3.58383L246.795 2.8146C246.625 3.22241 246.542 3.65245 246.542 4.0957H248.542ZM248.641 3.58383C248.714 3.40862 248.808 3.26616 248.92 3.14756L247.466 1.77431C247.179 2.07759 246.956 2.42732 246.795 2.8146L248.641 3.58383ZM248.9 3.16804C249.016 3.05147 249.152 2.95988 249.316 2.89183L248.546 1.04567C248.147 1.212 247.791 1.44853 247.486 1.75383L248.9 3.16804ZM249.316 2.89183C249.466 2.82922 249.639 2.79297 249.845 2.79297V0.792969C249.395 0.792969 248.959 0.873904 248.546 1.04567L249.316 2.89183ZM249.845 2.79297H262.185V0.792969H249.845V2.79297ZM262.185 2.79297C263.578 2.79297 264.849 3.03541 266.007 3.50953L266.765 1.65844C265.346 1.07787 263.815 0.792969 262.185 0.792969V2.79297ZM266.007 3.50953C267.18 3.98918 268.18 4.64946 269.019 5.48836L270.433 4.07414C269.397 3.03804 268.17 2.23348 266.765 1.65844L266.007 3.50953ZM269.023 5.49279C269.858 6.31689 270.517 7.31368 270.996 8.4968L272.85 7.74539C272.275 6.32694 271.469 5.09717 270.429 4.06971L269.023 5.49279ZM271.001 8.5069C271.484 9.66311 271.732 10.9368 271.732 12.3398H273.732C273.732 10.696 273.44 9.1572 272.846 7.73529L271.001 8.5069ZM271.732 12.3398V16.4531H273.732V12.3398H271.732ZM269.161 12.3398C269.161 11.3382 268.996 10.3967 268.652 9.52764L266.793 10.2653C267.034 10.8728 267.161 11.5603 267.161 12.3398H269.161ZM268.657 9.54049C268.327 8.67671 267.846 7.92455 267.208 7.30062L265.81 8.73063C266.227 9.13795 266.554 9.6397 266.788 10.2525L268.657 9.54049ZM267.216 7.30852C266.583 6.67562 265.829 6.19666 264.967 5.86825L264.255 7.73722C264.869 7.97131 265.38 8.30094 265.802 8.72273L267.216 7.30852ZM264.985 5.87529C264.124 5.52829 263.186 5.36328 262.185 5.36328V7.36328C262.965 7.36328 263.644 7.49124 264.237 7.73018L264.985 5.87529ZM262.185 5.36328H252.113V7.36328H262.185V5.36328ZM251.113 6.36328V22.4297H253.113V6.36328H251.113ZM252.113 23.4297H262.185V21.4297H252.113V23.4297ZM262.185 23.4297C263.182 23.4297 264.115 23.2721 264.972 22.9404L264.25 21.0752C263.654 21.306 262.97 21.4297 262.185 21.4297V23.4297ZM264.98 22.9373C265.831 22.5992 266.579 22.1252 267.208 21.5099L265.81 20.0799C265.385 20.4959 264.866 20.8304 264.242 21.0783L264.98 22.9373ZM267.216 21.502C267.846 20.8719 268.325 20.1255 268.655 19.2751L266.789 18.5531C266.556 19.1558 266.227 19.6633 265.802 20.0878L267.216 21.502ZM268.652 19.2829C268.997 18.4124 269.161 17.4647 269.161 16.4531H267.161C267.161 17.2462 267.033 17.9392 266.793 18.5452L268.652 19.2829ZM269.161 16.4531V12.3398H267.161V16.4531H269.161ZM303.245 22.0254L302.294 21.7184L302.291 21.728L303.245 22.0254ZM297.814 26.8242L297.61 25.8452L297.606 25.8461L297.814 26.8242ZM278.618 27H277.618V28H278.618V27ZM278.618 22.4297V21.4297H277.618V22.4297H278.618ZM298.288 21.6562L297.565 20.9657L297.557 20.9745L298.288 21.6562ZM298.271 17.5078L297.531 18.1805L297.539 18.1895L297.547 18.1983L298.271 17.5078ZM297.392 16.9102L297.009 17.8342L297.02 17.8386L297.392 16.9102ZM283.347 16.3125L283.046 17.2664L283.058 17.27L283.347 16.3125ZM280.956 15.0293L280.328 15.8077L280.335 15.8126L280.956 15.0293ZM279.128 12.7266L278.236 13.1782L278.24 13.1869L279.128 12.7266ZM279.128 5.7832L278.24 5.32288L278.238 5.32711L279.128 5.7832ZM280.956 3.48047L281.584 4.25888L281.585 4.25771L280.956 3.48047ZM283.347 2.19727L283.635 3.15481L283.647 3.15105L283.347 2.19727ZM301.294 1.79297H302.294V0.792969H301.294V1.79297ZM301.294 6.36328V7.36328H302.294V6.36328H301.294ZM283.698 7.1543L282.967 6.47193L282.959 6.48081L283.698 7.1543ZM283.698 11.3379L282.967 12.0196L282.975 12.0282L282.983 12.0366L283.698 11.3379ZM296.284 12.0938L296.308 11.094L296.296 11.0938H296.284V12.0938ZM297.849 12.3047L297.621 13.2784L297.631 13.2807L297.641 13.2828L297.849 12.3047ZM299.484 12.8672L299.052 13.7694L299.06 13.7729L299.484 12.8672ZM301.048 13.8516L300.419 14.6288L300.424 14.6334L300.43 14.6379L301.048 13.8516ZM302.349 15.2578L301.522 15.8206L301.526 15.8266L301.53 15.8324L302.349 15.2578ZM302.597 19.582C302.597 20.3986 302.491 21.1072 302.294 21.7184L304.197 22.3324C304.469 21.4905 304.597 20.5702 304.597 19.582H302.597ZM302.291 21.728C302.094 22.36 301.835 22.9013 301.522 23.361L303.175 24.4866C303.612 23.8448 303.952 23.1204 304.2 22.3228L302.291 21.728ZM301.522 23.361C301.204 23.8282 300.837 24.2179 300.422 24.5368L301.639 26.1234C302.232 25.6688 302.743 25.121 303.175 24.4866L301.522 23.361ZM300.422 24.5368C299.973 24.8808 299.516 25.157 299.051 25.3696L299.881 27.189C300.494 26.9094 301.08 26.5528 301.639 26.1234L300.422 24.5368ZM299.051 25.3696C298.577 25.5858 298.097 25.7437 297.61 25.8452L298.018 27.8032C298.655 27.6704 299.277 27.465 299.881 27.189L299.051 25.3696ZM297.606 25.8461C297.114 25.9508 296.662 26 296.249 26V28C296.82 28 297.412 27.932 298.022 27.8023L297.606 25.8461ZM296.249 26H278.618V28H296.249V26ZM279.618 27V22.4297H277.618V27H279.618ZM278.618 23.4297H296.249V21.4297H278.618V23.4297ZM296.249 23.4297C297.332 23.4297 298.306 23.1046 299.02 22.338L297.557 20.9745C297.31 21.2391 296.924 21.4297 296.249 21.4297V23.4297ZM299.012 22.3467C299.718 21.6064 300.027 20.6475 300.027 19.582H298.027C298.027 20.251 297.843 20.6748 297.565 20.9658L299.012 22.3467ZM300.027 19.582C300.027 19.0575 299.946 18.5525 299.772 18.0776L297.894 18.7661C297.978 18.9944 298.027 19.2629 298.027 19.582H300.027ZM299.772 18.0776C299.598 17.6037 299.34 17.1795 298.994 16.8173L297.547 18.1983C297.694 18.3517 297.81 18.5369 297.894 18.7661L299.772 18.0776ZM299.011 16.8351C298.666 16.4558 298.243 16.1736 297.763 15.9817L297.02 17.8386C297.244 17.928 297.407 18.0442 297.531 18.1805L299.011 16.8351ZM297.774 15.9861C297.297 15.7885 296.783 15.6992 296.249 15.6992V17.6992C296.559 17.6992 296.807 17.7505 297.009 17.8342L297.774 15.9861ZM296.249 15.6992H285.737V17.6992H296.249V15.6992ZM285.737 15.6992C285.115 15.6992 284.416 15.5904 283.635 15.355L283.058 17.27C283.988 17.5503 284.883 17.6992 285.737 17.6992V15.6992ZM283.647 15.3587C282.914 15.1278 282.225 14.7599 281.578 14.246L280.335 15.8126C281.164 16.4706 282.068 16.9582 283.046 17.2663L283.647 15.3587ZM281.584 14.2509C280.98 13.7636 280.454 13.1104 280.016 12.2662L278.24 13.1869C278.787 14.2412 279.48 15.1231 280.328 15.8077L281.584 14.2509ZM280.02 12.2749C279.628 11.5002 279.407 10.5041 279.407 9.24609H277.407C277.407 10.7302 277.667 12.0545 278.236 13.1782L280.02 12.2749ZM279.407 9.24609C279.407 7.98742 279.628 6.9996 280.018 6.23929L278.238 5.32711C277.667 6.44181 277.407 7.76258 277.407 9.24609H279.407ZM280.016 6.24352C280.454 5.39938 280.98 4.74616 281.584 4.25888L280.328 2.70206C279.48 3.38665 278.787 4.26859 278.24 5.32289L280.016 6.24352ZM281.585 4.25771C282.229 3.73643 282.912 3.3728 283.635 3.15473L283.058 1.2398C282.071 1.53735 281.16 2.02919 280.327 2.70322L281.585 4.25771ZM283.647 3.15105C284.426 2.90581 285.12 2.79297 285.737 2.79297V0.792969C284.878 0.792969 283.979 0.949663 283.046 1.24349L283.647 3.15105ZM285.737 2.79297H301.294V0.792969H285.737V2.79297ZM300.294 1.79297V6.36328H302.294V1.79297H300.294ZM301.294 5.36328H285.737V7.36328H301.294V5.36328ZM285.737 5.36328C284.654 5.36328 283.686 5.70158 282.967 6.47198L284.429 7.83661C284.695 7.55233 285.087 7.36328 285.737 7.36328V5.36328ZM282.959 6.48081C282.276 7.23018 281.978 8.18621 281.978 9.24609H283.978C283.978 8.5716 284.159 8.1331 284.438 7.82779L282.959 6.48081ZM281.978 9.24609C281.978 10.3126 282.274 11.276 282.967 12.0196L284.43 10.6562C284.162 10.3685 283.978 9.93736 283.978 9.24609H281.978ZM282.983 12.0366C283.705 12.776 284.667 13.0938 285.737 13.0938V11.0938C285.073 11.0938 284.676 10.9076 284.414 10.6392L282.983 12.0366ZM285.737 13.0938H296.249V11.0938H285.737V13.0938ZM296.249 13.0938H296.284V11.0938H296.249V13.0938ZM296.261 13.0935C296.675 13.1033 297.127 13.1629 297.621 13.2784L298.077 11.331C297.469 11.1887 296.878 11.1076 296.308 11.094L296.261 13.0935ZM297.641 13.2828C298.11 13.3826 298.58 13.5435 299.052 13.7693L299.915 11.9651C299.309 11.6753 298.689 11.4612 298.057 11.3266L297.641 13.2828ZM299.06 13.7729C299.534 13.995 299.987 14.2792 300.419 14.6288L301.677 13.0743C301.125 12.627 300.535 12.255 299.908 11.9615L299.06 13.7729ZM300.43 14.6379C300.837 14.9573 301.201 15.3491 301.522 15.8206L303.175 14.695C302.746 14.0649 302.244 13.5193 301.666 13.0652L300.43 14.6379ZM301.53 15.8324C301.851 16.2895 302.113 16.8267 302.308 17.4536L304.218 16.8589C303.968 16.0561 303.62 15.3277 303.167 14.6832L301.53 15.8324ZM302.308 17.4536C302.495 18.0548 302.597 18.7606 302.597 19.582H304.597C304.597 18.5988 304.476 17.6874 304.218 16.8589L302.308 17.4536Z" fill="white" fill-opacity="0.2" mask="url(#path-1-outside-1_276_758)"/>
</svg>
