<svg width="423" height="121" viewBox="0 0 423 121" fill="none" xmlns="http://www.w3.org/2000/svg">
    <path d="M124.73 120.529H14.2428C6.38888 120.529 0 114.14 0 106.285V41.6419C0 37.3412 1.91079 33.3187 5.24344 30.6008L38.5251 3.46811C41.0595 1.40158 44.2557 0.264648 47.5244 0.264648H127.375C129.352 0.264648 131.271 0.665514 133.08 1.45688L147.957 7.96057C149.595 8.6759 151.331 9.03875 153.119 9.03875H408.757C416.611 9.03875 423 15.4284 423 23.2833V86.8757C423 94.7306 416.611 101.12 408.757 101.12H155.781C152.423 101.12 149.244 102.406 146.829 104.738L134.624 116.528C131.955 119.107 128.441 120.528 124.73 120.528V120.529ZM47.5244 1.62102C44.5667 1.62102 41.6746 2.65083 39.382 4.51866L6.10036 31.6531C3.0856 34.1118 1.35621 37.7524 1.35621 41.6419V106.285C1.35621 113.392 7.13696 119.173 14.2428 119.173H124.73C128.089 119.173 131.268 117.887 133.683 115.555L145.887 103.766C148.556 101.186 152.07 99.7656 155.783 99.7656H408.759C415.865 99.7656 421.646 93.9841 421.646 86.8774V23.285C421.646 16.1783 415.865 10.3969 408.759 10.3969H153.119C151.144 10.3969 149.225 9.99599 147.414 9.20463L132.536 2.70094C130.898 1.9856 129.162 1.62275 127.375 1.62275H47.5244V1.62102Z" fill="white"/>
    <path d="M8.88477 35.0705L42.1681 7.93611C43.6764 6.70587 45.5785 6.03027 47.5239 6.03027H127.375C128.551 6.03027 129.693 6.26872 130.769 6.74043L145.648 13.2458C148.018 14.2826 150.532 14.8078 153.118 14.8078H232.43" stroke="white" stroke-width="4" stroke-miterlimit="10" stroke-linecap="round"/>
    <path d="M408.756 17.1809H153.118C150.202 17.1809 147.37 16.5882 144.697 15.4202L129.819 8.91477C129.043 8.57611 128.221 8.40332 127.374 8.40332H47.5235C46.1224 8.40332 44.7523 8.89058 43.6674 9.77697L10.384 36.9114C8.95524 38.076 8.13633 39.8004 8.13633 41.644V59.9525L7.87891 60.3983L8.13633 60.8441V106.287C8.13633 109.653 10.8747 112.392 14.2401 112.392H124.727C126.319 112.392 127.823 111.783 128.967 110.677L141.171 98.8883C145.112 95.0818 150.3 92.9841 155.779 92.9841H408.754C412.12 92.9841 414.858 90.2455 414.858 86.8796V23.2854C414.858 19.9196 412.12 17.1809 408.754 17.1809H408.756Z" fill="white"/>
    <path d="M169.902 58.9912C169.902 59.6006 169.797 60.167 169.586 60.6904C169.375 61.2139 169.078 61.667 168.695 62.0498C168.32 62.4326 167.871 62.7334 167.348 62.9521C166.824 63.1631 166.254 63.2686 165.637 63.2686H154.469V60.2217H165.637C166.012 60.2217 166.305 60.1162 166.516 59.9053C166.727 59.6865 166.832 59.3818 166.832 58.9912V46.4639H169.902V58.9912ZM192.231 56.4717C192.231 57.4951 192.055 58.4365 191.704 59.2959C191.352 60.1553 190.864 60.8975 190.239 61.5225C189.614 62.1475 188.872 62.6357 188.013 62.9873C187.161 63.3311 186.231 63.5029 185.223 63.5029H181.098C180.091 63.5029 179.157 63.3311 178.298 62.9873C177.438 62.6357 176.696 62.1475 176.071 61.5225C175.446 60.8975 174.954 60.1553 174.595 59.2959C174.243 58.4365 174.067 57.4951 174.067 56.4717V53.2607C174.067 52.2451 174.243 51.3076 174.595 50.4482C174.954 49.5811 175.446 48.8389 176.071 48.2217C176.696 47.5967 177.438 47.1084 178.298 46.7568C179.157 46.4053 180.091 46.2295 181.098 46.2295H185.223C186.231 46.2295 187.161 46.4053 188.013 46.7568C188.872 47.1084 189.614 47.5967 190.239 48.2217C190.864 48.8389 191.352 49.5811 191.704 50.4482C192.055 51.3076 192.231 52.2451 192.231 53.2607V56.4717ZM189.184 53.2607C189.184 52.6592 189.087 52.1162 188.891 51.6318C188.704 51.1396 188.434 50.7217 188.083 50.3779C187.739 50.0264 187.321 49.7568 186.829 49.5693C186.345 49.374 185.809 49.2764 185.223 49.2764H181.098C180.505 49.2764 179.962 49.374 179.47 49.5693C178.985 49.7568 178.567 50.0264 178.216 50.3779C177.864 50.7217 177.591 51.1396 177.395 51.6318C177.208 52.1162 177.114 52.6592 177.114 53.2607V56.4717C177.114 57.0732 177.208 57.6201 177.395 58.1123C177.591 58.5967 177.864 59.0146 178.216 59.3662C178.567 59.71 178.985 59.9795 179.47 60.1748C179.962 60.3623 180.505 60.4561 181.098 60.4561H185.2C185.794 60.4561 186.333 60.3623 186.817 60.1748C187.309 59.9795 187.731 59.71 188.083 59.3662C188.434 59.0146 188.704 58.5967 188.891 58.1123C189.087 57.6201 189.184 57.0732 189.184 56.4717V53.2607ZM199.513 63.2686H196.466V46.4639H199.513V63.2686ZM221.069 61.9678C221.069 62.1865 221.026 62.3896 220.94 62.5771C220.862 62.7646 220.752 62.9287 220.612 63.0693C220.479 63.2021 220.319 63.3076 220.131 63.3857C219.944 63.4639 219.745 63.5029 219.534 63.5029C219.346 63.5029 219.155 63.4678 218.959 63.3975C218.772 63.3271 218.604 63.2139 218.455 63.0576L207.323 51.4326V63.2686H204.276V47.7646C204.276 47.4521 204.362 47.1709 204.534 46.9209C204.713 46.6631 204.94 46.4717 205.213 46.3467C205.502 46.2295 205.799 46.2021 206.104 46.2646C206.409 46.3193 206.67 46.46 206.889 46.6865L218.022 58.2998V46.4639H221.069V61.9678ZM249.754 49.5107H243.039V63.2686H239.992V49.5107H233.266V46.4639H249.754V49.5107ZM256.274 53.3311H266.973V46.4639H270.02V63.2686H266.973V56.4014H256.274V63.2686H253.227V46.4639H256.274V53.3311ZM288.611 56.4014H278.99V53.3311H288.611V56.4014ZM289.982 63.2686H278.99C278.568 63.2686 278.107 63.1943 277.607 63.0459C277.107 62.8975 276.642 62.6553 276.213 62.3193C275.791 61.9756 275.435 61.5342 275.146 60.9951C274.865 60.4482 274.724 59.7803 274.724 58.9912V47.999C274.724 47.7881 274.763 47.5889 274.841 47.4014C274.92 47.2139 275.025 47.0498 275.158 46.9092C275.298 46.7686 275.463 46.6592 275.65 46.5811C275.838 46.5029 276.041 46.4639 276.259 46.4639H289.982V49.5107H277.771V58.9912C277.771 59.3896 277.877 59.6943 278.088 59.9053C278.298 60.1162 278.607 60.2217 279.013 60.2217H289.982V63.2686ZM318.07 49.5107H311.355V63.2686H308.308V49.5107H301.581V46.4639H318.07V49.5107ZM335.336 56.4014H325.715V53.3311H335.336V56.4014ZM336.707 63.2686H325.715C325.293 63.2686 324.832 63.1943 324.332 63.0459C323.832 62.8975 323.367 62.6553 322.938 62.3193C322.516 61.9756 322.16 61.5342 321.871 60.9951C321.59 60.4482 321.449 59.7803 321.449 58.9912V47.999C321.449 47.7881 321.488 47.5889 321.566 47.4014C321.645 47.2139 321.75 47.0498 321.883 46.9092C322.023 46.7686 322.188 46.6592 322.375 46.5811C322.562 46.5029 322.766 46.4639 322.984 46.4639H336.707V49.5107H324.496V58.9912C324.496 59.3896 324.602 59.6943 324.812 59.9053C325.023 60.1162 325.332 60.2217 325.738 60.2217H336.707V63.2686ZM357.348 63.2686H354.302V59.1436H343.591V63.2686H340.544V54.8662C340.544 53.6396 340.755 52.5107 341.177 51.4795C341.598 50.4482 342.184 49.5615 342.934 48.8193C343.684 48.0771 344.571 47.499 345.595 47.085C346.618 46.6709 347.735 46.4639 348.946 46.4639H355.813C356.024 46.4639 356.223 46.5029 356.411 46.5811C356.598 46.6592 356.762 46.7686 356.903 46.9092C357.044 47.0498 357.153 47.2139 357.231 47.4014C357.309 47.5889 357.348 47.7881 357.348 47.999V63.2686ZM343.591 56.0967H354.302V49.5107H348.946C348.852 49.5107 348.653 49.5264 348.348 49.5576C348.052 49.5811 347.704 49.6475 347.305 49.7568C346.915 49.8662 346.501 50.0342 346.063 50.2607C345.626 50.4873 345.223 50.7998 344.856 51.1982C344.489 51.5967 344.184 52.0967 343.942 52.6982C343.708 53.292 343.591 54.0146 343.591 54.8662V56.0967ZM381.658 63.2686H378.587V53.2607L373.185 62.7646C373.052 63.0068 372.865 63.1904 372.623 63.3154C372.388 63.4404 372.134 63.5029 371.861 63.5029C371.595 63.5029 371.345 63.4404 371.111 63.3154C370.884 63.1904 370.705 63.0068 370.572 62.7646L365.146 53.2607V63.2686H362.099V47.7646C362.099 47.4131 362.201 47.1006 362.404 46.8271C362.615 46.5537 362.888 46.3701 363.224 46.2764C363.388 46.2373 363.552 46.2256 363.716 46.2412C363.88 46.249 364.037 46.2842 364.185 46.3467C364.341 46.4014 364.482 46.4834 364.607 46.5928C364.732 46.6943 364.837 46.8193 364.923 46.9678L371.861 59.0264L378.798 46.9678C378.978 46.6709 379.224 46.46 379.537 46.335C379.857 46.21 380.189 46.1904 380.533 46.2764C380.861 46.3701 381.13 46.5537 381.341 46.8271C381.552 47.1006 381.658 47.4131 381.658 47.7646V63.2686Z" fill="#FF2D34"/>
    <g clip-path="url(#clip0_257_2002)">
        <path d="M53 44.2762C53 45.9316 54.337 47.2686 55.9871 47.2686H75.5812C78.2447 47.2686 79.5765 50.4892 77.6929 52.3675L53.8754 76.1849C53.313 76.7473 53 77.5061 53 78.3019C53 79.9573 54.337 81.2944 55.9871 81.2944C56.7777 81.2944 57.5417 80.9813 58.0988 80.4189L81.9216 56.5961C83.8051 54.7126 87.0204 56.0443 87.0204 58.7078V78.3019C87.0204 79.952 88.3575 81.2891 90.0076 81.2891C91.6576 81.2891 92.9947 79.952 92.9947 78.3019V44.2762C92.9947 42.6261 91.6576 41.2891 90.0076 41.2891H55.9871C54.337 41.2891 53 42.6261 53 44.2762Z" fill="#FF2D34"/>
    </g>
    <defs>
        <clipPath id="clip0_257_2002">
            <rect width="40" height="40" fill="white" transform="translate(53 41.2891)"/>
        </clipPath>
    </defs>
</svg>
