<svg width="941" height="165" viewBox="0 0 941 165" fill="none" xmlns="http://www.w3.org/2000/svg">
    <g clip-path="url(#clip0_172_1096)">
        <path d="M66.8792 65.4773H14.0986C13.2633 65.4773 12.4912 65.3236 11.7824 65.029C11.0736 64.7344 10.4534 64.3117 9.93442 63.7866C9.41548 63.2614 9.01045 62.6338 8.70667 61.9165C8.41556 61.1992 8.26367 60.4179 8.26367 59.5725V0.896484H19.8324V53.7574H66.8665V65.4645L66.8792 65.4773Z" fill="white"/>
        <path d="M132.786 65.4782H91.043C89.4356 65.4782 87.6889 65.1964 85.7903 64.62C83.8917 64.0436 82.1323 63.1086 80.5122 61.8021C78.8921 60.4956 77.5504 58.8049 76.4619 56.7171C75.3734 54.6293 74.8418 52.0676 74.8418 49.0448V6.8021C74.8418 5.99516 74.9937 5.22664 75.2848 4.50936C75.5759 3.79208 75.9936 3.16446 76.5125 2.6137C77.0315 2.07574 77.6517 1.65305 78.3605 1.35846C79.0693 1.06386 79.8414 0.910156 80.6768 0.910156H132.786V12.6172H86.4231V49.0448C86.4231 50.5818 86.8282 51.7474 87.6256 52.5543C88.423 53.3612 89.6001 53.7711 91.1443 53.7711H132.799V65.4782H132.786ZM127.572 39.0925H91.043V27.2958H127.572V39.0925Z" fill="white"/>
        <path d="M206.565 65.4782H194.996V49.6212H154.328V65.4782H142.76V33.1878C142.76 28.4742 143.557 24.1321 145.165 20.1742C146.772 16.2164 148.987 12.8093 151.835 9.95301C154.683 7.0967 158.05 4.88081 161.935 3.29255C165.821 1.70429 170.061 0.910156 174.656 0.910156H200.73C201.527 0.910156 202.287 1.06386 202.995 1.35846C203.704 1.65305 204.324 2.07574 204.869 2.6137C205.413 3.15166 205.818 3.77928 206.109 4.50936C206.4 5.22664 206.552 5.99516 206.552 6.8021V65.4782H206.565ZM154.316 37.9141H194.983V12.6044H174.643C174.289 12.6044 173.542 12.6556 172.39 12.7581C171.251 12.8606 169.922 13.1295 168.429 13.5522C166.935 13.9749 165.353 14.6153 163.695 15.4863C162.037 16.3573 160.505 17.5613 159.113 19.0855C157.721 20.6225 156.569 22.531 155.67 24.8238C154.759 27.1165 154.316 29.9088 154.316 33.1749V37.9013V37.9141Z" fill="white"/>
        <path d="M283.673 38.4521C283.673 42.3843 283.002 45.9963 281.648 49.3009C280.294 52.6056 278.433 55.4491 276.066 57.8314C273.687 60.2138 270.877 62.0839 267.611 63.4416C264.346 64.7865 260.802 65.4654 256.979 65.4654H225.741C224.906 65.4654 224.134 65.3116 223.425 65.0171C222.716 64.7225 222.096 64.2998 221.577 63.7746C221.058 63.2495 220.653 62.6219 220.349 61.9046C220.058 61.1873 219.906 60.406 219.906 59.5606V6.8021C219.906 5.99516 220.058 5.22664 220.349 4.50936C220.64 3.79208 221.058 3.16446 221.577 2.6137C222.096 2.07574 222.716 1.65305 223.425 1.35846C224.134 1.06386 224.906 0.910156 225.741 0.910156H256.979C260.802 0.910156 264.346 1.58901 267.611 2.93391C270.877 4.27881 273.687 6.14886 276.066 8.54406C278.446 10.9265 280.306 13.7828 281.648 17.1002C283.002 20.4176 283.673 24.0296 283.673 27.9362V38.4777V38.4521ZM272.105 27.9234C272.105 25.6435 271.738 23.5557 271.016 21.66C270.295 19.7644 269.257 18.1505 267.928 16.8184C266.599 15.4863 265.004 14.4488 263.143 13.7059C261.295 12.9758 259.232 12.6044 256.979 12.6044H231.488V53.7583H256.979C259.232 53.7583 261.283 53.3869 263.143 52.6568C264.991 51.9267 266.586 50.8892 267.928 49.5443C269.269 48.1994 270.295 46.5983 271.016 44.7283C271.738 42.8582 272.105 40.7576 272.105 38.4521V27.9106V27.9234Z" stroke="white" stroke-miterlimit="10"/>
        <path d="M381.351 12.6035H355.859V65.4645H344.29V12.6035H318.748V0.896484H381.351V12.6035Z" stroke="white" stroke-miterlimit="10"/>
        <path d="M401.498 27.2821H442.128V0.896484H453.697V65.4645H442.128V39.0788H401.498V65.4645H389.93V0.896484H401.498V27.2821Z" stroke="white" stroke-miterlimit="10"/>
        <path d="M524.894 65.4782H483.15C481.543 65.4782 479.796 65.1964 477.898 64.62C475.999 64.0436 474.24 63.1086 472.62 61.8021C471 60.4956 469.658 58.8049 468.569 56.7171C467.481 54.6293 466.949 52.0676 466.949 49.0448V6.8021C466.949 5.99516 467.101 5.22664 467.392 4.50936C467.683 3.79208 468.101 3.16446 468.62 2.6137C469.139 2.07574 469.759 1.65305 470.468 1.35846C471.177 1.06386 471.949 0.910156 472.784 0.910156H524.894V12.6172H478.531V49.0448C478.531 50.5818 478.936 51.7474 479.733 52.5543C480.53 53.3612 481.707 53.7711 483.252 53.7711H524.907V65.4782H524.894ZM519.692 39.0925H483.163V27.2958H519.692V39.0925Z" stroke="white" stroke-miterlimit="10"/>
        <path d="M623.633 12.6044H577.27V65.4654H565.701V6.8021C565.701 5.99516 565.853 5.22664 566.144 4.50936C566.435 3.79208 566.853 3.16446 567.372 2.6137C567.891 2.06293 568.511 1.65305 569.22 1.35846C569.929 1.06386 570.701 0.910156 571.536 0.910156H623.646V12.6172L623.633 12.6044ZM618.482 39.0925H581.902V27.2958H618.482V39.0925Z" stroke="white" stroke-miterlimit="10"/>
        <path d="M691.588 65.4773H638.808C637.972 65.4773 637.2 65.3236 636.491 65.029C635.783 64.7344 635.162 64.3117 634.643 63.7866C634.124 63.2614 633.719 62.6338 633.416 61.9165C633.112 61.1992 632.973 60.4179 632.973 59.5725V0.896484H644.541V53.7574H691.576V65.4645L691.588 65.4773Z" fill="white"/>
        <path d="M766.078 39.3607C766.078 43.293 765.407 46.905 764.078 50.2096C762.749 53.5142 760.888 56.3577 758.521 58.7657C756.154 61.1737 753.332 63.031 750.091 64.3759C746.851 65.7208 743.307 66.374 739.485 66.374H723.815C719.993 66.374 716.449 65.708 713.183 64.3759C709.918 63.0438 707.108 61.1737 704.728 58.7657C702.349 56.3577 700.488 53.5142 699.146 50.2096C697.805 46.905 697.121 43.293 697.121 39.3607V27.0261C697.121 23.1195 697.792 19.5075 699.146 16.19C700.501 12.8726 702.361 10.0163 704.728 7.63391C707.095 5.25151 709.918 3.38146 713.183 2.02375C716.449 0.666046 719.993 0 723.815 0H739.485C743.307 0 746.851 0.678854 750.091 2.02375C753.332 3.36865 756.154 5.2387 758.521 7.63391C760.888 10.0291 762.749 12.8726 764.078 16.19C765.407 19.5075 766.078 23.1195 766.078 27.0261V39.3607ZM754.509 27.0133C754.509 24.7077 754.142 22.6071 753.42 20.7371C752.699 18.867 751.674 17.2531 750.345 15.9211C749.016 14.589 747.433 13.5515 745.586 12.8086C743.738 12.0657 741.687 11.707 739.472 11.707H723.802C721.549 11.707 719.499 12.0785 717.638 12.8086C715.778 13.5387 714.196 14.5762 712.854 15.9211C711.512 17.266 710.487 18.867 709.766 20.7371C709.044 22.6071 708.677 24.7077 708.677 27.0133V39.3479C708.677 41.6535 709.044 43.7541 709.766 45.6241C710.487 47.4942 711.525 49.1081 712.854 50.4401C714.183 51.7722 715.778 52.8097 717.638 53.5526C719.499 54.2955 721.549 54.6542 723.802 54.6542H739.371C741.624 54.6542 743.674 54.2827 745.535 53.5526C747.396 52.8225 748.978 51.785 750.319 50.4401C751.661 49.0952 752.686 47.4942 753.408 45.6241C754.129 43.7541 754.496 41.6535 754.496 39.3479V27.0133H754.509Z" fill="white"/>
        <path d="M834.654 65.4771H792.91C791.847 65.4771 790.695 65.349 789.467 65.0928C788.24 64.8366 787.024 64.4396 785.822 63.9016C784.62 63.3637 783.468 62.6592 782.379 61.8138C781.291 60.9684 780.316 59.9181 779.468 58.7013C778.62 57.4845 777.949 56.0756 777.443 54.4745C776.937 52.8734 776.684 51.0546 776.684 49.0437V17.3425C776.684 16.2665 776.81 15.101 777.063 13.8585C777.316 12.6161 777.709 11.3865 778.24 10.1697C778.772 8.95285 779.468 7.78727 780.329 6.68573C781.19 5.58419 782.215 4.59793 783.417 3.73976C784.62 2.88159 785.999 2.20273 787.581 1.69039C789.164 1.17805 790.936 0.921875 792.923 0.921875H834.666V12.6289H792.923C791.404 12.6289 790.252 13.0388 789.455 13.8457C788.657 14.6527 788.252 15.8567 788.252 17.4449V49.0565C788.252 50.5551 788.657 51.7207 789.48 52.5404C790.303 53.3602 791.442 53.7828 792.923 53.7828H834.666V65.4899L834.654 65.4771Z" fill="white"/>
        <path d="M857.26 65.4773H845.691V0.896484H857.26V65.4645V65.4773ZM912.471 65.4773H896.054L870.019 39.0916H861.88V27.2949H870.019L896.054 0.909293H912.471L879.676 33.1997L912.471 65.4901V65.4773Z" fill="white"/>
        <path d="M923.205 73.7647H915.066L919.205 51.1191H930.103L923.205 73.7647Z" fill="white"/>
        <path d="M63.767 121.233C63.767 123.91 63.4379 126.292 62.7924 128.393C62.1342 130.493 61.2609 132.351 60.147 133.952C59.0332 135.553 57.7548 136.936 56.2993 138.076C54.8437 139.216 53.3248 140.151 51.7427 140.894C50.1605 141.624 48.553 142.162 46.9329 142.495C45.3128 142.828 43.7939 142.995 42.3763 142.995L66.5389 164.116H48.6543L24.5423 142.995H16.2265V131.288H42.389C43.8446 131.172 45.1736 130.865 46.376 130.365C47.5784 129.866 48.6163 129.2 49.4897 128.367C50.363 127.522 51.0339 126.51 51.5148 125.332C51.9831 124.14 52.2236 122.783 52.2236 121.258V113.868C52.2236 113.202 52.1477 112.702 51.9831 112.357C51.8186 112.011 51.6161 111.755 51.3629 111.588C51.1098 111.422 50.844 111.319 50.5655 111.293C50.2871 111.268 50.0213 111.242 49.7808 111.242H11.5687V164.103H0V105.427C0 104.62 0.151886 103.852 0.443002 103.134C0.734118 102.417 1.15181 101.789 1.67075 101.239C2.1897 100.701 2.8099 100.278 3.5187 99.9835C4.22751 99.6889 4.9996 99.5352 5.83497 99.5352H49.7555C52.3375 99.5352 54.5146 100.009 56.2993 100.957C58.0839 101.905 59.5268 103.083 60.6407 104.518C61.7545 105.952 62.5519 107.476 63.0455 109.129C63.5392 110.781 63.7797 112.331 63.7797 113.765V121.246L63.767 121.233Z" fill="white"/>
        <path d="M133.052 164.103H91.3086C89.7012 164.103 87.9545 163.821 86.0559 163.245C84.1573 162.669 82.398 161.734 80.7778 160.427C79.1577 159.121 77.8161 157.43 76.7275 155.342C75.639 153.254 75.1074 150.693 75.1074 147.67V105.427C75.1074 104.62 75.2593 103.852 75.5504 103.134C75.8415 102.417 76.2592 101.789 76.7782 101.239C77.2971 100.701 77.9173 100.278 78.6261 99.9835C79.3349 99.6889 80.107 99.5352 80.9424 99.5352H133.052V111.242H86.6888V147.67C86.6888 149.207 87.0938 150.372 87.8912 151.179C88.6886 151.986 89.8657 152.396 91.4099 152.396H133.065V164.103H133.052ZM127.837 137.717H91.3086V125.921H127.837V137.717Z" fill="white"/>
        <path d="M206.83 164.103H195.262V148.246H154.594V164.103H143.025V131.813C143.025 127.099 143.823 122.757 145.43 118.799C147.038 114.841 149.253 111.434 152.101 108.578C154.948 105.722 158.315 103.506 162.201 101.918C166.087 100.329 170.327 99.5352 174.922 99.5352H200.995C201.793 99.5352 202.552 99.6889 203.261 99.9835C203.97 100.278 204.59 100.701 205.134 101.239C205.679 101.777 206.084 102.404 206.375 103.134C206.666 103.852 206.818 104.62 206.818 105.427V164.103H206.83ZM154.581 136.539H195.249V111.229H174.909C174.554 111.229 173.808 111.281 172.656 111.383C171.517 111.486 170.188 111.755 168.694 112.177C167.201 112.6 165.618 113.24 163.96 114.111C162.302 114.982 160.771 116.186 159.378 117.711C157.986 119.248 156.834 121.156 155.936 123.449C155.024 125.741 154.581 128.534 154.581 131.8V136.526V136.539Z" fill="white"/>
        <path d="M283.851 126.548C283.851 129.225 283.522 131.608 282.876 133.708C282.218 135.809 281.345 137.666 280.231 139.267C279.117 140.868 277.839 142.252 276.383 143.392C274.928 144.532 273.409 145.467 271.827 146.184C270.244 146.901 268.637 147.426 267.017 147.759C265.397 148.092 263.878 148.259 262.46 148.259H236.298V136.552H262.46C263.941 136.437 265.283 136.129 266.485 135.63C267.688 135.13 268.713 134.464 269.574 133.632C270.434 132.786 271.105 131.774 271.573 130.596C272.042 129.405 272.282 128.073 272.282 126.561V121.246C272.13 119.773 271.827 118.428 271.346 117.198C270.865 115.969 270.232 114.918 269.409 114.047C268.586 113.176 267.612 112.497 266.447 111.998C265.283 111.498 263.954 111.255 262.448 111.255H236.374C234.83 111.255 233.665 111.665 232.855 112.472C232.045 113.279 231.653 114.457 231.653 115.981V164.116H220.084V115.981C220.084 112.984 220.628 110.422 221.704 108.322C222.793 106.221 224.134 104.53 225.754 103.237C227.375 101.943 229.134 101.008 231.032 100.419C232.931 99.8298 234.678 99.5352 236.285 99.5352H262.448C265.055 99.5352 267.397 99.8682 269.472 100.547C271.548 101.226 273.383 102.122 274.966 103.25C276.548 104.377 277.902 105.67 279.016 107.143C280.13 108.616 281.041 110.153 281.775 111.755C282.497 113.356 283.028 114.982 283.357 116.622C283.686 118.261 283.851 119.798 283.851 121.233V126.548Z" stroke="white" stroke-miterlimit="10"/>
        <path d="M379.261 111.23H353.769V164.091H342.2V111.23H316.658V99.5234H379.261V111.23Z" stroke="white" stroke-miterlimit="10"/>
        <path d="M399.412 125.909H440.042V99.5234H451.611V164.091H440.042V137.706H399.412V164.091H387.844V99.5234H399.412V125.909Z" stroke="white" stroke-miterlimit="10"/>
        <path d="M522.806 164.103H481.063C479.455 164.103 477.708 163.821 475.81 163.245C473.911 162.669 472.152 161.734 470.532 160.427C468.912 159.121 467.57 157.43 466.481 155.342C465.393 153.254 464.861 150.693 464.861 147.67V105.427C464.861 104.62 465.013 103.852 465.304 103.134C465.595 102.417 466.013 101.789 466.532 101.239C467.051 100.701 467.671 100.278 468.38 99.9835C469.089 99.6889 469.861 99.5352 470.696 99.5352H522.806V111.242H476.443V147.67C476.443 149.207 476.848 150.372 477.645 151.179C478.443 151.986 479.62 152.396 481.164 152.396H522.819V164.103H522.806ZM517.604 137.717H481.075V125.921H517.604V137.717Z" stroke="white" stroke-miterlimit="10"/>
        <path d="M627.203 126.548C627.203 129.225 626.873 131.608 626.228 133.708C625.582 135.809 624.696 137.666 623.583 139.267C622.469 140.868 621.19 142.252 619.735 143.392C618.279 144.532 616.76 145.467 615.178 146.184C613.596 146.901 611.989 147.426 610.368 147.759C608.748 148.092 607.229 148.259 605.812 148.259H579.649V136.552H605.812C607.293 136.437 608.634 136.129 609.837 135.63C611.039 135.13 612.065 134.464 612.925 133.632C613.786 132.799 614.457 131.774 614.925 130.596C615.393 129.418 615.634 128.073 615.634 126.561V121.246C615.482 119.773 615.178 118.428 614.697 117.198C614.216 115.969 613.583 114.918 612.761 114.047C611.938 113.176 610.963 112.497 609.799 111.998C608.634 111.498 607.305 111.255 605.799 111.255H579.725C578.181 111.255 577.017 111.665 576.207 112.472C575.397 113.279 575.004 114.457 575.004 115.981V164.116H563.436V115.981C563.436 112.984 563.98 110.422 565.056 108.322C566.132 106.221 567.486 104.53 569.106 103.237C570.726 101.943 572.485 101.008 574.384 100.419C576.283 99.8298 578.029 99.5352 579.637 99.5352H605.799C608.407 99.5352 610.748 99.8682 612.824 100.547C614.9 101.226 616.735 102.122 618.317 103.25C619.899 104.377 621.254 105.67 622.368 107.143C623.481 108.616 624.405 110.153 625.127 111.755C625.848 113.356 626.38 114.982 626.709 116.622C627.038 118.261 627.203 119.798 627.203 121.233V126.548Z" stroke="white" stroke-miterlimit="10"/>
        <path d="M700.842 121.233C700.842 123.91 700.513 126.292 699.868 128.393C699.222 130.493 698.336 132.351 697.222 133.952C696.108 135.553 694.83 136.936 693.375 138.076C691.919 139.216 690.4 140.151 688.818 140.894C687.236 141.637 685.628 142.162 684.008 142.495C682.388 142.828 680.869 142.995 679.452 142.995L703.614 164.116H685.73L661.618 142.995H653.302V131.288H679.464C680.92 131.172 682.249 130.865 683.451 130.365C684.654 129.866 685.692 129.2 686.565 128.367C687.438 127.535 688.109 126.51 688.59 125.332C689.071 124.153 689.299 122.783 689.299 121.258V113.868C689.299 113.202 689.223 112.702 689.058 112.357C688.894 112.011 688.691 111.755 688.438 111.588C688.185 111.422 687.919 111.319 687.641 111.293C687.362 111.268 687.097 111.242 686.856 111.242H648.682V164.103H637.113V105.427C637.113 104.62 637.265 103.852 637.556 103.134C637.847 102.417 638.265 101.789 638.784 101.239C639.303 100.688 639.923 100.278 640.632 99.9835C641.341 99.6889 642.113 99.5352 642.948 99.5352H686.869C689.451 99.5352 691.628 100.009 693.413 100.957C695.197 101.905 696.64 103.083 697.754 104.518C698.868 105.952 699.665 107.476 700.159 109.129C700.652 110.781 700.893 112.331 700.893 113.765V121.246L700.842 121.233Z" fill="white"/>
        <path d="M779.431 137.987C779.431 141.919 778.76 145.531 777.431 148.836C776.102 152.14 774.242 154.984 771.875 157.392C769.508 159.8 766.685 161.657 763.445 163.002C760.205 164.347 756.661 165 752.838 165H737.169C733.346 165 729.802 164.334 726.537 163.002C723.271 161.67 720.461 159.8 718.082 157.392C715.702 154.984 713.841 152.14 712.5 148.836C711.158 145.531 710.475 141.919 710.475 137.987V125.652C710.475 121.745 711.145 118.133 712.5 114.816C713.854 111.499 715.715 108.642 718.082 106.26C720.448 103.877 723.271 102.007 726.537 100.65C729.802 99.292 733.346 98.626 737.169 98.626H752.838C756.661 98.626 760.205 99.3048 763.445 100.65C766.685 101.995 769.508 103.865 771.875 106.26C774.242 108.655 776.102 111.499 777.431 114.816C778.76 118.133 779.431 121.745 779.431 125.652V137.987ZM767.862 125.639C767.862 123.334 767.495 121.233 766.774 119.363C766.052 117.493 765.027 115.879 763.698 114.547C762.369 113.215 760.787 112.177 758.939 111.435C757.091 110.692 755.041 110.333 752.826 110.333H737.156C734.903 110.333 732.853 110.704 730.992 111.435C729.131 112.165 727.549 113.202 726.208 114.547C724.866 115.892 723.841 117.493 723.119 119.363C722.398 121.233 722.031 123.334 722.031 125.639V137.974C722.031 140.279 722.398 142.38 723.119 144.25C723.841 146.12 724.879 147.734 726.208 149.066C727.537 150.398 729.131 151.436 730.992 152.179C732.853 152.921 734.903 153.28 737.156 153.28H752.724C754.977 153.28 757.028 152.909 758.888 152.179C760.749 151.449 762.331 150.411 763.673 149.066C765.014 147.721 766.04 146.12 766.761 144.25C767.483 142.38 767.85 140.279 767.85 137.974V125.639H767.862Z" fill="white"/>
        <path d="M848.805 111.23H802.442V164.091H790.873V105.415C790.873 104.608 791.025 103.84 791.316 103.123C791.607 102.405 792.025 101.778 792.544 101.227C793.063 100.676 793.683 100.266 794.392 99.9717C795.101 99.6771 795.873 99.5234 796.708 99.5234H848.818V111.23H848.805ZM843.641 137.719H807.062V125.922H843.641V137.719Z" fill="white"/>
        <path d="M869.803 164.103H858.234V99.5352H869.803V164.103Z" fill="white"/>
        <path d="M940.999 111.23H915.507V164.091H903.939V111.23H878.396V99.5234H940.999V111.23Z" fill="white"/>
    </g>
    <defs>
        <clipPath id="clip0_172_1096">
            <rect width="941" height="165" fill="white"/>
        </clipPath>
    </defs>
</svg>
