<svg width="340" height="56" viewBox="0 0 340 56" fill="none" xmlns="http://www.w3.org/2000/svg">
    <mask id="path-1-outside-1_300_2095" maskUnits="userSpaceOnUse" x="1" y="8" width="338" height="26" fill="black">
        <rect fill="white" x="1" y="8" width="338" height="26"/>
        <path d="M28.4375 32H24.3438V18.6562L17.1406 31.3281C16.9635 31.651 16.7135 31.8958 16.3906 32.0625C16.0781 32.2292 15.7396 32.3125 15.375 32.3125C15.0208 32.3125 14.6875 32.2292 14.375 32.0625C14.0729 31.8958 13.8333 31.651 13.6562 31.3281L6.42188 18.6562V32H2.35938V11.3281C2.35938 10.8594 2.49479 10.4427 2.76562 10.0781C3.04688 9.71354 3.41146 9.46875 3.85938 9.34375C4.07812 9.29167 4.29688 9.27604 4.51562 9.29688C4.73438 9.30729 4.94271 9.35417 5.14062 9.4375C5.34896 9.51042 5.53646 9.61979 5.70312 9.76562C5.86979 9.90104 6.01042 10.0677 6.125 10.2656L15.375 26.3438L24.625 10.2656C24.8646 9.86979 25.1927 9.58854 25.6094 9.42188C26.0365 9.25521 26.4792 9.22917 26.9375 9.34375C27.375 9.46875 27.7344 9.71354 28.0156 10.0781C28.2969 10.4427 28.4375 10.8594 28.4375 11.3281V32ZM53.5137 22.8438H40.6856V18.75H53.5137V22.8438ZM55.3419 32H40.6856C40.1231 32 39.5085 31.901 38.8419 31.7031C38.1752 31.5052 37.5554 31.1823 36.9825 30.7344C36.42 30.276 35.946 29.6875 35.5606 28.9688C35.1856 28.2396 34.9981 27.349 34.9981 26.2969V11.6406C34.9981 11.3594 35.0502 11.0938 35.1544 10.8438C35.2585 10.5938 35.3992 10.375 35.5762 10.1875C35.7637 10 35.9825 9.85417 36.2325 9.75C36.4825 9.64583 36.7533 9.59375 37.045 9.59375H55.3419V13.6562H39.0606V26.2969C39.0606 26.8281 39.2012 27.2344 39.4825 27.5156C39.7637 27.7969 40.1752 27.9375 40.7169 27.9375H55.3419V32ZM79.6213 22.8438H66.7931V18.75H79.6213V22.8438ZM81.4494 32H66.7931C66.2306 32 65.616 31.901 64.9494 31.7031C64.2827 31.5052 63.6629 31.1823 63.09 30.7344C62.5275 30.276 62.0535 29.6875 61.6681 28.9688C61.2931 28.2396 61.1056 27.349 61.1056 26.2969V11.6406C61.1056 11.3594 61.1577 11.0938 61.2619 10.8438C61.366 10.5938 61.5067 10.375 61.6838 10.1875C61.8713 10 62.09 9.85417 62.34 9.75C62.59 9.64583 62.8608 9.59375 63.1525 9.59375H81.4494V13.6562H65.1681V26.2969C65.1681 26.8281 65.3088 27.2344 65.59 27.5156C65.8713 27.7969 66.2827 27.9375 66.8244 27.9375H81.4494V32ZM107.557 13.6562H98.6038V32H94.5413V13.6562H85.5725V9.59375H107.557V13.6562ZM128.553 32H124.491V9.59375H128.553V32ZM157.614 30.2656C157.614 30.5573 157.556 30.8281 157.442 31.0781C157.338 31.3281 157.192 31.5469 157.004 31.7344C156.827 31.9115 156.614 32.0521 156.364 32.1562C156.114 32.2604 155.848 32.3125 155.567 32.3125C155.317 32.3125 155.062 32.2656 154.801 32.1719C154.551 32.0781 154.327 31.9271 154.129 31.7188L139.286 16.2188V32H135.223V11.3281C135.223 10.9115 135.338 10.5365 135.567 10.2031C135.806 9.85938 136.109 9.60417 136.473 9.4375C136.859 9.28125 137.254 9.24479 137.661 9.32812C138.067 9.40104 138.416 9.58854 138.708 9.89062L153.551 25.375V9.59375H157.614V30.2656ZM198.923 18.9688C198.923 19.8958 198.808 20.724 198.579 21.4531C198.35 22.1823 198.037 22.8281 197.641 23.3906C197.256 23.9427 196.808 24.4167 196.298 24.8125C195.787 25.2083 195.251 25.5312 194.688 25.7812C194.136 26.0312 193.574 26.2135 193.001 26.3281C192.438 26.4427 191.907 26.5 191.407 26.5H182.219V22.4375H191.407C191.928 22.3958 192.396 22.2917 192.813 22.125C193.24 21.9479 193.605 21.7135 193.907 21.4219C194.209 21.1302 194.443 20.7812 194.61 20.375C194.777 19.9583 194.86 19.4896 194.86 18.9688V17.125C194.808 16.6146 194.699 16.1458 194.532 15.7188C194.365 15.2917 194.136 14.9271 193.844 14.625C193.563 14.3229 193.219 14.0885 192.813 13.9219C192.407 13.7448 191.938 13.6562 191.407 13.6562H182.251C181.709 13.6562 181.298 13.7969 181.016 14.0781C180.735 14.3594 180.594 14.7656 180.594 15.2969V32H176.532V15.2969C176.532 14.2552 176.719 13.3698 177.094 12.6406C177.48 11.9115 177.954 11.3229 178.516 10.875C179.089 10.4271 179.709 10.1042 180.376 9.90625C181.042 9.69792 181.657 9.59375 182.219 9.59375H191.407C192.324 9.59375 193.146 9.71354 193.876 9.95312C194.605 10.1823 195.245 10.4948 195.798 10.8906C196.36 11.276 196.834 11.724 197.219 12.2344C197.615 12.7448 197.938 13.2812 198.188 13.8438C198.449 14.3958 198.636 14.9583 198.751 15.5312C198.865 16.0938 198.923 16.625 198.923 17.125V18.9688ZM222.749 22.8438H209.921V18.75H222.749V22.8438ZM224.577 32H209.921C209.358 32 208.744 31.901 208.077 31.7031C207.41 31.5052 206.79 31.1823 206.217 30.7344C205.655 30.276 205.181 29.6875 204.796 28.9688C204.421 28.2396 204.233 27.349 204.233 26.2969V11.6406C204.233 11.3594 204.285 11.0938 204.389 10.8438C204.494 10.5938 204.634 10.375 204.811 10.1875C204.999 10 205.217 9.85417 205.467 9.75C205.717 9.64583 205.988 9.59375 206.28 9.59375H224.577V13.6562H208.296V26.2969C208.296 26.8281 208.436 27.2344 208.717 27.5156C208.999 27.7969 209.41 27.9375 209.952 27.9375H224.577V32ZM252.825 17.125C252.825 18.0521 252.71 18.8802 252.481 19.6094C252.252 20.3385 251.94 20.9844 251.544 21.5469C251.158 22.099 250.71 22.5729 250.2 22.9688C249.69 23.3646 249.153 23.6927 248.591 23.9531C248.039 24.2031 247.476 24.3854 246.903 24.5C246.341 24.6146 245.809 24.6719 245.309 24.6719L253.794 32H247.512L239.044 24.6719H236.122V20.6094H245.309C245.82 20.5677 246.283 20.4635 246.7 20.2969C247.127 20.1198 247.492 19.8854 247.794 19.5938C248.106 19.3021 248.346 18.9531 248.512 18.5469C248.679 18.1302 248.762 17.6562 248.762 17.125V14.5625C248.762 14.3333 248.731 14.1615 248.669 14.0469C248.617 13.9219 248.544 13.8333 248.45 13.7812C248.367 13.7188 248.273 13.6823 248.169 13.6719C248.075 13.6615 247.986 13.6562 247.903 13.6562H234.497V32H230.434V11.6406C230.434 11.3594 230.486 11.0938 230.591 10.8438C230.695 10.5938 230.835 10.375 231.012 10.1875C231.2 10 231.419 9.85417 231.669 9.75C231.919 9.64583 232.19 9.59375 232.481 9.59375H247.903C248.809 9.59375 249.575 9.76042 250.2 10.0938C250.825 10.4167 251.33 10.8281 251.716 11.3281C252.111 11.8177 252.393 12.349 252.559 12.9219C252.736 13.4948 252.825 14.0312 252.825 14.5312V17.125ZM280.354 25.4062C280.354 26.2083 280.25 26.9323 280.042 27.5781C279.844 28.2135 279.578 28.776 279.245 29.2656C278.912 29.7552 278.521 30.1719 278.073 30.5156C277.625 30.8594 277.162 31.1406 276.682 31.3594C276.203 31.5781 275.714 31.7396 275.214 31.8438C274.724 31.9479 274.261 32 273.823 32H258.151V27.9375H273.823C274.604 27.9375 275.209 27.7083 275.636 27.25C276.073 26.7917 276.292 26.1771 276.292 25.4062C276.292 25.0312 276.235 24.6875 276.12 24.375C276.005 24.0625 275.839 23.7917 275.62 23.5625C275.412 23.3333 275.151 23.1562 274.839 23.0312C274.537 22.9062 274.198 22.8438 273.823 22.8438H264.479C263.823 22.8438 263.115 22.7292 262.354 22.5C261.594 22.2604 260.886 21.8802 260.229 21.3594C259.584 20.8385 259.042 20.1562 258.604 19.3125C258.177 18.4688 257.964 17.4375 257.964 16.2188C257.964 15 258.177 13.974 258.604 13.1406C259.042 12.2969 259.584 11.6146 260.229 11.0938C260.886 10.5625 261.594 10.1823 262.354 9.95312C263.115 9.71354 263.823 9.59375 264.479 9.59375H278.307V13.6562H264.479C263.709 13.6562 263.104 13.8906 262.667 14.3594C262.24 14.8281 262.026 15.4479 262.026 16.2188C262.026 17 262.24 17.6198 262.667 18.0781C263.104 18.526 263.709 18.75 264.479 18.75H273.823H273.854C274.292 18.7604 274.755 18.8229 275.245 18.9375C275.735 19.0417 276.219 19.2083 276.698 19.4375C277.188 19.6667 277.651 19.9583 278.089 20.3125C278.526 20.6562 278.912 21.0729 279.245 21.5625C279.589 22.0521 279.86 22.6146 280.057 23.25C280.255 23.8854 280.354 24.6042 280.354 25.4062ZM309.165 22.9375C309.165 24.3021 308.931 25.5573 308.462 26.7031C307.993 27.849 307.342 28.8385 306.509 29.6719C305.675 30.5052 304.686 31.1562 303.54 31.625C302.405 32.0833 301.165 32.3125 299.821 32.3125H294.321C292.978 32.3125 291.733 32.0833 290.587 31.625C289.441 31.1562 288.451 30.5052 287.618 29.6719C286.785 28.8385 286.129 27.849 285.649 26.7031C285.181 25.5573 284.946 24.3021 284.946 22.9375V18.6562C284.946 17.3021 285.181 16.0521 285.649 14.9062C286.129 13.75 286.785 12.7604 287.618 11.9375C288.451 11.1042 289.441 10.4531 290.587 9.98438C291.733 9.51562 292.978 9.28125 294.321 9.28125H299.821C301.165 9.28125 302.405 9.51562 303.54 9.98438C304.686 10.4531 305.675 11.1042 306.509 11.9375C307.342 12.7604 307.993 13.75 308.462 14.9062C308.931 16.0521 309.165 17.3021 309.165 18.6562V22.9375ZM305.103 18.6562C305.103 17.8542 304.972 17.1302 304.712 16.4844C304.462 15.8281 304.103 15.2708 303.634 14.8125C303.175 14.3438 302.618 13.9844 301.962 13.7344C301.316 13.474 300.603 13.3438 299.821 13.3438H294.321C293.53 13.3438 292.806 13.474 292.149 13.7344C291.504 13.9844 290.946 14.3438 290.478 14.8125C290.009 15.2708 289.644 15.8281 289.384 16.4844C289.134 17.1302 289.009 17.8542 289.009 18.6562V22.9375C289.009 23.7396 289.134 24.4688 289.384 25.125C289.644 25.7708 290.009 26.3281 290.478 26.7969C290.946 27.2552 291.504 27.6146 292.149 27.875C292.806 28.125 293.53 28.25 294.321 28.25H299.79C300.582 28.25 301.3 28.125 301.946 27.875C302.603 27.6146 303.165 27.2552 303.634 26.7969C304.103 26.3281 304.462 25.7708 304.712 25.125C304.972 24.4688 305.103 23.7396 305.103 22.9375V18.6562ZM337.491 30.2656C337.491 30.5573 337.434 30.8281 337.319 31.0781C337.215 31.3281 337.069 31.5469 336.882 31.7344C336.705 31.9115 336.491 32.0521 336.241 32.1562C335.991 32.2604 335.726 32.3125 335.444 32.3125C335.194 32.3125 334.939 32.2656 334.679 32.1719C334.429 32.0781 334.205 31.9271 334.007 31.7188L319.163 16.2188V32H315.101V11.3281C315.101 10.9115 315.215 10.5365 315.444 10.2031C315.684 9.85938 315.986 9.60417 316.351 9.4375C316.736 9.28125 317.132 9.24479 317.538 9.32812C317.944 9.40104 318.293 9.58854 318.585 9.89062L333.429 25.375V9.59375H337.491V30.2656Z"/>
    </mask>
    <path d="M28.4375 32V33H29.4375V32H28.4375ZM24.3438 32H23.3438V33H24.3438V32ZM24.3438 18.6562H25.3438V14.8735L23.4744 18.1621L24.3438 18.6562ZM17.1406 31.3281L16.2713 30.834L16.2675 30.8406L16.2638 30.8473L17.1406 31.3281ZM16.3906 32.0625L15.9319 31.1738L15.92 31.1801L16.3906 32.0625ZM14.375 32.0625L13.8919 32.9381L13.8981 32.9415L13.9044 32.9449L14.375 32.0625ZM13.6562 31.3281L14.5331 30.8473L14.5289 30.8398L14.5247 30.8323L13.6562 31.3281ZM6.42188 18.6562L7.29032 18.1605L5.42188 14.8877V18.6562H6.42188ZM6.42188 32V33H7.42188V32H6.42188ZM2.35938 32H1.35938V33H2.35938V32ZM2.76562 10.0781L1.97384 9.46732L1.9683 9.47451L1.96288 9.4818L2.76562 10.0781ZM3.85938 9.34375L3.62775 8.37094L3.60907 8.37539L3.59058 8.38055L3.85938 9.34375ZM4.51562 9.29688L4.42082 10.2924L4.4444 10.2946L4.46806 10.2957L4.51562 9.29688ZM5.14062 9.4375L4.75257 10.3591L4.78108 10.3711L4.81027 10.3814L5.14062 9.4375ZM5.70312 9.76562L5.04462 10.5182L5.05836 10.5302L5.07253 10.5417L5.70312 9.76562ZM6.125 10.2656L6.99179 9.76695L6.99043 9.76459L6.125 10.2656ZM15.375 26.3438L14.5082 26.8424L15.375 28.3491L16.2418 26.8424L15.375 26.3438ZM24.625 10.2656L23.7695 9.74782L23.7638 9.75732L23.7582 9.76695L24.625 10.2656ZM25.6094 9.42188L25.2458 8.49026L25.238 8.4934L25.6094 9.42188ZM26.9375 9.34375L27.2122 8.38223L27.1962 8.37765L27.18 8.37361L26.9375 9.34375ZM28.4375 31H24.3438V33H28.4375V31ZM25.3438 32V18.6562H23.3438V32H25.3438ZM23.4744 18.1621L16.2713 30.834L18.01 31.8223L25.2131 19.1504L23.4744 18.1621ZM16.2638 30.8473C16.1811 30.9982 16.0755 31.0998 15.932 31.1739L16.8493 32.9511C17.3516 32.6919 17.746 32.3039 18.0174 31.809L16.2638 30.8473ZM15.92 31.1801C15.7567 31.2672 15.5805 31.3125 15.375 31.3125V33.3125C15.8987 33.3125 16.3995 33.1911 16.8612 32.9449L15.92 31.1801ZM15.375 31.3125C15.185 31.3125 15.0133 31.2696 14.8456 31.1801L13.9044 32.9449C14.3617 33.1888 14.8567 33.3125 15.375 33.3125V31.3125ZM14.8581 31.1869C14.7333 31.1181 14.6254 31.0157 14.5331 30.8473L12.7794 31.809C13.0413 32.2864 13.4125 32.6736 13.8919 32.9381L14.8581 31.1869ZM14.5247 30.8323L7.29032 18.1605L5.55343 19.152L12.7878 31.8239L14.5247 30.8323ZM5.42188 18.6562V32H7.42188V18.6562H5.42188ZM6.42188 31H2.35938V33H6.42188V31ZM3.35938 32V11.3281H1.35938V32H3.35938ZM3.35938 11.3281C3.35938 11.0668 3.42997 10.8608 3.56837 10.6744L1.96288 9.4818C1.55962 10.0247 1.35938 10.652 1.35938 11.3281H3.35938ZM3.55741 10.6889C3.70549 10.497 3.8858 10.3746 4.12817 10.3069L3.59058 8.38055C2.93711 8.56291 2.38826 8.93012 1.97384 9.46732L3.55741 10.6889ZM4.091 10.3166C4.20545 10.2893 4.31394 10.2822 4.42082 10.2924L4.61043 8.30138C4.27981 8.26989 3.9508 8.29403 3.62775 8.37094L4.091 10.3166ZM4.46806 10.2957C4.57202 10.3007 4.6649 10.3222 4.75257 10.3591L5.52868 8.51586C5.22052 8.38611 4.89673 8.31389 4.56319 8.29801L4.46806 10.2957ZM4.81027 10.3814C4.89759 10.4119 4.97378 10.4562 5.04462 10.5182L6.36163 9.01305C6.09913 8.78336 5.80032 8.60891 5.47098 8.49364L4.81027 10.3814ZM5.07253 10.5417C5.13886 10.5956 5.20191 10.6671 5.25957 10.7667L6.99043 9.76459C6.81893 9.46836 6.60072 9.20645 6.33372 8.98951L5.07253 10.5417ZM5.25821 10.7643L14.5082 26.8424L16.2418 25.8451L6.99179 9.76695L5.25821 10.7643ZM16.2418 26.8424L25.4918 10.7643L23.7582 9.76695L14.5082 25.8451L16.2418 26.8424ZM25.4805 10.7834C25.6114 10.5672 25.7724 10.4337 25.9808 10.3504L25.238 8.4934C24.613 8.74339 24.1178 9.17235 23.7695 9.74782L25.4805 10.7834ZM25.9729 10.3535C26.2007 10.2646 26.4312 10.248 26.695 10.3139L27.18 8.37361C26.5271 8.21038 25.8723 8.24584 25.2458 8.4903L25.9729 10.3535ZM26.6628 10.3053C26.8923 10.3708 27.0714 10.4913 27.2238 10.6889L28.8074 9.46732C28.3974 8.93579 27.8577 8.56666 27.2122 8.38223L26.6628 10.3053ZM27.2238 10.6889C27.3675 10.8751 27.4375 11.0761 27.4375 11.3281H29.4375C29.4375 10.6427 29.2263 10.0103 28.8074 9.46732L27.2238 10.6889ZM27.4375 11.3281V32H29.4375V11.3281H27.4375ZM53.5137 22.8438V23.8438H54.5137V22.8438H53.5137ZM40.6856 22.8438H39.6856V23.8438H40.6856V22.8438ZM40.6856 18.75V17.75H39.6856V18.75H40.6856ZM53.5137 18.75H54.5137V17.75H53.5137V18.75ZM55.3419 32V33H56.3419V32H55.3419ZM36.9825 30.7344L36.3508 31.5096L36.3586 31.516L36.3666 31.5222L36.9825 30.7344ZM35.5606 28.9688L34.6713 29.4261L34.6753 29.4337L34.6793 29.4413L35.5606 28.9688ZM35.5762 10.1875L34.8691 9.48039L34.859 9.49049L34.8492 9.50088L35.5762 10.1875ZM55.3419 9.59375H56.3419V8.59375H55.3419V9.59375ZM55.3419 13.6562V14.6562H56.3419V13.6562H55.3419ZM39.0606 13.6562V12.6562H38.0606V13.6562H39.0606ZM55.3419 27.9375H56.3419V26.9375H55.3419V27.9375ZM53.5137 21.8438H40.6856V23.8438H53.5137V21.8438ZM41.6856 22.8438V18.75H39.6856V22.8438H41.6856ZM40.6856 19.75H53.5137V17.75H40.6856V19.75ZM52.5137 18.75V22.8438H54.5137V18.75H52.5137ZM55.3419 31H40.6856V33H55.3419V31ZM40.6856 31C40.2391 31 39.7216 30.9212 39.1265 30.7445L38.5573 32.6618C39.2954 32.8809 40.0072 33 40.6856 33V31ZM39.1265 30.7445C38.5854 30.5839 38.0772 30.3209 37.5984 29.9466L36.3666 31.5222C37.0337 32.0437 37.765 32.4266 38.5573 32.6618L39.1265 30.7445ZM37.6142 29.9591C37.166 29.594 36.7726 29.1129 36.4419 28.4962L34.6793 29.4413C35.1194 30.2621 35.674 30.9581 36.3508 31.5096L37.6142 29.9591ZM36.4499 28.5114C36.1653 27.958 35.9981 27.2336 35.9981 26.2969H33.9981C33.9981 27.4643 34.2059 28.5211 34.6713 29.4261L36.4499 28.5114ZM35.9981 26.2969V11.6406H33.9981V26.2969H35.9981ZM35.9981 11.6406C35.9981 11.4862 36.026 11.3518 36.0774 11.2284L34.2313 10.4591C34.0744 10.8357 33.9981 11.2325 33.9981 11.6406H35.9981ZM36.0774 11.2284C36.1374 11.0844 36.2134 10.9693 36.3033 10.8741L34.8492 9.50088C34.5849 9.78071 34.3796 10.1031 34.2313 10.4591L36.0774 11.2284ZM36.2834 10.8946C36.3765 10.8015 36.485 10.7281 36.6171 10.6731L35.8479 8.82692C35.4799 8.98023 35.151 9.19853 34.8691 9.48039L36.2834 10.8946ZM36.6171 10.6731C36.7361 10.6235 36.8751 10.5938 37.045 10.5938V8.59375C36.6316 8.59375 36.2289 8.66817 35.8479 8.82692L36.6171 10.6731ZM37.045 10.5938H55.3419V8.59375H37.045V10.5938ZM54.3419 9.59375V13.6562H56.3419V9.59375H54.3419ZM55.3419 12.6562H39.0606V14.6562H55.3419V12.6562ZM38.0606 13.6562V26.2969H40.0606V13.6562H38.0606ZM38.0606 26.2969C38.0606 27.0014 38.2503 27.6977 38.7754 28.2227L40.1896 26.8085C40.1522 26.7711 40.0606 26.6548 40.0606 26.2969H38.0606ZM38.7754 28.2227C39.3039 28.7512 40.0084 28.9375 40.7169 28.9375V26.9375C40.342 26.9375 40.2236 26.8425 40.1896 26.8085L38.7754 28.2227ZM40.7169 28.9375H55.3419V26.9375H40.7169V28.9375ZM54.3419 27.9375V32H56.3419V27.9375H54.3419ZM79.6212 22.8438V23.8438H80.6212V22.8438H79.6212ZM66.7931 22.8438H65.7931V23.8438H66.7931V22.8438ZM66.7931 18.75V17.75H65.7931V18.75H66.7931ZM79.6212 18.75H80.6212V17.75H79.6212V18.75ZM81.4494 32V33H82.4494V32H81.4494ZM63.09 30.7344L62.4583 31.5096L62.4661 31.516L62.4741 31.5222L63.09 30.7344ZM61.6681 28.9688L60.7788 29.4261L60.7828 29.4337L60.7868 29.4413L61.6681 28.9688ZM61.6838 10.1875L60.9766 9.48039L60.9665 9.49049L60.9567 9.50088L61.6838 10.1875ZM81.4494 9.59375H82.4494V8.59375H81.4494V9.59375ZM81.4494 13.6562V14.6562H82.4494V13.6562H81.4494ZM65.1681 13.6562V12.6562H64.1681V13.6562H65.1681ZM81.4494 27.9375H82.4494V26.9375H81.4494V27.9375ZM79.6212 21.8438H66.7931V23.8438H79.6212V21.8438ZM67.7931 22.8438V18.75H65.7931V22.8438H67.7931ZM66.7931 19.75H79.6212V17.75H66.7931V19.75ZM78.6212 18.75V22.8438H80.6212V18.75H78.6212ZM81.4494 31H66.7931V33H81.4494V31ZM66.7931 31C66.3466 31 65.8291 30.9212 65.234 30.7445L64.6648 32.6618C65.4029 32.8809 66.1147 33 66.7931 33V31ZM65.234 30.7445C64.6929 30.5839 64.1847 30.3209 63.7059 29.9466L62.4741 31.5222C63.1412 32.0437 63.8725 32.4266 64.6648 32.6618L65.234 30.7445ZM63.7217 29.9591C63.2735 29.594 62.8801 29.1129 62.5494 28.4962L60.7868 29.4413C61.2269 30.2621 61.7815 30.9581 62.4583 31.5096L63.7217 29.9591ZM62.5574 28.5114C62.2728 27.958 62.1056 27.2336 62.1056 26.2969H60.1056C60.1056 27.4643 60.3134 28.5211 60.7788 29.4261L62.5574 28.5114ZM62.1056 26.2969V11.6406H60.1056V26.2969H62.1056ZM62.1056 11.6406C62.1056 11.4862 62.1335 11.3518 62.185 11.2284L60.3388 10.4591C60.1819 10.8357 60.1056 11.2325 60.1056 11.6406H62.1056ZM62.185 11.2284C62.2449 11.0844 62.3209 10.9693 62.4108 10.8741L60.9567 9.50088C60.6925 9.78071 60.4871 10.1031 60.3388 10.4591L62.185 11.2284ZM62.3909 10.8946C62.484 10.8015 62.5925 10.7281 62.7246 10.6731L61.9554 8.82692C61.5875 8.98023 61.2585 9.19853 60.9766 9.48039L62.3909 10.8946ZM62.7246 10.6731C62.8436 10.6235 62.9826 10.5938 63.1525 10.5938V8.59375C62.7391 8.59375 62.3364 8.66817 61.9554 8.82692L62.7246 10.6731ZM63.1525 10.5938H81.4494V8.59375H63.1525V10.5938ZM80.4494 9.59375V13.6562H82.4494V9.59375H80.4494ZM81.4494 12.6562H65.1681V14.6562H81.4494V12.6562ZM64.1681 13.6562V26.2969H66.1681V13.6562H64.1681ZM64.1681 26.2969C64.1681 27.0014 64.3578 27.6977 64.8829 28.2227L66.2971 26.8085C66.2597 26.7711 66.1681 26.6548 66.1681 26.2969H64.1681ZM64.8829 28.2227C65.4114 28.7512 66.1159 28.9375 66.8244 28.9375V26.9375C66.4495 26.9375 66.3311 26.8425 66.2971 26.8085L64.8829 28.2227ZM66.8244 28.9375H81.4494V26.9375H66.8244V28.9375ZM80.4494 27.9375V32H82.4494V27.9375H80.4494ZM107.557 13.6562V14.6562H108.557V13.6562H107.557ZM98.6038 13.6562V12.6562H97.6038V13.6562H98.6038ZM98.6038 32V33H99.6038V32H98.6038ZM94.5413 32H93.5413V33H94.5413V32ZM94.5413 13.6562H95.5413V12.6562H94.5413V13.6562ZM85.5725 13.6562H84.5725V14.6562H85.5725V13.6562ZM85.5725 9.59375V8.59375H84.5725V9.59375H85.5725ZM107.557 9.59375H108.557V8.59375H107.557V9.59375ZM107.557 12.6562H98.6038V14.6562H107.557V12.6562ZM97.6038 13.6562V32H99.6038V13.6562H97.6038ZM98.6038 31H94.5413V33H98.6038V31ZM95.5413 32V13.6562H93.5413V32H95.5413ZM94.5413 12.6562H85.5725V14.6562H94.5413V12.6562ZM86.5725 13.6562V9.59375H84.5725V13.6562H86.5725ZM85.5725 10.5938H107.557V8.59375H85.5725V10.5938ZM106.557 9.59375V13.6562H108.557V9.59375H106.557ZM128.553 32V33H129.553V32H128.553ZM124.491 32H123.491V33H124.491V32ZM124.491 9.59375V8.59375H123.491V9.59375H124.491ZM128.553 9.59375H129.553V8.59375H128.553V9.59375ZM128.553 31H124.491V33H128.553V31ZM125.491 32V9.59375H123.491V32H125.491ZM124.491 10.5938H128.553V8.59375H124.491V10.5938ZM127.553 9.59375V32H129.553V9.59375H127.553ZM157.442 31.0781L156.533 30.6615L156.526 30.6774L156.519 30.6935L157.442 31.0781ZM157.004 31.7344L156.297 31.0273L157.004 31.7344ZM156.364 32.1562L155.979 31.2332L156.364 32.1562ZM154.801 32.1719L154.45 33.1083L154.463 33.1128L154.801 32.1719ZM154.129 31.7188L154.854 31.03L154.852 31.0271L154.129 31.7188ZM139.286 16.2188L140.008 15.5271L138.286 13.7287V16.2188H139.286ZM139.286 32V33H140.286V32H139.286ZM135.223 32H134.223V33H135.223V32ZM135.567 10.2031L134.746 9.63132L134.743 9.6366L135.567 10.2031ZM136.473 9.4375L136.097 8.51076L136.077 8.51896L136.057 8.52803L136.473 9.4375ZM137.661 9.32812L137.46 10.3077L137.472 10.3102L137.484 10.3124L137.661 9.32812ZM138.708 9.89062L139.429 9.1986L139.427 9.19603L138.708 9.89062ZM153.551 25.375L152.829 26.067L154.551 27.8632V25.375H153.551ZM153.551 9.59375V8.59375H152.551V9.59375H153.551ZM157.614 9.59375H158.614V8.59375H157.614V9.59375ZM156.614 30.2656C156.614 30.4224 156.584 30.55 156.533 30.6615L158.351 31.4948C158.529 31.1062 158.614 30.6922 158.614 30.2656H156.614ZM156.519 30.6935C156.464 30.8256 156.39 30.9341 156.297 31.0273L157.711 32.4415C157.993 32.1596 158.212 31.8307 158.365 31.4627L156.519 30.6935ZM156.297 31.0273C156.22 31.1047 156.118 31.1751 155.979 31.2332L156.748 33.0793C157.109 32.9291 157.435 32.7182 157.711 32.4415L156.297 31.0273ZM155.979 31.2332C155.856 31.2846 155.721 31.3125 155.567 31.3125V33.3125C155.975 33.3125 156.372 33.2362 156.748 33.0793L155.979 31.2332ZM155.567 31.3125C155.444 31.3125 155.303 31.2898 155.14 31.231L154.463 33.1128C154.82 33.2415 155.19 33.3125 155.567 33.3125V31.3125ZM155.152 31.2355C155.055 31.1989 154.956 31.1371 154.854 31.03L153.404 32.4075C153.698 32.7171 154.048 32.9573 154.45 33.1082L155.152 31.2355ZM154.852 31.0271L140.008 15.5271L138.563 16.9104L153.407 32.4104L154.852 31.0271ZM138.286 16.2188V32H140.286V16.2188H138.286ZM139.286 31H135.223V33H139.286V31ZM136.223 32V11.3281H134.223V32H136.223ZM136.223 11.3281C136.223 11.1073 136.28 10.931 136.391 10.7697L134.743 9.6366C134.395 10.1419 134.223 10.7156 134.223 11.3281H136.223ZM136.387 10.7749C136.529 10.571 136.694 10.4359 136.889 10.347L136.057 8.52803C135.523 8.77248 135.083 9.14779 134.746 9.63133L136.387 10.7749ZM136.849 10.3642C137.052 10.2819 137.247 10.2641 137.46 10.3077L137.862 8.34852C137.262 8.22543 136.665 8.28063 136.097 8.51076L136.849 10.3642ZM137.484 10.3124C137.68 10.3475 137.84 10.4315 137.988 10.5852L139.427 9.19603C138.992 8.74557 138.454 8.45459 137.837 8.34385L137.484 10.3124ZM137.986 10.5826L152.829 26.067L154.273 24.683L139.429 9.19861L137.986 10.5826ZM154.551 25.375V9.59375H152.551V25.375H154.551ZM153.551 10.5938H157.614V8.59375H153.551V10.5938ZM156.614 9.59375V30.2656H158.614V9.59375H156.614ZM197.641 23.3906L196.823 22.8151L196.821 22.8182L197.641 23.3906ZM194.688 25.7812L194.282 24.8674L194.276 24.8703L194.688 25.7812ZM193.001 26.3281L192.805 25.3475L192.801 25.3482L193.001 26.3281ZM182.219 26.5H181.219V27.5H182.219V26.5ZM182.219 22.4375V21.4375H181.219V22.4375H182.219ZM191.407 22.4375V23.4375H191.447L191.487 23.4343L191.407 22.4375ZM192.813 22.125L193.185 23.0536L193.196 23.0487L192.813 22.125ZM194.61 20.375L195.535 20.7546L195.538 20.7464L194.61 20.375ZM194.86 17.125H195.86V17.0741L195.855 17.0235L194.86 17.125ZM194.532 15.7188L195.463 15.3552L194.532 15.7188ZM193.844 14.625L193.112 15.3064L193.119 15.3131L193.125 15.3196L193.844 14.625ZM192.813 13.9219L192.414 14.8386L192.424 14.8429L192.434 14.847L192.813 13.9219ZM180.594 32V33H181.594V32H180.594ZM176.532 32H175.532V33H176.532V32ZM177.094 12.6406L176.21 12.1733L176.205 12.1833L177.094 12.6406ZM178.516 10.875L177.9 10.0872L177.893 10.0927L178.516 10.875ZM180.376 9.90625L180.66 10.8649L180.667 10.8629L180.674 10.8607L180.376 9.90625ZM193.876 9.95312L193.563 10.9032L193.576 10.9071L193.876 9.95312ZM195.798 10.8906L195.215 11.7033L195.223 11.7095L195.232 11.7156L195.798 10.8906ZM197.219 12.2344L196.421 12.837L196.429 12.8472L197.219 12.2344ZM198.188 13.8438L197.274 14.2499L197.279 14.2602L197.284 14.2704L198.188 13.8438ZM198.751 15.5312L197.77 15.7274L197.771 15.7309L198.751 15.5312ZM197.923 18.9688C197.923 19.815 197.818 20.5392 197.625 21.1533L199.533 21.753C199.798 20.9087 199.923 19.9767 199.923 18.9688H197.923ZM197.625 21.1533C197.423 21.7949 197.154 22.3458 196.823 22.8151L198.459 23.9661C198.92 23.3105 199.276 22.5696 199.533 21.753L197.625 21.1533ZM196.821 22.8182C196.491 23.2912 196.112 23.6908 195.685 24.0223L196.91 25.6027C197.504 25.1426 198.021 24.5942 198.461 23.963L196.821 22.8182ZM195.685 24.0223C195.235 24.3712 194.767 24.6517 194.282 24.8674L195.094 26.6951C195.734 26.4108 196.339 26.0455 196.91 25.6027L195.685 24.0223ZM194.276 24.8703C193.79 25.0901 193.3 25.2484 192.805 25.3475L193.197 27.3087C193.847 27.1787 194.482 26.9724 195.101 26.6922L194.276 24.8703ZM192.801 25.3482C192.295 25.4514 191.831 25.5 191.407 25.5V27.5C191.983 27.5 192.581 27.434 193.2 27.308L192.801 25.3482ZM191.407 25.5H182.219V27.5H191.407V25.5ZM183.219 26.5V22.4375H181.219V26.5H183.219ZM182.219 23.4375H191.407V21.4375H182.219V23.4375ZM191.487 23.4343C192.092 23.3859 192.661 23.263 193.185 23.0535L192.442 21.1965C192.132 21.3204 191.764 21.4057 191.327 21.4407L191.487 23.4343ZM193.196 23.0487C193.727 22.8285 194.201 22.5284 194.601 22.1413L193.212 20.7025C193.009 20.8987 192.753 21.0673 192.43 21.2013L193.196 23.0487ZM194.601 22.1413C195.008 21.7491 195.318 21.2828 195.535 20.7546L193.685 19.9954C193.568 20.2797 193.41 20.5113 193.212 20.7025L194.601 22.1413ZM195.538 20.7464C195.759 20.1942 195.86 19.5966 195.86 18.9688H193.86C193.86 19.3825 193.794 19.7224 193.682 20.0036L195.538 20.7464ZM195.86 18.9688V17.125H193.86V18.9688H195.86ZM195.855 17.0235C195.795 16.4338 195.667 15.8757 195.463 15.3552L193.6 16.0823C193.731 16.416 193.821 16.7954 193.865 17.2265L195.855 17.0235ZM195.463 15.3552C195.253 14.8162 194.956 14.3361 194.564 13.9304L193.125 15.3196C193.317 15.518 193.477 15.7671 193.6 16.0823L195.463 15.3552ZM194.576 13.9436C194.19 13.5291 193.724 13.2146 193.193 12.9967L192.434 14.847C192.715 14.9624 192.936 15.1168 193.112 15.3064L194.576 13.9436ZM193.213 13.0052C192.658 12.7634 192.049 12.6562 191.407 12.6562V14.6562C191.827 14.6562 192.156 14.7262 192.414 14.8386L193.213 13.0052ZM191.407 12.6562H182.251V14.6562H191.407V12.6562ZM182.251 12.6562C181.542 12.6562 180.838 12.8425 180.309 13.371L181.723 14.7852C181.757 14.7512 181.876 14.6562 182.251 14.6562V12.6562ZM180.309 13.371C179.784 13.8961 179.594 14.5923 179.594 15.2969H181.594C181.594 14.9389 181.686 14.8227 181.723 14.7852L180.309 13.371ZM179.594 15.2969V32H181.594V15.2969H179.594ZM180.594 31H176.532V33H180.594V31ZM177.532 32V15.2969H175.532V32H177.532ZM177.532 15.2969C177.532 14.3724 177.698 13.6526 177.984 13.098L176.205 12.1833C175.74 13.087 175.532 14.138 175.532 15.2969H177.532ZM177.978 13.1079C178.309 12.4828 178.699 12.0076 179.139 11.6573L177.893 10.0927C177.208 10.6382 176.651 11.3401 176.21 12.1733L177.978 13.1079ZM179.132 11.6628C179.611 11.2885 180.119 11.0255 180.66 10.8649L180.091 8.9476C179.299 9.18282 178.567 9.56565 177.9 10.0872L179.132 11.6628ZM180.674 10.8607C181.266 10.6756 181.779 10.5938 182.219 10.5938V8.59375C181.535 8.59375 180.818 8.72024 180.077 8.95177L180.674 10.8607ZM182.219 10.5938H191.407V8.59375H182.219V10.5938ZM191.407 10.5938C192.237 10.5938 192.952 10.7024 193.563 10.9032L194.188 9.00309C193.34 8.7247 192.41 8.59375 191.407 8.59375V10.5938ZM193.576 10.9071C194.216 11.1084 194.759 11.3765 195.215 11.7033L196.38 10.0779C195.732 9.61309 194.993 9.25617 194.175 8.99913L193.576 10.9071ZM195.232 11.7156C195.712 12.044 196.105 12.4183 196.421 12.837L198.017 11.6318C197.563 11.0296 197.008 10.5081 196.363 10.0657L195.232 11.7156ZM196.429 12.8472C196.778 13.2971 197.059 13.7646 197.274 14.2499L199.102 13.4376C198.818 12.7979 198.452 12.1925 198.01 11.6216L196.429 12.8472ZM197.284 14.2704C197.511 14.7523 197.672 15.2376 197.77 15.7274L199.731 15.3351C199.6 14.6791 199.386 14.0394 199.093 13.4171L197.284 14.2704ZM197.771 15.7309C197.874 16.2371 197.923 16.701 197.923 17.125H199.923C199.923 16.549 199.857 15.9504 199.73 15.3316L197.771 15.7309ZM197.923 17.125V18.9688H199.923V17.125H197.923ZM222.749 22.8438V23.8438H223.749V22.8438H222.749ZM209.921 22.8438H208.921V23.8438H209.921V22.8438ZM209.921 18.75V17.75H208.921V18.75H209.921ZM222.749 18.75H223.749V17.75H222.749V18.75ZM224.577 32V33H225.577V32H224.577ZM206.217 30.7344L205.586 31.5096L205.594 31.516L205.602 31.5222L206.217 30.7344ZM204.796 28.9688L203.906 29.4261L203.91 29.4337L203.914 29.4413L204.796 28.9688ZM204.811 10.1875L204.104 9.48039L204.094 9.49049L204.084 9.50088L204.811 10.1875ZM224.577 9.59375H225.577V8.59375H224.577V9.59375ZM224.577 13.6562V14.6562H225.577V13.6562H224.577ZM208.296 13.6562V12.6562H207.296V13.6562H208.296ZM224.577 27.9375H225.577V26.9375H224.577V27.9375ZM222.749 21.8438H209.921V23.8438H222.749V21.8438ZM210.921 22.8438V18.75H208.921V22.8438H210.921ZM209.921 19.75H222.749V17.75H209.921V19.75ZM221.749 18.75V22.8438H223.749V18.75H221.749ZM224.577 31H209.921V33H224.577V31ZM209.921 31C209.474 31 208.957 30.9212 208.361 30.7445L207.792 32.6618C208.53 32.8809 209.242 33 209.921 33V31ZM208.361 30.7445C207.82 30.5839 207.312 30.3209 206.833 29.9466L205.602 31.5222C206.269 32.0437 207 32.4266 207.792 32.6618L208.361 30.7445ZM206.849 29.9591C206.401 29.594 206.008 29.1129 205.677 28.4962L203.914 29.4413C204.354 30.2621 204.909 30.9581 205.586 31.5096L206.849 29.9591ZM205.685 28.5114C205.4 27.958 205.233 27.2336 205.233 26.2969H203.233C203.233 27.4643 203.441 28.5211 203.906 29.4261L205.685 28.5114ZM205.233 26.2969V11.6406H203.233V26.2969H205.233ZM205.233 11.6406C205.233 11.4862 205.261 11.3518 205.312 11.2284L203.466 10.4591C203.309 10.8357 203.233 11.2325 203.233 11.6406H205.233ZM205.312 11.2284C205.372 11.0844 205.448 10.9693 205.538 10.8741L204.084 9.50088C203.82 9.78071 203.615 10.1031 203.466 10.4591L205.312 11.2284ZM205.518 10.8946C205.611 10.8015 205.72 10.7281 205.852 10.6731L205.083 8.82692C204.715 8.98023 204.386 9.19853 204.104 9.48039L205.518 10.8946ZM205.852 10.6731C205.971 10.6235 206.11 10.5938 206.28 10.5938V8.59375C205.867 8.59375 205.464 8.66817 205.083 8.82692L205.852 10.6731ZM206.28 10.5938H224.577V8.59375H206.28V10.5938ZM223.577 9.59375V13.6562H225.577V9.59375H223.577ZM224.577 12.6562H208.296V14.6562H224.577V12.6562ZM207.296 13.6562V26.2969H209.296V13.6562H207.296ZM207.296 26.2969C207.296 27.0014 207.485 27.6977 208.01 28.2227L209.425 26.8085C209.387 26.7711 209.296 26.6548 209.296 26.2969H207.296ZM208.01 28.2227C208.539 28.7512 209.243 28.9375 209.952 28.9375V26.9375C209.577 26.9375 209.459 26.8425 209.425 26.8085L208.01 28.2227ZM209.952 28.9375H224.577V26.9375H209.952V28.9375ZM223.577 27.9375V32H225.577V27.9375H223.577ZM251.544 21.5469L250.726 20.9714L250.724 20.9745L251.544 21.5469ZM248.591 23.9531L249.003 24.8641L249.011 24.8606L248.591 23.9531ZM246.903 24.5L246.707 23.5194L246.704 23.5201L246.903 24.5ZM245.309 24.6719V23.6719H242.622L244.656 25.4287L245.309 24.6719ZM253.794 32V33H256.481L254.447 31.2432L253.794 32ZM247.512 32L246.858 32.7562L247.14 33H247.512V32ZM239.044 24.6719L239.698 23.9157L239.416 23.6719H239.044V24.6719ZM236.122 24.6719H235.122V25.6719H236.122V24.6719ZM236.122 20.6094V19.6094H235.122V20.6094H236.122ZM245.309 20.6094V21.6094H245.35L245.391 21.6061L245.309 20.6094ZM246.7 20.2969L247.071 21.2254L247.083 21.2206L246.7 20.2969ZM247.794 19.5938L247.111 18.8627L247.105 18.8685L247.099 18.8743L247.794 19.5938ZM248.512 18.5469L249.438 18.9264L249.441 18.9183L248.512 18.5469ZM248.669 14.0469L247.746 14.4315L247.766 14.4798L247.791 14.5257L248.669 14.0469ZM248.45 13.7812L247.85 14.5813L247.905 14.6222L247.964 14.6554L248.45 13.7812ZM248.169 13.6719L248.058 14.6658L248.069 14.6669L248.169 13.6719ZM234.497 13.6562V12.6562H233.497V13.6562H234.497ZM234.497 32V33H235.497V32H234.497ZM230.434 32H229.434V33H230.434V32ZM231.012 10.1875L230.305 9.48039L230.295 9.49049L230.285 9.50088L231.012 10.1875ZM250.2 10.0938L249.729 10.9762L249.741 10.9822L250.2 10.0938ZM251.716 11.3281L250.924 11.9386L250.931 11.9478L250.938 11.9568L251.716 11.3281ZM252.559 12.9219L251.599 13.2012L251.602 13.2092L251.604 13.2172L252.559 12.9219ZM251.825 17.125C251.825 17.9713 251.72 18.6955 251.527 19.3095L253.435 19.9092C253.701 19.0649 253.825 18.1329 253.825 17.125H251.825ZM251.527 19.3095C251.326 19.9512 251.056 20.502 250.726 20.9714L252.362 22.1224C252.823 21.4667 253.179 20.7259 253.435 19.9092L251.527 19.3095ZM250.724 20.9745C250.394 21.4474 250.015 21.847 249.587 22.1785L250.813 23.759C251.406 23.2988 251.923 22.7505 252.364 22.1193L250.724 20.9745ZM249.587 22.1785C249.134 22.5301 248.662 22.8182 248.171 23.0457L249.011 24.8606C249.645 24.5672 250.245 24.1991 250.813 23.759L249.587 22.1785ZM248.178 23.0422C247.693 23.262 247.203 23.4203 246.707 23.5194L247.099 25.4806C247.749 25.3505 248.384 25.1443 249.003 24.8641L248.178 23.0422ZM246.704 23.5201C246.197 23.6232 245.733 23.6719 245.309 23.6719V25.6719C245.885 25.6719 246.484 25.6059 247.103 25.4799L246.704 23.5201ZM244.656 25.4287L253.14 32.7568L254.447 31.2432L245.963 23.9151L244.656 25.4287ZM253.794 31H247.512V33H253.794V31ZM248.167 31.2438L239.698 23.9157L238.389 25.4281L246.858 32.7562L248.167 31.2438ZM239.044 23.6719H236.122V25.6719H239.044V23.6719ZM237.122 24.6719V20.6094H235.122V24.6719H237.122ZM236.122 21.6094H245.309V19.6094H236.122V21.6094ZM245.391 21.6061C245.987 21.5574 246.55 21.4339 247.071 21.2254L246.329 19.3684C246.017 19.4932 245.653 19.578 245.228 19.6127L245.391 21.6061ZM247.083 21.2206C247.614 21.0004 248.087 20.7002 248.488 20.3132L247.099 18.8743C246.896 19.0706 246.64 19.2392 246.317 19.3731L247.083 21.2206ZM248.476 20.3248C248.897 19.9321 249.218 19.4622 249.438 18.9264L247.587 18.1673C247.474 18.444 247.316 18.6721 247.111 18.8627L248.476 20.3248ZM249.441 18.9183C249.663 18.3639 249.762 17.7605 249.762 17.125H247.762C247.762 17.552 247.696 17.8965 247.584 18.1755L249.441 18.9183ZM249.762 17.125V14.5625H247.762V17.125H249.762ZM249.762 14.5625C249.762 14.2752 249.729 13.9022 249.547 13.568L247.791 14.5257C247.773 14.4933 247.764 14.4681 247.759 14.4546C247.755 14.441 247.754 14.4355 247.755 14.4406C247.756 14.4455 247.758 14.4579 247.76 14.4791C247.761 14.5001 247.762 14.5276 247.762 14.5625H249.762ZM249.592 13.6623C249.476 13.3851 249.273 13.0945 248.936 12.9071L247.964 14.6554C247.814 14.5722 247.757 14.4587 247.746 14.4315L249.592 13.6623ZM249.05 12.9812C248.82 12.8087 248.553 12.7053 248.268 12.6768L248.069 14.6669C248.035 14.6635 247.996 14.6549 247.955 14.639C247.914 14.6231 247.879 14.6027 247.85 14.5813L249.05 12.9812ZM248.279 12.678C248.153 12.664 248.028 12.6562 247.903 12.6562V14.6562C247.945 14.6562 247.997 14.6589 248.058 14.6658L248.279 12.678ZM247.903 12.6562H234.497V14.6562H247.903V12.6562ZM233.497 13.6562V32H235.497V13.6562H233.497ZM234.497 31H230.434V33H234.497V31ZM231.434 32V11.6406H229.434V32H231.434ZM231.434 11.6406C231.434 11.4862 231.462 11.3518 231.514 11.2284L229.668 10.4591C229.511 10.8357 229.434 11.2325 229.434 11.6406H231.434ZM231.514 11.2284C231.574 11.0844 231.65 10.9693 231.74 10.8741L230.285 9.50088C230.021 9.78071 229.816 10.1031 229.668 10.4591L231.514 11.2284ZM231.72 10.8946C231.813 10.8015 231.921 10.7281 232.053 10.6731L231.284 8.82692C230.916 8.98023 230.587 9.19853 230.305 9.48039L231.72 10.8946ZM232.053 10.6731C232.172 10.6235 232.311 10.5938 232.481 10.5938V8.59375C232.068 8.59375 231.665 8.66817 231.284 8.82692L232.053 10.6731ZM232.481 10.5938H247.903V8.59375H232.481V10.5938ZM247.903 10.5938C248.69 10.5938 249.284 10.7386 249.729 10.9761L250.671 9.2114C249.866 8.78222 248.929 8.59375 247.903 8.59375V10.5938ZM249.741 10.9822C250.251 11.2457 250.637 11.5672 250.924 11.9386L252.508 10.7176C252.023 10.0891 251.399 9.58767 250.659 9.20532L249.741 10.9822ZM250.938 11.9568C251.255 12.349 251.472 12.7627 251.599 13.2012L253.52 12.6425C253.314 11.9353 252.968 11.2864 252.493 10.6994L250.938 11.9568ZM251.604 13.2172C251.757 13.7129 251.825 14.149 251.825 14.5312H253.825C253.825 13.9135 253.716 13.2767 253.515 12.6266L251.604 13.2172ZM251.825 14.5312V17.125H253.825V14.5312H251.825ZM280.042 27.5781L279.09 27.2711L279.087 27.2807L280.042 27.5781ZM275.214 31.8438L275.01 30.8648L275.006 30.8656L275.214 31.8438ZM258.151 32H257.151V33H258.151V32ZM258.151 27.9375V26.9375H257.151V27.9375H258.151ZM275.636 27.25L274.912 26.5595L274.904 26.5683L275.636 27.25ZM275.62 23.5625L274.88 24.2352L274.888 24.2442L274.897 24.253L275.62 23.5625ZM274.839 23.0312L274.456 23.9553L274.467 23.9597L274.839 23.0312ZM262.354 22.5L262.054 23.4539L262.066 23.4575L262.354 22.5ZM260.229 21.3594L259.602 22.1378L259.608 22.1427L260.229 21.3594ZM258.604 19.3125L257.712 19.7641L257.717 19.7728L258.604 19.3125ZM258.604 13.1406L257.717 12.6803L257.714 12.6845L258.604 13.1406ZM260.229 11.0938L260.857 11.8722L260.859 11.871L260.229 11.0938ZM262.354 9.95312L262.643 10.9107L262.655 10.9069L262.354 9.95312ZM278.307 9.59375H279.307V8.59375H278.307V9.59375ZM278.307 13.6562V14.6562H279.307V13.6562H278.307ZM262.667 14.3594L261.936 13.677L261.928 13.6859L262.667 14.3594ZM262.667 18.0781L261.935 18.7599L261.943 18.7685L261.952 18.7769L262.667 18.0781ZM273.854 18.75L273.878 17.7503L273.866 17.75H273.854V18.75ZM275.245 18.9375L275.017 19.9112L275.027 19.9135L275.037 19.9156L275.245 18.9375ZM276.698 19.4375L276.267 20.3397L276.274 20.3432L276.698 19.4375ZM278.089 20.3125L277.46 21.0897L277.465 21.0943L277.471 21.0988L278.089 20.3125ZM279.245 21.5625L278.418 22.1253L278.422 22.1312L278.427 22.1371L279.245 21.5625ZM279.354 25.4062C279.354 26.1225 279.261 26.7406 279.09 27.2711L280.994 27.8851C281.239 27.124 281.354 26.2941 281.354 25.4062H279.354ZM279.087 27.2807C278.915 27.8333 278.69 28.3043 278.418 28.7028L280.072 29.8284C280.467 29.2478 280.773 28.5937 280.997 27.8755L279.087 27.2807ZM278.418 28.7028C278.142 29.1088 277.824 29.4465 277.464 29.7223L278.682 31.3089C279.218 30.8973 279.681 30.4016 280.072 29.8284L278.418 28.7028ZM277.464 29.7223C277.072 30.0234 276.673 30.2645 276.267 30.4497L277.098 32.2691C277.65 32.0168 278.178 31.6954 278.682 31.3089L277.464 29.7223ZM276.267 30.4497C275.854 30.6385 275.435 30.7762 275.01 30.8648L275.418 32.8227C275.993 32.7029 276.553 32.5177 277.098 32.2691L276.267 30.4497ZM275.006 30.8656C274.575 30.9573 274.182 31 273.823 31V33C274.34 33 274.873 32.9385 275.422 32.8219L275.006 30.8656ZM273.823 31H258.151V33H273.823V31ZM259.151 32V27.9375H257.151V32H259.151ZM258.151 28.9375H273.823V26.9375H258.151V28.9375ZM273.823 28.9375C274.809 28.9375 275.706 28.6411 276.367 27.9317L274.904 26.5683C274.711 26.7756 274.4 26.9375 273.823 26.9375V28.9375ZM276.359 27.9405C277.011 27.2575 277.292 26.3753 277.292 25.4062H275.292C275.292 25.9788 275.135 26.3259 274.912 26.5595L276.359 27.9405ZM277.292 25.4062C277.292 24.9285 277.219 24.4666 277.059 24.0307L275.181 24.7193C275.25 24.9084 275.292 25.134 275.292 25.4062H277.292ZM277.059 24.0307C276.899 23.5959 276.662 23.2056 276.343 22.872L274.897 24.253C275.016 24.3778 275.111 24.5291 275.181 24.7193L277.059 24.0307ZM276.36 22.8898C276.041 22.5391 275.651 22.2791 275.21 22.1028L274.467 23.9597C274.652 24.0334 274.782 24.1276 274.88 24.2352L276.36 22.8898ZM275.221 22.1072C274.781 21.9252 274.31 21.8438 273.823 21.8438V23.8438C274.086 23.8438 274.292 23.8873 274.456 23.9553L275.221 22.1072ZM273.823 21.8438H264.479V23.8438H273.823V21.8438ZM264.479 21.8438C263.939 21.8438 263.329 21.7492 262.643 21.5425L262.066 23.4575C262.901 23.7091 263.707 23.8438 264.479 23.8438V21.8438ZM262.655 21.5462C262.017 21.3452 261.416 21.0249 260.851 20.5761L259.608 22.1427C260.355 22.7356 261.171 23.1756 262.054 23.4538L262.655 21.5462ZM260.857 20.581C260.334 20.1588 259.875 19.5909 259.492 18.8522L257.717 19.7728C258.209 20.7216 258.833 21.5183 259.602 22.1378L260.857 20.581ZM259.497 18.8609C259.158 18.1916 258.964 17.3244 258.964 16.2188H256.964C256.964 17.5506 257.197 18.7459 257.712 19.7641L259.497 18.8609ZM258.964 16.2188C258.964 15.1124 259.158 14.2529 259.494 13.5967L257.714 12.6845C257.197 13.6951 256.964 14.8876 256.964 16.2188H258.964ZM259.492 13.6009C259.875 12.8623 260.334 12.2943 260.857 11.8722L259.602 10.3153C258.833 10.9348 258.209 11.7315 257.717 12.6803L259.492 13.6009ZM260.859 11.871C261.42 11.4161 262.014 11.1 262.643 10.9106L262.066 8.99566C261.174 9.26456 260.351 9.70888 259.6 10.3165L260.859 11.871ZM262.655 10.9069C263.338 10.6916 263.944 10.5938 264.479 10.5938V8.59375C263.702 8.59375 262.891 8.73547 262.054 8.99934L262.655 10.9069ZM264.479 10.5938H278.307V8.59375H264.479V10.5938ZM277.307 9.59375V13.6562H279.307V9.59375H277.307ZM278.307 12.6562H264.479V14.6562H278.307V12.6562ZM264.479 12.6562C263.492 12.6562 262.6 12.9652 261.936 13.6771L263.398 15.0417C263.609 14.816 263.925 14.6562 264.479 14.6562V12.6562ZM261.928 13.6859C261.298 14.3767 261.026 15.2552 261.026 16.2188H263.026C263.026 15.6406 263.181 15.2796 263.406 15.0329L261.928 13.6859ZM261.026 16.2188C261.026 17.1876 261.296 18.0736 261.935 18.7599L263.398 17.3964C263.184 17.166 263.026 16.8124 263.026 16.2188H261.026ZM261.952 18.7769C262.619 19.4602 263.506 19.75 264.479 19.75V17.75C263.912 17.75 263.59 17.5919 263.382 17.3794L261.952 18.7769ZM264.479 19.75H273.823V17.75H264.479V19.75ZM273.823 19.75H273.854V17.75H273.823V19.75ZM273.831 19.7497C274.19 19.7583 274.585 19.81 275.017 19.9112L275.473 17.9638C274.926 17.8358 274.394 17.7626 273.878 17.7503L273.831 19.7497ZM275.037 19.9156C275.445 20.0024 275.854 20.1424 276.267 20.3396L277.13 18.5354C276.584 18.2742 276.024 18.081 275.453 17.9594L275.037 19.9156ZM276.274 20.3432C276.687 20.5366 277.082 20.7844 277.46 21.0897L278.718 19.5353C278.22 19.1322 277.688 18.7967 277.122 18.5318L276.274 20.3432ZM277.471 21.0988C277.823 21.3752 278.139 21.715 278.418 22.1253L280.072 20.9997C279.684 20.4308 279.23 19.9373 278.707 19.5262L277.471 21.0988ZM278.427 22.1371C278.704 22.533 278.932 22.9999 279.103 23.5474L281.012 22.9526C280.787 22.2293 280.473 21.5712 280.063 20.9879L278.427 22.1371ZM279.103 23.5474C279.265 24.0691 279.354 24.685 279.354 25.4062H281.354C281.354 24.5233 281.246 23.7017 281.012 22.9526L279.103 23.5474ZM303.54 31.625L303.914 32.5523L303.919 32.5505L303.54 31.625ZM290.587 31.625L290.208 32.5506L290.215 32.5535L290.587 31.625ZM285.649 26.7031L284.724 27.0818L284.727 27.0889L285.649 26.7031ZM285.649 14.9062L284.726 14.5234L284.724 14.5276L285.649 14.9062ZM287.618 11.9375L288.321 12.6491L288.325 12.6446L287.618 11.9375ZM303.54 9.98438L303.158 10.9087L303.161 10.9099L303.54 9.98438ZM306.509 11.9375L305.802 12.6446L305.806 12.649L306.509 11.9375ZM308.462 14.9062L307.535 15.282L307.536 15.2849L308.462 14.9062ZM304.712 16.4844L303.777 16.8404L303.781 16.8494L303.784 16.8583L304.712 16.4844ZM303.634 14.8125L302.919 15.5116L302.927 15.5197L302.935 15.5275L303.634 14.8125ZM301.962 13.7344L301.588 14.6618L301.597 14.6654L301.606 14.6689L301.962 13.7344ZM292.149 13.7344L292.51 14.667L292.518 14.6639L292.149 13.7344ZM290.478 14.8125L291.177 15.5276L291.185 15.5196L290.478 14.8125ZM289.384 16.4844L288.454 16.1155L288.451 16.1234L289.384 16.4844ZM289.384 25.125L288.449 25.481L288.453 25.49L288.456 25.499L289.384 25.125ZM290.478 26.7969L289.77 27.504L289.778 27.5119L290.478 26.7969ZM292.149 27.875L291.775 28.8024L291.784 28.8061L291.793 28.8095L292.149 27.875ZM301.946 27.875L302.307 28.8076L302.315 28.8045L301.946 27.875ZM303.634 26.7969L304.333 27.5119L304.341 27.504L303.634 26.7969ZM304.712 25.125L303.782 24.7561L303.779 24.764L304.712 25.125ZM308.165 22.9375C308.165 24.1855 307.951 25.3106 307.536 26.3245L309.387 27.0818C309.91 25.804 310.165 24.4186 310.165 22.9375H308.165ZM307.536 26.3245C307.115 27.3537 306.536 28.23 305.802 28.9648L307.216 30.379C308.148 29.447 308.871 28.3442 309.387 27.0818L307.536 26.3245ZM305.802 28.9648C305.067 29.6995 304.191 30.2784 303.161 30.6995L303.919 32.5505C305.181 32.0341 306.284 31.3109 307.216 30.379L305.802 28.9648ZM303.166 30.6977C302.16 31.1035 301.049 31.3125 299.821 31.3125V33.3125C301.281 33.3125 302.649 33.0631 303.914 32.5523L303.166 30.6977ZM299.821 31.3125H294.321V33.3125H299.821V31.3125ZM294.321 31.3125C293.093 31.3125 291.976 31.1036 290.958 30.6965L290.215 32.5535C291.49 33.0631 292.862 33.3125 294.321 33.3125V31.3125ZM290.966 30.6995C289.936 30.2784 289.06 29.6995 288.325 28.9648L286.911 30.379C287.843 31.3109 288.946 32.0341 290.208 32.5505L290.966 30.6995ZM288.325 28.9648C287.589 28.2284 287.004 27.3496 286.572 26.3173L284.727 27.0889C285.253 28.3483 285.981 29.4487 286.911 30.379L288.325 28.9648ZM286.575 26.3245C286.16 25.3106 285.946 24.1855 285.946 22.9375H283.946C283.946 24.4186 284.201 25.804 284.724 27.0818L286.575 26.3245ZM285.946 22.9375V18.6562H283.946V22.9375H285.946ZM285.946 18.6562C285.946 17.4197 286.16 16.2997 286.575 15.2849L284.724 14.5276C284.201 15.8045 283.946 17.1845 283.946 18.6562H285.946ZM286.573 15.2891C287.005 14.2475 287.589 13.3719 288.321 12.649L286.915 11.226C285.981 12.1489 285.252 13.2525 284.726 14.5234L286.573 15.2891ZM288.325 12.6446C289.06 11.9099 289.936 11.331 290.966 10.9099L290.208 9.05883C288.946 9.57528 287.843 10.2985 286.911 11.2304L288.325 12.6446ZM290.966 10.9099C291.981 10.4944 293.096 10.2812 294.321 10.2812V8.28125C292.859 8.28125 291.484 8.53685 290.208 9.05883L290.966 10.9099ZM294.321 10.2812H299.821V8.28125H294.321V10.2812ZM299.821 10.2812C301.046 10.2812 302.155 10.4944 303.158 10.9087L303.922 9.06005C302.654 8.53683 301.284 8.28125 299.821 8.28125V10.2812ZM303.161 10.9099C304.191 11.331 305.067 11.9099 305.802 12.6446L307.216 11.2304C306.284 10.2985 305.181 9.57528 303.919 9.05883L303.161 10.9099ZM305.806 12.649C306.536 13.3703 307.114 14.2434 307.535 15.282L309.389 14.5305C308.872 13.2566 308.148 12.1506 307.211 11.226L305.806 12.649ZM307.536 15.2849C307.951 16.2997 308.165 17.4197 308.165 18.6562H310.165C310.165 17.1845 309.91 15.8045 309.387 14.5276L307.536 15.2849ZM308.165 18.6562V22.9375H310.165V18.6562H308.165ZM306.103 18.6562C306.103 17.7453 305.954 16.8917 305.639 16.1104L303.784 16.8583C303.99 17.3687 304.103 17.9631 304.103 18.6562H306.103ZM305.646 16.1284C305.349 15.3466 304.912 14.6641 304.333 14.0975L302.935 15.5275C303.293 15.8775 303.575 16.3096 303.777 16.8404L305.646 16.1284ZM304.349 14.1134C303.782 13.5339 303.1 13.0977 302.318 12.7999L301.606 14.6689C302.137 14.8711 302.569 15.1536 302.919 15.5116L304.349 14.1134ZM302.336 12.8069C301.558 12.4931 300.715 12.3438 299.821 12.3438V14.3438C300.49 14.3438 301.075 14.4548 301.588 14.6618L302.336 12.8069ZM299.821 12.3438H294.321V14.3438H299.821V12.3438ZM294.321 12.3438C293.419 12.3438 292.568 12.4926 291.781 12.8049L292.518 14.6639C293.044 14.4553 293.641 14.3438 294.321 14.3438V12.3438ZM291.788 12.8018C291.019 13.0998 290.342 13.5338 289.77 14.1054L291.185 15.5196C291.551 15.1537 291.988 14.869 292.51 14.6669L291.788 12.8018ZM289.778 14.0975C289.202 14.6612 288.762 15.3392 288.454 16.1155L290.313 16.8532C290.526 16.3171 290.816 15.8805 291.177 15.5275L289.778 14.0975ZM288.451 16.1234C288.15 16.901 288.009 17.75 288.009 18.6562H290.009C290.009 17.9584 290.117 17.3594 290.316 16.8454L288.451 16.1234ZM288.009 18.6562V22.9375H290.009V18.6562H288.009ZM288.009 22.9375C288.009 23.8441 288.15 24.6961 288.449 25.481L290.318 24.769C290.117 24.2414 290.009 23.635 290.009 22.9375H288.009ZM288.456 25.499C288.764 26.2631 289.202 26.9354 289.77 27.504L291.185 26.0898C290.816 25.7209 290.524 25.2785 290.311 24.751L288.456 25.499ZM289.778 27.5119C290.346 28.0672 291.016 28.4962 291.775 28.8024L292.523 26.9476C291.991 26.7329 291.546 26.4432 291.177 26.0819L289.778 27.5119ZM291.793 28.8095C292.577 29.108 293.423 29.25 294.321 29.25V27.25C293.636 27.25 293.034 27.142 292.505 26.9405L291.793 28.8095ZM294.321 29.25H299.79V27.25H294.321V29.25ZM299.79 29.25C300.688 29.25 301.531 29.108 302.307 28.8076L301.585 26.9424C301.07 27.142 300.476 27.25 299.79 27.25V29.25ZM302.315 28.8045C303.085 28.499 303.762 28.0698 304.333 27.5119L302.935 26.0819C302.568 26.4406 302.12 26.7302 301.577 26.9455L302.315 28.8045ZM304.341 27.504C304.912 26.9324 305.346 26.2557 305.644 25.486L303.779 24.764C303.577 25.286 303.293 25.7238 302.927 26.0898L304.341 27.504ZM305.641 25.4938C305.954 24.7053 306.103 23.8488 306.103 22.9375H304.103C304.103 23.6303 303.99 24.2322 303.782 24.7562L305.641 25.4938ZM306.103 22.9375V18.6562H304.103V22.9375H306.103ZM337.319 31.0781L336.41 30.6615L336.403 30.6774L336.396 30.6935L337.319 31.0781ZM336.882 31.7344L336.175 31.0273L336.882 31.7344ZM336.241 32.1562L335.857 31.2332L336.241 32.1562ZM334.679 32.1719L334.328 33.1083L334.34 33.1128L334.679 32.1719ZM334.007 31.7188L334.732 31.03L334.729 31.0271L334.007 31.7188ZM319.163 16.2188L319.885 15.5271L318.163 13.7287V16.2188H319.163ZM319.163 32V33H320.163V32H319.163ZM315.101 32H314.101V33H315.101V32ZM315.444 10.2031L314.624 9.63132L314.62 9.6366L315.444 10.2031ZM316.351 9.4375L315.975 8.51076L315.955 8.51896L315.935 8.52803L316.351 9.4375ZM317.538 9.32812L317.337 10.3077L317.349 10.3102L317.361 10.3124L317.538 9.32812ZM318.585 9.89062L319.307 9.1986L319.304 9.19603L318.585 9.89062ZM333.429 25.375L332.707 26.067L334.429 27.8632V25.375H333.429ZM333.429 9.59375V8.59375H332.429V9.59375H333.429ZM337.491 9.59375H338.491V8.59375H337.491V9.59375ZM336.491 30.2656C336.491 30.4224 336.461 30.55 336.41 30.6615L338.228 31.4948C338.407 31.1062 338.491 30.6922 338.491 30.2656H336.491ZM336.396 30.6935C336.341 30.8256 336.268 30.9341 336.175 31.0273L337.589 32.4415C337.871 32.1596 338.089 31.8307 338.242 31.4627L336.396 30.6935ZM336.175 31.0273C336.097 31.1047 335.996 31.1751 335.857 31.2332L336.626 33.0793C336.987 32.9291 337.312 32.7182 337.589 32.4415L336.175 31.0273ZM335.857 31.2332C335.733 31.2846 335.599 31.3125 335.444 31.3125V33.3125C335.852 33.3125 336.249 33.2362 336.626 33.0793L335.857 31.2332ZM335.444 31.3125C335.322 31.3125 335.181 31.2898 335.017 31.231L334.34 33.1128C334.698 33.2415 335.067 33.3125 335.444 33.3125V31.3125ZM335.03 31.2355C334.932 31.1989 334.834 31.1371 334.732 31.03L333.282 32.4075C333.576 32.7171 333.925 32.9573 334.328 33.1082L335.03 31.2355ZM334.729 31.0271L319.885 15.5271L318.441 16.9104L333.285 32.4104L334.729 31.0271ZM318.163 16.2188V32H320.163V16.2188H318.163ZM319.163 31H315.101V33H319.163V31ZM316.101 32V11.3281H314.101V32H316.101ZM316.101 11.3281C316.101 11.1073 316.157 10.931 316.268 10.7697L314.62 9.6366C314.273 10.1419 314.101 10.7156 314.101 11.3281H316.101ZM316.265 10.7749C316.407 10.571 316.572 10.4359 316.766 10.347L315.935 8.52803C315.4 8.77248 314.961 9.14779 314.624 9.63133L316.265 10.7749ZM316.726 10.3642C316.93 10.2819 317.125 10.2641 317.337 10.3077L317.739 8.34852C317.139 8.22543 316.543 8.28063 315.975 8.51076L316.726 10.3642ZM317.361 10.3124C317.557 10.3475 317.717 10.4315 317.866 10.5852L319.304 9.19603C318.869 8.74557 318.332 8.45459 317.715 8.34385L317.361 10.3124ZM317.863 10.5826L332.707 26.067L334.151 24.683L319.307 9.19861L317.863 10.5826ZM334.429 25.375V9.59375H332.429V25.375H334.429ZM333.429 10.5938H337.491V8.59375H333.429V10.5938ZM336.491 9.59375V30.2656H338.491V9.59375H336.491Z" fill="white" fill-opacity="0.2" mask="url(#path-1-outside-1_300_2095)"/>
    <path d="M121.262 48.3994H117.936V37.5576L112.084 47.8535C111.94 48.1159 111.737 48.3148 111.474 48.4502C111.22 48.5856 110.945 48.6533 110.649 48.6533C110.361 48.6533 110.091 48.5856 109.837 48.4502C109.591 48.3148 109.396 48.1159 109.253 47.8535L103.375 37.5576V48.3994H100.074V31.6035C100.074 31.2227 100.184 30.8841 100.404 30.5879C100.632 30.2917 100.929 30.0928 101.293 29.9912C101.47 29.9489 101.648 29.9362 101.826 29.9531C102.004 29.9616 102.173 29.9997 102.334 30.0674C102.503 30.1266 102.655 30.2155 102.791 30.334C102.926 30.444 103.04 30.5794 103.133 30.7402L110.649 43.8037L118.165 30.7402C118.359 30.4186 118.626 30.1901 118.965 30.0547C119.312 29.9193 119.671 29.8981 120.044 29.9912C120.399 30.0928 120.691 30.2917 120.92 30.5879C121.148 30.8841 121.262 31.2227 121.262 31.6035V48.3994ZM141.637 40.96H131.214V37.6338H141.637V40.96ZM143.122 48.3994H131.214C130.757 48.3994 130.258 48.319 129.716 48.1582C129.174 47.9974 128.671 47.735 128.205 47.3711C127.748 46.9987 127.363 46.5205 127.05 45.9365C126.745 45.3441 126.593 44.6204 126.593 43.7656V31.8574C126.593 31.6289 126.635 31.4131 126.72 31.21C126.804 31.0068 126.919 30.8291 127.063 30.6768C127.215 30.5244 127.393 30.4059 127.596 30.3213C127.799 30.2367 128.019 30.1943 128.256 30.1943H143.122V33.4951H129.894V43.7656C129.894 44.1973 130.008 44.5273 130.236 44.7559C130.465 44.9844 130.799 45.0986 131.239 45.0986H143.122V48.3994ZM162.849 40.96H152.426V37.6338H162.849V40.96ZM164.335 48.3994H152.426C151.969 48.3994 151.47 48.319 150.928 48.1582C150.387 47.9974 149.883 47.735 149.418 47.3711C148.961 46.9987 148.575 46.5205 148.262 45.9365C147.958 45.3441 147.805 44.6204 147.805 43.7656V31.8574C147.805 31.6289 147.848 31.4131 147.932 31.21C148.017 31.0068 148.131 30.8291 148.275 30.6768C148.427 30.5244 148.605 30.4059 148.808 30.3213C149.011 30.2367 149.231 30.1943 149.468 30.1943H164.335V33.4951H151.106V43.7656C151.106 44.1973 151.22 44.5273 151.449 44.7559C151.677 44.9844 152.012 45.0986 152.452 45.0986H164.335V48.3994ZM185.547 33.4951H178.272V48.3994H174.972V33.4951H167.685V30.1943H185.547V33.4951ZM217.117 46.7363C217.117 46.9733 217.075 47.1934 216.99 47.3965C216.905 47.5996 216.787 47.7773 216.635 47.9297C216.482 48.0736 216.305 48.1878 216.101 48.2725C215.898 48.3571 215.683 48.3994 215.454 48.3994H208.015C207.312 48.3994 206.601 48.3232 205.882 48.1709C205.162 48.0186 204.464 47.7858 203.787 47.4727C203.118 47.151 202.488 46.7448 201.895 46.2539C201.303 45.763 200.782 45.1833 200.334 44.5146C199.894 43.8376 199.547 43.0674 199.293 42.2041C199.039 41.3324 198.912 40.3633 198.912 39.2969V30.1943H202.213V39.2969C202.213 40.2279 202.34 41.015 202.594 41.6582C202.856 42.3014 203.186 42.8389 203.584 43.2705C203.982 43.7021 204.418 44.0407 204.891 44.2861C205.365 44.5316 205.814 44.7135 206.237 44.832C206.669 44.9505 207.045 45.0267 207.367 45.0605C207.697 45.0859 207.913 45.0986 208.015 45.0986H213.816V30.1943H217.117V46.7363ZM240.018 43.042C240.018 43.6937 239.933 44.2819 239.764 44.8066C239.603 45.3229 239.387 45.7799 239.117 46.1777C238.846 46.5755 238.528 46.9141 238.164 47.1934C237.8 47.4727 237.424 47.7012 237.034 47.8789C236.645 48.0566 236.247 48.1878 235.841 48.2725C235.443 48.3571 235.067 48.3994 234.711 48.3994H221.978V45.0986H234.711C235.346 45.0986 235.837 44.9124 236.184 44.54C236.539 44.1676 236.717 43.6683 236.717 43.042C236.717 42.7373 236.671 42.458 236.577 42.2041C236.484 41.9502 236.349 41.7301 236.171 41.5439C236.002 41.3577 235.79 41.2139 235.536 41.1123C235.291 41.0107 235.016 40.96 234.711 40.96H227.119C226.586 40.96 226.011 40.8669 225.393 40.6807C224.775 40.486 224.2 40.1771 223.666 39.7539C223.142 39.3307 222.701 38.7764 222.346 38.0908C221.999 37.4053 221.826 36.5674 221.826 35.5771C221.826 34.5869 221.999 33.7533 222.346 33.0762C222.701 32.3906 223.142 31.8363 223.666 31.4131C224.2 30.9814 224.775 30.6725 225.393 30.4863C226.011 30.2917 226.586 30.1943 227.119 30.1943H238.355V33.4951H227.119C226.493 33.4951 226.002 33.6855 225.647 34.0664C225.3 34.4473 225.126 34.9508 225.126 35.5771C225.126 36.2119 225.3 36.7155 225.647 37.0879C226.002 37.4518 226.493 37.6338 227.119 37.6338H234.711H234.737C235.092 37.6423 235.469 37.693 235.867 37.7861C236.264 37.8708 236.658 38.0062 237.047 38.1924C237.445 38.3786 237.822 38.6156 238.177 38.9033C238.533 39.1826 238.846 39.5212 239.117 39.9189C239.396 40.3167 239.616 40.7738 239.777 41.29C239.937 41.8063 240.018 42.3903 240.018 43.042Z" fill="white"/>
</svg>
