<svg width="1275" height="153" viewBox="0 0 1275 153" fill="none" xmlns="http://www.w3.org/2000/svg">
    <mask id="path-1-outside-1_237_815" maskUnits="userSpaceOnUse" x="7" y="32" width="1260" height="90" fill="black">
        <rect fill="white" x="7" y="32" width="1260" height="90"/>
        <path d="M106.641 119H91.2891V68.9609L64.2773 116.48C63.6133 117.691 62.6758 118.609 61.4648 119.234C60.293 119.859 59.0234 120.172 57.6562 120.172C56.3281 120.172 55.0781 119.859 53.9062 119.234C52.7734 118.609 51.875 117.691 51.2109 116.48L24.082 68.9609V119H8.84766V41.4805C8.84766 39.7227 9.35547 38.1602 10.3711 36.793C11.4258 35.4258 12.793 34.5078 14.4727 34.0391C15.293 33.8438 16.1133 33.7852 16.9336 33.8633C17.7539 33.9023 18.5352 34.0781 19.2773 34.3906C20.0586 34.6641 20.7617 35.0742 21.3867 35.6211C22.0117 36.1289 22.5391 36.7539 22.9688 37.4961L57.6562 97.7891L92.3438 37.4961C93.2422 36.0117 94.4727 34.957 96.0352 34.332C97.6367 33.707 99.2969 33.6094 101.016 34.0391C102.656 34.5078 104.004 35.4258 105.059 36.793C106.113 38.1602 106.641 39.7227 106.641 41.4805V119ZM200.677 84.6641H152.571V69.3125H200.677V84.6641ZM207.532 119H152.571C150.462 119 148.157 118.629 145.657 117.887C143.157 117.145 140.833 115.934 138.684 114.254C136.575 112.535 134.798 110.328 133.352 107.633C131.946 104.898 131.243 101.559 131.243 97.6133V42.6523C131.243 41.5977 131.438 40.6016 131.829 39.6641C132.22 38.7266 132.747 37.9062 133.411 37.2031C134.114 36.5 134.934 35.9531 135.872 35.5625C136.809 35.1719 137.825 34.9766 138.919 34.9766H207.532V50.2109H146.477V97.6133C146.477 99.6055 147.005 101.129 148.059 102.184C149.114 103.238 150.657 103.766 152.688 103.766H207.532V119ZM298.58 84.6641H250.474V69.3125H298.58V84.6641ZM305.435 119H250.474C248.365 119 246.06 118.629 243.56 117.887C241.06 117.145 238.736 115.934 236.587 114.254C234.478 112.535 232.701 110.328 231.255 107.633C229.849 104.898 229.146 101.559 229.146 97.6133V42.6523C229.146 41.5977 229.341 40.6016 229.732 39.6641C230.123 38.7266 230.65 37.9062 231.314 37.2031C232.017 36.5 232.837 35.9531 233.775 35.5625C234.712 35.1719 235.728 34.9766 236.822 34.9766H305.435V50.2109H244.38V97.6133C244.38 99.6055 244.908 101.129 245.962 102.184C247.017 103.238 248.56 103.766 250.591 103.766H305.435V119ZM403.338 50.2109H369.764V119H354.53V50.2109H320.897V34.9766H403.338V50.2109ZM482.074 119H466.84V34.9766H482.074V119ZM591.052 112.496C591.052 113.59 590.837 114.605 590.407 115.543C590.016 116.48 589.47 117.301 588.766 118.004C588.102 118.668 587.302 119.195 586.364 119.586C585.427 119.977 584.43 120.172 583.376 120.172C582.438 120.172 581.481 119.996 580.505 119.645C579.567 119.293 578.727 118.727 577.985 117.945L522.321 59.8203V119H507.087V41.4805C507.087 39.918 507.516 38.5117 508.376 37.2617C509.274 35.9727 510.407 35.0156 511.774 34.3906C513.22 33.8047 514.704 33.668 516.227 33.9805C517.751 34.2539 519.059 34.957 520.153 36.0898L575.817 94.1562V34.9766H591.052V112.496ZM745.959 70.1328C745.959 73.6094 745.53 76.7148 744.67 79.4492C743.811 82.1836 742.639 84.6055 741.155 86.7148C739.709 88.7852 738.03 90.5625 736.116 92.0469C734.202 93.5312 732.19 94.7422 730.08 95.6797C728.01 96.6172 725.901 97.3008 723.752 97.7305C721.643 98.1602 719.651 98.375 717.776 98.375H683.323V83.1406H717.776C719.729 82.9844 721.487 82.5938 723.049 81.9688C724.651 81.3047 726.018 80.4258 727.151 79.332C728.284 78.2383 729.162 76.9297 729.787 75.4062C730.412 73.8438 730.725 72.0859 730.725 70.1328V63.2188C730.53 61.3047 730.12 59.5469 729.495 57.9453C728.87 56.3438 728.01 54.9766 726.916 53.8438C725.862 52.7109 724.573 51.832 723.049 51.207C721.526 50.543 719.768 50.2109 717.776 50.2109H683.44C681.409 50.2109 679.866 50.7383 678.811 51.793C677.756 52.8477 677.229 54.3711 677.229 56.3633V119H661.995V56.3633C661.995 52.457 662.698 49.1367 664.104 46.4023C665.549 43.668 667.327 41.4609 669.436 39.7812C671.584 38.1016 673.909 36.8906 676.409 36.1484C678.909 35.3672 681.213 34.9766 683.323 34.9766H717.776C721.213 34.9766 724.299 35.4258 727.034 36.3242C729.768 37.1836 732.17 38.3555 734.241 39.8398C736.35 41.2852 738.127 42.9648 739.573 44.8789C741.057 46.793 742.268 48.8047 743.205 50.9141C744.182 52.9844 744.885 55.0937 745.315 57.2422C745.745 59.3516 745.959 61.3438 745.959 63.2188V70.1328ZM835.308 84.6641H787.202V69.3125H835.308V84.6641ZM842.163 119H787.202C785.093 119 782.788 118.629 780.288 117.887C777.788 117.145 775.464 115.934 773.316 114.254C771.206 112.535 769.429 110.328 767.984 107.633C766.577 104.898 765.874 101.559 765.874 97.6133V42.6523C765.874 41.5977 766.07 40.6016 766.46 39.6641C766.851 38.7266 767.378 37.9062 768.042 37.2031C768.745 36.5 769.566 35.9531 770.503 35.5625C771.441 35.1719 772.456 34.9766 773.55 34.9766H842.163V50.2109H781.109V97.6133C781.109 99.6055 781.636 101.129 782.691 102.184C783.745 103.238 785.288 103.766 787.32 103.766H842.163V119ZM948.094 63.2188C948.094 66.6953 947.664 69.8008 946.805 72.5352C945.945 75.2695 944.773 77.6914 943.289 79.8008C941.844 81.8711 940.164 83.6484 938.25 85.1328C936.336 86.6172 934.324 87.8477 932.215 88.8242C930.145 89.7617 928.035 90.4453 925.887 90.875C923.777 91.3047 921.785 91.5195 919.91 91.5195L951.727 119H928.172L896.414 91.5195H885.457V76.2852H919.91C921.824 76.1289 923.562 75.7383 925.125 75.1133C926.727 74.4492 928.094 73.5703 929.227 72.4766C930.398 71.3828 931.297 70.0742 931.922 68.5508C932.547 66.9883 932.859 65.2109 932.859 63.2188V53.6094C932.859 52.75 932.742 52.1055 932.508 51.6758C932.312 51.207 932.039 50.875 931.688 50.6797C931.375 50.4453 931.023 50.3086 930.633 50.2695C930.281 50.2305 929.949 50.2109 929.637 50.2109H879.363V119H864.129V42.6523C864.129 41.5977 864.324 40.6016 864.715 39.6641C865.105 38.7266 865.633 37.9062 866.297 37.2031C867 36.5 867.82 35.9531 868.758 35.5625C869.695 35.1719 870.711 34.9766 871.805 34.9766H929.637C933.035 34.9766 935.906 35.6016 938.25 36.8516C940.594 38.0625 942.488 39.6055 943.934 41.4805C945.418 43.3164 946.473 45.3086 947.098 47.457C947.762 49.6055 948.094 51.6172 948.094 53.4922V63.2188ZM1051.33 94.2734C1051.33 97.2812 1050.94 99.9961 1050.16 102.418C1049.41 104.801 1048.42 106.91 1047.17 108.746C1045.92 110.582 1044.45 112.145 1042.77 113.434C1041.09 114.723 1039.36 115.777 1037.56 116.598C1035.76 117.418 1033.93 118.023 1032.05 118.414C1030.22 118.805 1028.48 119 1026.84 119H968.067V103.766H1026.84C1029.77 103.766 1032.03 102.906 1033.63 101.188C1035.27 99.4688 1036.09 97.1641 1036.09 94.2734C1036.09 92.8672 1035.88 91.5781 1035.45 90.4062C1035.02 89.2344 1034.4 88.2188 1033.58 87.3594C1032.79 86.5 1031.82 85.8359 1030.65 85.3672C1029.51 84.8984 1028.24 84.6641 1026.84 84.6641H991.798C989.337 84.6641 986.68 84.2344 983.829 83.375C980.977 82.4766 978.321 81.0508 975.86 79.0977C973.438 77.1445 971.407 74.5859 969.766 71.4219C968.165 68.2578 967.364 64.3906 967.364 59.8203C967.364 55.25 968.165 51.4023 969.766 48.2773C971.407 45.1133 973.438 42.5547 975.86 40.6016C978.321 38.6094 980.977 37.1836 983.829 36.3242C986.68 35.4258 989.337 34.9766 991.798 34.9766H1043.65V50.2109H991.798C988.907 50.2109 986.641 51.0898 985.001 52.8477C983.399 54.6055 982.598 56.9297 982.598 59.8203C982.598 62.75 983.399 65.0742 985.001 66.793C986.641 68.4727 988.907 69.3125 991.798 69.3125H1026.84H1026.95C1028.59 69.3516 1030.33 69.5859 1032.17 70.0156C1034 70.4062 1035.82 71.0312 1037.62 71.8906C1039.45 72.75 1041.19 73.8438 1042.83 75.1719C1044.47 76.4609 1045.92 78.0234 1047.17 79.8594C1048.46 81.6953 1049.47 83.8047 1050.22 86.1875C1050.96 88.5703 1051.33 91.2656 1051.33 94.2734ZM1159.37 85.0156C1159.37 90.1328 1158.49 94.8398 1156.73 99.1367C1154.97 103.434 1152.53 107.145 1149.41 110.27C1146.28 113.395 1142.57 115.836 1138.28 117.594C1134.02 119.312 1129.37 120.172 1124.33 120.172H1103.7C1098.67 120.172 1094 119.312 1089.7 117.594C1085.4 115.836 1081.69 113.395 1078.57 110.27C1075.44 107.145 1072.98 103.434 1071.19 99.1367C1069.43 94.8398 1068.55 90.1328 1068.55 85.0156V68.9609C1068.55 63.8828 1069.43 59.1953 1071.19 54.8984C1072.98 50.5625 1075.44 46.8516 1078.57 43.7656C1081.69 40.6406 1085.4 38.1992 1089.7 36.4414C1094 34.6836 1098.67 33.8047 1103.7 33.8047H1124.33C1129.37 33.8047 1134.02 34.6836 1138.28 36.4414C1142.57 38.1992 1146.28 40.6406 1149.41 43.7656C1152.53 46.8516 1154.97 50.5625 1156.73 54.8984C1158.49 59.1953 1159.37 63.8828 1159.37 68.9609V85.0156ZM1144.13 68.9609C1144.13 65.9531 1143.65 63.2383 1142.67 60.8164C1141.73 58.3555 1140.38 56.2656 1138.63 54.5469C1136.91 52.7891 1134.82 51.4414 1132.36 50.5039C1129.94 49.5273 1127.26 49.0391 1124.33 49.0391H1103.7C1100.74 49.0391 1098.02 49.5273 1095.56 50.5039C1093.14 51.4414 1091.05 52.7891 1089.29 54.5469C1087.53 56.2656 1086.17 58.3555 1085.19 60.8164C1084.25 63.2383 1083.78 65.9531 1083.78 68.9609V85.0156C1083.78 88.0234 1084.25 90.7578 1085.19 93.2188C1086.17 95.6406 1087.53 97.7305 1089.29 99.4883C1091.05 101.207 1093.14 102.555 1095.56 103.531C1098.02 104.469 1100.74 104.938 1103.7 104.938H1124.21C1127.18 104.938 1129.88 104.469 1132.3 103.531C1134.76 102.555 1136.87 101.207 1138.63 99.4883C1140.38 97.7305 1141.73 95.6406 1142.67 93.2188C1143.65 90.7578 1144.13 88.0234 1144.13 85.0156V68.9609ZM1265.59 112.496C1265.59 113.59 1265.38 114.605 1264.95 115.543C1264.56 116.48 1264.01 117.301 1263.31 118.004C1262.64 118.668 1261.84 119.195 1260.9 119.586C1259.97 119.977 1258.97 120.172 1257.92 120.172C1256.98 120.172 1256.02 119.996 1255.05 119.645C1254.11 119.293 1253.27 118.727 1252.53 117.945L1196.86 59.8203V119H1181.63V41.4805C1181.63 39.918 1182.06 38.5117 1182.92 37.2617C1183.81 35.9727 1184.95 35.0156 1186.31 34.3906C1187.76 33.8047 1189.24 33.668 1190.77 33.9805C1192.29 34.2539 1193.6 34.957 1194.69 36.0898L1250.36 94.1562V34.9766H1265.59V112.496Z"/>
    </mask>
    <path d="M106.641 119V120H107.641V119H106.641ZM91.2891 119H90.2891V120H91.2891V119ZM91.2891 68.9609H92.2891V65.1781L90.4197 68.4668L91.2891 68.9609ZM64.2773 116.48L63.408 115.986L63.4042 115.993L63.4005 116L64.2773 116.48ZM61.4648 119.234L61.0062 118.346L60.9943 118.352L61.4648 119.234ZM53.9062 119.234L53.4232 120.11L53.4294 120.113L53.4357 120.117L53.9062 119.234ZM51.2109 116.48L52.0877 116L52.0836 115.992L52.0794 115.985L51.2109 116.48ZM24.082 68.9609L24.9505 68.4651L23.082 65.1923V68.9609H24.082ZM24.082 119V120H25.082V119H24.082ZM8.84766 119H7.84766V120H8.84766V119ZM10.3711 36.793L9.57931 36.1822L9.57376 36.1894L9.56835 36.1966L10.3711 36.793ZM14.4727 34.0391L14.241 33.0663L14.2224 33.0707L14.2039 33.0759L14.4727 34.0391ZM16.9336 33.8633L16.8388 34.8588L16.8624 34.861L16.886 34.8621L16.9336 33.8633ZM19.2773 34.3906L18.8893 35.3123L18.9178 35.3243L18.947 35.3345L19.2773 34.3906ZM21.3867 35.6211L20.7282 36.3737L20.742 36.3857L20.7561 36.3972L21.3867 35.6211ZM22.9688 37.4961L23.8355 36.9974L23.8342 36.9951L22.9688 37.4961ZM57.6562 97.7891L56.7895 98.2877L57.6562 99.7944L58.523 98.2877L57.6562 97.7891ZM92.3438 37.4961L91.4883 36.9783L91.4825 36.9878L91.477 36.9974L92.3438 37.4961ZM96.0352 34.332L95.6716 33.4004L95.6638 33.4036L96.0352 34.332ZM101.016 34.0391L101.29 33.0775L101.274 33.073L101.258 33.0689L101.016 34.0391ZM106.641 118H91.2891V120H106.641V118ZM92.2891 119V68.9609H90.2891V119H92.2891ZM90.4197 68.4668L63.408 115.986L65.1467 116.975L92.1584 69.4551L90.4197 68.4668ZM63.4005 116C62.8308 117.039 62.0378 117.813 61.0062 118.346L61.9235 120.123C63.3138 119.405 64.3958 118.344 65.1542 116.961L63.4005 116ZM60.9943 118.352C59.9716 118.897 58.8643 119.172 57.6562 119.172V121.172C59.1826 121.172 60.6144 120.821 61.9354 120.117L60.9943 118.352ZM57.6562 119.172C56.4923 119.172 55.4039 118.9 54.3768 118.352L53.4357 120.117C54.7524 120.819 56.164 121.172 57.6562 121.172V119.172ZM54.3893 118.359C53.4339 117.832 52.6671 117.056 52.0877 116L50.3341 116.961C51.0829 118.327 52.113 119.387 53.4232 120.11L54.3893 118.359ZM52.0794 115.985L24.9505 68.4651L23.2136 69.4567L50.3425 116.976L52.0794 115.985ZM23.082 68.9609V119H25.082V68.9609H23.082ZM24.082 118H8.84766V120H24.082V118ZM9.84766 119V41.4805H7.84766V119H9.84766ZM9.84766 41.4805C9.84766 39.9301 10.2906 38.5782 11.1738 37.3893L9.56835 36.1966C8.42029 37.7421 7.84766 39.5153 7.84766 41.4805H9.84766ZM11.1629 37.4038C12.0844 36.2092 13.2673 35.4136 14.7415 35.0023L14.2039 33.0759C12.3186 33.602 10.7672 34.6424 9.57931 36.1822L11.1629 37.4038ZM14.7043 35.0119C15.4203 34.8414 16.1303 34.7913 16.8388 34.8588L17.0284 32.8678C16.0962 32.779 15.1656 32.8461 14.241 33.0663L14.7043 35.0119ZM16.886 34.8621C17.5916 34.8957 18.2573 35.0462 18.8893 35.3123L19.6654 33.469C18.813 33.1101 17.9163 32.9089 16.9812 32.8644L16.886 34.8621ZM18.947 35.3345C19.6072 35.5656 20.199 35.9106 20.7282 36.3737L22.0452 34.8685C21.3244 34.2378 20.51 33.7626 19.6077 33.4468L18.947 35.3345ZM20.7561 36.3972C21.2808 36.8235 21.7306 37.3533 22.1033 37.9971L23.8342 36.9951C23.3476 36.1546 22.7426 35.4343 22.0173 34.845L20.7561 36.3972ZM22.102 37.9948L56.7895 98.2877L58.523 97.2904L23.8355 36.9974L22.102 37.9948ZM58.523 98.2877L93.2105 37.9948L91.477 36.9974L56.7895 97.2904L58.523 98.2877ZM93.1992 38.0139C93.989 36.7092 95.0524 35.8022 96.4065 35.2605L95.6638 33.4036C93.8929 34.1119 92.4954 35.3143 91.4883 36.9783L93.1992 38.0139ZM96.3987 35.2636C97.8009 34.7164 99.2489 34.6282 100.773 35.0092L101.258 33.0689C99.3448 32.5906 97.4725 32.6977 95.6716 33.4005L96.3987 35.2636ZM100.741 35.0006C102.174 35.4099 103.341 36.2035 104.267 37.4038L105.85 36.1822C104.667 34.648 103.139 33.6057 101.29 33.0775L100.741 35.0006ZM104.267 37.4038C105.184 38.5926 105.641 39.9394 105.641 41.4805H107.641C107.641 39.5059 107.043 37.7277 105.85 36.1822L104.267 37.4038ZM105.641 41.4805V119H107.641V41.4805H105.641ZM200.677 84.6641V85.6641H201.677V84.6641H200.677ZM152.571 84.6641H151.571V85.6641H152.571V84.6641ZM152.571 69.3125V68.3125H151.571V69.3125H152.571ZM200.677 69.3125H201.677V68.3125H200.677V69.3125ZM207.532 119V120H208.532V119H207.532ZM138.684 114.254L138.053 115.029L138.061 115.036L138.068 115.042L138.684 114.254ZM133.352 107.633L132.463 108.09L132.467 108.098L132.471 108.105L133.352 107.633ZM133.411 37.2031L132.704 36.496L132.694 36.5061L132.684 36.5165L133.411 37.2031ZM207.532 34.9766H208.532V33.9766H207.532V34.9766ZM207.532 50.2109V51.2109H208.532V50.2109H207.532ZM146.477 50.2109V49.2109H145.477V50.2109H146.477ZM207.532 103.766H208.532V102.766H207.532V103.766ZM200.677 83.6641H152.571V85.6641H200.677V83.6641ZM153.571 84.6641V69.3125H151.571V84.6641H153.571ZM152.571 70.3125H200.677V68.3125H152.571V70.3125ZM199.677 69.3125V84.6641H201.677V69.3125H199.677ZM207.532 118H152.571V120H207.532V118ZM152.571 118C150.578 118 148.37 117.649 145.942 116.928L145.372 118.845C147.944 119.609 150.346 120 152.571 120V118ZM145.942 116.928C143.567 116.223 141.355 115.072 139.3 113.466L138.068 115.042C140.311 116.795 142.747 118.066 145.372 118.845L145.942 116.928ZM139.316 113.479C137.321 111.853 135.624 109.754 134.234 107.16L132.471 108.105C133.971 110.903 135.829 113.217 138.053 115.029L139.316 113.479ZM134.242 107.175C132.926 104.617 132.243 101.443 132.243 97.6133H130.243C130.243 101.674 130.966 105.18 132.463 108.09L134.242 107.175ZM132.243 97.6133V42.6523H130.243V97.6133H132.243ZM132.243 42.6523C132.243 41.7245 132.414 40.8596 132.752 40.0487L130.906 39.2794C130.462 40.3435 130.243 41.4708 130.243 42.6523H132.243ZM132.752 40.0487C133.098 39.2172 133.561 38.5005 134.138 37.8897L132.684 36.5165C131.933 37.312 131.341 38.2359 130.906 39.2794L132.752 40.0487ZM134.118 37.9102C134.727 37.3015 135.437 36.8271 136.256 36.4856L135.487 34.6394C134.432 35.0792 133.501 35.6985 132.704 36.496L134.118 37.9102ZM136.256 36.4856C137.063 36.1495 137.947 35.9766 138.919 35.9766V33.9766C137.703 33.9766 136.556 34.1942 135.487 34.6394L136.256 36.4856ZM138.919 35.9766H207.532V33.9766H138.919V35.9766ZM206.532 34.9766V50.2109H208.532V34.9766H206.532ZM207.532 49.2109H146.477V51.2109H207.532V49.2109ZM145.477 50.2109V97.6133H147.477V50.2109H145.477ZM145.477 97.6133C145.477 99.7788 146.054 101.592 147.352 102.891L148.766 101.476C147.956 100.666 147.477 99.4322 147.477 97.6133H145.477ZM147.352 102.891C148.654 104.193 150.49 104.766 152.688 104.766V102.766C150.824 102.766 149.574 102.284 148.766 101.476L147.352 102.891ZM152.688 104.766H207.532V102.766H152.688V104.766ZM206.532 103.766V119H208.532V103.766H206.532ZM298.58 84.6641V85.6641H299.58V84.6641H298.58ZM250.474 84.6641H249.474V85.6641H250.474V84.6641ZM250.474 69.3125V68.3125H249.474V69.3125H250.474ZM298.58 69.3125H299.58V68.3125H298.58V69.3125ZM305.435 119V120H306.435V119H305.435ZM236.587 114.254L235.956 115.029L235.964 115.036L235.972 115.042L236.587 114.254ZM231.255 107.633L230.366 108.09L230.37 108.098L230.374 108.105L231.255 107.633ZM231.314 37.2031L230.607 36.496L230.597 36.5061L230.587 36.5165L231.314 37.2031ZM305.435 34.9766H306.435V33.9766H305.435V34.9766ZM305.435 50.2109V51.2109H306.435V50.2109H305.435ZM244.38 50.2109V49.2109H243.38V50.2109H244.38ZM305.435 103.766H306.435V102.766H305.435V103.766ZM298.58 83.6641H250.474V85.6641H298.58V83.6641ZM251.474 84.6641V69.3125H249.474V84.6641H251.474ZM250.474 70.3125H298.58V68.3125H250.474V70.3125ZM297.58 69.3125V84.6641H299.58V69.3125H297.58ZM305.435 118H250.474V120H305.435V118ZM250.474 118C248.481 118 246.273 117.649 243.845 116.928L243.276 118.845C245.847 119.609 248.249 120 250.474 120V118ZM243.845 116.928C241.47 116.223 239.258 115.072 237.203 113.466L235.972 115.042C238.214 116.795 240.65 118.066 243.276 118.845L243.845 116.928ZM237.219 113.479C235.224 111.853 233.527 109.754 232.137 107.16L230.374 108.105C231.874 110.903 233.732 113.217 235.956 115.029L237.219 113.479ZM232.145 107.175C230.829 104.617 230.146 101.443 230.146 97.6133H228.146C228.146 101.674 228.87 105.18 230.366 108.09L232.145 107.175ZM230.146 97.6133V42.6523H228.146V97.6133H230.146ZM230.146 42.6523C230.146 41.7245 230.317 40.8596 230.655 40.0487L228.809 39.2794C228.366 40.3435 228.146 41.4708 228.146 42.6523H230.146ZM230.655 40.0487C231.002 39.2172 231.464 38.5005 232.041 37.8897L230.587 36.5165C229.836 37.312 229.244 38.2359 228.809 39.2794L230.655 40.0487ZM232.021 37.9102C232.63 37.3015 233.34 36.8271 234.16 36.4856L233.39 34.6394C232.335 35.0792 231.404 35.6985 230.607 36.496L232.021 37.9102ZM234.16 36.4856C234.966 36.1495 235.85 35.9766 236.822 35.9766V33.9766C235.606 33.9766 234.459 34.1942 233.39 34.6394L234.16 36.4856ZM236.822 35.9766H305.435V33.9766H236.822V35.9766ZM304.435 34.9766V50.2109H306.435V34.9766H304.435ZM305.435 49.2109H244.38V51.2109H305.435V49.2109ZM243.38 50.2109V97.6133H245.38V50.2109H243.38ZM243.38 97.6133C243.38 99.7788 243.957 101.592 245.255 102.891L246.67 101.476C245.859 100.666 245.38 99.4322 245.38 97.6133H243.38ZM245.255 102.891C246.557 104.193 248.393 104.766 250.591 104.766V102.766C248.727 102.766 247.477 102.284 246.67 101.476L245.255 102.891ZM250.591 104.766H305.435V102.766H250.591V104.766ZM304.435 103.766V119H306.435V103.766H304.435ZM403.338 50.2109V51.2109H404.338V50.2109H403.338ZM369.764 50.2109V49.2109H368.764V50.2109H369.764ZM369.764 119V120H370.764V119H369.764ZM354.53 119H353.53V120H354.53V119ZM354.53 50.2109H355.53V49.2109H354.53V50.2109ZM320.897 50.2109H319.897V51.2109H320.897V50.2109ZM320.897 34.9766V33.9766H319.897V34.9766H320.897ZM403.338 34.9766H404.338V33.9766H403.338V34.9766ZM403.338 49.2109H369.764V51.2109H403.338V49.2109ZM368.764 50.2109V119H370.764V50.2109H368.764ZM369.764 118H354.53V120H369.764V118ZM355.53 119V50.2109H353.53V119H355.53ZM354.53 49.2109H320.897V51.2109H354.53V49.2109ZM321.897 50.2109V34.9766H319.897V50.2109H321.897ZM320.897 35.9766H403.338V33.9766H320.897V35.9766ZM402.338 34.9766V50.2109H404.338V34.9766H402.338ZM482.074 119V120H483.074V119H482.074ZM466.84 119H465.84V120H466.84V119ZM466.84 34.9766V33.9766H465.84V34.9766H466.84ZM482.074 34.9766H483.074V33.9766H482.074V34.9766ZM482.074 118H466.84V120H482.074V118ZM467.84 119V34.9766H465.84V119H467.84ZM466.84 35.9766H482.074V33.9766H466.84V35.9766ZM481.074 34.9766V119H483.074V34.9766H481.074ZM590.407 115.543L589.498 115.126L589.491 115.142L589.484 115.158L590.407 115.543ZM580.505 119.645L580.154 120.581L580.166 120.585L580.505 119.645ZM577.985 117.945L578.71 117.257L578.707 117.254L577.985 117.945ZM522.321 59.8203L523.043 59.1287L521.321 57.3303V59.8203H522.321ZM522.321 119V120H523.321V119H522.321ZM507.087 119H506.087V120H507.087V119ZM508.376 37.2617L507.555 36.6899L507.552 36.6952L508.376 37.2617ZM511.774 34.3906L511.399 33.4639L511.378 33.4721L511.358 33.4812L511.774 34.3906ZM516.227 33.9805L516.026 34.9601L516.039 34.9626L516.051 34.9647L516.227 33.9805ZM520.153 36.0898L520.875 35.3978L520.873 35.3952L520.153 36.0898ZM575.817 94.1562L575.095 94.8483L576.817 96.6445V94.1562H575.817ZM575.817 34.9766V33.9766H574.817V34.9766H575.817ZM591.052 34.9766H592.052V33.9766H591.052V34.9766ZM590.052 112.496C590.052 113.455 589.864 114.327 589.498 115.126L591.316 115.96C591.809 114.884 592.052 113.725 592.052 112.496H590.052ZM589.484 115.158C589.142 115.978 588.668 116.688 588.059 117.297L589.474 118.711C590.271 117.914 590.89 116.983 591.33 115.928L589.484 115.158ZM588.059 117.297C587.495 117.861 586.806 118.318 585.979 118.663L586.749 120.509C587.797 120.072 588.71 119.475 589.474 118.711L588.059 117.297ZM585.979 118.663C585.169 119.001 584.304 119.172 583.376 119.172V121.172C584.557 121.172 585.685 120.952 586.749 120.509L585.979 118.663ZM583.376 119.172C582.565 119.172 581.723 119.02 580.843 118.704L580.166 120.585C581.24 120.972 582.311 121.172 583.376 121.172V119.172ZM580.856 118.708C580.071 118.414 579.356 117.937 578.71 117.257L577.26 118.634C578.099 119.517 579.064 120.172 580.154 120.581L580.856 118.708ZM578.707 117.254L523.043 59.1287L521.599 60.512L577.263 118.637L578.707 117.254ZM521.321 59.8203V119H523.321V59.8203H521.321ZM522.321 118H507.087V120H522.321V118ZM508.087 119V41.4805H506.087V119H508.087ZM508.087 41.4805C508.087 40.1138 508.459 38.9063 509.2 37.8282L507.552 36.6952C506.574 38.1171 506.087 39.7221 506.087 41.4805H508.087ZM509.196 37.8335C509.997 36.6842 510.993 35.8473 512.19 35.3001L511.358 33.4812C509.821 34.1839 508.551 35.2611 507.555 36.6899L509.196 37.8335ZM512.15 35.3174C513.413 34.8053 514.697 34.6873 516.026 34.9601L516.428 33.0009C514.711 32.6486 513.026 32.8041 511.399 33.4639L512.15 35.3174ZM516.051 34.9647C517.363 35.2004 518.483 35.8 519.434 36.7844L520.873 35.3952C519.636 34.1141 518.138 33.3074 516.404 32.9962L516.051 34.9647ZM519.431 36.7819L575.095 94.8483L576.539 93.4642L520.875 35.3978L519.431 36.7819ZM576.817 94.1562V34.9766H574.817V94.1562H576.817ZM575.817 35.9766H591.052V33.9766H575.817V35.9766ZM590.052 34.9766V112.496H592.052V34.9766H590.052ZM741.155 86.7148L740.337 86.1393L740.335 86.1424L741.155 86.7148ZM730.08 95.6797L729.674 94.7659L729.668 94.7687L730.08 95.6797ZM723.752 97.7305L723.556 96.7499L723.553 96.7506L723.752 97.7305ZM683.323 98.375H682.323V99.375H683.323V98.375ZM683.323 83.1406V82.1406H682.323V83.1406H683.323ZM717.776 83.1406V84.1406H717.816L717.856 84.1374L717.776 83.1406ZM723.049 81.9688L723.421 82.8973L723.432 82.8925L723.049 81.9688ZM729.787 75.4062L730.713 75.7858L730.716 75.7776L729.787 75.4062ZM730.725 63.2188H731.725V63.1679L731.72 63.1172L730.725 63.2188ZM729.495 57.9453L730.426 57.5818L729.495 57.9453ZM726.916 53.8438L726.185 54.5252L726.191 54.5318L726.197 54.5383L726.916 53.8438ZM723.049 51.207L722.65 52.1237L722.66 52.1281L722.67 52.1322L723.049 51.207ZM677.229 119V120H678.229V119H677.229ZM661.995 119H660.995V120H661.995V119ZM664.104 46.4023L663.22 45.935L663.215 45.945L664.104 46.4023ZM669.436 39.7812L668.82 38.9934L668.813 38.999L669.436 39.7812ZM676.409 36.1484L676.693 37.1071L676.7 37.105L676.707 37.1029L676.409 36.1484ZM727.034 36.3242L726.721 37.2743L726.734 37.2782L727.034 36.3242ZM734.241 39.8398L733.658 40.6525L733.667 40.6588L733.675 40.6648L734.241 39.8398ZM739.573 44.8789L738.775 45.4816L738.782 45.4917L739.573 44.8789ZM743.205 50.9141L742.292 51.3202L742.296 51.3305L742.301 51.3407L743.205 50.9141ZM745.315 57.2422L744.334 57.4383L744.335 57.4418L745.315 57.2422ZM744.959 70.1328C744.959 73.5285 744.539 76.5301 743.716 79.1494L745.624 79.749C746.52 76.8996 746.959 73.6902 746.959 70.1328H744.959ZM743.716 79.1494C742.884 81.7962 741.756 84.1231 740.337 86.1394L741.972 87.2903C743.522 85.0878 744.737 82.571 745.624 79.749L743.716 79.1494ZM740.335 86.1424C738.945 88.1336 737.334 89.8366 735.503 91.2567L736.728 92.8371C738.725 91.2884 740.474 89.4367 741.975 87.2873L740.335 86.1424ZM735.503 91.2567C733.649 92.6941 731.707 93.8627 729.674 94.7659L730.487 96.5935C732.673 95.6217 734.754 94.3684 736.728 92.8371L735.503 91.2567ZM729.668 94.7687C727.664 95.676 725.627 96.3357 723.556 96.7499L723.948 98.7111C726.174 98.2659 728.356 97.5583 730.493 96.5906L729.668 94.7687ZM723.553 96.7506C721.5 97.1688 719.575 97.375 717.776 97.375V99.375C719.727 99.375 721.786 99.1515 723.952 98.7103L723.553 96.7506ZM717.776 97.375H683.323V99.375H717.776V97.375ZM684.323 98.375V83.1406H682.323V98.375H684.323ZM683.323 84.1406H717.776V82.1406H683.323V84.1406ZM717.856 84.1374C719.893 83.9745 721.751 83.5651 723.421 82.8972L722.678 81.0403C721.222 81.6224 719.565 81.9943 717.696 82.1438L717.856 84.1374ZM723.432 82.8925C725.138 82.1853 726.614 81.2406 727.845 80.0514L726.456 78.6126C725.422 79.611 724.164 80.4241 722.666 81.045L723.432 82.8925ZM727.845 80.0514C729.082 78.8572 730.038 77.4313 730.713 75.7858L728.862 75.0267C728.287 76.4281 727.485 77.6194 726.456 78.6126L727.845 80.0514ZM730.716 75.7776C731.395 74.0796 731.725 72.193 731.725 70.1328H729.725C729.725 71.9789 729.43 73.6079 728.859 75.0349L730.716 75.7776ZM731.725 70.1328V63.2188H729.725V70.1328H731.725ZM731.72 63.1172C731.516 61.1239 731.088 59.2767 730.426 57.5818L728.563 58.3089C729.151 59.817 729.543 61.4855 729.73 63.3203L731.72 63.1172ZM730.426 57.5818C729.757 55.8683 728.83 54.3856 727.636 53.1492L726.197 54.5383C727.191 55.5675 727.982 56.8192 728.563 58.3089L730.426 57.5818ZM727.648 53.1623C726.489 51.9171 725.077 50.9581 723.429 50.2819L722.67 52.1322C724.068 52.7059 725.234 53.5048 726.185 54.5252L727.648 53.1623ZM723.449 50.2903C721.777 49.5615 719.879 49.2109 717.776 49.2109V51.2109C719.657 51.2109 721.275 51.5244 722.65 52.1237L723.449 50.2903ZM717.776 49.2109H683.44V51.2109H717.776V49.2109ZM683.44 49.2109C681.242 49.2109 679.406 49.784 678.104 51.0859L679.518 52.5001C680.326 51.6926 681.575 51.2109 683.44 51.2109V49.2109ZM678.104 51.0859C676.805 52.3844 676.229 54.1978 676.229 56.3633H678.229C678.229 54.5444 678.707 53.3109 679.518 52.5001L678.104 51.0859ZM676.229 56.3633V119H678.229V56.3633H676.229ZM677.229 118H661.995V120H677.229V118ZM662.995 119V56.3633H660.995V119H662.995ZM662.995 56.3633C662.995 52.5742 663.677 49.4195 664.993 46.8597L663.215 45.945C661.719 48.8539 660.995 52.3398 660.995 56.3633H662.995ZM664.988 46.8697C666.378 44.2393 668.072 42.1456 670.059 40.5635L668.813 38.999C666.581 40.7763 664.72 43.0966 663.22 45.935L664.988 46.8697ZM670.052 40.5691C672.106 38.963 674.319 37.812 676.693 37.1071L676.124 35.1898C673.498 35.9693 671.063 37.2401 668.82 38.9934L670.052 40.5691ZM676.707 37.1029C679.133 36.3449 681.335 35.9766 683.323 35.9766V33.9766C681.091 33.9766 678.685 34.3895 676.11 35.194L676.707 37.1029ZM683.323 35.9766H717.776V33.9766H683.323V35.9766ZM717.776 35.9766C721.127 35.9766 724.105 36.4146 726.721 37.2743L727.346 35.3742C724.493 34.4369 721.299 33.9766 717.776 33.9766V35.9766ZM726.734 37.2782C729.379 38.1097 731.684 39.2372 733.658 40.6525L734.823 39.0271C732.657 37.4738 730.156 36.2575 727.333 35.3702L726.734 37.2782ZM733.675 40.6648C735.702 42.0531 737.399 43.6592 738.775 45.4815L740.371 44.2763C738.856 42.2705 736.998 40.5172 734.806 39.0149L733.675 40.6648ZM738.782 45.4917C740.22 47.3453 741.388 49.288 742.292 51.3202L744.119 50.5079C743.147 48.3214 741.894 46.2407 740.363 44.2661L738.782 45.4917ZM742.301 51.3407C743.245 53.3408 743.921 55.373 744.334 57.4383L746.295 57.0461C745.849 54.8145 745.12 52.6279 744.11 50.4874L742.301 51.3407ZM744.335 57.4418C744.753 59.4949 744.959 61.4198 744.959 63.2188H746.959C746.959 61.2677 746.736 59.2082 746.295 57.0426L744.335 57.4418ZM744.959 63.2188V70.1328H746.959V63.2188H744.959ZM835.308 84.6641V85.6641H836.308V84.6641H835.308ZM787.202 84.6641H786.202V85.6641H787.202V84.6641ZM787.202 69.3125V68.3125H786.202V69.3125H787.202ZM835.308 69.3125H836.308V68.3125H835.308V69.3125ZM842.163 119V120H843.163V119H842.163ZM773.316 114.254L772.684 115.029L772.692 115.036L772.7 115.042L773.316 114.254ZM767.984 107.633L767.094 108.09L767.098 108.098L767.102 108.105L767.984 107.633ZM768.042 37.2031L767.335 36.496L767.325 36.5061L767.315 36.5165L768.042 37.2031ZM842.163 34.9766H843.163V33.9766H842.163V34.9766ZM842.163 50.2109V51.2109H843.163V50.2109H842.163ZM781.109 50.2109V49.2109H780.109V50.2109H781.109ZM842.163 103.766H843.163V102.766H842.163V103.766ZM835.308 83.6641H787.202V85.6641H835.308V83.6641ZM788.202 84.6641V69.3125H786.202V84.6641H788.202ZM787.202 70.3125H835.308V68.3125H787.202V70.3125ZM834.308 69.3125V84.6641H836.308V69.3125H834.308ZM842.163 118H787.202V120H842.163V118ZM787.202 118C785.209 118 783.001 117.649 780.573 116.928L780.004 118.845C782.575 119.609 784.977 120 787.202 120V118ZM780.573 116.928C778.198 116.223 775.986 115.072 773.932 113.466L772.7 115.042C774.942 116.795 777.378 118.066 780.004 118.845L780.573 116.928ZM773.947 113.479C771.952 111.853 770.255 109.754 768.865 107.16L767.102 108.105C768.602 110.903 770.46 113.217 772.684 115.029L773.947 113.479ZM768.873 107.175C767.557 104.617 766.874 101.443 766.874 97.6133H764.874C764.874 101.674 765.598 105.18 767.094 108.09L768.873 107.175ZM766.874 97.6133V42.6523H764.874V97.6133H766.874ZM766.874 42.6523C766.874 41.7245 767.045 40.8596 767.383 40.0487L765.537 39.2794C765.094 40.3435 764.874 41.4708 764.874 42.6523H766.874ZM767.383 40.0487C767.73 39.2172 768.192 38.5005 768.769 37.8897L767.315 36.5165C766.564 37.312 765.972 38.2359 765.537 39.2794L767.383 40.0487ZM768.749 37.9102C769.358 37.3015 770.068 36.8271 770.888 36.4856L770.118 34.6394C769.063 35.0792 768.133 35.6985 767.335 36.496L768.749 37.9102ZM770.888 36.4856C771.694 36.1495 772.578 35.9766 773.55 35.9766V33.9766C772.334 33.9766 771.187 34.1942 770.118 34.6394L770.888 36.4856ZM773.55 35.9766H842.163V33.9766H773.55V35.9766ZM841.163 34.9766V50.2109H843.163V34.9766H841.163ZM842.163 49.2109H781.109V51.2109H842.163V49.2109ZM780.109 50.2109V97.6133H782.109V50.2109H780.109ZM780.109 97.6133C780.109 99.7788 780.685 101.592 781.984 102.891L783.398 101.476C782.587 100.666 782.109 99.4322 782.109 97.6133H780.109ZM781.984 102.891C783.285 104.193 785.121 104.766 787.32 104.766V102.766C785.455 102.766 784.205 102.284 783.398 101.476L781.984 102.891ZM787.32 104.766H842.163V102.766H787.32V104.766ZM841.163 103.766V119H843.163V103.766H841.163ZM943.289 79.8008L942.471 79.2253L942.469 79.2284L943.289 79.8008ZM932.215 88.8242L932.627 89.7352L932.635 89.7317L932.215 88.8242ZM925.887 90.875L925.691 89.8944L925.687 89.8951L925.887 90.875ZM919.91 91.5195V90.5195H917.223L919.256 92.2763L919.91 91.5195ZM951.727 119V120H954.414L952.38 118.243L951.727 119ZM928.172 119L927.518 119.756L927.799 120H928.172V119ZM896.414 91.5195L897.068 90.7633L896.787 90.5195H896.414V91.5195ZM885.457 91.5195H884.457V92.5195H885.457V91.5195ZM885.457 76.2852V75.2852H884.457V76.2852H885.457ZM919.91 76.2852V77.2852H919.951L919.992 77.2818L919.91 76.2852ZM925.125 75.1133L925.496 76.0418L925.508 76.037L925.125 75.1133ZM929.227 72.4766L928.544 71.7455L928.538 71.7513L928.532 71.7572L929.227 72.4766ZM931.922 68.5508L932.847 68.9304L932.85 68.9222L931.922 68.5508ZM932.508 51.6758L931.585 52.0604L931.605 52.1087L931.63 52.1546L932.508 51.6758ZM931.688 50.6797L931.088 51.4797L931.142 51.5207L931.202 51.5538L931.688 50.6797ZM930.633 50.2695L930.522 51.2635L930.533 51.2646L930.633 50.2695ZM879.363 50.2109V49.2109H878.363V50.2109H879.363ZM879.363 119V120H880.363V119H879.363ZM864.129 119H863.129V120H864.129V119ZM866.297 37.2031L865.59 36.496L865.58 36.5061L865.57 36.5165L866.297 37.2031ZM938.25 36.8516L937.779 37.734L937.791 37.74L938.25 36.8516ZM943.934 41.4805L943.142 42.091L943.149 42.1002L943.156 42.1092L943.934 41.4805ZM947.098 47.457L946.137 47.7364L946.14 47.7444L946.142 47.7523L947.098 47.457ZM947.094 63.2188C947.094 66.6145 946.674 69.6161 945.851 72.2353L947.759 72.835C948.654 69.9855 949.094 66.7761 949.094 63.2188H947.094ZM945.851 72.2353C945.019 74.8822 943.89 77.209 942.471 79.2253L944.107 80.3763C945.657 78.1738 946.872 75.6569 947.759 72.835L945.851 72.2353ZM942.469 79.2284C941.079 81.2196 939.468 82.9225 937.637 84.3426L938.863 85.923C940.86 84.3743 942.609 82.5226 944.109 80.3732L942.469 79.2284ZM937.637 84.3426C935.78 85.7827 933.833 86.9732 931.795 87.9167L932.635 89.7317C934.816 88.7221 936.892 87.4517 938.863 85.923L937.637 84.3426ZM931.802 87.9133C929.799 88.8206 927.762 89.4802 925.691 89.8944L926.083 91.8556C928.309 91.4104 930.49 90.7029 932.627 89.7352L931.802 87.9133ZM925.687 89.8951C923.634 90.3134 921.709 90.5195 919.91 90.5195V92.5195C921.861 92.5195 923.921 92.296 926.086 91.8549L925.687 89.8951ZM919.256 92.2763L951.073 119.757L952.38 118.243L920.564 90.7627L919.256 92.2763ZM951.727 118H928.172V120H951.727V118ZM928.826 118.244L897.068 90.7633L895.76 92.2757L927.518 119.756L928.826 118.244ZM896.414 90.5195H885.457V92.5195H896.414V90.5195ZM886.457 91.5195V76.2852H884.457V91.5195H886.457ZM885.457 77.2852H919.91V75.2852H885.457V77.2852ZM919.992 77.2818C921.991 77.1186 923.829 76.7087 925.496 76.0418L924.754 74.1848C923.296 74.7679 921.657 75.1392 919.829 75.2885L919.992 77.2818ZM925.508 76.037C927.214 75.3298 928.69 74.3851 929.921 73.196L928.532 71.7572C927.498 72.7555 926.24 73.5686 924.742 74.1895L925.508 76.037ZM929.909 73.2076C931.189 72.0128 932.169 70.5833 932.847 68.9303L930.997 68.1712C930.425 69.5651 929.608 70.7528 928.544 71.7455L929.909 73.2076ZM932.85 68.9222C933.53 67.222 933.859 65.3152 933.859 63.2188H931.859C931.859 65.1067 931.563 66.7546 930.993 68.1794L932.85 68.9222ZM933.859 63.2188V53.6094H931.859V63.2188H933.859ZM933.859 53.6094C933.859 52.6918 933.74 51.8462 933.386 51.1969L931.63 52.1546C931.745 52.3647 931.859 52.8082 931.859 53.6094H933.859ZM933.431 51.2912C933.172 50.6702 932.768 50.1362 932.173 49.8055L931.202 51.5538C931.31 51.6138 931.453 51.7438 931.585 52.0604L933.431 51.2912ZM932.287 49.8797C931.828 49.5353 931.303 49.3316 930.732 49.2745L930.533 51.2646C930.743 51.2856 930.922 51.3553 931.088 51.4797L932.287 49.8797ZM930.743 49.2756C930.36 49.233 929.991 49.2109 929.637 49.2109V51.2109C929.908 51.2109 930.203 51.2279 930.522 51.2634L930.743 49.2756ZM929.637 49.2109H879.363V51.2109H929.637V49.2109ZM878.363 50.2109V119H880.363V50.2109H878.363ZM879.363 118H864.129V120H879.363V118ZM865.129 119V42.6523H863.129V119H865.129ZM865.129 42.6523C865.129 41.7245 865.3 40.8596 865.638 40.0487L863.792 39.2794C863.348 40.3435 863.129 41.4708 863.129 42.6523H865.129ZM865.638 40.0487C865.984 39.2172 866.447 38.5005 867.024 37.8897L865.57 36.5165C864.819 37.312 864.227 38.2359 863.792 39.2794L865.638 40.0487ZM867.004 37.9102C867.613 37.3015 868.323 36.8271 869.142 36.4856L868.373 34.6394C867.318 35.0792 866.387 35.6985 865.59 36.496L867.004 37.9102ZM869.142 36.4856C869.949 36.1495 870.833 35.9766 871.805 35.9766V33.9766C870.589 33.9766 869.442 34.1942 868.373 34.6394L869.142 36.4856ZM871.805 35.9766H929.637V33.9766H871.805V35.9766ZM929.637 35.9766C932.916 35.9766 935.615 36.5798 937.779 37.7339L938.721 35.9692C936.197 34.6234 933.155 33.9766 929.637 33.9766V35.9766ZM937.791 37.74C940.02 38.8915 941.795 40.3445 943.142 42.091L944.726 40.87C943.181 38.8664 941.168 37.2335 938.709 35.9631L937.791 37.74ZM943.156 42.1092C944.562 43.8477 945.552 45.7223 946.137 47.7364L948.058 47.1777C947.394 44.8949 946.274 42.7851 944.711 40.8517L943.156 42.1092ZM946.142 47.7523C946.782 49.8236 947.094 51.7349 947.094 53.4922H949.094C949.094 51.4995 948.741 49.3874 948.053 47.1617L946.142 47.7523ZM947.094 53.4922V63.2188H949.094V53.4922H947.094ZM1050.16 102.418L1049.21 102.111L1049.2 102.121L1050.16 102.418ZM1032.05 118.414L1031.85 117.435L1031.84 117.436L1032.05 118.414ZM968.067 119H967.067V120H968.067V119ZM968.067 103.766V102.766H967.067V103.766H968.067ZM1033.63 101.188L1032.91 100.497L1032.9 100.506L1033.63 101.188ZM1033.57 87.3594L1032.84 88.0321L1032.84 88.0411L1032.85 88.0499L1033.57 87.3594ZM1030.65 85.3672L1030.26 86.2913L1030.27 86.2957L1030.65 85.3672ZM983.829 83.375L983.528 84.3289L983.54 84.3325L983.829 83.375ZM975.86 79.0977L975.232 79.8761L975.239 79.8809L975.86 79.0977ZM969.766 71.4219L968.874 71.8735L968.879 71.8822L969.766 71.4219ZM969.766 48.2773L968.879 47.817L968.876 47.8213L969.766 48.2773ZM975.86 40.6016L976.488 41.38L976.489 41.3788L975.86 40.6016ZM983.829 36.3242L984.117 37.2818L984.129 37.278L983.829 36.3242ZM1043.65 34.9766H1044.65V33.9766H1043.65V34.9766ZM1043.65 50.2109V51.2109H1044.65V50.2109H1043.65ZM985.001 52.8477L984.27 52.1653L984.262 52.1742L985.001 52.8477ZM985.001 66.793L984.269 67.4747L984.277 67.4833L984.285 67.4917L985.001 66.793ZM1026.95 69.3125L1026.98 68.3128L1026.97 68.3125H1026.95V69.3125ZM1032.17 70.0156L1031.94 70.9893L1031.95 70.9916L1031.96 70.9937L1032.17 70.0156ZM1037.62 71.8906L1037.19 72.7928L1037.19 72.7963L1037.62 71.8906ZM1042.83 75.1719L1042.2 75.9491L1042.21 75.9537L1042.21 75.9582L1042.83 75.1719ZM1047.17 79.8594L1046.34 80.4222L1046.35 80.4281L1046.35 80.434L1047.17 79.8594ZM1050.22 86.1875L1049.26 86.4849L1050.22 86.1875ZM1050.33 94.2734C1050.33 97.1955 1049.95 99.8044 1049.21 102.111L1051.11 102.725C1051.93 100.188 1052.33 97.367 1052.33 94.2734H1050.33ZM1049.2 102.121C1048.49 104.421 1047.53 106.438 1046.34 108.183L1048 109.309C1049.31 107.382 1050.34 105.181 1051.11 102.715L1049.2 102.121ZM1046.34 108.183C1045.15 109.936 1043.76 111.419 1042.17 112.64L1043.38 114.227C1045.15 112.87 1046.69 111.228 1048 109.309L1046.34 108.183ZM1042.17 112.64C1040.54 113.887 1038.87 114.901 1037.14 115.688L1037.97 117.507C1039.84 116.654 1041.65 115.559 1043.38 114.227L1042.17 112.64ZM1037.14 115.688C1035.41 116.478 1033.65 117.06 1031.85 117.435L1032.26 119.393C1034.21 118.987 1036.11 118.358 1037.97 117.507L1037.14 115.688ZM1031.84 117.436C1030.07 117.814 1028.4 118 1026.84 118V120C1028.56 120 1030.36 119.795 1032.26 119.392L1031.84 117.436ZM1026.84 118H968.067V120H1026.84V118ZM969.067 119V103.766H967.067V119H969.067ZM968.067 104.766H1026.84V102.766H968.067V104.766ZM1026.84 104.766C1029.97 104.766 1032.53 103.839 1034.37 101.869L1032.9 100.506C1031.53 101.973 1029.56 102.766 1026.84 102.766V104.766ZM1034.36 101.878C1036.21 99.9345 1037.09 97.3623 1037.09 94.2734H1035.09C1035.09 96.9658 1034.34 99.003 1032.91 100.497L1034.36 101.878ZM1037.09 94.2734C1037.09 92.7645 1036.86 91.3572 1036.39 90.062L1034.51 90.7505C1034.9 91.7991 1035.09 92.9699 1035.09 94.2734H1037.09ZM1036.39 90.062C1035.91 88.7678 1035.22 87.6327 1034.3 86.6689L1032.85 88.0499C1033.57 88.8048 1034.13 89.701 1034.51 90.7505L1036.39 90.062ZM1034.31 86.6867C1033.42 85.7058 1032.32 84.9588 1031.02 84.4387L1030.27 86.2957C1031.32 86.7131 1032.16 87.2942 1032.84 88.0321L1034.31 86.6867ZM1031.03 84.4432C1029.76 83.9174 1028.36 83.6641 1026.84 83.6641V85.6641C1028.13 85.6641 1029.27 85.8794 1030.26 86.2912L1031.03 84.4432ZM1026.84 83.6641H991.798V85.6641H1026.84V83.6641ZM991.798 83.6641C989.452 83.6641 986.894 83.2544 984.117 82.4175L983.54 84.3325C986.467 85.2143 989.221 85.6641 991.798 85.6641V83.6641ZM984.129 82.4212C981.4 81.5614 978.852 80.1954 976.482 78.3144L975.239 79.8809C977.79 81.9061 980.554 83.3918 983.528 84.3288L984.129 82.4212ZM976.488 78.3192C974.188 76.4648 972.24 74.0205 970.654 70.9616L968.879 71.8822C970.574 75.1513 972.688 77.8243 975.232 79.8761L976.488 78.3192ZM970.659 70.9703C969.145 67.9807 968.364 64.2776 968.364 59.8203H966.364C966.364 64.5037 967.184 68.5349 968.874 71.8735L970.659 70.9703ZM968.364 59.8203C968.364 55.3624 969.146 51.6812 970.656 48.7334L968.876 47.8213C967.184 51.1235 966.364 55.1376 966.364 59.8203H968.364ZM970.654 48.7377C972.24 45.6787 974.188 43.2344 976.488 41.38L975.232 39.8232C972.688 41.8749 970.574 44.5479 968.879 47.817L970.654 48.7377ZM976.489 41.3788C978.856 39.463 981.398 38.1013 984.117 37.2817L983.54 35.3668C980.557 36.2659 977.786 37.7558 975.231 39.8243L976.489 41.3788ZM984.129 37.278C986.904 36.4039 989.458 35.9766 991.798 35.9766V33.9766C989.216 33.9766 986.457 34.4477 983.528 35.3704L984.129 37.278ZM991.798 35.9766H1043.65V33.9766H991.798V35.9766ZM1042.65 34.9766V50.2109H1044.65V34.9766H1042.65ZM1043.65 49.2109H991.798V51.2109H1043.65V49.2109ZM991.798 49.2109C988.69 49.2109 986.137 50.1645 984.27 52.1653L985.732 53.53C987.146 52.0152 989.124 51.2109 991.798 51.2109V49.2109ZM984.262 52.1742C982.458 54.154 981.598 56.737 981.598 59.8203H983.598C983.598 57.1224 984.341 55.0569 985.74 53.5211L984.262 52.1742ZM981.598 59.8203C981.598 62.9376 982.455 65.528 984.269 67.4747L985.732 66.1112C984.343 64.6204 983.598 62.5624 983.598 59.8203H981.598ZM984.285 67.4917C986.156 69.4068 988.704 70.3125 991.798 70.3125V68.3125C989.11 68.3125 987.127 67.5385 985.716 66.0942L984.285 67.4917ZM991.798 70.3125H1026.84V68.3125H991.798V70.3125ZM1026.84 70.3125H1026.95V68.3125H1026.84V70.3125ZM1026.93 70.3122C1028.49 70.3494 1030.16 70.573 1031.94 70.9893L1032.4 69.0419C1030.5 68.5988 1028.7 68.3537 1026.98 68.3128L1026.93 70.3122ZM1031.96 70.9937C1033.71 71.367 1035.46 71.9654 1037.19 72.7928L1038.05 70.9885C1036.19 70.0971 1034.29 69.4455 1032.38 69.0375L1031.96 70.9937ZM1037.19 72.7963C1038.95 73.62 1040.62 74.6699 1042.2 75.9491L1043.46 74.3946C1041.76 73.0176 1039.95 71.88 1038.04 70.9849L1037.19 72.7963ZM1042.21 75.9582C1043.77 77.1799 1045.15 78.6655 1046.34 80.4222L1048 79.2966C1046.69 77.3813 1045.18 75.742 1043.45 74.3856L1042.21 75.9582ZM1046.35 80.434C1047.57 82.1762 1048.55 84.19 1049.26 86.4849L1051.17 85.8901C1050.4 83.4194 1049.34 81.2144 1047.99 79.2847L1046.35 80.434ZM1049.26 86.4849C1049.97 88.754 1050.33 91.3465 1050.33 94.2734H1052.33C1052.33 91.1848 1051.95 88.3866 1051.17 85.8901L1049.26 86.4849ZM1138.28 117.594L1138.65 118.521L1138.65 118.519L1138.28 117.594ZM1089.7 117.594L1089.32 118.519L1089.33 118.522L1089.7 117.594ZM1071.19 99.1367L1070.26 99.5154L1070.26 99.5225L1071.19 99.1367ZM1071.19 54.8984L1070.26 54.5156L1070.26 54.5198L1071.19 54.8984ZM1078.57 43.7656L1079.27 44.4772L1079.28 44.4727L1078.57 43.7656ZM1138.28 36.4414L1137.89 37.3657L1137.9 37.367L1138.28 36.4414ZM1149.41 43.7656L1148.7 44.4727L1148.71 44.4772L1149.41 43.7656ZM1156.73 54.8984L1155.81 55.2741L1155.81 55.2771L1156.73 54.8984ZM1142.67 60.8164L1141.74 61.1724L1141.74 61.1814L1141.74 61.1904L1142.67 60.8164ZM1138.63 54.5469L1137.91 55.246L1137.92 55.254L1137.93 55.2619L1138.63 54.5469ZM1132.36 50.5039L1131.98 51.4313L1131.99 51.435L1132 51.4384L1132.36 50.5039ZM1095.56 50.5039L1095.92 51.4365L1095.93 51.4334L1095.56 50.5039ZM1089.29 54.5469L1089.99 55.2619L1090 55.254L1089.29 54.5469ZM1085.19 60.8164L1084.26 60.4475L1084.26 60.4554L1085.19 60.8164ZM1085.19 93.2188L1084.25 93.5747L1084.26 93.5838L1084.26 93.5927L1085.19 93.2188ZM1089.29 99.4883L1088.58 100.195L1088.59 100.203L1089.29 99.4883ZM1095.56 103.531L1095.19 104.459L1095.2 104.462L1095.2 104.466L1095.56 103.531ZM1132.3 103.531L1132.66 104.464L1132.67 104.461L1132.3 103.531ZM1138.63 99.4883L1139.33 100.203L1139.33 100.195L1138.63 99.4883ZM1142.67 93.2188L1141.74 92.8499L1141.74 92.8578L1142.67 93.2188ZM1158.37 85.0156C1158.37 90.0163 1157.51 94.5931 1155.81 98.7581L1157.66 99.5154C1159.47 95.0866 1160.37 90.2494 1160.37 85.0156H1158.37ZM1155.81 98.7581C1154.1 102.938 1151.73 106.536 1148.7 109.562L1150.11 110.977C1153.34 107.753 1155.85 103.929 1157.66 99.5154L1155.81 98.7581ZM1148.7 109.562C1145.67 112.589 1142.08 114.958 1137.9 116.668L1138.65 118.519C1143.07 116.714 1146.89 114.2 1150.11 110.977L1148.7 109.562ZM1137.9 116.666C1133.77 118.333 1129.25 119.172 1124.33 119.172V121.172C1129.48 121.172 1134.26 120.292 1138.65 118.521L1137.9 116.666ZM1124.33 119.172H1103.7V121.172H1124.33V119.172ZM1103.7 119.172C1098.78 119.172 1094.24 118.333 1090.07 116.665L1089.33 118.522C1093.75 120.292 1098.55 121.172 1103.7 121.172V119.172ZM1090.08 116.668C1085.9 114.958 1082.3 112.589 1079.28 109.562L1077.86 110.977C1081.08 114.2 1084.91 116.714 1089.32 118.519L1090.08 116.668ZM1079.28 109.562C1076.25 106.534 1073.86 102.934 1072.11 98.7509L1070.26 99.5225C1072.11 103.933 1074.64 107.755 1077.86 110.977L1079.28 109.562ZM1072.11 98.7581C1070.41 94.5931 1069.55 90.0163 1069.55 85.0156H1067.55C1067.55 90.2494 1068.45 95.0866 1070.26 99.5154L1072.11 98.7581ZM1069.55 85.0156V68.9609H1067.55V85.0156H1069.55ZM1069.55 68.9609C1069.55 64.0004 1070.41 59.4429 1072.11 55.2771L1070.26 54.5198C1068.45 58.9477 1067.55 63.7652 1067.55 68.9609H1069.55ZM1072.11 55.2813C1073.86 51.06 1076.25 47.4631 1079.27 44.4772L1077.87 43.0541C1074.64 46.24 1072.11 50.065 1070.26 54.5156L1072.11 55.2813ZM1079.28 44.4727C1082.3 41.4463 1085.9 39.0771 1090.08 37.367L1089.32 35.5159C1084.91 37.3214 1081.08 39.8349 1077.86 43.0585L1079.28 44.4727ZM1090.08 37.367C1094.25 35.6624 1098.78 34.8047 1103.7 34.8047V32.8047C1098.55 32.8047 1093.75 33.7048 1089.32 35.5159L1090.08 37.367ZM1103.7 34.8047H1124.33V32.8047H1103.7V34.8047ZM1124.33 34.8047C1129.25 34.8047 1133.77 35.6624 1137.89 37.3657L1138.66 35.5171C1134.27 33.7048 1129.49 32.8047 1124.33 32.8047V34.8047ZM1137.9 37.367C1142.08 39.0771 1145.67 41.4463 1148.7 44.4727L1150.11 43.0585C1146.89 39.8349 1143.07 37.3214 1138.65 35.5159L1137.9 37.367ZM1148.71 44.4772C1151.73 47.4614 1154.1 51.0559 1155.81 55.2741L1157.66 54.5227C1155.85 50.0691 1153.34 46.2417 1150.11 43.0541L1148.71 44.4772ZM1155.81 55.2771C1157.51 59.4429 1158.37 64.0004 1158.37 68.9609H1160.37C1160.37 63.7652 1159.47 58.9477 1157.66 54.5198L1155.81 55.2771ZM1158.37 68.9609V85.0156H1160.37V68.9609H1158.37ZM1145.13 68.9609C1145.13 65.8442 1144.63 62.9998 1143.6 60.4424L1141.74 61.1904C1142.66 63.4768 1143.13 66.062 1143.13 68.9609H1145.13ZM1143.6 60.4604C1142.62 57.874 1141.19 55.6589 1139.33 53.8319L1137.93 55.2619C1139.57 56.8723 1140.85 58.837 1141.74 61.1724L1143.6 60.4604ZM1139.34 53.8478C1137.51 51.9792 1135.3 50.5547 1132.71 49.5694L1132 51.4384C1134.34 52.3281 1136.3 53.5989 1137.91 55.246L1139.34 53.8478ZM1132.73 49.5765C1130.18 48.5465 1127.37 48.0391 1124.33 48.0391V50.0391C1127.15 50.0391 1129.69 50.5082 1131.98 51.4313L1132.73 49.5765ZM1124.33 48.0391H1103.7V50.0391H1124.33V48.0391ZM1103.7 48.0391C1100.62 48.0391 1097.78 48.546 1095.19 49.5744L1095.93 51.4334C1098.26 50.5087 1100.85 50.0391 1103.7 50.0391V48.0391ZM1095.2 49.5713C1092.65 50.5568 1090.44 51.9791 1088.58 53.8398L1090 55.254C1091.65 53.599 1093.62 52.326 1095.92 51.4365L1095.2 49.5713ZM1088.59 53.8319C1086.73 55.656 1085.28 57.8665 1084.26 60.4476L1086.12 61.1853C1087.05 58.8444 1088.34 56.8753 1089.99 55.2619L1088.59 53.8319ZM1084.26 60.4554C1083.27 63.0091 1082.78 65.8489 1082.78 68.9609H1084.78C1084.78 66.0573 1085.24 63.4675 1086.12 61.1774L1084.26 60.4554ZM1082.78 68.9609V85.0156H1084.78V68.9609H1082.78ZM1082.78 85.0156C1082.78 88.128 1083.27 90.9852 1084.25 93.5747L1086.12 92.8628C1085.24 90.5305 1084.78 87.9189 1084.78 85.0156H1082.78ZM1084.26 93.5927C1085.29 96.1329 1086.73 98.3377 1088.58 100.195L1090 98.7812C1088.34 97.1232 1087.05 95.1483 1086.12 92.8448L1084.26 93.5927ZM1088.59 100.203C1090.45 102.019 1092.65 103.436 1095.19 104.459L1095.93 102.604C1093.63 101.673 1091.65 100.395 1089.99 98.7733L1088.59 100.203ZM1095.2 104.466C1097.79 105.452 1100.63 105.938 1103.7 105.938V103.938C1100.84 103.938 1098.25 103.486 1095.92 102.597L1095.2 104.466ZM1103.7 105.938H1124.21V103.938H1103.7V105.938ZM1124.21 105.938C1127.29 105.938 1130.11 105.452 1132.66 104.464L1131.94 102.599C1129.65 103.486 1127.08 103.938 1124.21 103.938V105.938ZM1132.67 104.461C1135.24 103.439 1137.47 102.022 1139.33 100.203L1137.93 98.7733C1136.27 100.392 1134.28 101.67 1131.93 102.602L1132.67 104.461ZM1139.33 100.195C1141.19 98.3348 1142.62 96.1255 1143.6 93.5797L1141.74 92.8578C1140.85 95.1558 1139.57 97.1262 1137.92 98.7812L1139.33 100.195ZM1143.6 93.5876C1144.63 90.9944 1145.13 88.1327 1145.13 85.0156H1143.13C1143.13 87.9142 1142.66 90.5212 1141.74 92.8499L1143.6 93.5876ZM1145.13 85.0156V68.9609H1143.13V85.0156H1145.13ZM1264.95 115.543L1264.04 115.126L1264.03 115.142L1264.02 115.158L1264.95 115.543ZM1255.05 119.645L1254.69 120.581L1254.71 120.585L1255.05 119.645ZM1252.53 117.945L1253.25 117.257L1253.25 117.254L1252.53 117.945ZM1196.86 59.8203L1197.58 59.1287L1195.86 57.3303V59.8203H1196.86ZM1196.86 119V120H1197.86V119H1196.86ZM1181.63 119H1180.63V120H1181.63V119ZM1182.92 37.2617L1182.1 36.6899L1182.09 36.6952L1182.92 37.2617ZM1186.31 34.3906L1185.94 33.4639L1185.92 33.4721L1185.9 33.4812L1186.31 34.3906ZM1190.77 33.9805L1190.57 34.9601L1190.58 34.9626L1190.59 34.9647L1190.77 33.9805ZM1194.69 36.0898L1195.42 35.3978L1195.41 35.3952L1194.69 36.0898ZM1250.36 94.1562L1249.64 94.8483L1251.36 96.6445V94.1562H1250.36ZM1250.36 34.9766V33.9766H1249.36V34.9766H1250.36ZM1265.59 34.9766H1266.59V33.9766H1265.59V34.9766ZM1264.59 112.496C1264.59 113.455 1264.4 114.327 1264.04 115.126L1265.86 115.96C1266.35 114.884 1266.59 113.725 1266.59 112.496H1264.59ZM1264.02 115.158C1263.68 115.978 1263.21 116.688 1262.6 117.297L1264.01 118.711C1264.81 117.914 1265.43 116.983 1265.87 115.928L1264.02 115.158ZM1262.6 117.297C1262.04 117.861 1261.35 118.318 1260.52 118.663L1261.29 120.509C1262.34 120.072 1263.25 119.475 1264.01 118.711L1262.6 117.297ZM1260.52 118.663C1259.71 119.001 1258.84 119.172 1257.92 119.172V121.172C1259.1 121.172 1260.23 120.952 1261.29 120.509L1260.52 118.663ZM1257.92 119.172C1257.11 119.172 1256.26 119.02 1255.38 118.704L1254.71 120.585C1255.78 120.972 1256.85 121.172 1257.92 121.172V119.172ZM1255.4 118.708C1254.61 118.414 1253.9 117.937 1253.25 117.257L1251.8 118.634C1252.64 119.517 1253.6 120.172 1254.69 120.581L1255.4 118.708ZM1253.25 117.254L1197.58 59.1287L1196.14 60.512L1251.8 118.637L1253.25 117.254ZM1195.86 59.8203V119H1197.86V59.8203H1195.86ZM1196.86 118H1181.63V120H1196.86V118ZM1182.63 119V41.4805H1180.63V119H1182.63ZM1182.63 41.4805C1182.63 40.1138 1183 38.9063 1183.74 37.8282L1182.09 36.6952C1181.11 38.1171 1180.63 39.7221 1180.63 41.4805H1182.63ZM1183.74 37.8335C1184.54 36.6842 1185.53 35.8473 1186.73 35.3001L1185.9 33.4812C1184.36 34.1839 1183.09 35.2611 1182.1 36.6899L1183.74 37.8335ZM1186.69 35.3174C1187.95 34.8053 1189.24 34.6873 1190.57 34.9601L1190.97 33.0009C1189.25 32.6486 1187.57 32.8041 1185.94 33.4639L1186.69 35.3174ZM1190.59 34.9647C1191.9 35.2004 1193.02 35.8 1193.97 36.7844L1195.41 35.3952C1194.18 34.1141 1192.68 33.3074 1190.94 32.9962L1190.59 34.9647ZM1193.97 36.7819L1249.64 94.8483L1251.08 93.4642L1195.42 35.3978L1193.97 36.7819ZM1251.36 94.1562V34.9766H1249.36V94.1562H1251.36ZM1250.36 35.9766H1265.59V33.9766H1250.36V35.9766ZM1264.59 34.9766V112.496H1266.59V34.9766H1264.59Z" fill="white" fill-opacity="0.2" mask="url(#path-1-outside-1_237_815)"/>
    <path d="M518.875 106H510.688V79.3125L496.281 104.656C495.927 105.302 495.427 105.792 494.781 106.125C494.156 106.458 493.479 106.625 492.75 106.625C492.042 106.625 491.375 106.458 490.75 106.125C490.146 105.792 489.667 105.302 489.312 104.656L474.844 79.3125V106H466.719V64.6562C466.719 63.7188 466.99 62.8854 467.531 62.1562C468.094 61.4271 468.823 60.9375 469.719 60.6875C470.156 60.5833 470.594 60.5521 471.031 60.5938C471.469 60.6146 471.885 60.7083 472.281 60.875C472.698 61.0208 473.073 61.2396 473.406 61.5312C473.74 61.8021 474.021 62.1354 474.25 62.5312L492.75 94.6875L511.25 62.5312C511.729 61.7396 512.385 61.1771 513.219 60.8438C514.073 60.5104 514.958 60.4583 515.875 60.6875C516.75 60.9375 517.469 61.4271 518.031 62.1562C518.594 62.8854 518.875 63.7188 518.875 64.6562V106ZM569.027 87.6875H543.371V79.5H569.027V87.6875ZM572.684 106H543.371C542.246 106 541.017 105.802 539.684 105.406C538.35 105.01 537.111 104.365 535.965 103.469C534.84 102.552 533.892 101.375 533.121 99.9375C532.371 98.4792 531.996 96.6979 531.996 94.5938V65.2812C531.996 64.7188 532.1 64.1875 532.309 63.6875C532.517 63.1875 532.798 62.75 533.152 62.375C533.527 62 533.965 61.7083 534.465 61.5C534.965 61.2917 535.507 61.1875 536.09 61.1875H572.684V69.3125H540.121V94.5938C540.121 95.6562 540.402 96.4688 540.965 97.0312C541.527 97.5938 542.35 97.875 543.434 97.875H572.684V106ZM621.243 87.6875H595.586V79.5H621.243V87.6875ZM624.899 106H595.586C594.461 106 593.232 105.802 591.899 105.406C590.565 105.01 589.326 104.365 588.18 103.469C587.055 102.552 586.107 101.375 585.336 99.9375C584.586 98.4792 584.211 96.6979 584.211 94.5938V65.2812C584.211 64.7188 584.315 64.1875 584.524 63.6875C584.732 63.1875 585.013 62.75 585.368 62.375C585.743 62 586.18 61.7083 586.68 61.5C587.18 61.2917 587.722 61.1875 588.305 61.1875H624.899V69.3125H592.336V94.5938C592.336 95.6562 592.618 96.4688 593.18 97.0312C593.743 97.5938 594.565 97.875 595.649 97.875H624.899V106ZM677.114 69.3125H659.208V106H651.083V69.3125H633.145V61.1875H677.114V69.3125ZM754.825 101.906C754.825 102.49 754.721 103.031 754.512 103.531C754.304 104.031 754.012 104.469 753.637 104.844C753.262 105.198 752.825 105.479 752.325 105.688C751.825 105.896 751.294 106 750.731 106H732.419C730.69 106 728.94 105.812 727.169 105.438C725.398 105.062 723.679 104.49 722.012 103.719C720.367 102.927 718.815 101.927 717.356 100.719C715.898 99.5104 714.617 98.0833 713.512 96.4375C712.429 94.7708 711.575 92.875 710.95 90.75C710.325 88.6042 710.012 86.2188 710.012 83.5938V61.1875H718.137V83.5938C718.137 85.8854 718.45 87.8229 719.075 89.4062C719.721 90.9896 720.533 92.3125 721.512 93.375C722.492 94.4375 723.565 95.2708 724.731 95.875C725.898 96.4792 727.002 96.9271 728.044 97.2188C729.106 97.5104 730.033 97.6979 730.825 97.7812C731.637 97.8438 732.169 97.875 732.419 97.875H746.7V61.1875H754.825V101.906ZM811.196 92.8125C811.196 94.4167 810.988 95.8646 810.571 97.1562C810.175 98.4271 809.644 99.5521 808.978 100.531C808.311 101.51 807.53 102.344 806.634 103.031C805.738 103.719 804.811 104.281 803.853 104.719C802.894 105.156 801.915 105.479 800.915 105.688C799.936 105.896 799.009 106 798.134 106H766.79V97.875H798.134C799.696 97.875 800.905 97.4167 801.759 96.5C802.634 95.5833 803.071 94.3542 803.071 92.8125C803.071 92.0625 802.957 91.375 802.728 90.75C802.498 90.125 802.165 89.5833 801.728 89.125C801.311 88.6667 800.79 88.3125 800.165 88.0625C799.561 87.8125 798.884 87.6875 798.134 87.6875H779.446C778.134 87.6875 776.717 87.4583 775.196 87C773.675 86.5208 772.259 85.7604 770.946 84.7188C769.655 83.6771 768.571 82.3125 767.696 80.625C766.842 78.9375 766.415 76.875 766.415 74.4375C766.415 72 766.842 69.9479 767.696 68.2812C768.571 66.5938 769.655 65.2292 770.946 64.1875C772.259 63.125 773.675 62.3646 775.196 61.9062C776.717 61.4271 778.134 61.1875 779.446 61.1875H807.103V69.3125H779.446C777.905 69.3125 776.696 69.7812 775.821 70.7188C774.967 71.6562 774.54 72.8958 774.54 74.4375C774.54 76 774.967 77.2396 775.821 78.1562C776.696 79.0521 777.905 79.5 779.446 79.5H798.134H798.196C799.071 79.5208 799.998 79.6458 800.978 79.875C801.957 80.0833 802.925 80.4167 803.884 80.875C804.863 81.3333 805.79 81.9167 806.665 82.625C807.54 83.3125 808.311 84.1458 808.978 85.125C809.665 86.1042 810.207 87.2292 810.603 88.5C810.998 89.7708 811.196 91.2083 811.196 92.8125Z" fill="white"/>
</svg>
