<svg width="266" height="76" viewBox="0 0 266 76" fill="none" xmlns="http://www.w3.org/2000/svg">
    <path d="M78.4374 76H8.95843C4.01955 76 0.00195312 71.9621 0.00195312 66.9983V26.1479C0.00195312 23.4301 1.20354 20.8882 3.29925 19.1706L24.2281 2.0244C25.8219 0.718475 27.8318 0 29.8873 0H80.1007C81.3436 0 82.5506 0.253322 83.6881 0.753416L93.0433 4.86335C94.0732 5.3154 95.1651 5.5447 96.2895 5.5447H257.045C261.984 5.5447 266.002 9.58257 266.002 14.5464V54.7329C266.002 59.6967 261.984 63.7346 257.045 63.7346H97.9637C95.8517 63.7346 93.8527 64.547 92.3339 66.0211L84.6594 73.4711C82.9808 75.1014 80.771 75.9989 78.4374 75.9989V76ZM29.8873 0.857147C28.0273 0.857147 26.2087 1.50792 24.767 2.68827L3.83812 19.8356C1.94231 21.3894 0.854796 23.69 0.854796 26.1479V66.9983C0.854796 71.4893 4.48997 75.1428 8.95843 75.1428H78.4374C80.5494 75.1428 82.5484 74.3305 84.0673 72.8564L91.7418 65.4063C93.4203 63.7761 95.6301 62.8785 97.9648 62.8785H257.047C261.515 62.8785 265.15 59.225 265.15 54.734V14.5475C265.15 10.0565 261.515 6.40294 257.047 6.40294H96.2895C95.0477 6.40294 93.8407 6.14962 92.7022 5.64953L83.3459 1.53959C82.3159 1.08754 81.2241 0.858239 80.1007 0.858239H29.8873V0.857147Z" fill="white"/>
    <path d="M5.58984 21.9952L26.5198 4.84793C27.4682 4.07049 28.6644 3.64355 29.8877 3.64355H80.1012C80.841 3.64355 81.5591 3.79424 82.236 4.09233L91.5923 8.20336C93.0828 8.8585 94.6636 9.19044 96.29 9.19044H146.164" stroke="white" stroke-width="2.52" stroke-miterlimit="10" stroke-linecap="round"/>
    <path d="M257.045 10.6904H96.2894C94.4555 10.6904 92.6749 10.3159 90.9942 9.57779L81.6379 5.46676C81.1501 5.25275 80.633 5.14355 80.1006 5.14355H29.8872C29.0061 5.14355 28.1446 5.45147 27.4623 6.01162L6.53235 23.1589C5.63387 23.8949 5.11891 24.9846 5.11891 26.1497V37.7195L4.95703 38.0012L5.11891 38.2829V67.0001C5.11891 69.1271 6.84089 70.8578 8.95724 70.8578H78.4362C79.4368 70.8578 80.3831 70.4735 81.1023 69.7746L88.7768 62.3246C91.2549 59.9191 94.5175 58.5935 97.9625 58.5935H257.044C259.161 58.5935 260.883 56.8628 260.883 54.7358V14.5482C260.883 12.4211 259.161 10.6904 257.044 10.6904H257.045Z" fill="#FF2D34"/>
    <path d="M106.862 36.5846C106.862 36.9685 106.796 37.3253 106.663 37.6551C106.53 37.9848 106.343 38.2703 106.102 38.5115C105.866 38.7527 105.583 38.9421 105.253 39.08C104.923 39.2129 104.564 39.2793 104.175 39.2793H97.1391V37.3598H104.175C104.411 37.3598 104.596 37.2933 104.729 37.1604C104.861 37.0226 104.928 36.8307 104.928 36.5846V28.6923H106.862V36.5846ZM120.929 34.9973C120.929 35.642 120.819 36.2351 120.597 36.7765C120.376 37.3179 120.068 37.7855 119.674 38.1793C119.281 38.573 118.813 38.8806 118.272 39.1021C117.735 39.3187 117.149 39.427 116.515 39.427H113.916C113.281 39.427 112.693 39.3187 112.151 39.1021C111.61 38.8806 111.142 38.573 110.749 38.1793C110.355 37.7855 110.045 37.3179 109.818 36.7765C109.597 36.2351 109.486 35.642 109.486 34.9973V32.9744C109.486 32.3345 109.597 31.7439 109.818 31.2025C110.045 30.6562 110.355 30.1886 110.749 29.7998C111.142 29.406 111.61 29.0984 112.151 28.8769C112.693 28.6554 113.281 28.5447 113.916 28.5447H116.515C117.149 28.5447 117.735 28.6554 118.272 28.8769C118.813 29.0984 119.281 29.406 119.674 29.7998C120.068 30.1886 120.376 30.6562 120.597 31.2025C120.819 31.7439 120.929 32.3345 120.929 32.9744V34.9973ZM119.01 32.9744C119.01 32.5954 118.948 32.2533 118.825 31.9482C118.707 31.6381 118.537 31.3748 118.316 31.1582C118.099 30.9367 117.836 30.7669 117.526 30.6488C117.221 30.5257 116.884 30.4642 116.515 30.4642H113.916C113.542 30.4642 113.2 30.5257 112.89 30.6488C112.584 30.7669 112.321 30.9367 112.1 31.1582C111.878 31.3748 111.706 31.6381 111.583 31.9482C111.465 32.2533 111.406 32.5954 111.406 32.9744V34.9973C111.406 35.3763 111.465 35.7208 111.583 36.0309C111.706 36.336 111.878 36.5993 112.1 36.8208C112.321 37.0374 112.584 37.2072 112.89 37.3302C113.2 37.4484 113.542 37.5074 113.916 37.5074H116.5C116.874 37.5074 117.213 37.4484 117.519 37.3302C117.829 37.2072 118.094 37.0374 118.316 36.8208C118.537 36.5993 118.707 36.336 118.825 36.0309C118.948 35.7208 119.01 35.3763 119.01 34.9973V32.9744ZM125.517 39.2793H123.598V28.6923H125.517V39.2793ZM139.097 38.4598C139.097 38.5976 139.07 38.7256 139.016 38.8437C138.967 38.9618 138.898 39.0652 138.809 39.1538C138.725 39.2375 138.625 39.3039 138.506 39.3531C138.388 39.4023 138.263 39.427 138.13 39.427C138.012 39.427 137.891 39.4048 137.768 39.3605C137.65 39.3162 137.544 39.2448 137.451 39.1464L130.437 31.8227V39.2793H128.517V29.5118C128.517 29.315 128.572 29.1378 128.68 28.9803C128.793 28.8179 128.936 28.6973 129.108 28.6185C129.29 28.5447 129.477 28.5275 129.669 28.5668C129.861 28.6013 130.026 28.6899 130.164 28.8326L137.178 36.149V28.6923H139.097V38.4598ZM157.169 30.6119H152.938V39.2793H151.019V30.6119H146.781V28.6923H157.169V30.6119ZM161.277 33.0187H168.017V28.6923H169.937V39.2793H168.017V34.953H161.277V39.2793H159.357V28.6923H161.277V33.0187ZM181.649 34.953H175.587V33.0187H181.649V34.953ZM182.512 39.2793H175.587C175.322 39.2793 175.031 39.2325 174.716 39.139C174.401 39.0455 174.108 38.8929 173.838 38.6813C173.572 38.4647 173.348 38.1866 173.166 37.847C172.989 37.5025 172.9 37.0817 172.9 36.5846V29.6595C172.9 29.5266 172.925 29.4011 172.974 29.283C173.023 29.1648 173.089 29.0615 173.173 28.9729C173.262 28.8843 173.365 28.8154 173.483 28.7662C173.601 28.717 173.729 28.6923 173.867 28.6923H182.512V30.6119H174.82V36.5846C174.82 36.8356 174.886 37.0275 175.019 37.1604C175.152 37.2933 175.346 37.3598 175.602 37.3598H182.512V39.2793ZM200.208 30.6119H195.977V39.2793H194.058V30.6119H189.82V28.6923H200.208V30.6119ZM211.085 34.953H205.024V33.0187H211.085V34.953ZM211.949 39.2793H205.024C204.758 39.2793 204.468 39.2325 204.153 39.139C203.838 39.0455 203.545 38.8929 203.274 38.6813C203.009 38.4647 202.785 38.1866 202.603 37.847C202.425 37.5025 202.337 37.0817 202.337 36.5846V29.6595C202.337 29.5266 202.361 29.4011 202.411 29.283C202.46 29.1648 202.526 29.0615 202.61 28.9729C202.699 28.8843 202.802 28.8154 202.92 28.7662C203.038 28.717 203.166 28.6923 203.304 28.6923H211.949V30.6119H204.256V36.5846C204.256 36.8356 204.323 37.0275 204.456 37.1604C204.589 37.2933 204.783 37.3598 205.039 37.3598H211.949V39.2793ZM224.953 39.2793H223.034V36.6805H216.286V39.2793H214.366V33.9858C214.366 33.2131 214.499 32.5019 214.765 31.8522C215.031 31.2025 215.4 30.6439 215.872 30.1763C216.345 29.7087 216.904 29.3445 217.548 29.0836C218.193 28.8228 218.897 28.6923 219.66 28.6923H223.986C224.119 28.6923 224.245 28.717 224.363 28.7662C224.481 28.8154 224.584 28.8843 224.673 28.9729C224.761 29.0615 224.83 29.1648 224.879 29.283C224.929 29.4011 224.953 29.5266 224.953 29.6595V39.2793ZM216.286 34.761H223.034V30.6119H219.66C219.601 30.6119 219.475 30.6217 219.283 30.6414C219.096 30.6562 218.877 30.698 218.626 30.7669C218.38 30.8358 218.119 30.9416 217.844 31.0844C217.568 31.2271 217.315 31.424 217.083 31.675C216.852 31.926 216.66 32.241 216.507 32.62C216.36 32.9941 216.286 33.4493 216.286 33.9858V34.761ZM240.268 39.2793H238.334V32.9744L234.93 38.9618C234.847 39.1144 234.729 39.2301 234.576 39.3088C234.428 39.3876 234.268 39.427 234.096 39.427C233.929 39.427 233.771 39.3876 233.624 39.3088C233.481 39.2301 233.368 39.1144 233.284 38.9618L229.866 32.9744V39.2793H227.946V29.5118C227.946 29.2904 228.01 29.0935 228.138 28.9212C228.271 28.7489 228.443 28.6333 228.655 28.5742C228.758 28.5496 228.862 28.5422 228.965 28.5521C229.068 28.557 229.167 28.5791 229.26 28.6185C229.359 28.653 229.447 28.7046 229.526 28.7736C229.605 28.8375 229.671 28.9163 229.725 29.0098L234.096 36.6067L238.467 29.0098C238.58 28.8228 238.735 28.6899 238.932 28.6111C239.134 28.5324 239.343 28.5201 239.559 28.5742C239.766 28.6333 239.936 28.7489 240.069 28.9212C240.202 29.0935 240.268 29.2904 240.268 29.5118V39.2793Z" fill="white"/>
    <g clip-path="url(#clip0_300_2222)">
        <path d="M33.332 27.8125C33.332 28.8586 34.1728 29.7035 35.2105 29.7035H47.5321C49.207 29.7035 50.0444 31.7387 48.86 32.9257L33.8825 47.9769C33.5289 48.3323 33.332 48.8118 33.332 49.3147C33.332 50.3608 34.1728 51.2057 35.2105 51.2057C35.7076 51.2057 36.1881 51.0079 36.5384 50.6525L51.5191 35.5979C52.7036 34.4077 54.7255 35.2492 54.7255 36.9324V49.3147C54.7255 50.3574 55.5663 51.2024 56.6039 51.2024C57.6416 51.2024 58.4824 50.3574 58.4824 49.3147V27.8125C58.4824 26.7697 57.6416 25.9248 56.6039 25.9248H35.2105C34.1728 25.9248 33.332 26.7697 33.332 27.8125Z" fill="white"/>
    </g>
    <defs>
        <clipPath id="clip0_300_2222">
            <rect width="25.1537" height="25.2776" fill="white" transform="translate(33.332 25.9248)"/>
        </clipPath>
    </defs>
</svg>
