<svg width="310" height="54" viewBox="0 0 310 54" fill="none" xmlns="http://www.w3.org/2000/svg">
    <g clip-path="url(#clip0_300_2195)">
        <path d="M22.0328 21.4285H4.64491C4.36971 21.4285 4.11535 21.3782 3.88185 21.2818C3.64834 21.1854 3.44402 21.047 3.27306 20.8752C3.1021 20.7033 2.96867 20.4979 2.8686 20.2632C2.77269 20.0284 2.72266 19.7727 2.72266 19.496V0.292969H6.53381V17.5929H22.0286V21.4243L22.0328 21.4285Z" fill="white"/>
        <path d="M43.7454 21.4292H29.9935C29.464 21.4292 28.8885 21.337 28.2631 21.1483C27.6376 20.9597 27.058 20.6537 26.5243 20.2261C25.9906 19.7986 25.5486 19.2452 25.19 18.5619C24.8314 17.8787 24.6562 17.0403 24.6562 16.051V2.22612C24.6562 1.96203 24.7063 1.71052 24.8022 1.47577C24.8981 1.24103 25.0357 1.03563 25.2067 0.855374C25.3776 0.679314 25.5819 0.540982 25.8154 0.444568C26.0489 0.348154 26.3033 0.297852 26.5785 0.297852H43.7454V4.12924H28.4716V16.051C28.4716 16.554 28.605 16.9355 28.8677 17.1996C29.1304 17.4637 29.5182 17.5978 30.0269 17.5978H43.7495V21.4292H43.7454ZM42.0274 12.7939H29.9935V8.93316H42.0274V12.7939Z" fill="white"/>
        <path d="M68.051 21.4292H64.2398V16.2396H50.8424V21.4292H47.0312V10.8614C47.0312 9.31881 47.2939 7.89776 47.8235 6.60246C48.3531 5.30717 49.0828 4.19212 50.021 3.25733C50.9592 2.32254 52.0683 1.59734 53.3484 1.07754C54.6285 0.557749 56.0254 0.297852 57.539 0.297852H66.1287C66.3914 0.297852 66.6416 0.348154 66.8751 0.444568C67.1086 0.540982 67.3129 0.679314 67.4922 0.855374C67.6715 1.03143 67.8049 1.23684 67.9008 1.47577C67.9967 1.71052 68.0468 1.96203 68.0468 2.22612V21.4292H68.051ZM50.8382 12.4082H64.2356V4.12505H57.5348C57.4181 4.12505 57.1721 4.14182 56.7926 4.17536C56.4174 4.20889 55.9795 4.29692 55.4875 4.43525C54.9955 4.57359 54.4743 4.78318 53.928 5.06823C53.3818 5.35328 52.8772 5.74732 52.4186 6.24615C51.9599 6.74918 51.5804 7.37377 51.2844 8.12412C50.9842 8.87447 50.8382 9.7883 50.8382 10.8572V12.404V12.4082Z" fill="white"/>
        <path d="M93.4525 12.5843C93.4525 13.8712 93.2315 15.0533 92.7853 16.1348C92.3392 17.2163 91.7262 18.1469 90.9465 18.9266C90.1626 19.7063 89.2369 20.3183 88.1611 20.7627C87.0853 21.2028 85.9178 21.425 84.6585 21.425H74.3676C74.0924 21.425 73.838 21.3747 73.6045 21.2783C73.371 21.1819 73.1667 21.0435 72.9957 20.8717C72.8248 20.6998 72.6913 20.4944 72.5912 20.2597C72.4953 20.0249 72.4453 19.7692 72.4453 19.4925V2.22612C72.4453 1.96203 72.4953 1.71052 72.5912 1.47577C72.6872 1.24103 72.8248 1.03563 72.9957 0.855374C73.1667 0.679314 73.371 0.540982 73.6045 0.444568C73.838 0.348154 74.0924 0.297852 74.3676 0.297852H84.6585C85.9178 0.297852 87.0853 0.520022 88.1611 0.960171C89.2369 1.40032 90.1626 2.01234 90.9465 2.79622C91.7304 3.57591 92.3434 4.51071 92.7853 5.59641C93.2315 6.68211 93.4525 7.86422 93.4525 9.14275V12.5927V12.5843ZM89.6414 9.13856C89.6414 8.3924 89.5204 7.70912 89.2828 7.08872C89.0451 6.46832 88.7032 5.94014 88.2653 5.50419C87.8275 5.06823 87.3021 4.72869 86.6892 4.48556C86.0804 4.24662 85.4007 4.12505 84.6585 4.12505H76.2606V17.5936H84.6585C85.4007 17.5936 86.0762 17.472 86.6892 17.2331C87.298 16.9942 87.8233 16.6546 88.2653 16.2145C88.7073 15.7743 89.0451 15.2503 89.2828 14.6383C89.5204 14.0263 89.6414 13.3388 89.6414 12.5843V9.13437V9.13856Z" stroke="white" stroke-miterlimit="10"/>
        <path d="M125.631 4.12436H117.234V21.4243H113.422V4.12436H105.008V0.292969H125.631V4.12436Z" stroke="white" stroke-miterlimit="10"/>
        <path d="M132.268 8.92827H145.653V0.292969H149.464V21.4243H145.653V12.789H132.268V21.4243H128.457V0.292969H132.268V8.92827Z" stroke="white" stroke-miterlimit="10"/>
        <path d="M172.919 21.4292H159.167C158.638 21.4292 158.062 21.337 157.437 21.1483C156.811 20.9597 156.232 20.6537 155.698 20.2261C155.164 19.7986 154.722 19.2452 154.364 18.5619C154.005 17.8787 153.83 17.0403 153.83 16.051V2.22612C153.83 1.96203 153.88 1.71052 153.976 1.47577C154.072 1.24103 154.21 1.03563 154.38 0.855374C154.551 0.679314 154.756 0.540982 154.989 0.444568C155.223 0.348154 155.477 0.297852 155.752 0.297852H172.919V4.12924H157.645V16.051C157.645 16.554 157.779 16.9355 158.042 17.1996C158.304 17.4637 158.692 17.5978 159.201 17.5978H172.923V21.4292H172.919ZM171.205 12.7939H159.172V8.93316H171.205V12.7939Z" stroke="white" stroke-miterlimit="10"/>
        <path d="M205.448 4.12505H190.174V21.425H186.363V2.22612C186.363 1.96203 186.413 1.71052 186.509 1.47577C186.605 1.24103 186.743 1.03563 186.914 0.855374C187.085 0.675122 187.289 0.540982 187.522 0.444568C187.756 0.348154 188.01 0.297852 188.286 0.297852H205.452V4.12924L205.448 4.12505ZM203.751 12.7939H191.701V8.93316H203.751V12.7939Z" stroke="white" stroke-miterlimit="10"/>
        <path d="M227.836 21.4285H210.448C210.172 21.4285 209.918 21.3782 209.685 21.2818C209.451 21.1854 209.247 21.047 209.076 20.8752C208.905 20.7033 208.771 20.4979 208.671 20.2632C208.571 20.0284 208.525 19.7727 208.525 19.496V0.292969H212.337V17.5929H227.831V21.4243L227.836 21.4285Z" fill="white"/>
        <path d="M252.375 12.8817C252.375 14.1686 252.154 15.3507 251.716 16.4322C251.278 17.5137 250.665 18.4443 249.886 19.2324C249.106 20.0205 248.176 20.6283 247.109 21.0685C246.041 21.5086 244.874 21.7224 243.614 21.7224H238.452C237.193 21.7224 236.025 21.5044 234.95 21.0685C233.874 20.6325 232.948 20.0205 232.164 19.2324C231.38 18.4443 230.767 17.5137 230.325 16.4322C229.883 15.3507 229.658 14.1686 229.658 12.8817V8.8449C229.658 7.56637 229.879 6.38426 230.325 5.29856C230.772 4.21285 231.384 3.27806 232.164 2.49837C232.944 1.71868 233.874 1.10666 234.95 0.662319C236.025 0.217979 237.193 0 238.452 0H243.614C244.874 0 246.041 0.22217 247.109 0.662319C248.176 1.10247 249.106 1.71449 249.886 2.49837C250.665 3.28225 251.278 4.21285 251.716 5.29856C252.154 6.38426 252.375 7.56637 252.375 8.8449V12.8817ZM248.564 8.84071C248.564 8.08617 248.443 7.39869 248.205 6.78668C247.968 6.17466 247.63 5.64648 247.192 5.21053C246.754 4.77457 246.233 4.43503 245.624 4.1919C245.015 3.94877 244.34 3.83139 243.61 3.83139H238.448C237.706 3.83139 237.03 3.95296 236.417 4.1919C235.804 4.43083 235.283 4.77038 234.841 5.21053C234.399 5.65067 234.061 6.17466 233.824 6.78668C233.586 7.39869 233.465 8.08617 233.465 8.84071V12.8775C233.465 13.632 233.586 14.3195 233.824 14.9315C234.061 15.5435 234.403 16.0717 234.841 16.5077C235.279 16.9436 235.804 17.2832 236.417 17.5263C237.03 17.7694 237.706 17.8868 238.448 17.8868H243.577C244.319 17.8868 244.995 17.7653 245.607 17.5263C246.22 17.2874 246.742 16.9478 247.184 16.5077C247.626 16.0675 247.963 15.5435 248.201 14.9315C248.439 14.3195 248.56 13.632 248.56 12.8775V8.84071H248.564Z" fill="white"/>
        <path d="M274.965 21.4289H261.213C260.863 21.4289 260.483 21.387 260.079 21.3032C259.674 21.2193 259.274 21.0894 258.878 20.9133C258.482 20.7372 258.102 20.5067 257.744 20.23C257.385 19.9534 257.064 19.6096 256.785 19.2114C256.505 18.8132 256.284 18.3521 256.117 17.8281C255.951 17.3041 255.867 16.7088 255.867 16.0507V5.67577C255.867 5.32365 255.909 4.94219 255.992 4.53557C256.076 4.12896 256.205 3.72654 256.38 3.32831C256.555 2.93008 256.785 2.54861 257.068 2.18811C257.352 1.82761 257.689 1.50483 258.085 1.22397C258.482 0.943118 258.936 0.720947 259.457 0.553272C259.979 0.385596 260.562 0.301758 261.217 0.301758H274.969V4.13315H261.217C260.717 4.13315 260.337 4.26729 260.074 4.53138C259.812 4.79547 259.678 5.18951 259.678 5.7093V16.0549C259.678 16.5454 259.812 16.9268 260.083 17.1951C260.354 17.4634 260.729 17.6017 261.217 17.6017H274.969V21.4331L274.965 21.4289Z" fill="white"/>
        <path d="M282.413 21.4285H278.602V0.292969H282.413V21.4243V21.4285ZM300.601 21.4285H295.193L286.616 12.7932H283.935V8.93246H286.616L295.193 0.297161H300.601L289.797 10.8649L300.601 21.4327V21.4285Z" fill="white"/>
        <path d="M304.138 24.1408H301.457L302.821 16.7295H306.411L304.138 24.1408Z" fill="white"/>
        <path d="M21.0072 39.6763C21.0072 40.5524 20.8988 41.3321 20.6861 42.0195C20.4693 42.707 20.1816 43.3148 19.8146 43.8388C19.4477 44.3628 19.0266 44.8155 18.547 45.1886C18.0675 45.5617 17.5672 45.8677 17.0459 46.1108C16.5247 46.3498 15.9952 46.5258 15.4614 46.6348C14.9277 46.7438 14.4273 46.7983 13.9603 46.7983L21.9204 53.7107H16.0285L8.08514 46.7983H5.34562V42.9669H13.9645C14.444 42.9292 14.8818 42.8286 15.278 42.6651C15.6741 42.5016 16.016 42.2836 16.3037 42.0112C16.5914 41.7345 16.8124 41.4033 16.9709 41.0177C17.1252 40.6278 17.2044 40.1835 17.2044 39.6846V37.2659C17.2044 37.0479 17.1794 36.8845 17.1252 36.7713C17.071 36.6581 17.0042 36.5743 16.9208 36.5198C16.8374 36.4653 16.7499 36.4317 16.6581 36.4234C16.5664 36.415 16.4788 36.4066 16.3996 36.4066H3.81115V53.7065H0V34.5035C0 34.2394 0.050037 33.9879 0.145941 33.7531C0.241845 33.5184 0.379447 33.313 0.550407 33.1327C0.721367 32.9567 0.925684 32.8183 1.15919 32.7219C1.3927 32.6255 1.64705 32.5752 1.92225 32.5752H16.3913C17.2419 32.5752 17.9591 32.7303 18.547 33.0405C19.135 33.3507 19.6103 33.7364 19.9773 34.2058C20.3442 34.6753 20.6069 35.1742 20.7695 35.7149C20.9321 36.2557 21.0114 36.7629 21.0114 37.2324V39.6805L21.0072 39.6763Z" fill="white"/>
        <path d="M43.8313 53.7065H30.0795C29.5499 53.7065 28.9745 53.6143 28.349 53.4257C27.7236 53.237 27.144 52.931 26.6102 52.5035C26.0765 52.0759 25.6345 51.5226 25.2759 50.8393C24.9173 50.156 24.7422 49.3176 24.7422 48.3283V34.5035C24.7422 34.2394 24.7922 33.9879 24.8881 33.7531C24.984 33.5184 25.1216 33.313 25.2926 33.1327C25.4636 32.9567 25.6679 32.8183 25.9014 32.7219C26.1349 32.6255 26.3892 32.5752 26.6644 32.5752H43.8313V36.4066H28.5575V48.3283C28.5575 48.8314 28.6909 49.2128 28.9536 49.4769C29.2163 49.741 29.6041 49.8751 30.1128 49.8751H43.8355V53.7065H43.8313ZM42.1134 45.0712H30.0795V41.2105H42.1134V45.0712Z" fill="white"/>
        <path d="M68.1369 53.7065H64.3257V48.517H50.9283V53.7065H47.1172V43.1388C47.1172 41.5962 47.3799 40.1751 47.9094 38.8798C48.439 37.5845 49.1687 36.4695 50.1069 35.5347C51.0451 34.5999 52.1542 33.8747 53.4344 33.3549C54.7145 32.8351 56.1113 32.5752 57.625 32.5752H66.2146C66.4773 32.5752 66.7275 32.6255 66.961 32.7219C67.1945 32.8183 67.3989 32.9567 67.5782 33.1327C67.7575 33.3088 67.8909 33.5142 67.9868 33.7531C68.0827 33.9879 68.1327 34.2394 68.1327 34.5035V53.7065H68.1369ZM50.9242 44.6856H64.3216V36.4024H57.6208C57.504 36.4024 57.258 36.4192 56.8786 36.4527C56.5033 36.4862 56.0655 36.5743 55.5734 36.7126C55.0814 36.8509 54.5602 37.0605 54.014 37.3456C53.4677 37.6306 52.9632 38.0247 52.5045 38.5235C52.0458 39.0265 51.6664 39.6511 51.3703 40.4015C51.0701 41.1518 50.9242 42.0656 50.9242 43.1346V44.6814V44.6856Z" fill="white"/>
        <path d="M93.5111 41.4159C93.5111 42.292 93.4027 43.0717 93.19 43.7592C92.9732 44.4466 92.6855 45.0545 92.3186 45.5785C91.9516 46.1024 91.5305 46.5552 91.0509 46.9282C90.5714 47.3013 90.0711 47.6073 89.5498 47.8421C89.0286 48.0768 88.4991 48.2487 87.9653 48.3577C87.4316 48.4667 86.9312 48.5212 86.4642 48.5212H77.8454V44.6898H86.4642C86.9521 44.652 87.3941 44.5514 87.7902 44.388C88.1863 44.2245 88.5241 44.0065 88.8076 43.734C89.0912 43.4574 89.3122 43.1262 89.4664 42.7405C89.6207 42.3507 89.6999 41.9147 89.6999 41.4201V39.6805C89.6499 39.1984 89.5498 38.7582 89.3914 38.3558C89.2329 37.9534 89.0245 37.6097 88.7534 37.3246C88.4824 37.0396 88.1613 36.8174 87.7777 36.6539C87.3941 36.4904 86.9563 36.4108 86.4601 36.4108H77.8704C77.3617 36.4108 76.978 36.5449 76.7112 36.809C76.4443 37.0731 76.3151 37.4588 76.3151 37.9576V53.7107H72.5039V37.9576C72.5039 36.9767 72.6832 36.1383 73.0376 35.4508C73.3962 34.7634 73.8382 34.21 74.372 33.7867C74.9057 33.3633 75.4853 33.0573 76.1107 32.8644C76.7362 32.6716 77.3116 32.5752 77.8412 32.5752H86.4601C87.319 32.5752 88.0904 32.6842 88.7743 32.9064C89.4581 33.1285 90.0627 33.422 90.5839 33.7908C91.1052 34.1597 91.5513 34.5831 91.9183 35.0652C92.2852 35.5472 92.5854 36.0503 92.8273 36.5743C93.0649 37.0983 93.2401 37.6306 93.3485 38.1672C93.4569 38.7037 93.5111 39.2068 93.5111 39.6763V41.4159Z" stroke="white" stroke-miterlimit="10"/>
        <path d="M124.942 36.4027H116.544V53.7026H112.733V36.4027H104.318V32.5713H124.942V36.4027Z" stroke="white" stroke-miterlimit="10"/>
        <path d="M131.581 41.2066H144.966V32.5713H148.777V53.7026H144.966V45.0673H131.581V53.7026H127.77V32.5713H131.581V41.2066Z" stroke="white" stroke-miterlimit="10"/>
        <path d="M172.232 53.7065H158.48C157.95 53.7065 157.375 53.6143 156.749 53.4257C156.124 53.237 155.544 52.931 155.011 52.5035C154.477 52.0759 154.035 51.5226 153.676 50.8393C153.318 50.156 153.143 49.3176 153.143 48.3283V34.5035C153.143 34.2394 153.193 33.9879 153.289 33.7531C153.384 33.5184 153.522 33.313 153.693 33.1327C153.864 32.9567 154.068 32.8183 154.302 32.7219C154.535 32.6255 154.79 32.5752 155.065 32.5752H172.232V36.4066H156.958V48.3283C156.958 48.8314 157.091 49.2128 157.354 49.4769C157.617 49.741 158.005 49.8751 158.513 49.8751H172.236V53.7065H172.232ZM170.518 45.0712H158.484V41.2105H170.518V45.0712Z" stroke="white" stroke-miterlimit="10"/>
        <path d="M206.624 41.4159C206.624 42.292 206.516 43.0717 206.303 43.7592C206.091 44.4466 205.799 45.0545 205.432 45.5785C205.065 46.1024 204.644 46.5552 204.164 46.9282C203.685 47.3013 203.184 47.6073 202.663 47.8421C202.142 48.0768 201.612 48.2487 201.079 48.3577C200.545 48.4667 200.045 48.5212 199.578 48.5212H190.959V44.6898H199.578C200.065 44.652 200.507 44.5514 200.903 44.388C201.3 44.2245 201.637 44.0065 201.921 43.734C202.204 43.4615 202.425 43.1262 202.58 42.7405C202.734 42.3549 202.813 41.9147 202.813 41.4201V39.6805C202.763 39.1984 202.663 38.7582 202.505 38.3558C202.346 37.9534 202.138 37.6097 201.867 37.3246C201.596 37.0396 201.275 36.8174 200.891 36.6539C200.507 36.4904 200.07 36.4108 199.573 36.4108H190.984C190.475 36.4108 190.091 36.5449 189.824 36.809C189.558 37.0731 189.428 37.4588 189.428 37.9576V53.7107H185.617V37.9576C185.617 36.9767 185.796 36.1383 186.151 35.4508C186.505 34.7634 186.952 34.21 187.485 33.7867C188.019 33.3633 188.599 33.0573 189.224 32.8644C189.849 32.6716 190.425 32.5752 190.954 32.5752H199.573C200.432 32.5752 201.204 32.6842 201.888 32.9064C202.571 33.1285 203.176 33.422 203.697 33.7908C204.218 34.1597 204.665 34.5831 205.032 35.0652C205.398 35.5472 205.703 36.0503 205.941 36.5743C206.178 37.0983 206.353 37.6306 206.462 38.1672C206.57 38.7037 206.624 39.2068 206.624 39.6763V41.4159Z" stroke="white" stroke-miterlimit="10"/>
        <path d="M230.883 39.6763C230.883 40.5524 230.775 41.3321 230.562 42.0195C230.35 42.707 230.058 43.3148 229.691 43.8388C229.324 44.3628 228.903 44.8155 228.423 45.1886C227.944 45.5617 227.443 45.8677 226.922 46.1108C226.401 46.354 225.871 46.5258 225.338 46.6348C224.804 46.7438 224.303 46.7983 223.836 46.7983L231.797 53.7107H225.905L217.961 46.7983H215.222V42.9669H223.841C224.32 42.9292 224.758 42.8286 225.154 42.6651C225.55 42.5016 225.892 42.2836 226.18 42.0112C226.468 41.7387 226.689 41.4033 226.847 41.0177C227.006 40.632 227.081 40.1835 227.081 39.6846V37.2659C227.081 37.0479 227.056 36.8845 227.001 36.7713C226.947 36.6581 226.88 36.5743 226.797 36.5198C226.714 36.4653 226.626 36.4317 226.534 36.4234C226.443 36.415 226.355 36.4066 226.276 36.4066H213.7V53.7065H209.889V34.5035C209.889 34.2394 209.939 33.9879 210.035 33.7531C210.131 33.5184 210.268 33.313 210.439 33.1327C210.61 32.9525 210.814 32.8183 211.048 32.7219C211.281 32.6255 211.536 32.5752 211.811 32.5752H226.28C227.131 32.5752 227.848 32.7303 228.436 33.0405C229.024 33.3507 229.499 33.7364 229.866 34.2058C230.233 34.6753 230.496 35.1742 230.658 35.7149C230.821 36.2557 230.9 36.7629 230.9 37.2324V39.6805L230.883 39.6763Z" fill="white"/>
        <path d="M256.773 45.159C256.773 46.4459 256.552 47.6281 256.115 48.7096C255.677 49.7911 255.064 50.7217 254.284 51.5098C253.504 52.2978 252.574 52.9057 251.507 53.3458C250.44 53.786 249.272 53.9997 248.013 53.9997H242.851C241.591 53.9997 240.424 53.7818 239.348 53.3458C238.272 52.9099 237.347 52.2978 236.563 51.5098C235.779 50.7217 235.166 49.7911 234.724 48.7096C234.282 47.6281 234.057 46.4459 234.057 45.159V41.1222C234.057 39.8437 234.278 38.6616 234.724 37.5759C235.17 36.4902 235.783 35.5554 236.563 34.7757C237.342 33.996 238.272 33.384 239.348 32.9397C240.424 32.4953 241.591 32.2773 242.851 32.2773H248.013C249.272 32.2773 250.44 32.4995 251.507 32.9397C252.574 33.3798 253.504 33.9918 254.284 34.7757C255.064 35.5596 255.677 36.4902 256.115 37.5759C256.552 38.6616 256.773 39.8437 256.773 41.1222V45.159ZM252.962 41.118C252.962 40.3635 252.841 39.676 252.604 39.064C252.366 38.452 252.028 37.9238 251.59 37.4879C251.153 37.0519 250.631 36.7124 250.023 36.4692C249.414 36.2261 248.738 36.1087 248.009 36.1087H242.846C242.104 36.1087 241.429 36.2303 240.816 36.4692C240.203 36.7082 239.682 37.0477 239.24 37.4879C238.798 37.928 238.46 38.452 238.222 39.064C237.985 39.676 237.864 40.3635 237.864 41.118V45.1548C237.864 45.9094 237.985 46.5969 238.222 47.2089C238.46 47.8209 238.802 48.3491 239.24 48.785C239.677 49.221 240.203 49.5605 240.816 49.8037C241.429 50.0468 242.104 50.1642 242.846 50.1642H247.975C248.717 50.1642 249.393 50.0426 250.006 49.8037C250.619 49.5647 251.14 49.2252 251.582 48.785C252.024 48.3449 252.362 47.8209 252.6 47.2089C252.837 46.5969 252.958 45.9094 252.958 45.1548V41.118H252.962Z" fill="white"/>
        <path d="M279.628 36.4027H264.354V53.7026H260.543V34.4996C260.543 34.2355 260.593 33.984 260.689 33.7492C260.785 33.5145 260.922 33.3091 261.093 33.1288C261.264 32.9486 261.469 32.8144 261.702 32.718C261.936 32.6216 262.19 32.5713 262.465 32.5713H279.632V36.4027H279.628ZM277.927 45.0715H265.876V41.2108H277.927V45.0715Z" fill="white"/>
        <path d="M286.546 53.7065H282.734V32.5752H286.546V53.7065Z" fill="white"/>
        <path d="M310.001 36.4027H301.603V53.7026H297.792V36.4027H289.377V32.5713H310.001V36.4027Z" fill="white"/>
    </g>
    <defs>
        <clipPath id="clip0_300_2195">
            <rect width="310" height="54" fill="white"/>
        </clipPath>
    </defs>
</svg>
