<svg width="203" height="64" viewBox="0 0 203 64" fill="none" xmlns="http://www.w3.org/2000/svg">
    <path d="M48.9577 44.9545H42.689L40.3445 43.3562C37.9315 41.7082 35.1206 40.8438 32.1977 40.8438C29.2748 40.8438 26.4639 41.7144 24.0509 43.3562L21.7064 44.9545H15.4377C14.5609 44.9545 13.8457 45.6696 13.8457 46.5465V48.1385H50.5311V46.5465C50.5311 45.6696 49.8159 44.9545 48.939 44.9545H48.9577Z" fill="white"/>
    <path d="M20.3311 54.7492H44.193L47.5264 51.8076H16.9355L20.3311 54.7492Z" fill="white"/>
    <path d="M21.5949 40.6005L21.993 40.3269C25.0153 38.2684 28.5477 37.1739 32.2044 37.1739C35.8611 37.1739 39.3935 38.2622 42.4159 40.3269L42.7952 40.5819L43.2927 39.9537C46.0166 36.5147 47.5838 32.2485 47.7392 27.8704V27.7771C47.7392 21.1851 43.0564 15.4637 36.6074 14.1701L35.1335 13.8716V12.149H31.9246V9.25098H31.5639C30.3076 9.25098 29.2877 10.2709 29.2877 11.5271V13.8716L27.8139 14.1701C21.3586 15.4637 16.6758 21.1851 16.6758 27.7771C16.6758 27.7771 16.6758 28.1254 16.7069 28.3741C17.1235 31.4463 18.4606 36.6453 21.085 39.9537L21.5949 40.5943V40.6005ZM42.6149 26.6639V33.4425H35.8362L42.6149 26.6639ZM21.2218 26.6639L28.0004 33.4425H21.2218V26.6639Z" fill="white"/>
    <path d="M9.86579 0.582031V9.31338L0.599609 17.4726V56.4403L9.2128 63.0012L63.7402 63.4179L63.8086 0.849444L9.86579 0.582031ZM54.2191 50.7997L45.5872 58.4241H18.9641L10.1954 50.8122V46.5522C10.1954 43.648 12.5461 41.291 15.4566 41.291H17.4964C17.3658 41.1045 17.2352 40.9179 17.1108 40.7313C14.984 37.5659 13.7277 33.8905 13.3297 30.097L13.28 29.6368C12.6519 23.6791 15.0026 17.7276 19.6979 14.0087C21.4392 12.6343 23.4479 11.5771 25.6494 10.9365C25.9541 7.939 28.4914 5.59447 31.5636 5.59447H35.5872V8.49871H38.7962V10.949C45.9852 13.0572 51.122 19.6057 51.3957 27.1679C51.3957 27.1679 51.3957 27.1865 51.4206 27.2176L51.0723 30.2276C50.637 33.9776 49.3807 37.597 47.2788 40.7313C47.1482 40.9179 47.0176 41.1107 46.887 41.291H48.9641C51.8683 41.291 54.2253 43.6418 54.2253 46.5522V50.806L54.2191 50.7997Z" fill="white"/>
    <path d="M103.328 10.4267C103.328 11.6083 103.178 12.6717 102.892 13.5983C102.6 14.5312 102.202 15.3521 101.705 16.061C101.207 16.77 100.629 17.3794 99.9819 17.8894C99.3289 18.3931 98.6449 18.8098 97.9359 19.1394C97.2207 19.4628 96.5056 19.7053 95.7779 19.8483C95.0503 19.9976 94.3725 20.066 93.7319 20.066L104.571 29.4255H96.5491L85.7282 20.066H81.9968V14.8732H93.7319C94.3849 14.8172 94.9819 14.6804 95.5167 14.4628C96.0578 14.2451 96.5242 13.9466 96.916 13.5734C97.3078 13.2003 97.6125 12.7526 97.824 12.2239C98.0354 11.6953 98.1411 11.0983 98.1411 10.4142V7.13688C98.1411 6.84459 98.1038 6.62071 98.0292 6.47145C97.9608 6.31598 97.8675 6.20404 97.7493 6.12941C97.6374 6.05478 97.513 6.01747 97.3886 5.99881C97.2643 5.98016 97.1461 5.98016 97.0404 5.98016H79.9135V29.413H74.7207V3.41797C74.7207 3.05727 74.7891 2.72145 74.9197 2.39806C75.0503 2.07468 75.2369 1.80105 75.467 1.55851C75.7033 1.31597 75.9769 1.12941 76.2941 0.99881C76.6113 0.868213 76.9595 0.799805 77.3326 0.799805H97.0342C98.1909 0.799805 99.1672 1.00503 99.9695 1.42791C100.772 1.84458 101.412 2.37319 101.916 3.00752C102.42 3.64185 102.774 4.31971 102.998 5.05354C103.216 5.78737 103.328 6.47145 103.328 7.112V10.4267Z" fill="white"/>
    <path d="M134.411 29.4317H115.686C114.97 29.4317 114.181 29.3073 113.329 29.0523C112.477 28.8036 111.687 28.3869 110.965 27.8023C110.238 27.224 109.635 26.4715 109.149 25.5449C108.664 24.6182 108.422 23.4864 108.422 22.1431V3.41797C108.422 3.05727 108.49 2.72145 108.621 2.39806C108.751 2.0809 108.938 1.80105 109.168 1.55851C109.404 1.31597 109.678 1.12941 109.995 0.99881C110.312 0.868213 110.661 0.799805 111.034 0.799805H134.411V5.9926H113.608V22.1431C113.608 22.821 113.789 23.3434 114.143 23.6978C114.504 24.0585 115.033 24.2389 115.723 24.2389H134.411V29.4317ZM132.072 17.7339H115.686V12.5038H132.072V17.7339Z" fill="white"/>
    <path d="M168.067 0.799805L154.509 28.4056C154.298 28.8347 153.981 29.1705 153.564 29.4379C153.147 29.6991 152.681 29.8235 152.177 29.8235C151.674 29.8235 151.232 29.6929 150.809 29.4379C150.386 29.1767 150.069 28.8347 149.839 28.4056L136.307 0.799805H142.115L152.177 21.4217L162.277 0.799805H168.067Z" fill="white"/>
    <path d="M103.285 51.2291C103.285 52.9704 102.98 54.5749 102.377 56.0363C101.767 57.4977 100.934 58.7602 99.8705 59.8236C98.8071 60.8808 97.5447 61.708 96.077 62.3112C94.6156 62.9082 93.0235 63.2067 91.3071 63.2067H77.2897C76.9165 63.2067 76.5745 63.1383 76.2511 63.0077C75.934 62.8771 75.6541 62.6905 75.424 62.4604C75.1939 62.2241 75.0073 61.9505 74.8767 61.6333C74.7461 61.3162 74.6777 60.9679 74.6777 60.5948V37.1992C74.6777 36.8385 74.7461 36.5027 74.8767 36.1793C75.0073 35.8622 75.1939 35.5823 75.424 35.3398C75.6541 35.0972 75.934 34.9107 76.2511 34.7801C76.5683 34.6495 76.9165 34.5811 77.2897 34.5811H91.3071C93.0235 34.5811 94.6156 34.8796 96.077 35.4766C97.5385 36.0736 98.8071 36.9069 99.8705 37.9641C100.934 39.0214 101.774 40.2838 102.377 41.7577C102.98 43.2253 103.285 44.8298 103.285 46.5587V51.2291ZM98.0982 46.5587C98.0982 45.545 97.9365 44.6246 97.6069 43.785C97.2773 42.9455 96.8171 42.2303 96.22 41.6395C95.623 41.0487 94.9079 40.5885 94.0745 40.2651C93.2412 39.9418 92.3208 39.7801 91.3071 39.7801H79.8705V58.0264H91.3071C92.3208 58.0264 93.2412 57.8647 94.0745 57.5413C94.9079 57.2179 95.623 56.7577 96.22 56.1669C96.8171 55.5761 97.2835 54.8609 97.6069 54.0276C97.9302 53.1943 98.0982 52.2676 98.0982 51.2415V46.5711V46.5587Z" fill="white"/>
    <path d="M136.424 60.5944C136.424 60.9675 136.356 61.3096 136.225 61.633C136.095 61.9501 135.908 62.23 135.666 62.4601C135.423 62.6964 135.143 62.8767 134.826 63.0073C134.509 63.1379 134.167 63.2063 133.806 63.2063H122.109C121.002 63.2063 119.882 63.0882 118.757 62.8456C117.625 62.6031 116.53 62.2362 115.473 61.7387C114.416 61.2412 113.421 60.6068 112.488 59.8357C111.555 59.0645 110.74 58.1504 110.044 57.0932C109.347 56.0359 108.794 54.8232 108.396 53.4613C107.998 52.0994 107.799 50.5757 107.799 48.8966V34.5869H112.992V48.8966C112.992 50.3581 113.197 51.5956 113.601 52.6093C114.005 53.623 114.521 54.4688 115.15 55.1466C115.771 55.8245 116.456 56.3593 117.202 56.7449C117.948 57.1305 118.657 57.4165 119.329 57.6031C120 57.7897 120.591 57.9016 121.107 57.9514C121.617 57.9949 121.959 58.0198 122.115 58.0198H131.238V34.5869H136.431V60.5944H136.424Z" fill="white"/>
    <path d="M168.084 63.2067H149.359C148.88 63.2067 148.364 63.1507 147.811 63.0388C147.257 62.9269 146.716 62.7465 146.175 62.5102C145.634 62.2739 145.118 61.9629 144.627 61.5836C144.135 61.2042 143.7 60.744 143.314 60.2092C142.935 59.6681 142.63 59.0463 142.406 58.3311C142.183 57.6221 142.064 56.8199 142.064 55.9244V41.8696C142.064 41.3908 142.12 40.8746 142.232 40.3211C142.344 39.7676 142.525 39.2266 142.761 38.6855C143.004 38.1445 143.314 37.6283 143.7 37.137C144.086 36.6457 144.552 36.2104 145.087 35.8311C145.628 35.4517 146.25 35.147 146.953 34.9231C147.661 34.6992 148.457 34.5811 149.347 34.5811H168.072V39.7738H149.347C148.669 39.7738 148.147 39.9542 147.792 40.3149C147.431 40.6756 147.251 41.2104 147.251 41.9132V55.9306C147.251 56.596 147.431 57.1122 147.798 57.4791C148.165 57.846 148.681 58.0264 149.347 58.0264H168.072V63.2191L168.084 63.2067Z" fill="white"/>
    <path d="M178.222 63.2067H173.029V34.5811H178.222V63.2067ZM202.998 63.2067H195.629L183.95 51.5089H180.299V46.2788H183.95L195.629 34.5811H202.998L188.291 48.8908L202.998 63.2005V63.2067Z" fill="white"/>
</svg>
