<svg width="180" height="58" viewBox="0 0 180 58" fill="none" xmlns="http://www.w3.org/2000/svg">
    <path d="M104.353 24.9039L104.721 25.8056L105.093 24.9055L114.726 1.59629H124.394V35.53H116.421V15.9791L115.648 15.8352L108.054 35.53H101.511L93.7984 15.8333L93.0259 15.9791V35.53H85.0523V1.59629H94.8397L104.353 24.9039Z" fill="white" stroke="#25B1FF" stroke-width="0.8"/>
    <path d="M156.3 28.8232L156.204 28.5594H155.924H139.458H139.178L139.082 28.8232L136.654 35.5302H128.495L141.059 1.59649H154.442L166.889 35.5302H158.728L156.3 28.8232ZM153.279 22.1483H153.849L153.656 21.6124L148.968 8.63234L148.873 8.3682H148.592H146.669H146.388L146.293 8.63234L141.606 21.6124L141.412 22.1483H141.982H153.279ZM1.27447 26.8295C1.14327 26.2391 1.03869 25.5605 0.961735 24.7923H8.54915C8.61445 25.8131 8.91742 26.5666 9.13144 27.0989C9.14324 27.1283 9.15477 27.157 9.16598 27.185L9.18144 27.2237L9.20455 27.2583C9.37223 27.5098 9.54511 27.7282 9.72434 27.9092C10.2589 28.5282 10.9637 28.9626 11.8203 29.2206C12.5735 29.4711 13.4037 29.6361 14.3086 29.7183L14.3267 29.72H14.3448C15.9976 29.72 17.3387 29.3495 18.315 28.5551C19.2781 27.8513 19.7926 26.939 19.7926 25.8346C19.7926 24.867 19.4821 24.0687 18.8233 23.4978C18.2865 22.9656 17.5122 22.5449 16.5344 22.2168C15.6309 21.808 14.5349 21.4441 13.2512 21.1227C11.9777 20.7245 10.6639 20.2865 9.30994 19.8086L9.30996 19.8086L9.3033 19.8064C7.88836 19.3347 6.63728 18.7474 5.54717 18.0466L5.54727 18.0464L5.53666 18.0401C4.394 17.3545 3.48137 16.443 2.79463 15.3015C2.19538 14.1736 1.88492 12.763 1.88492 11.0517C1.88492 8.87642 2.42766 7.12596 3.48326 5.76876L3.48337 5.76884L3.48955 5.76046C4.56111 4.30619 6.05944 3.18674 8.00332 2.40919L8.00334 2.40922L8.00861 2.40703C9.87442 1.62961 12.024 1.23594 14.465 1.23594C16.7494 1.23594 18.7421 1.55066 20.4503 2.17064C22.1611 2.87161 23.5918 3.84077 24.7495 5.07564L24.7676 5.09492L24.787 5.11076L24.787 5.11082L24.7874 5.11114L24.7877 5.11137L24.788 5.11165L24.7896 5.11301L24.8057 5.12703C24.8211 5.14064 24.8455 5.16285 24.8777 5.19396C24.9422 5.25618 25.0381 5.354 25.1556 5.48995C25.3906 5.76179 25.7124 6.18623 26.0436 6.78373C26.671 7.91581 27.3367 9.67758 27.5036 12.2141H20.1012C20.0249 11.7203 19.9225 11.2709 19.7926 10.8677V10.8114V10.7621L19.7807 10.7143C19.5178 9.66301 18.9892 9.00097 18.5938 8.60554L18.5479 8.55964L18.4898 8.53061C18.3484 8.4599 18.2706 8.40251 18.2332 8.36517L18.113 8.24498L18.0671 8.19908L18.0091 8.17005C17.6769 8.00397 17.306 7.83926 16.8971 7.67569L16.8719 7.66561L16.8455 7.65902C16.1738 7.49109 15.5002 7.40671 14.8255 7.40671C13.9844 7.40671 13.2146 7.53292 12.5217 7.79274C11.8277 8.05301 11.2182 8.44469 10.6968 8.9661L10.6839 8.97893L10.6723 8.99286C10.2028 9.55626 9.97867 10.2521 9.97867 11.0517C9.97867 11.8718 10.2563 12.5767 10.8169 13.1374L10.8298 13.1502L10.8437 13.1618C11.3626 13.5942 12.0792 14.0122 12.9774 14.4205L12.9858 14.4243L12.9944 14.4278C13.7977 14.7491 14.7208 15.1103 15.7636 15.5114L15.7788 15.5172L15.7943 15.5218C17.1516 15.921 18.5492 16.3602 19.9872 16.8396C21.3977 17.3097 22.7294 17.9362 23.983 18.7191C25.1361 19.4887 26.0966 20.4489 26.8665 21.6016C27.5387 22.7258 27.8863 24.13 27.8863 25.8346C27.8863 27.7708 27.4226 29.4578 26.5059 30.9091L26.5058 30.9091L26.5011 30.9169C25.5891 32.4369 24.1768 33.6285 22.2361 34.4824L22.2271 34.4863L22.2184 34.4907C20.3679 35.416 17.9906 35.8907 15.0659 35.8907C12.539 35.8907 10.3026 35.5353 8.35081 34.8327C6.40012 34.1305 4.85804 33.1232 3.70783 31.8196L3.70686 31.8185C2.47483 30.4324 1.66377 28.7755 1.27623 26.8378L1.27632 26.8378L1.27447 26.8295Z" fill="white" stroke="#25B1FF" stroke-width="0.8"/>
    <path d="M58.8445 9.148L58.8332 9.15489L58.8224 9.16252C57.407 10.1616 56.2838 11.4523 55.4541 13.0288L55.454 13.0287L55.4503 13.0362C54.6193 14.6982 54.2062 16.5228 54.2062 18.5032C54.2062 20.6368 54.6165 22.5413 55.4484 24.2068C56.2059 25.804 57.3849 27.0642 58.9729 27.9835L58.9728 27.9836L58.979 27.987C60.4922 28.8276 62.2847 29.2392 64.3413 29.2392H65.6633H65.6882L65.7129 29.2361C66.3831 29.1523 67.0155 28.985 67.6083 28.7327C69.1247 28.2237 70.9903 27.0926 72.5978 24.8669L72.6735 24.7621V24.6327V23.1905V22.7905H72.2735H64.1403V16.8601H79.926V22.4694C79.926 25.4964 78.7609 28.5121 76.5655 30.592L76.4406 30.7103V30.8357C74.9789 32.2675 73.217 33.4439 71.1496 34.3628C69.0473 35.2971 66.5808 35.7705 63.7403 35.7705C61.0567 35.7705 58.6623 35.3761 56.5516 34.5949C54.3576 33.7325 52.4832 32.5204 50.9229 30.9601C49.3608 29.3979 48.1489 27.5623 47.2872 25.4492C46.5056 23.3367 46.1125 21.0226 46.1125 18.5032C46.1125 15.9838 46.5056 13.6698 47.2872 11.5572C48.1483 9.44586 49.3589 7.61138 50.9193 6.05002C52.4821 4.56629 54.3199 3.39245 56.4368 2.52962C58.551 1.70789 61.0244 1.23594 63.6202 1.23594C66.1409 1.23594 68.498 1.62954 70.6945 2.41367C72.8113 3.19797 74.648 4.29312 76.2091 5.6973C77.5255 6.93706 78.5732 8.40883 79.3521 10.1163C79.4989 10.5622 79.6121 11.0897 79.6887 11.7023L79.6917 11.7262L79.6975 11.7497L79.8137 12.2141H71.9112C71.0954 10.7419 70.0417 9.63033 68.7439 8.90031L68.7439 8.90028L68.7393 8.89778C67.3499 8.1399 65.8398 7.76727 63.8605 7.76727C62.0275 7.76727 60.3523 8.22657 58.8445 9.148ZM41.106 1.59649V8.3682H33.1324V1.59649H41.106ZM41.106 13.0141V35.5302H33.1324V13.0141H41.106Z" fill="white" stroke="#25B1FF" stroke-width="0.8"/>
    <path d="M172.911 35.53L160.7 1.59629H179.562V35.53H172.911Z" fill="#E93323" stroke="#25B1FF" stroke-width="0.8"/>
    <mask id="path-5-outside-1_172_1087" maskUnits="userSpaceOnUse" x="40.4062" y="42.6641" width="100" height="15" fill="black">
        <rect fill="white" x="40.4062" y="42.6641" width="100" height="15"/>
        <path d="M44.7081 48.8214H50.6044V51.4996H44.7081V48.8214ZM44.9621 53.8159H51.6022V56.5846H41.4062V43.9174H51.3663V46.6861H44.9621V53.8159Z"/>
        <path d="M63.2654 56.8379C61.3907 56.8379 59.9272 56.3252 58.8749 55.2998C57.8227 54.2743 57.2966 52.8206 57.2966 50.9386V43.9174H60.8887V50.8301C60.8887 51.9158 61.1004 52.694 61.5237 53.1645C61.9591 53.635 62.5518 53.8702 63.3017 53.8702C64.0515 53.8702 64.6381 53.635 65.0614 53.1645C65.4848 52.694 65.6964 51.9158 65.6964 50.8301V43.9174H69.2342V50.9386C69.2342 52.8206 68.708 54.2743 67.6558 55.2998C66.6035 56.3252 65.1401 56.8379 63.2654 56.8379Z"/>
        <path d="M75.4775 56.5846V43.9174H81.283C82.4441 43.9174 83.4419 44.1044 84.2765 44.4784C85.1231 44.8524 85.7762 45.3952 86.2358 46.107C86.6954 46.8067 86.9252 47.6391 86.9252 48.6043C86.9252 49.5573 86.6954 50.3837 86.2358 51.0834C85.7762 51.7711 85.1231 52.3019 84.2765 52.6759C83.4419 53.0378 82.4441 53.2187 81.283 53.2187H77.4731L79.0697 51.7168V56.5846H75.4775ZM83.3331 56.5846L80.1763 51.9701H84.0043L87.1792 56.5846H83.3331ZM79.0697 52.0968L77.4731 50.4501H81.0653C81.8152 50.4501 82.3715 50.2872 82.7344 49.9615C83.1093 49.6357 83.2968 49.1833 83.2968 48.6043C83.2968 48.0131 83.1093 47.5547 82.7344 47.229C82.3715 46.9032 81.8152 46.7404 81.0653 46.7404H77.4731L79.0697 45.0936V52.0968Z"/>
        <path d="M99.1211 56.8379C98.1051 56.8379 97.1678 56.6751 96.309 56.3493C95.4503 56.0236 94.7004 55.5652 94.0594 54.9741C93.4305 54.3709 92.9406 53.6711 92.5899 52.8749C92.2391 52.0787 92.0637 51.2041 92.0637 50.251C92.0637 49.2979 92.2391 48.4233 92.5899 47.6271C92.9406 46.8309 93.4305 46.1372 94.0594 45.546C94.7004 44.9428 95.4503 44.4784 96.309 44.1527C97.1678 43.8269 98.1051 43.6641 99.1211 43.6641C100.149 43.6641 101.086 43.8269 101.933 44.1527C102.792 44.4784 103.536 44.9428 104.165 45.546C104.794 46.1372 105.283 46.8309 105.634 47.6271C105.997 48.4233 106.178 49.2979 106.178 50.251C106.178 51.2041 105.997 52.0847 105.634 52.893C105.283 53.6892 104.794 54.3829 104.165 54.9741C103.536 55.5652 102.792 56.0236 101.933 56.3493C101.086 56.6751 100.149 56.8379 99.1211 56.8379ZM99.1211 53.8702C99.6049 53.8702 100.052 53.7858 100.464 53.6169C100.887 53.448 101.25 53.2067 101.552 52.893C101.867 52.5673 102.108 52.1812 102.278 51.7349C102.459 51.2885 102.55 50.7939 102.55 50.251C102.55 49.6961 102.459 49.2014 102.278 48.7671C102.108 48.3208 101.867 47.9407 101.552 47.6271C101.25 47.3014 100.887 47.054 100.464 46.8851C100.052 46.7163 99.6049 46.6318 99.1211 46.6318C98.6373 46.6318 98.1837 46.7163 97.7604 46.8851C97.3492 47.054 96.9863 47.3014 96.6719 47.6271C96.3695 47.9407 96.1276 48.3208 95.9462 48.7671C95.7769 49.2014 95.6922 49.6961 95.6922 50.251C95.6922 50.7939 95.7769 51.2885 95.9462 51.7349C96.1276 52.1812 96.3695 52.5673 96.6719 52.893C96.9863 53.2067 97.3492 53.448 97.7604 53.6169C98.1837 53.7858 98.6373 53.8702 99.1211 53.8702Z"/>
        <path d="M111.87 56.5846V43.9174H117.675C118.836 43.9174 119.834 44.1044 120.669 44.4784C121.515 44.8524 122.168 45.3952 122.628 46.107C123.088 46.8067 123.317 47.6391 123.317 48.6043C123.317 49.5573 123.088 50.3837 122.628 51.0834C122.168 51.7831 121.515 52.326 120.669 52.7121C119.834 53.086 118.836 53.273 117.675 53.273H113.865L115.462 51.7168V56.5846H111.87ZM115.462 52.0968L113.865 50.4501H117.457C118.207 50.4501 118.764 50.2872 119.127 49.9615C119.501 49.6357 119.689 49.1833 119.689 48.6043C119.689 48.0131 119.501 47.5547 119.127 47.229C118.764 46.9032 118.207 46.7404 117.457 46.7404H113.865L115.462 45.0936V52.0968Z"/>
        <path d="M132.181 48.8214H138.077V51.4996H132.181V48.8214ZM132.435 53.8159H139.075V56.5846H128.879V43.9174H138.839V46.6861H132.435V53.8159Z"/>
    </mask>
    <path d="M44.7081 48.8214H50.6044V51.4996H44.7081V48.8214ZM44.9621 53.8159H51.6022V56.5846H41.4062V43.9174H51.3663V46.6861H44.9621V53.8159Z" fill="white"/>
    <path d="M63.2654 56.8379C61.3907 56.8379 59.9272 56.3252 58.8749 55.2998C57.8227 54.2743 57.2966 52.8206 57.2966 50.9386V43.9174H60.8887V50.8301C60.8887 51.9158 61.1004 52.694 61.5237 53.1645C61.9591 53.635 62.5518 53.8702 63.3017 53.8702C64.0515 53.8702 64.6381 53.635 65.0614 53.1645C65.4848 52.694 65.6964 51.9158 65.6964 50.8301V43.9174H69.2342V50.9386C69.2342 52.8206 68.708 54.2743 67.6558 55.2998C66.6035 56.3252 65.1401 56.8379 63.2654 56.8379Z" fill="white"/>
    <path d="M75.4775 56.5846V43.9174H81.283C82.4441 43.9174 83.4419 44.1044 84.2765 44.4784C85.1231 44.8524 85.7762 45.3952 86.2358 46.107C86.6954 46.8067 86.9252 47.6391 86.9252 48.6043C86.9252 49.5573 86.6954 50.3837 86.2358 51.0834C85.7762 51.7711 85.1231 52.3019 84.2765 52.6759C83.4419 53.0378 82.4441 53.2187 81.283 53.2187H77.4731L79.0697 51.7168V56.5846H75.4775ZM83.3331 56.5846L80.1763 51.9701H84.0043L87.1792 56.5846H83.3331ZM79.0697 52.0968L77.4731 50.4501H81.0653C81.8152 50.4501 82.3715 50.2872 82.7344 49.9615C83.1093 49.6357 83.2968 49.1833 83.2968 48.6043C83.2968 48.0131 83.1093 47.5547 82.7344 47.229C82.3715 46.9032 81.8152 46.7404 81.0653 46.7404H77.4731L79.0697 45.0936V52.0968Z" fill="white"/>
    <path d="M99.1211 56.8379C98.1051 56.8379 97.1678 56.6751 96.309 56.3493C95.4503 56.0236 94.7004 55.5652 94.0594 54.9741C93.4305 54.3709 92.9406 53.6711 92.5899 52.8749C92.2391 52.0787 92.0637 51.2041 92.0637 50.251C92.0637 49.2979 92.2391 48.4233 92.5899 47.6271C92.9406 46.8309 93.4305 46.1372 94.0594 45.546C94.7004 44.9428 95.4503 44.4784 96.309 44.1527C97.1678 43.8269 98.1051 43.6641 99.1211 43.6641C100.149 43.6641 101.086 43.8269 101.933 44.1527C102.792 44.4784 103.536 44.9428 104.165 45.546C104.794 46.1372 105.283 46.8309 105.634 47.6271C105.997 48.4233 106.178 49.2979 106.178 50.251C106.178 51.2041 105.997 52.0847 105.634 52.893C105.283 53.6892 104.794 54.3829 104.165 54.9741C103.536 55.5652 102.792 56.0236 101.933 56.3493C101.086 56.6751 100.149 56.8379 99.1211 56.8379ZM99.1211 53.8702C99.6049 53.8702 100.052 53.7858 100.464 53.6169C100.887 53.448 101.25 53.2067 101.552 52.893C101.867 52.5673 102.108 52.1812 102.278 51.7349C102.459 51.2885 102.55 50.7939 102.55 50.251C102.55 49.6961 102.459 49.2014 102.278 48.7671C102.108 48.3208 101.867 47.9407 101.552 47.6271C101.25 47.3014 100.887 47.054 100.464 46.8851C100.052 46.7163 99.6049 46.6318 99.1211 46.6318C98.6373 46.6318 98.1837 46.7163 97.7604 46.8851C97.3492 47.054 96.9863 47.3014 96.6719 47.6271C96.3695 47.9407 96.1276 48.3208 95.9462 48.7671C95.7769 49.2014 95.6922 49.6961 95.6922 50.251C95.6922 50.7939 95.7769 51.2885 95.9462 51.7349C96.1276 52.1812 96.3695 52.5673 96.6719 52.893C96.9863 53.2067 97.3492 53.448 97.7604 53.6169C98.1837 53.7858 98.6373 53.8702 99.1211 53.8702Z" fill="white"/>
    <path d="M111.87 56.5846V43.9174H117.675C118.836 43.9174 119.834 44.1044 120.669 44.4784C121.515 44.8524 122.168 45.3952 122.628 46.107C123.088 46.8067 123.317 47.6391 123.317 48.6043C123.317 49.5573 123.088 50.3837 122.628 51.0834C122.168 51.7831 121.515 52.326 120.669 52.7121C119.834 53.086 118.836 53.273 117.675 53.273H113.865L115.462 51.7168V56.5846H111.87ZM115.462 52.0968L113.865 50.4501H117.457C118.207 50.4501 118.764 50.2872 119.127 49.9615C119.501 49.6357 119.689 49.1833 119.689 48.6043C119.689 48.0131 119.501 47.5547 119.127 47.229C118.764 46.9032 118.207 46.7404 117.457 46.7404H113.865L115.462 45.0936V52.0968Z" fill="white"/>
    <path d="M132.181 48.8214H138.077V51.4996H132.181V48.8214ZM132.435 53.8159H139.075V56.5846H128.879V43.9174H138.839V46.6861H132.435V53.8159Z" fill="white"/>
    <path d="M44.7081 48.8214H50.6044V51.4996H44.7081V48.8214ZM44.9621 53.8159H51.6022V56.5846H41.4062V43.9174H51.3663V46.6861H44.9621V53.8159Z" stroke="#25B1FF" stroke-width="1.6" mask="url(#path-5-outside-1_172_1087)"/>
    <path d="M63.2654 56.8379C61.3907 56.8379 59.9272 56.3252 58.8749 55.2998C57.8227 54.2743 57.2966 52.8206 57.2966 50.9386V43.9174H60.8887V50.8301C60.8887 51.9158 61.1004 52.694 61.5237 53.1645C61.9591 53.635 62.5518 53.8702 63.3017 53.8702C64.0515 53.8702 64.6381 53.635 65.0614 53.1645C65.4848 52.694 65.6964 51.9158 65.6964 50.8301V43.9174H69.2342V50.9386C69.2342 52.8206 68.708 54.2743 67.6558 55.2998C66.6035 56.3252 65.1401 56.8379 63.2654 56.8379Z" stroke="#25B1FF" stroke-width="1.6" mask="url(#path-5-outside-1_172_1087)"/>
    <path d="M75.4775 56.5846V43.9174H81.283C82.4441 43.9174 83.4419 44.1044 84.2765 44.4784C85.1231 44.8524 85.7762 45.3952 86.2358 46.107C86.6954 46.8067 86.9252 47.6391 86.9252 48.6043C86.9252 49.5573 86.6954 50.3837 86.2358 51.0834C85.7762 51.7711 85.1231 52.3019 84.2765 52.6759C83.4419 53.0378 82.4441 53.2187 81.283 53.2187H77.4731L79.0697 51.7168V56.5846H75.4775ZM83.3331 56.5846L80.1763 51.9701H84.0043L87.1792 56.5846H83.3331ZM79.0697 52.0968L77.4731 50.4501H81.0653C81.8152 50.4501 82.3715 50.2872 82.7344 49.9615C83.1093 49.6357 83.2968 49.1833 83.2968 48.6043C83.2968 48.0131 83.1093 47.5547 82.7344 47.229C82.3715 46.9032 81.8152 46.7404 81.0653 46.7404H77.4731L79.0697 45.0936V52.0968Z" stroke="#25B1FF" stroke-width="1.6" mask="url(#path-5-outside-1_172_1087)"/>
    <path d="M99.1211 56.8379C98.1051 56.8379 97.1678 56.6751 96.309 56.3493C95.4503 56.0236 94.7004 55.5652 94.0594 54.9741C93.4305 54.3709 92.9406 53.6711 92.5899 52.8749C92.2391 52.0787 92.0637 51.2041 92.0637 50.251C92.0637 49.2979 92.2391 48.4233 92.5899 47.6271C92.9406 46.8309 93.4305 46.1372 94.0594 45.546C94.7004 44.9428 95.4503 44.4784 96.309 44.1527C97.1678 43.8269 98.1051 43.6641 99.1211 43.6641C100.149 43.6641 101.086 43.8269 101.933 44.1527C102.792 44.4784 103.536 44.9428 104.165 45.546C104.794 46.1372 105.283 46.8309 105.634 47.6271C105.997 48.4233 106.178 49.2979 106.178 50.251C106.178 51.2041 105.997 52.0847 105.634 52.893C105.283 53.6892 104.794 54.3829 104.165 54.9741C103.536 55.5652 102.792 56.0236 101.933 56.3493C101.086 56.6751 100.149 56.8379 99.1211 56.8379ZM99.1211 53.8702C99.6049 53.8702 100.052 53.7858 100.464 53.6169C100.887 53.448 101.25 53.2067 101.552 52.893C101.867 52.5673 102.108 52.1812 102.278 51.7349C102.459 51.2885 102.55 50.7939 102.55 50.251C102.55 49.6961 102.459 49.2014 102.278 48.7671C102.108 48.3208 101.867 47.9407 101.552 47.6271C101.25 47.3014 100.887 47.054 100.464 46.8851C100.052 46.7163 99.6049 46.6318 99.1211 46.6318C98.6373 46.6318 98.1837 46.7163 97.7604 46.8851C97.3492 47.054 96.9863 47.3014 96.6719 47.6271C96.3695 47.9407 96.1276 48.3208 95.9462 48.7671C95.7769 49.2014 95.6922 49.6961 95.6922 50.251C95.6922 50.7939 95.7769 51.2885 95.9462 51.7349C96.1276 52.1812 96.3695 52.5673 96.6719 52.893C96.9863 53.2067 97.3492 53.448 97.7604 53.6169C98.1837 53.7858 98.6373 53.8702 99.1211 53.8702Z" stroke="#25B1FF" stroke-width="1.6" mask="url(#path-5-outside-1_172_1087)"/>
    <path d="M111.87 56.5846V43.9174H117.675C118.836 43.9174 119.834 44.1044 120.669 44.4784C121.515 44.8524 122.168 45.3952 122.628 46.107C123.088 46.8067 123.317 47.6391 123.317 48.6043C123.317 49.5573 123.088 50.3837 122.628 51.0834C122.168 51.7831 121.515 52.326 120.669 52.7121C119.834 53.086 118.836 53.273 117.675 53.273H113.865L115.462 51.7168V56.5846H111.87ZM115.462 52.0968L113.865 50.4501H117.457C118.207 50.4501 118.764 50.2872 119.127 49.9615C119.501 49.6357 119.689 49.1833 119.689 48.6043C119.689 48.0131 119.501 47.5547 119.127 47.229C118.764 46.9032 118.207 46.7404 117.457 46.7404H113.865L115.462 45.0936V52.0968Z" stroke="#25B1FF" stroke-width="1.6" mask="url(#path-5-outside-1_172_1087)"/>
    <path d="M132.181 48.8214H138.077V51.4996H132.181V48.8214ZM132.435 53.8159H139.075V56.5846H128.879V43.9174H138.839V46.6861H132.435V53.8159Z" stroke="#25B1FF" stroke-width="1.6" mask="url(#path-5-outside-1_172_1087)"/>
</svg>
