<svg width="248" height="57" viewBox="0 0 248 57" fill="none" xmlns="http://www.w3.org/2000/svg">
    <path d="M40.6382 56.4375C39.8093 56.3381 38.9772 56.2599 38.1526 56.1352C27.3918 54.498 20.3246 48.4903 17.0143 38.1386C15.6374 33.8336 15.385 29.3892 15.8021 24.9003C16.14 21.2665 16.9847 17.7659 18.5929 14.482C22.1808 7.15417 28.0232 2.678 35.9953 1.0799C41.5061 -0.0256665 46.9937 0.277677 52.3239 2.13051C59.0828 4.4801 63.5103 9.18351 65.8671 15.8888C66.1226 16.616 66.3327 17.3611 66.5407 18.1041C66.7318 18.7848 66.5407 19.0374 65.8533 19.0374C62.4237 19.0406 58.9941 19.0406 55.5645 19.0374C54.9246 19.0374 54.6955 18.8493 54.4886 18.176C53.8159 15.9892 52.76 14.0286 51.0568 12.4643C49.1763 10.7372 46.9092 9.87159 44.4088 9.5545C41.6434 9.2036 38.9318 9.37376 36.3438 10.5005C32.9321 11.9865 30.814 14.6722 29.4518 18.0344C28.4667 20.4664 27.9957 23.0179 27.7972 25.6201C27.5333 29.0721 27.6737 32.5019 28.5005 35.8799C29.0823 38.2559 30.003 40.4829 31.5035 42.4393C33.42 44.9379 35.9256 46.5159 39.01 47.1543C41.5104 47.6722 44.0139 47.6553 46.4816 46.9979C51.0135 45.7898 53.6892 42.768 54.762 38.2781C55.0334 37.144 55.1305 35.9687 55.3217 34.7215H54.5646C50.4317 34.7215 46.2979 34.7215 42.165 34.7215C41.4122 34.7215 41.22 34.5397 41.2189 33.7998C41.2147 31.5496 41.2147 29.2993 41.2189 27.0491C41.22 26.3547 41.4364 26.1422 42.1418 26.1422C50.3726 26.1401 58.6045 26.1401 66.8353 26.1422C67.4826 26.1422 67.7571 26.3674 67.7571 26.9508C67.7614 32.0019 67.2862 36.9865 65.5302 41.7713C63.7679 46.5751 60.8789 50.4848 56.3945 53.0997C53.4971 54.7887 50.343 55.6987 47.0349 56.1183C46.0655 56.2409 45.092 56.3318 44.1195 56.4375H40.6361H40.6382Z" fill="white"/>
    <path d="M247.192 54.6434C246.989 54.9763 246.695 55.0725 246.308 55.0725C235.456 55.064 224.605 55.0661 213.753 55.0651C212.988 55.0651 212.865 54.9383 212.871 54.173C212.918 47.9698 212.966 41.7655 213.011 35.5623C213.038 31.6971 213.082 27.8307 213.075 23.9644C213.069 19.9227 213.014 15.8809 212.975 11.8391C212.944 8.71162 212.904 5.58412 212.871 2.45661C212.864 1.78968 212.993 1.66602 213.68 1.66602C224.355 1.66602 235.032 1.66602 245.707 1.66602C246.412 1.66602 246.538 1.79179 246.539 2.49255C246.541 3.8465 246.541 5.19939 246.539 6.55334C246.539 7.28158 246.42 7.39784 245.672 7.39784C237.423 7.39784 229.175 7.39784 220.926 7.39784H220.142C220.066 12.8105 219.991 18.1924 219.914 23.6791C220.173 23.6791 220.408 23.6791 220.645 23.6791C228.278 23.6791 235.911 23.6791 243.545 23.6791C243.738 23.6791 243.931 23.6833 244.124 23.6928C244.51 23.7108 244.704 23.9306 244.705 24.3027C244.71 25.8141 244.711 27.3266 244.703 28.838C244.7 29.321 244.395 29.4362 243.96 29.4352C241.497 29.4246 239.035 29.4299 236.572 29.4299C231.243 29.4299 225.914 29.4299 220.585 29.4299H219.915C219.99 36.0665 220.065 42.647 220.14 49.3153H220.901C229.343 49.3153 237.785 49.3174 246.227 49.31C246.612 49.31 246.95 49.3491 247.188 49.6852V54.6434H247.192Z" fill="white"/>
    <path d="M104.618 26.7553C105.169 26.9223 105.64 27.0534 106.102 27.2077C109.27 28.2594 111.932 29.9822 113.629 32.9554C114.804 35.0143 115.208 37.2561 115.134 39.5994C115.018 43.2469 113.956 46.5446 111.464 49.2873C109.339 51.6285 106.657 53.0765 103.675 54.0182C100.799 54.9262 97.8408 55.2707 94.8377 55.2739C87.2035 55.2813 79.5693 55.2771 71.935 55.276C71.0132 55.276 70.8242 55.0868 70.8242 54.1662C70.8242 37.0236 70.8242 19.882 70.8242 2.73939C70.8242 1.80927 71.0016 1.63065 71.9329 1.63065C79.5672 1.63065 87.2014 1.61162 94.8356 1.63805C98.5461 1.65073 102.203 2.07245 105.682 3.47819C107.953 4.39562 109.954 5.69778 111.444 7.68062C113.375 10.2501 113.876 13.1926 113.625 16.3159C113.421 18.8525 112.621 21.1577 110.882 23.0708C109.314 24.7968 107.326 25.8464 105.146 26.5778C105 26.6264 104.853 26.675 104.618 26.7532V26.7553ZM82.3695 31.3647V46.7834H83.0928C87.2246 46.7834 91.3554 46.7898 95.4871 46.776C96.0806 46.7739 96.6824 46.7179 97.2653 46.608C100.309 46.0341 102.352 44.1537 102.834 41.2577C103.044 39.9968 103.042 38.6534 102.869 37.3851C102.364 33.6815 99.8385 31.4218 96.1069 31.3605C91.5729 31.2854 87.0367 31.3372 82.5005 31.3351C82.4677 31.3351 82.434 31.3499 82.3685 31.3657L82.3695 31.3647ZM82.3579 23.6099H83.0063C87.0673 23.6099 91.1273 23.613 95.1883 23.6056C95.6255 23.6056 96.0668 23.576 96.4997 23.5169C99.0392 23.1659 100.994 21.5816 101.362 19.2901C101.579 17.9446 101.515 16.5251 101.379 15.1585C101.264 13.999 100.693 12.9527 99.8554 12.0965C98.639 10.8515 97.0974 10.4932 95.428 10.4932C91.2614 10.4932 87.0958 10.4932 82.9292 10.4932C82.7423 10.4932 82.5554 10.509 82.3558 10.5185V23.6078L82.3579 23.6099Z" fill="white"/>
    <path d="M186.968 48.9806C187.466 47.4734 187.932 46.0666 188.394 44.6598C192.414 32.4246 196.434 20.1883 200.454 7.95207C201.067 6.08445 201.699 4.22316 202.293 2.35025C202.455 1.84292 202.748 1.65795 203.259 1.66218C205.071 1.67592 206.883 1.66641 208.695 1.66852C209.419 1.66852 209.53 1.82812 209.287 2.53099C208.004 6.22819 206.715 9.92328 205.432 13.6205C200.738 27.1473 196.044 40.6752 191.351 54.203C191.087 54.964 190.947 55.0665 190.127 55.0676C187.699 55.0676 185.272 55.0591 182.844 55.0739C182.276 55.0771 181.946 54.8848 181.748 54.3193C175.712 37.0424 169.662 19.7709 163.615 2.49717C163.382 1.83235 163.498 1.66958 164.197 1.66958C166.255 1.66746 168.313 1.66852 170.371 1.66958C171.154 1.66958 171.258 1.74462 171.504 2.4866C175.659 15.0114 179.815 27.5362 183.97 40.0621C184.898 42.8599 185.823 45.6587 186.751 48.4553C186.799 48.6001 186.866 48.7386 186.967 48.9828L186.968 48.9806Z" fill="white"/>
    <path d="M125.497 49.3155C125.81 49.3155 126.035 49.3155 126.26 49.3155C133.806 49.3155 141.353 49.3155 148.899 49.3155C149.766 49.3155 149.86 49.4106 149.861 50.2857C149.861 51.6048 149.866 52.9228 149.86 54.2419C149.858 54.8909 149.689 55.0631 149.054 55.0642C139.079 55.0663 129.105 55.0663 119.131 55.0642C118.468 55.0642 118.318 54.9152 118.322 54.2641C118.361 48.5164 118.408 42.7687 118.443 37.0211C118.473 31.8885 118.51 26.757 118.508 21.6245C118.506 17.811 118.446 13.9965 118.409 10.1831C118.384 7.61785 118.349 5.05158 118.323 2.48637C118.316 1.77399 118.43 1.66829 119.151 1.66724C121.016 1.66618 122.881 1.66512 124.745 1.66724C125.384 1.66724 125.519 1.81732 125.514 2.44726C125.5 4.01154 125.49 5.57583 125.481 7.14116C125.446 14.2428 125.396 21.3444 125.381 28.446C125.373 32.5597 125.421 36.6733 125.447 40.7859C125.462 43.3701 125.481 45.9533 125.498 48.5376C125.5 48.7785 125.498 49.0195 125.498 49.3155H125.497Z" fill="white"/>
    <path d="M12.3113 55.2659H0.462891V15.7266H12.3123V55.2659H12.3113Z" fill="white"/>
    <path d="M153.146 24.6013C153.146 17.2196 153.146 9.83788 153.146 2.45722C153.146 1.62435 153.15 1.62012 154.013 1.62012C155.789 1.62012 157.565 1.62012 159.341 1.62012C160.142 1.62012 160.18 1.65605 160.181 2.44242C160.181 5.16618 160.181 7.89098 160.181 10.6147C160.181 22.6005 160.181 34.5874 160.181 46.5731C160.181 46.7666 160.237 46.9896 160.159 47.1449C160.068 47.3257 159.861 47.572 159.701 47.5741C157.679 47.6026 155.657 47.591 153.635 47.5942C153.229 47.5942 153.139 47.3585 153.143 47.0097C153.151 46.0077 153.146 45.0057 153.146 44.0048C153.146 37.5373 153.146 31.0698 153.146 24.6024V24.6013Z" fill="#FF4A1D"/>
    <path d="M12.3237 11.6608H0.453125V1.61133H12.3237V11.6618V11.6608Z" fill="white"/>
    <path d="M156.637 55.1738C155.67 55.1738 154.702 55.1632 153.734 55.178C153.303 55.1844 153.138 55.0068 153.141 54.5798C153.152 52.9627 153.157 51.3445 153.139 49.7274C153.133 49.257 153.352 49.1027 153.777 49.1027C155.694 49.1059 157.612 49.1091 159.529 49.1006C160.001 49.0985 160.189 49.3035 160.185 49.7707C160.172 51.353 160.171 52.9352 160.185 54.5175C160.19 55.0227 159.981 55.196 159.485 55.1812C158.536 55.1537 157.585 55.1728 156.635 55.1728L156.637 55.1738Z" fill="#FF4A1D"/>
</svg>
